<svg xmlns="http://www.w3.org/2000/svg" viewBox="0 0 284.98 85.18"><defs><style>.cls-1{font-size:9.53px;font-family:MyriadPro-Bold, Myriad Pro;letter-spacing:0.02em;}.cls-1,.cls-7{fill:#f1f2f2;}.cls-2,.cls-3,.cls-4,.cls-5{font-weight:700;}.cls-3{letter-spacing:0.03em;}.cls-4{letter-spacing:0.02em;}.cls-5{letter-spacing:-0.07em;}.cls-6{font-family:MyriadPro-Regular, Myriad Pro;letter-spacing:0.02em;}</style></defs><title>light</title><g id="Layer_2" data-name="Layer 2"><g id="Layer_5" data-name="Layer 5"><text class="cls-1" transform="translate(54.59 82.8)"><tspan class="cls-2">W</tspan><tspan class="cls-3" x="8.62" y="0">O</tspan><tspan class="cls-4" x="15.69" y="0">R</tspan><tspan class="cls-3" x="21.54" y="0">CESTER PO</tspan><tspan class="cls-5" x="69.82" y="0">L</tspan><tspan class="cls-3" x="74.07" y="0">YTECHNIC INSTITUTE</tspan><tspan class="cls-6" x="167.9" y="0" xml:space="preserve"> CHAPTER</tspan></text><g id="AIAA_Logo" data-name="AIAA Logo"><polygon class="cls-7" points="273.42 45.35 272.35 43.96 262.55 43.96 262.75 45.35 273.42 45.35"/><polygon class="cls-7" points="276.34 49.19 275.24 47.75 263.11 47.75 263.35 49.19 276.34 49.19"/><polygon class="cls-7" points="279.21 53 278.13 51.56 263.67 51.56 263.88 53 279.21 53"/><polygon class="cls-7" points="282.12 56.81 281.17 55.39 264.26 55.39 264.45 56.81 282.12 56.81"/><polygon class="cls-7" points="264.72 59.22 264.97 60.59 284.98 60.59 284.01 59.22 264.72 59.22"/><path class="cls-7" d="M30.08,31A14.64,14.64,0,1,1,15.44,45.68,14.64,14.64,0,0,1,30.08,31"/><path class="cls-7" d="M60,9.73h3.4L53.76,0,43.89,9.73h3.94V21.33A30.12,30.12,0,0,0,36.31,16.1V13.25L27,21.8V15.59a30,30,0,1,0,33.1,29.85q0-.71,0-1.41ZM30,62.51A16.94,16.94,0,0,1,13.07,45.56c0-8.61,6.6-15,13.89-16.52V23.3l8.62,9.49V29.56A16.94,16.94,0,0,1,30,62.51"/><path class="cls-7" d="M259.62,60.65l.95,5.84c.78,3.87,2.95,5,3.07,5.05v.39H239.23v-.39a2.12,2.12,0,0,0,2-2.63l-1.09-8.26Z"/><path class="cls-7" d="M212.7,43.9l16.47-28.41c.78-1.36,2.25-3.69-1.32-5.11V10h23.58l5.49,33.86H238l-2-15-8.08,15Z"/><polygon class="cls-7" points="257.57 47.7 257.15 45.39 211.86 45.39 210.52 47.7 257.57 47.7"/><polygon class="cls-7" points="258.12 51.52 257.8 49.2 209.66 49.2 208.27 51.52 258.12 51.52"/><polygon class="cls-7" points="258.78 55.33 258.44 53.02 207.53 53.02 206.07 55.33 258.78 55.33"/><polygon class="cls-7" points="259.38 59.14 259.05 56.82 205.25 56.82 203.89 59.14 259.38 59.14"/><path class="cls-7" d="M124.35,43.9l6-28.41c.17-.83,1.23-4.09-1.32-5.11V10h24.67v.39c-1.55.58-3.35,3.4-3.74,5.64L144.43,43.9Z"/><polygon class="cls-7" points="143.67 47.7 144.16 45.39 124.05 45.39 123.55 47.7 143.67 47.7"/><polygon class="cls-7" points="142.91 51.52 143.4 49.2 123.25 49.2 122.75 51.52 142.91 51.52"/><polygon class="cls-7" points="142.16 55.33 142.64 53.02 122.44 53.02 121.93 55.33 142.16 55.33"/><polygon class="cls-7" points="141.35 59.14 141.88 56.82 121.64 56.82 121.08 59.14 141.35 59.14"/><path class="cls-7" d="M215.85,66.49,219,60.66H203.06l-.47.8-.13-.8H183l1.09,8.26a2.12,2.12,0,0,1-2,2.63v.39h35v-.39c-2.14-.77-2.87-1.94-1.22-5.05"/><path class="cls-7" d="M154.9,43.9,172,15.49c.79-1.36,2.24-3.69-1.31-5.11V10h23.57l5.49,33.86H180.83l-2-15-8.08,15Z"/><polygon class="cls-7" points="200.41 47.7 199.98 45.39 153.97 45.39 152.63 47.7 200.41 47.7"/><polygon class="cls-7" points="200.97 51.52 200.63 49.2 151.59 49.2 150.2 51.52 200.97 51.52"/><polygon class="cls-7" points="201.62 55.33 201.28 53.02 149.37 53.02 147.9 55.33 201.62 55.33"/><polygon class="cls-7" points="202.21 59.14 201.88 56.82 147.09 56.82 145.73 59.14 202.21 59.14"/><path class="cls-7" d="M158.69,66.49l3.15-5.83h-17l-5.54,9.1,1.85-9.14-20.29,0-.64,3-.48-3H100.27l1.09,8.26a2.12,2.12,0,0,1-2,2.63v.39h14.77l23.79,0h21.64l.38-.43c-2.14-.77-2.87-1.94-1.21-5.05"/><path class="cls-7" d="M79.09,60.66l-3.15,5.83c-1.66,3.11-.93,4.28,1.21,5.05v.39H54.59v-.39c1.75,0,3.84-2.77,5.69-6l2.87-4.91Z"/><path class="cls-7" d="M72.79,43.9,89.26,15.49c.79-1.36,2.24-3.69-1.31-5.11V10h23.58L117,43.9H98.08l-2-15L88,43.9Z"/><polygon class="cls-7" points="117.66 47.7 117.23 45.39 71.95 45.39 70.61 47.7 117.66 47.7"/><polygon class="cls-7" points="118.21 51.52 117.89 49.2 69.75 49.2 68.36 51.52 118.21 51.52"/><polygon class="cls-7" points="118.87 55.33 118.53 53.02 67.62 53.02 66.16 55.33 118.87 55.33"/><polygon class="cls-7" points="119.46 59.14 119.14 56.82 65.34 56.82 63.98 59.14 119.46 59.14"/></g></g></g></svg>