<svg id="Layer_1" data-name="Layer 1" xmlns="http://www.w3.org/2000/svg" xmlns:xlink="http://www.w3.org/1999/xlink" viewBox="0 0 288 276.05"><defs><style>.cls-1{fill:none;}.cls-2{clip-path:url(#clip-path);}.cls-3{fill:#fff;}.cls-4{clip-path:url(#clip-path-3);}.cls-5{fill:#000001;}</style><clipPath id="clip-path"><rect class="cls-1" y="169.12" width="288" height="106.94"/></clipPath><clipPath id="clip-path-3"><rect class="cls-1" x="72.5" width="144" height="144"/></clipPath></defs><title>AIAA_Logo_RGB_V_W</title><g id="aiaa_logo_r"><g class="cls-2"><polygon class="cls-3" points="267.45 212.09 266.14 210.4 254.21 210.4 254.46 212.09 267.45 212.09"/><polygon class="cls-3" points="271 216.76 269.66 215 254.9 215 255.19 216.76 271 216.76"/><polygon class="cls-3" points="274.5 221.41 273.18 219.65 255.59 219.65 255.84 221.41 274.5 221.41"/><polygon class="cls-3" points="278.03 226.04 276.88 224.31 256.3 224.31 256.53 226.04 278.03 226.04"/><polygon class="cls-3" points="281.52 230.64 280.34 228.97 256.86 228.97 257.16 230.64 281.52 230.64"/><g class="cls-2"><path class="cls-3" d="M250.65,230.71l1.15,7.1c.94,4.72,3.59,6.1,3.73,6.15v.48H225.83V244a2.58,2.58,0,0,0,2.49-3.2L227,230.71Z"/><path class="cls-3" d="M193.54,210.33l20-34.58c1-1.66,2.73-4.49-1.6-6.22v-.41h28.7l6.69,41.21h-23l-2.4-18.25-9.83,18.25Z"/><polygon class="cls-3" points="248.16 214.96 247.64 212.14 192.53 212.14 190.89 214.96 248.16 214.96"/><polygon class="cls-3" points="248.83 219.6 248.43 216.78 189.84 216.78 188.15 219.6 248.83 219.6"/><polygon class="cls-3" points="249.63 224.24 249.22 221.42 187.25 221.42 185.47 224.24 249.63 224.24"/><polygon class="cls-3" points="250.36 228.88 249.96 226.06 184.47 226.06 182.82 228.88 250.36 228.88"/><path class="cls-3" d="M86,210.33l7.33-34.58c.21-1,1.5-5-1.6-6.22v-.41h30v.47c-1.89.71-4.08,4.14-4.56,6.86l-6.76,33.87Z"/><polygon class="cls-3" points="109.53 214.96 110.13 212.14 85.64 212.14 85.03 214.96 109.53 214.96"/><polygon class="cls-3" points="108.6 219.6 109.2 216.78 84.67 216.78 84.06 219.6 108.6 219.6"/><polygon class="cls-3" points="107.69 224.24 108.27 221.42 83.69 221.42 83.06 224.24 107.69 224.24"/><polygon class="cls-3" points="106.7 228.88 107.35 226.06 82.72 226.06 82.03 228.88 106.7 228.88"/><path class="cls-3" d="M197.37,237.82l3.84-7.09h-19.4l-.57,1-.16-1H157.41l1.33,10.06a2.58,2.58,0,0,1-2.49,3.2v.48h42.6V244c-2.6-.94-3.49-2.37-1.48-6.15"/><path class="cls-3" d="M123.19,210.33,144,175.75c1-1.66,2.73-4.49-1.59-6.22v-.41h28.69l6.68,41.21h-23l-2.4-18.25-9.83,18.25Z"/><polygon class="cls-3" points="178.58 214.96 178.06 212.14 122.06 212.14 120.44 214.96 178.58 214.96"/><polygon class="cls-3" points="179.26 219.6 178.86 216.78 119.17 216.78 117.47 219.6 179.26 219.6"/><polygon class="cls-3" points="180.05 224.24 179.64 221.42 116.46 221.42 114.68 224.24 180.05 224.24"/><polygon class="cls-3" points="180.78 228.88 180.38 226.06 113.69 226.06 112.03 228.88 180.78 228.88"/><path class="cls-3" d="M127.8,237.82l3.83-7.09H110.91l-6.75,11.08,2.25-11.13-24.69.06L81,234.33l-.59-3.61H56.7L58,240.77a2.58,2.58,0,0,1-2.49,3.2v.48h18l29,0h26.35l.46-.53c-2.6-.94-3.49-2.37-1.48-6.15"/><path class="cls-3" d="M30.92,230.73l-3.83,7.09c-2,3.79-1.13,5.21,1.47,6.15v.48H1.1V244c2.13,0,4.68-3.37,6.92-7.28l3.49-6Z"/><path class="cls-3" d="M23.25,210.33l20-34.58c1-1.66,2.73-4.49-1.6-6.22v-.41H70.39l6.68,41.21H54l-2.4-18.25-9.83,18.25Z"/><polygon class="cls-3" points="77.86 214.96 77.34 212.14 22.23 212.14 20.6 214.96 77.86 214.96"/><polygon class="cls-3" points="78.54 219.6 78.14 216.78 19.55 216.78 17.86 219.6 78.54 219.6"/><polygon class="cls-3" points="79.33 224.24 78.92 221.42 16.96 221.42 15.18 224.24 79.33 224.24"/><polygon class="cls-3" points="80.06 228.88 79.67 226.06 14.18 226.06 12.53 228.88 80.06 228.88"/><path class="cls-3" d="M2.74,262.4,0,250.84H2.79l.87,4.77c.26,1.37.5,2.86.68,4h0c.19-1.25.46-2.64.75-4.06l1-4.73H8.87l.92,4.87c.26,1.35.44,2.59.62,3.88h0c.17-1.29.43-2.64.67-4l.94-4.73h2.65l-3,11.56H8.91l-1-5c-.22-1.17-.41-2.25-.55-3.57h0c-.21,1.3-.39,2.4-.67,3.57l-1.09,5Z"/><path class="cls-3" d="M26.47,256.5c0,3.79-2.29,6.09-5.66,6.09s-5.42-2.59-5.42-5.88c0-3.46,2.21-6.05,5.61-6.05s5.47,2.66,5.47,5.85m-8.33.15c0,2.26,1.06,3.86,2.8,3.86s2.77-1.68,2.77-3.93c0-2.08-1-3.86-2.79-3.86s-2.79,1.68-2.79,3.93"/><path class="cls-3" d="M28.17,251a22.82,22.82,0,0,1,3.47-.24,5.87,5.87,0,0,1,3.73.91,2.94,2.94,0,0,1,1.06,2.42,3.07,3.07,0,0,1-2,2.85V257a2.92,2.92,0,0,1,1.54,2.16c.36,1.3.72,2.81.94,3.26H34.21a14.56,14.56,0,0,1-.8-2.69c-.31-1.44-.8-1.83-1.86-1.85h-.79v4.54H28.17Zm2.58,5h1c1.3,0,2.07-.65,2.07-1.66s-.72-1.6-1.91-1.61a6.54,6.54,0,0,0-1.18.09Z"/><path class="cls-3" d="M46.71,262.07a7.42,7.42,0,0,1-3,.5c-4,0-6-2.49-6-5.78,0-3.94,2.8-6.14,6.29-6.14a6.78,6.78,0,0,1,2.84.51l-.53,2.07a5.63,5.63,0,0,0-2.19-.43,3.8,3.8,0,0,0,0,7.6,6.51,6.51,0,0,0,2.17-.38Z"/><polygon class="cls-3" points="55.27 257.51 51.03 257.51 51.03 260.25 55.77 260.25 55.77 262.4 48.41 262.4 48.41 250.84 55.53 250.84 55.53 252.98 51.03 252.98 51.03 255.38 55.27 255.38 55.27 257.51"/><path class="cls-3" d="M57.63,259.7a6.63,6.63,0,0,0,2.89.72c1.2,0,1.83-.5,1.83-1.25s-.55-1.13-1.93-1.63c-1.91-.67-3.16-1.73-3.16-3.41,0-2,1.64-3.48,4.36-3.48a7,7,0,0,1,2.94.58L64,253.34a5.46,5.46,0,0,0-2.41-.55c-1.13,0-1.68.51-1.68,1.11s.65,1.06,2.14,1.63c2,.75,3,1.82,3,3.45,0,1.94-1.49,3.58-4.65,3.58a7.52,7.52,0,0,1-3.27-.7Z"/><polygon class="cls-3" points="69 253.03 65.9 253.03 65.9 250.84 74.76 250.84 74.76 253.03 71.61 253.03 71.61 262.4 69 262.4 69 253.03"/><polygon class="cls-3" points="83 257.51 78.76 257.51 78.76 260.25 83.49 260.25 83.49 262.4 76.14 262.4 76.14 250.84 83.25 250.84 83.25 252.98 78.76 252.98 78.76 255.38 83 255.38 83 257.51"/><path class="cls-3" d="M85.27,251a22.82,22.82,0,0,1,3.47-.24,5.87,5.87,0,0,1,3.73.91,2.94,2.94,0,0,1,1.06,2.42,3.07,3.07,0,0,1-2,2.85V257A2.92,2.92,0,0,1,93,259.14c.36,1.3.72,2.81.94,3.26H91.31a14.56,14.56,0,0,1-.8-2.69c-.31-1.44-.8-1.83-1.86-1.85h-.79v4.54H85.27Zm2.58,5h1c1.3,0,2.07-.65,2.07-1.66s-.72-1.6-1.91-1.61a6.54,6.54,0,0,0-1.18.09Z"/><path class="cls-3" d="M98.86,251a21.25,21.25,0,0,1,3.52-.24,5.51,5.51,0,0,1,3.52.93,3.38,3.38,0,0,1,1.23,2.67,3.7,3.7,0,0,1-1.06,2.74,5.33,5.33,0,0,1-3.74,1.22,6.55,6.55,0,0,1-.89-.05v4.13H98.86Zm2.58,5.25a4,4,0,0,0,.87.07c1.39,0,2.24-.7,2.24-1.89s-.74-1.7-2-1.7a4.41,4.41,0,0,0-1.08.1Z"/><path class="cls-3" d="M119.34,256.5c0,3.79-2.29,6.09-5.66,6.09s-5.42-2.59-5.42-5.88c0-3.46,2.21-6.05,5.61-6.05s5.47,2.66,5.47,5.85m-8.33.15c0,2.26,1.06,3.86,2.8,3.86s2.77-1.68,2.77-3.93c0-2.08-1-3.86-2.79-3.86S111,254.4,111,256.65"/><polygon class="cls-3" points="121.05 250.84 123.67 250.84 123.67 260.2 128.25 260.2 128.25 262.4 121.05 262.4 121.05 250.84"/><path class="cls-3" d="M130.91,262.4v-4.73l-3.64-6.83h3l1.18,2.78c.36.84.6,1.46.89,2.21h0c.26-.72.53-1.39.87-2.21l1.16-2.78h2.92l-3.8,6.74v4.82Z"/><polygon class="cls-3" points="140.78 253.03 137.68 253.03 137.68 250.84 146.54 250.84 146.54 253.03 143.39 253.03 143.39 262.4 140.78 262.4 140.78 253.03"/><polygon class="cls-3" points="154.78 257.51 150.54 257.51 150.54 260.25 155.28 260.25 155.28 262.4 147.92 262.4 147.92 250.84 155.03 250.84 155.03 252.98 150.54 252.98 150.54 255.38 154.78 255.38 154.78 257.51"/><path class="cls-3" d="M165.52,262.07a7.42,7.42,0,0,1-3,.5c-4,0-6-2.49-6-5.78,0-3.94,2.8-6.14,6.29-6.14a6.78,6.78,0,0,1,2.84.51l-.53,2.07a5.63,5.63,0,0,0-2.19-.43,3.8,3.8,0,0,0,0,7.6,6.51,6.51,0,0,0,2.17-.38Z"/><polygon class="cls-3" points="169.84 250.84 169.84 255.28 174.13 255.28 174.13 250.84 176.73 250.84 176.73 262.4 174.13 262.4 174.13 257.56 169.84 257.56 169.84 262.4 167.22 262.4 167.22 250.84 169.84 250.84"/><path class="cls-3" d="M179,262.4V250.84h3l2.39,4.24a33.45,33.45,0,0,1,1.88,4h.05a43.07,43.07,0,0,1-.22-4.82v-3.38h2.39V262.4h-2.74l-2.46-4.46a42.91,42.91,0,0,1-2-4.08l-.05,0c.07,1.53.1,3.16.1,5v3.48Z"/><rect class="cls-3" x="190.8" y="250.84" width="2.62" height="11.56"/><path class="cls-3" d="M204.13,262.07a7.42,7.42,0,0,1-3,.5c-4,0-6-2.49-6-5.78,0-3.94,2.8-6.14,6.29-6.14a6.78,6.78,0,0,1,2.84.51l-.53,2.07a5.63,5.63,0,0,0-2.19-.43,3.8,3.8,0,0,0,0,7.6,6.51,6.51,0,0,0,2.17-.38Z"/><rect class="cls-3" x="209.29" y="250.84" width="2.62" height="11.56"/><path class="cls-3" d="M214.17,262.4V250.84h3l2.39,4.24a33.45,33.45,0,0,1,1.88,4h.05a43.07,43.07,0,0,1-.22-4.82v-3.38h2.39V262.4H221l-2.46-4.46a42.91,42.91,0,0,1-2-4.08l-.05,0c.07,1.53.1,3.16.1,5v3.48Z"/><path class="cls-3" d="M226,259.7a6.63,6.63,0,0,0,2.89.72c1.2,0,1.83-.5,1.83-1.25s-.55-1.13-1.93-1.63c-1.91-.67-3.16-1.73-3.16-3.41,0-2,1.64-3.48,4.36-3.48a7,7,0,0,1,2.94.58l-.58,2.11a5.46,5.46,0,0,0-2.41-.55c-1.13,0-1.68.51-1.68,1.11s.65,1.06,2.14,1.63c2,.75,3,1.82,3,3.45,0,1.94-1.49,3.58-4.65,3.58a7.52,7.52,0,0,1-3.27-.7Z"/><polygon class="cls-3" points="237.41 253.03 234.32 253.03 234.32 250.84 243.18 250.84 243.18 253.03 240.03 253.03 240.03 262.4 237.41 262.4 237.41 253.03"/><rect class="cls-3" x="244.56" y="250.84" width="2.62" height="11.56"/><polygon class="cls-3" points="251.66 253.03 248.56 253.03 248.56 250.84 257.42 250.84 257.42 253.03 254.27 253.03 254.27 262.4 251.66 262.4 251.66 253.03"/><path class="cls-3" d="M261.4,250.84v6.65c0,2,.75,3,2.09,3s2.12-1,2.12-3v-6.65h2.6v6.48c0,3.57-1.8,5.26-4.8,5.26s-4.62-1.61-4.62-5.3v-6.45Z"/><polygon class="cls-3" points="272.68 253.03 269.59 253.03 269.59 250.84 278.44 250.84 278.44 253.03 275.3 253.03 275.3 262.4 272.68 262.4 272.68 253.03"/><polygon class="cls-3" points="286.68 257.51 282.44 257.51 282.44 260.25 287.18 260.25 287.18 262.4 279.83 262.4 279.83 250.84 286.94 250.84 286.94 252.98 282.44 252.98 282.44 255.38 286.68 255.38 286.68 257.51"/><path class="cls-3" d="M1.84,273.59,1,275.93H0l2.59-7.44H3.8l2.6,7.44H5.35l-.82-2.34Zm2.5-.75-.75-2.14c-.17-.49-.28-.93-.4-1.36h0c-.11.44-.24.89-.39,1.35L2,272.84Z"/><path class="cls-3" d="M13.9,272.67c-.06-1-.12-2.28-.11-3.21h0c-.26.87-.58,1.8-1,2.82l-1.35,3.61H10.7l-1.23-3.54c-.36-1-.67-2-.88-2.89h0c0,.93-.08,2.17-.15,3.29l-.2,3.19H7.28l.53-7.44H9.06l1.3,3.6c.32.92.58,1.73.77,2.5h0c.19-.75.46-1.57.8-2.5l1.36-3.6h1.26l.48,7.44h-1Z"/><polygon class="cls-3" points="20.52 272.45 17.56 272.45 17.56 275.13 20.86 275.13 20.86 275.93 16.57 275.93 16.57 268.5 20.69 268.5 20.69 269.3 17.56 269.3 17.56 271.65 20.52 271.65 20.52 272.45"/><path class="cls-3" d="M22.14,268.6a10.46,10.46,0,0,1,1.89-.16,3.17,3.17,0,0,1,2.21.61,1.83,1.83,0,0,1,.6,1.41,2,2,0,0,1-1.44,1.9v0a1.86,1.86,0,0,1,1.12,1.5,11.59,11.59,0,0,0,.59,2h-1a9.44,9.44,0,0,1-.51-1.78c-.23-1-.63-1.41-1.53-1.44h-.93v3.22h-1Zm1,3.39h1c1.05,0,1.72-.56,1.72-1.41s-.71-1.38-1.75-1.39a4.12,4.12,0,0,0-1,.09Z"/><rect class="cls-3" x="28.22" y="268.5" width="0.98" height="7.44"/><path class="cls-3" d="M36.25,275.69a5,5,0,0,1-2,.35,3.52,3.52,0,0,1-3.77-3.76,3.75,3.75,0,0,1,4-3.91,4.18,4.18,0,0,1,1.81.33l-.24.78a3.66,3.66,0,0,0-1.54-.31,2.8,2.8,0,0,0-3,3.07,2.73,2.73,0,0,0,2.93,3,4,4,0,0,0,1.61-.31Z"/><path class="cls-3" d="M38.77,273.59,38,275.93H37l2.59-7.44h1.19l2.6,7.44H42.28l-.81-2.34Zm2.5-.75-.75-2.14c-.17-.49-.28-.93-.4-1.36h0c-.11.44-.24.89-.39,1.35L39,272.84Z"/><path class="cls-3" d="M44.46,275.93V268.5h1.07L48,272.26a21,21,0,0,1,1.37,2.42h0c-.09-1-.11-1.9-.11-3.06V268.5h.93v7.44h-1l-2.42-3.77a23.45,23.45,0,0,1-1.42-2.48h0c.06.94.08,1.83.08,3.07v3.18Z"/><rect class="cls-3" x="54.3" y="268.5" width="0.98" height="7.44"/><path class="cls-3" d="M57,275.93V268.5h1.07l2.44,3.76a21,21,0,0,1,1.37,2.42h0c-.09-1-.11-1.9-.11-3.06V268.5h.93v7.44h-1l-2.42-3.77a23.45,23.45,0,0,1-1.42-2.48h0c.06.94.08,1.83.08,3.07v3.18Z"/><path class="cls-3" d="M64.31,274.76a3.55,3.55,0,0,0,1.76.49c1,0,1.59-.52,1.59-1.27s-.41-1.09-1.44-1.48c-1.24-.43-2-1.06-2-2.11s1-2,2.47-2a3.53,3.53,0,0,1,1.69.36l-.27.78a3.09,3.09,0,0,0-1.45-.35c-1,0-1.44.61-1.44,1.11,0,.7.46,1,1.52,1.43,1.29.49,1.95,1.09,1.95,2.18S67.8,276,66,276a4,4,0,0,1-1.95-.48Z"/><polygon class="cls-3" points="71.47 269.31 69.15 269.31 69.15 268.5 74.79 268.5 74.79 269.31 72.46 269.31 72.46 275.93 71.47 275.93 71.47 269.31"/><rect class="cls-3" x="75.64" y="268.5" width="0.98" height="7.44"/><polygon class="cls-3" points="79.79 269.31 77.47 269.31 77.47 268.5 83.12 268.5 83.12 269.31 80.79 269.31 80.79 275.93 79.79 275.93 79.79 269.31"/><path class="cls-3" d="M84.95,268.5v4.4c0,1.67.76,2.37,1.78,2.37s1.85-.73,1.85-2.37v-4.4h1v4.34c0,2.28-1.23,3.22-2.88,3.22S84,275.18,84,272.88V268.5Z"/><polygon class="cls-3" points="92.73 269.31 90.41 269.31 90.41 268.5 96.06 268.5 96.06 269.31 93.73 269.31 93.73 275.93 92.73 275.93 92.73 269.31"/><polygon class="cls-3" points="100.85 272.45 97.89 272.45 97.89 275.13 101.19 275.13 101.19 275.93 96.9 275.93 96.9 268.5 101.02 268.5 101.02 269.3 97.89 269.3 97.89 271.65 100.85 271.65 100.85 272.45"/><path class="cls-3" d="M111.38,272.14c0,2.56-1.59,3.92-3.54,3.92s-3.43-1.52-3.43-3.77,1.5-3.91,3.54-3.91,3.43,1.56,3.43,3.76m-5.92.12c0,1.59.88,3,2.43,3s2.44-1.4,2.44-3.09c0-1.48-.79-3-2.43-3s-2.44,1.47-2.44,3.1"/><polygon class="cls-3" points="112.66 268.5 116.77 268.5 116.77 269.3 113.64 269.3 113.64 271.77 116.53 271.77 116.53 272.57 113.64 272.57 113.64 275.93 112.66 275.93 112.66 268.5"/><path class="cls-3" d="M121.8,273.59l-.79,2.34h-1l2.59-7.44h1.19l2.6,7.44h-1.05l-.81-2.34Zm2.5-.75-.75-2.14c-.17-.49-.28-.93-.4-1.36h0c-.11.44-.24.89-.39,1.35l-.75,2.15Z"/><polygon class="cls-3" points="131.44 272.45 128.47 272.45 128.47 275.13 131.78 275.13 131.78 275.93 127.49 275.93 127.49 268.5 131.6 268.5 131.6 269.3 128.47 269.3 128.47 271.65 131.44 271.65 131.44 272.45"/><path class="cls-3" d="M133.05,268.6a10.46,10.46,0,0,1,1.89-.16,3.17,3.17,0,0,1,2.21.61,1.83,1.83,0,0,1,.6,1.41,2,2,0,0,1-1.44,1.9v0a1.86,1.86,0,0,1,1.12,1.5,11.59,11.59,0,0,0,.59,2h-1a9.45,9.45,0,0,1-.51-1.78c-.23-1-.63-1.41-1.53-1.44H134v3.22h-1Zm1,3.39h1c1.05,0,1.72-.56,1.72-1.41s-.71-1.38-1.75-1.39a4.12,4.12,0,0,0-1,.09Z"/><path class="cls-3" d="M145.69,272.14c0,2.56-1.59,3.92-3.54,3.92s-3.43-1.52-3.43-3.77,1.5-3.91,3.54-3.91,3.43,1.56,3.43,3.76m-5.92.12c0,1.59.88,3,2.43,3s2.44-1.4,2.44-3.09c0-1.48-.79-3-2.43-3s-2.44,1.47-2.44,3.1"/><path class="cls-3" d="M147,275.93V268.5H148l2.44,3.76a20.88,20.88,0,0,1,1.37,2.42h0c-.09-1-.11-1.9-.11-3.06V268.5h.93v7.44h-1l-2.42-3.77a23.45,23.45,0,0,1-1.42-2.48h0c.06.94.08,1.83.08,3.07v3.18Z"/><path class="cls-3" d="M155.64,273.59l-.79,2.34h-1l2.59-7.44h1.19l2.6,7.44h-1.05l-.81-2.34Zm2.5-.75-.75-2.14c-.17-.49-.28-.93-.4-1.36h0c-.11.44-.24.89-.38,1.35l-.75,2.15Z"/><path class="cls-3" d="M162,268.5v4.4c0,1.67.76,2.37,1.78,2.37s1.85-.73,1.85-2.37v-4.4h1v4.34c0,2.28-1.23,3.22-2.88,3.22s-2.74-.87-2.74-3.18V268.5Z"/><polygon class="cls-3" points="169.78 269.31 167.46 269.31 167.46 268.5 173.11 268.5 173.11 269.31 170.78 269.31 170.78 275.93 169.78 275.93 169.78 269.31"/><rect class="cls-3" x="173.95" y="268.5" width="0.98" height="7.44"/><path class="cls-3" d="M182,275.69a5,5,0,0,1-2,.35,3.52,3.52,0,0,1-3.77-3.76,3.75,3.75,0,0,1,4-3.91,4.18,4.18,0,0,1,1.81.33l-.24.78a3.65,3.65,0,0,0-1.54-.31,2.8,2.8,0,0,0-3,3.07,2.73,2.73,0,0,0,2.93,3,4,4,0,0,0,1.61-.31Z"/><path class="cls-3" d="M183.08,274.76a3.56,3.56,0,0,0,1.76.49c1,0,1.59-.52,1.59-1.27s-.41-1.09-1.44-1.48c-1.24-.43-2-1.06-2-2.11s1-2,2.47-2a3.53,3.53,0,0,1,1.69.36l-.27.78a3.09,3.09,0,0,0-1.45-.35c-1,0-1.44.61-1.44,1.11,0,.7.46,1,1.52,1.43,1.29.49,1.95,1.09,1.95,2.18s-.87,2.14-2.67,2.14a4,4,0,0,1-1.95-.48Z"/><path class="cls-3" d="M192.42,273.59l-.79,2.34h-1l2.59-7.44h1.19l2.6,7.44h-1.05l-.81-2.34Zm2.5-.75-.75-2.14c-.17-.49-.28-.93-.4-1.36h0c-.11.44-.24.89-.38,1.35l-.75,2.15Z"/><path class="cls-3" d="M198.11,275.93V268.5h1.07l2.44,3.76a21,21,0,0,1,1.37,2.42h0c-.09-1-.11-1.9-.11-3.06V268.5h.93v7.44h-1l-2.42-3.77a23.57,23.57,0,0,1-1.42-2.48h0c.06.94.08,1.83.08,3.07v3.18Z"/><path class="cls-3" d="M205.56,268.6a14.38,14.38,0,0,1,2.09-.15,4.44,4.44,0,0,1,3.09.93,3.39,3.39,0,0,1,1.07,2.67,3.88,3.88,0,0,1-1.1,2.89,4.77,4.77,0,0,1-3.37,1.07,16.32,16.32,0,0,1-1.79-.09Zm1,6.58a6.39,6.39,0,0,0,1,.06,2.9,2.9,0,0,0,3.25-3.16c0-1.75-1-2.87-3.09-2.87a5.69,5.69,0,0,0-1.15.1Z"/><path class="cls-3" d="M216.72,273.59l-.79,2.34h-1l2.59-7.44h1.19l2.6,7.44h-1.05l-.81-2.34Zm2.5-.75-.75-2.14c-.17-.49-.28-.93-.4-1.36h0c-.11.44-.24.89-.38,1.35l-.75,2.15Z"/><path class="cls-3" d="M222.27,274.76a3.55,3.55,0,0,0,1.76.49c1,0,1.59-.52,1.59-1.27s-.41-1.09-1.44-1.48c-1.24-.43-2-1.06-2-2.11s1-2,2.47-2a3.53,3.53,0,0,1,1.69.36l-.27.78a3.09,3.09,0,0,0-1.45-.35c-1,0-1.44.61-1.44,1.11,0,.7.46,1,1.52,1.43,1.29.49,1.95,1.09,1.95,2.18S225.77,276,224,276a4,4,0,0,1-1.95-.48Z"/><polygon class="cls-3" points="229.43 269.31 227.11 269.31 227.11 268.5 232.76 268.5 232.76 269.31 230.43 269.31 230.43 275.93 229.43 275.93 229.43 269.31"/><path class="cls-3" d="M233.61,268.6a10.46,10.46,0,0,1,1.89-.16,3.17,3.17,0,0,1,2.21.61,1.83,1.83,0,0,1,.6,1.41,2,2,0,0,1-1.44,1.9v0a1.86,1.86,0,0,1,1.12,1.5,11.63,11.63,0,0,0,.59,2h-1a9.48,9.48,0,0,1-.51-1.78c-.23-1-.63-1.41-1.53-1.44h-.93v3.22h-1Zm1,3.39h1c1.05,0,1.72-.56,1.72-1.41s-.71-1.38-1.75-1.39a4.12,4.12,0,0,0-1,.09Z"/><path class="cls-3" d="M246.24,272.14c0,2.56-1.6,3.92-3.54,3.92s-3.43-1.52-3.43-3.77,1.5-3.91,3.54-3.91,3.43,1.56,3.43,3.76m-5.92.12c0,1.59.88,3,2.43,3s2.44-1.4,2.44-3.09c0-1.48-.79-3-2.43-3s-2.44,1.47-2.44,3.1"/><path class="cls-3" d="M247.52,275.93V268.5h1.07l2.44,3.76a21,21,0,0,1,1.37,2.42h0c-.09-1-.11-1.9-.11-3.06V268.5h.93v7.44h-1l-2.42-3.77a23.57,23.57,0,0,1-1.42-2.48h0c.06.94.08,1.83.08,3.07v3.18Z"/><path class="cls-3" d="M256.19,273.59l-.79,2.34h-1L257,268.5h1.19l2.6,7.44h-1.05l-.81-2.34Zm2.5-.75-.75-2.14c-.17-.49-.28-.93-.4-1.36h0c-.11.44-.24.89-.38,1.35l-.75,2.15Z"/><path class="cls-3" d="M262.55,268.5v4.4c0,1.67.76,2.37,1.78,2.37s1.85-.73,1.85-2.37v-4.4h1v4.34c0,2.28-1.23,3.22-2.88,3.22s-2.74-.87-2.74-3.18V268.5Z"/><polygon class="cls-3" points="270.33 269.31 268.01 269.31 268.01 268.5 273.66 268.5 273.66 269.31 271.33 269.31 271.33 275.93 270.33 275.93 270.33 269.31"/><rect class="cls-3" x="274.51" y="268.5" width="0.98" height="7.44"/><path class="cls-3" d="M282.54,275.69a5,5,0,0,1-2,.35,3.52,3.52,0,0,1-3.77-3.76,3.75,3.75,0,0,1,4-3.91,4.18,4.18,0,0,1,1.81.33l-.24.78a3.65,3.65,0,0,0-1.54-.31,2.8,2.8,0,0,0-3,3.07,2.73,2.73,0,0,0,2.93,3,4,4,0,0,0,1.61-.31Z"/><path class="cls-3" d="M283.63,274.76a3.56,3.56,0,0,0,1.76.49c1,0,1.59-.52,1.59-1.27s-.41-1.09-1.44-1.48c-1.24-.43-2-1.06-2-2.11s1-2,2.47-2a3.53,3.53,0,0,1,1.69.36l-.27.78a3.09,3.09,0,0,0-1.45-.35c-1,0-1.44.61-1.44,1.11,0,.7.46,1,1.52,1.43,1.29.49,1.95,1.09,1.95,2.18s-.87,2.14-2.67,2.14a4,4,0,0,1-1.95-.48Z"/></g></g></g><g id="aiaa_seal_r"><g class="cls-4"><g class="cls-4"><path class="cls-3" d="M118.68,115.2c4.7-2.14,6.68-.82,11,3.79,5.27-1.32,7.44-.3,9.26,5,2.57-12.73.22-31.82.22-31.82h10.71c-3,5.65-.72,31.83-.72,31.83s3.75-8.68,9.85-4.13c1.66-2.16,3.68-1.95,5.6-.7,0-3.38,3.23-8.65,11.48-4.45,1.45-4,5.4-4.07,7.18-3.87a44.89,44.89,0,0,0,5-22.67c-.09-2-.68-2.78-2.79-3a119.1,119.1,0,0,0-44.94,4.74,112.4,112.4,0,0,0-35.17,17.81c1.33,1.93,2.55,3.87,3.8,5.76,4.59-2.16,4.81-1.26,9.53,1.69"/><path class="cls-3" d="M156,55.41a71,71,0,0,1-4.28-9.72,42.2,42.2,0,0,0-15.55.68,78,78,0,0,1-7.39,14.84A97.14,97.14,0,0,1,156,55.41"/><path class="cls-3" d="M152.31,45.79a71,71,0,0,0,4.26,9.58,109.75,109.75,0,0,1,16.29.21,43,43,0,0,0-20.55-9.79"/><path class="cls-3" d="M135.52,46.51l-.09,0c-14.78,3.54-24.68,12.84-30,27a103.85,103.85,0,0,1,22.52-12,78.47,78.47,0,0,0,7.61-15"/><path class="cls-3" d="M163.54,67.24a233.52,233.52,0,0,0-28.2,12.41l1.81.51v1.16a196.57,196.57,0,0,1,28.62-10.86v0c-.14-.21-.71-1-2.22-3.18"/><path class="cls-3" d="M206.16,58.35a46.88,46.88,0,0,0-5.21-.13c-11.07.4-21.59,3.45-31.93,7.06q-2.49.87-5,1.78c1.72,2.44,2.18,3.12,2.18,3.13l0,.06v.07q2.63-.77,5.28-1.48c7-1.88,14.2-3.14,21.55-2.39,6.58.67,8.77,4.91,5.23,10.47-1.47,2.32-3.47,4.31-5.78,7.12,8.24-5.53,15.92-10.38,20.2-18.88V62.07c-1.49-2.52-3.86-3.52-6.62-3.73"/><path class="cls-3" d="M136.61,80.57l-2-.55a162.88,162.88,0,0,0-22.7,14.53c-2.36,1.81-4.47,3.94-6.7,5.92a22.21,22.21,0,0,0,4.67-3,169.24,169.24,0,0,1,26.69-15.88Z"/><path class="cls-3" d="M160.52,62.06l.33.47q4.93-1.44,9.92-2.71a56.67,56.67,0,0,0-6.89,1l-3.62.8.26.41"/><path class="cls-3" d="M97.25,108.93c-5.07-1.64-6.92-6.18-4-10.58a33.72,33.72,0,0,1,6.35-7c7.15-6,15.25-10.54,23.64-14.55l-1.93-.54.22-2.69A194.47,194.47,0,0,0,90.27,89.51c-5.63,3.56-7.58,3.38-10.71,9.54l6.83,12.12c6.28.26,10.22-.05,16.5-.09q0-.45,0-.9c-1.89-.41-3.82-.66-5.65-1.25"/><path class="cls-3" d="M127.2,75a246,246,0,0,1,33.1-12.26l-.23-.32-.38-.59a251.26,251.26,0,0,0-37.61,11.57l-.21,2.52,2.09.59L127.2,75"/><path class="cls-3" d="M107.82,28.26A.6.6,0,1,1,107,28a.6.6,0,0,1,.81.24"/><path class="cls-3" d="M115.71,34.28a.73.73,0,1,1-1-.3.74.74,0,0,1,1,.3"/><path class="cls-3" d="M132.1,42.23a.73.73,0,1,1-1-.3.74.74,0,0,1,1,.3"/><path class="cls-3" d="M112.37,41.82a.6.6,0,1,1-.81-.24.6.6,0,0,1,.81.24"/><path class="cls-3" d="M119.62,41.79a.6.6,0,1,1-.81-.24.6.6,0,0,1,.81.24"/><path class="cls-3" d="M107.8,37.36a.73.73,0,1,1-1-.3.74.74,0,0,1,1,.3"/><path class="cls-3" d="M102,47.15a.6.6,0,1,1-.81-.24.6.6,0,0,1,.81.24"/><path class="cls-3" d="M104.12,47.38a.6.6,0,1,1-.81-.24.6.6,0,0,1,.81.24"/><path class="cls-3" d="M106.21,47.61a.6.6,0,1,1-.81-.24.6.6,0,0,1,.81.24"/><path class="cls-3" d="M105,50.88a.6.6,0,1,1-.81-.24.6.6,0,0,1,.81.24"/><path class="cls-3" d="M97.33,66a.6.6,0,1,1-.81-.24.6.6,0,0,1,.81.24"/><path class="cls-3" d="M101.06,67.49a.6.6,0,1,1-.81-.24.6.6,0,0,1,.81.24"/><path class="cls-3" d="M122.58,28.68a1,1,0,0,1,.34-1l-.55-1.48,1,1.25a1,1,0,0,1,1,.34l1.51-.55-1.28,1a1.05,1.05,0,0,1-.32,1l.52,1.55-1-1.3a1.05,1.05,0,0,1-1-.33l-1.47.5Z"/><path class="cls-3" d="M103.22,64a1,1,0,0,1,.34-1L103,61.51l1,1.25a1,1,0,0,1,1,.34l1.51-.55-1.28,1a1,1,0,0,1-.32,1l.52,1.55-1-1.3a1,1,0,0,1-1-.33L102,65Z"/><path class="cls-3" d="M185.26,41.91a.73.73,0,1,1,.3-1,.74.74,0,0,1-.3,1"/><path class="cls-3" d="M177.36,58.34a.73.73,0,1,1,.3-1,.74.74,0,0,1-.3,1"/><path class="cls-3" d="M177.7,38.6a.6.6,0,1,1,.24-.81.6.6,0,0,1-.24.81"/><path class="cls-3" d="M177.76,45.85A.6.6,0,1,1,178,45a.6.6,0,0,1-.24.81"/><path class="cls-3" d="M182.15,34a.73.73,0,1,1,.3-1,.74.74,0,0,1-.3,1"/><path class="cls-3" d="M172.35,28.27a.59.59,0,1,1,.24-.81.6.6,0,0,1-.24.81"/><path class="cls-3" d="M172.13,30.37a.6.6,0,1,1,.24-.81.6.6,0,0,1-.24.81"/><path class="cls-3" d="M171.9,32.47a.6.6,0,1,1,.24-.81.6.6,0,0,1-.24.81"/><path class="cls-3" d="M168.63,31.21a.6.6,0,1,1,.24-.81.6.6,0,0,1-.24.81"/><path class="cls-3" d="M153.52,23.64a.6.6,0,1,1,.24-.81.6.6,0,0,1-.24.81"/><path class="cls-3" d="M152,27.37a.6.6,0,1,1,.24-.81.6.6,0,0,1-.24.81"/><path class="cls-3" d="M190.88,48.78a1,1,0,0,1,1,.33l1.48-.56-1.25,1a1,1,0,0,1-.34,1l.55,1.5-1-1.28a1.05,1.05,0,0,1-1-.32L188.8,51l1.3-1a1.05,1.05,0,0,1,.32-1l-.51-1.46Z"/><path class="cls-3" d="M155.48,29.53a1,1,0,0,1,1,.33L158,29.3l-1.25,1a1,1,0,0,1-.34,1l.55,1.5-1-1.28a1,1,0,0,1-1-.32l-1.55.53,1.3-1a1,1,0,0,1,.32-1l-.51-1.47Z"/><path class="cls-3" d="M144.5,1.62A70.38,70.38,0,1,0,214.88,72,70.38,70.38,0,0,0,144.5,1.62m0,132.09A61.71,61.71,0,1,1,206.21,72a61.71,61.71,0,0,1-61.71,61.71"/><path class="cls-3" d="M144.5,1.62A70.38,70.38,0,1,1,74.12,72,70.38,70.38,0,0,1,144.5,1.62m0,132.09A61.71,61.71,0,1,0,82.79,72a61.71,61.71,0,0,0,61.71,61.71M144.5,0A72,72,0,0,0,93.59,122.91,72,72,0,0,0,195.41,21.09,71.53,71.53,0,0,0,144.5,0m0,132.09A60.09,60.09,0,0,1,102,29.51a60.09,60.09,0,1,1,85,85,59.7,59.7,0,0,1-42.49,17.6"/><path class="cls-5" d="M166,70.33s-1-1.43-5.73-8.12C149.77,46,148.81,34,148.81,27.81s-4.77-11-4.78-11l.11-.17,0,0-.09.09-.14.16a21.58,21.58,0,0,0-2.66,3.83,15.11,15.11,0,0,0-2,7.1c0,6.21-1,18.16-11.47,34.4-4.78,6.69-5.73,8.12-5.73,8.12l-.48,5.73,15.29,4.3v4.78h1.43v1.91h11.47V85.14h1.43V80.37l15.29-4.3Z"/><path class="cls-3" d="M166.28,70.24l0-.06s-1-1.51-5.73-8.12C152.82,50.18,149.08,39,149.08,27.81c0-5.24-3.27-9.41-4.45-10.74l-.17-.18-.46-.51h0l-.3.33A21.78,21.78,0,0,0,141,20.58a15.2,15.2,0,0,0-2,7.23c0,11.17-3.74,22.38-11.42,34.25-4.73,6.62-5.73,8.12-5.74,8.13l0,.06-.5,6,15.31,4.31v4.84H138v1.91h12V85.41h1.43V80.57l15.09-4.24.21-.06Zm-15.35,9.92v4.71H149.5v1.91H138.57V84.87h-1.43V80.16l-15.27-4.29.45-5.44c.22-.33,1.47-2.15,5.7-8.07,7.75-12,11.51-23.27,11.51-34.55a14.66,14.66,0,0,1,1.95-7A21.33,21.33,0,0,1,144,17.17c.81.88,4.54,5.24,4.54,10.63,0,11.28,3.77,22.58,11.52,34.56,4.22,5.91,5.47,7.73,5.69,8.06l.45,5.44Z"/><path class="cls-3" d="M164.34,70.93c-.52-.75-2-2.83-5.46-7.72l0-.07c-7.9-12.21-11.74-23.77-11.74-35.34a12.85,12.85,0,0,0-1.46-5.7h-3.2a12.85,12.85,0,0,0-1.46,5.7c0,11.57-3.84,23.12-11.74,35.34l0,.07c-3.49,4.89-4.94,7-5.46,7.72l-.32,3.87,15.18,4.27V43.6L140,74.79l-1.43,4.27v4.36h3.6s-2.17.83-2.17,1.91h8c0-1.08-2.17-1.91-2.17-1.91h3.6V79.06l-1.43-4.27,1.43-31.2V79.06l15.18-4.27Zm-23.11-44s1-2,2.81-2,2.81,2,2.81,2c-2.8-2.8-5.61,0-5.61,0"/><polygon class="cls-5" points="144.04 66.48 142.41 79.03 144.04 92.18 145.67 79.03 144.04 66.48"/></g><path class="cls-5" d="M87,109.76l3.67-4.15.75,1.06-1.58,1.61c-.45.47-1,1-1.35,1.34h0c.53-.26,1.13-.53,1.75-.8l2.07-.9.75,1.06-1.61,1.66c-.45.46-.87.86-1.31,1.28h0c.54-.28,1.12-.54,1.71-.82l2.06-.91.71,1-5.21,2-.76-1.08,1.63-1.71c.38-.4.75-.76,1.21-1.17h0c-.55.27-1,.49-1.54.7l-2.19.92Z"/><path class="cls-5" d="M96.08,116.91a2.57,2.57,0,0,1-3.88-.16,2.51,2.51,0,0,1,.43-3.71,2.61,2.61,0,0,1,3.85.15A2.51,2.51,0,0,1,96.08,116.91ZM93.49,114c-.8.69-1,1.55-.51,2.17s1.44.47,2.23-.21,1.06-1.52.52-2.16S94.29,113.32,93.49,114Z"/><path class="cls-5" d="M98.45,115.66a10.74,10.74,0,0,1,1.23,1.07,2.75,2.75,0,0,1,.94,1.53,1.36,1.36,0,0,1-.44,1.15,1.43,1.43,0,0,1-1.61.27l0,0a1.36,1.36,0,0,1-.2,1.22c-.31.55-.69,1.17-.76,1.39l-.88-.88a6.72,6.72,0,0,1,.62-1.15c.37-.58.34-.87,0-1.23l-.26-.26-1.49,1.5-.86-.85Zm-.78,2.5.34.34c.43.43.9.47,1.23.13s.29-.76-.1-1.16a3,3,0,0,0-.42-.36Z"/><path class="cls-5" d="M101.31,125.33a3.49,3.49,0,0,1-1.2-.73,2.56,2.56,0,0,1-.38-3.88,2.75,2.75,0,0,1,4.1-.25,3.19,3.19,0,0,1,.85,1l-.82.57a2.63,2.63,0,0,0-.64-.82,1.77,1.77,0,0,0-2.31,2.69,3,3,0,0,0,.88.53Z"/><path class="cls-5" d="M105.92,126.15,104.34,125l-.77,1,1.77,1.33-.6.8L102,126l3.23-4.31,2.66,2-.6.8-1.68-1.26-.67.9,1.59,1.19Z"/><path class="cls-5" d="M106.29,127.66a3.13,3.13,0,0,0,.95,1c.47.31.84.27,1,0s.07-.58-.34-1.13c-.58-.75-.8-1.49-.37-2.14a1.77,1.77,0,0,1,2.59-.24,3.31,3.31,0,0,1,1,1l-.77.67a2.57,2.57,0,0,0-.8-.83c-.44-.29-.79-.23-.94,0s0,.58.42,1.18c.6.81.71,1.47.29,2.11s-1.5,1-2.73.21a3.53,3.53,0,0,1-1.1-1.11Z"/><path class="cls-5" d="M112.41,127.82l-1.26-.71.5-.89,3.61,2-.5.89-1.28-.72-2.14,3.8-1.07-.6Z"/><path class="cls-5" d="M117.23,132.65l-1.79-.86-.55,1.15,2,1-.43.9-3.1-1.49,2.33-4.86,3,1.44-.43.9-1.9-.91-.48,1,1.79.86Z"/><path class="cls-5" d="M119.35,130.27a10.68,10.68,0,0,1,1.55.5,2.75,2.75,0,0,1,1.46,1,1.37,1.37,0,0,1,0,1.23,1.43,1.43,0,0,1-1.37.88v0a1.36,1.36,0,0,1,.3,1.2c-.07.63-.17,1.34-.15,1.57l-1.16-.46a6.62,6.62,0,0,1,.11-1.31c.11-.68,0-.93-.49-1.12l-.34-.14-.78,2-1.12-.45Zm.27,2.6.45.18c.56.22,1,.08,1.19-.36s0-.81-.55-1a3.11,3.11,0,0,0-.53-.17Z"/><path class="cls-5" d="M125.07,132.42a9.91,9.91,0,0,1,1.61.35,2.6,2.6,0,0,1,1.46.87,1.58,1.58,0,0,1,.2,1.36,1.72,1.72,0,0,1-.83,1.09,2.5,2.5,0,0,1-1.84.06,3,3,0,0,1-.39-.14l-.54,1.85-1.16-.34Zm.48,2.69a1.8,1.8,0,0,0,.38.14c.62.18,1.1,0,1.25-.55s-.11-.86-.69-1a2.09,2.09,0,0,0-.5-.09Z"/><path class="cls-5" d="M133.65,137.16a2.57,2.57,0,0,1-3.17,2.25,2.51,2.51,0,0,1-1.93-3.2A2.61,2.61,0,0,1,131.7,134,2.51,2.51,0,0,1,133.65,137.16Zm-3.83-.72c-.21,1,.12,1.86.92,2s1.43-.51,1.64-1.53-.09-1.86-.91-2S130,135.41,129.82,136.44Z"/><path class="cls-5" d="M134.79,134.63l1.21.16-.56,4.33,2.13.28-.13,1L134.1,140Z"/><path class="cls-5" d="M138.84,140.51l.16-2.2-1.47-3.3,1.39.1.46,1.33c.14.4.23.7.34,1.06h0c.14-.33.29-.63.48-1l.64-1.25,1.36.1-2,3L140,140.6Z"/><path class="cls-5" d="M143.66,136.37l-1.45,0,0-1,4.14.07,0,1-1.47,0-.07,4.36-1.22,0Z"/><path class="cls-5" d="M150.21,138.24l-2,.12.08,1.28,2.21-.13.06,1-3.43.21-.33-5.38,3.32-.2.06,1-2.1.13.07,1.12,2-.12Z"/><path class="cls-5" d="M155.5,139.74a3.46,3.46,0,0,1-1.34.41,2.56,2.56,0,0,1-3.15-2.31,2.75,2.75,0,0,1,2.55-3.22,3.19,3.19,0,0,1,1.35.07l-.12,1a2.63,2.63,0,0,0-1-.07,1.77,1.77,0,0,0,.46,3.51,3.05,3.05,0,0,0,1-.31Z"/><path class="cls-5" d="M156.61,134.2l.43,2,2-.41-.43-2,1.19-.25,1.11,5.27-1.19.25-.46-2.21-2,.41.46,2.21-1.2.25-1.11-5.27Z"/><path class="cls-5" d="M162.12,138.5l-1.55-5.16,1.36-.41,1.64,1.57a15.61,15.61,0,0,1,1.37,1.52h0a20,20,0,0,1-.74-2.12l-.45-1.51,1.07-.32,1.55,5.16-1.23.37-1.7-1.66a20,20,0,0,1-1.44-1.55h0c.23.67.47,1.39.72,2.24l.47,1.55Z"/><path class="cls-5" d="M166.83,131.31l1.85,5.06-1.15.42-1.85-5.06Z"/><path class="cls-5" d="M173.4,134.26a3.45,3.45,0,0,1-1.18.76,2.56,2.56,0,0,1-3.66-1.37,2.75,2.75,0,0,1,1.58-3.79,3.19,3.19,0,0,1,1.31-.3l.15,1a2.64,2.64,0,0,0-1,.22A1.77,1.77,0,0,0,172,134a3.05,3.05,0,0,0,.86-.56Z"/><path class="cls-5" d="M174.39,127.87l2.5,4.77-1.08.57-2.5-4.77Z"/><path class="cls-5" d="M178,132.09l-2.78-4.62,1.22-.73,2,1.11A15.49,15.49,0,0,1,180.1,129h0a20,20,0,0,1-1.25-1.87l-.81-1.35,1-.58,2.78,4.62-1.1.66-2.06-1.19a20.05,20.05,0,0,1-1.78-1.15l0,0c.39.59.8,1.24,1.25,2l.84,1.39Z"/><path class="cls-5" d="M182.14,128a3.12,3.12,0,0,0,1.3-.51c.46-.32.56-.68.36-1s-.51-.28-1.18-.1c-.91.26-1.67.2-2.13-.44a1.77,1.77,0,0,1,.73-2.5,3.32,3.32,0,0,1,1.28-.57l.35,1a2.57,2.57,0,0,0-1.07.44c-.43.3-.5.65-.34.88s.54.23,1.26,0c1-.26,1.63-.12,2.07.5s.4,1.77-.81,2.62a3.51,3.51,0,0,1-1.44.61Z"/><path class="cls-5" d="M184.54,122.41l-1.12.91-.65-.79,3.22-2.61.65.79-1.14.93,2.75,3.39-1,.77Z"/><path class="cls-5" d="M187.27,118.74l3.6,4-.91.82-3.6-4Z"/><path class="cls-5" d="M189.41,118.12l-1,1-.72-.73,2.94-2.92.72.73-1,1,3.08,3.1-.87.86Z"/><path class="cls-5" d="M191.72,114.25l2.34,2c.7.61,1.29.65,1.7.18s.31-1-.41-1.67l-2.34-2,.8-.92,2.28,2c1.25,1.09,1.3,2.24.38,3.31s-2,1.14-3.28,0l-2.27-2Z"/><path class="cls-5" d="M195.77,110.94l-.87,1.16-.82-.61,2.48-3.32.82.61L196.5,110l3.5,2.61-.73,1Z"/><path class="cls-5" d="M201.17,106.78l-1.08,1.66,1.07.7,1.21-1.86.84.54-1.87,2.88-4.52-2.93,1.81-2.79.84.54-1.14,1.76.94.61,1.08-1.66Z"/><path class="cls-5" d="M79.89,76.1l1.4.31.06,1.26-5.46-1.38-.08-1.6,5.3-1.94.06,1.31-1.36.48Zm-1-1.32-1.12.39c-.31.11-.71.23-1,.32v0c.32.06.73.12,1.05.2L79,76Z"/><path class="cls-5" d="M79.21,67.64c-.65,0-1.43,0-2.21,0v0c.68.2,1.44.45,2.06.68l2.08.74,0,1L79,70.49c-.64.15-1.41.3-2.12.4v0c.73.06,1.56.12,2.22.19l2,.18,0,1.13-5.37-.56.06-1.62,1.82-.46c.63-.14,1.31-.28,1.94-.38v0c-.62-.18-1.32-.39-1.91-.59l-1.77-.65.06-1.59,5.4-.08,0,1.19Z"/><path class="cls-5" d="M79.57,62.27l-.24,2,1.27.16.27-2.2,1,.12-.42,3.41-5.35-.66.41-3.3,1,.12L77.23,64l1.11.14.24-2Z"/><path class="cls-5" d="M76.74,60.67a10.81,10.81,0,0,1,.2-1.61,2.74,2.74,0,0,1,.75-1.63,1.37,1.37,0,0,1,1.2-.27A1.43,1.43,0,0,1,80,58.34h0a1.36,1.36,0,0,1,1.13-.51c.63,0,1.35-.08,1.58-.14l-.24,1.22a6.74,6.74,0,0,1-1.3.13c-.69,0-.91.21-1,.69l-.07.36,2.08.4L82,61.68Zm2.51-.74.09-.47c.12-.6-.11-1-.58-1.1s-.79.19-.91.74a3,3,0,0,0-.07.55Z"/><path class="cls-5" d="M78,54.68,83.19,56l-.3,1.19-5.23-1.31Z"/><path class="cls-5" d="M84.42,51.28a3.47,3.47,0,0,1-.19,1.39,2.56,2.56,0,0,1-3.4,1.9A2.75,2.75,0,0,1,79,50.92a3.2,3.2,0,0,1,.62-1.2l.85.52a2.62,2.62,0,0,0-.49.92,1.77,1.77,0,0,0,3.39,1,3.05,3.05,0,0,0,.13-1Z"/><path class="cls-5" d="M84,49l1.15.86-.46,1.18-4.41-3.51.59-1.49,5.63.43L86,47.7l-1.44-.12Zm-.35-1.61-1.19-.11c-.33,0-.74-.09-1.07-.13h0c.27.19.62.42.88.61l.95.72Z"/><path class="cls-5" d="M86.66,46l-4.83-2.38.63-1.28,2.27-.13a15.63,15.63,0,0,1,2,0v0a19.86,19.86,0,0,1-2.06-.9l-1.41-.7.5-1L88.63,42l-.57,1.15-2.37.11a20.2,20.2,0,0,1-2.12,0v0c.65.29,1.34.61,2.13,1l1.46.72Z"/><path class="cls-5" d="M85.88,36.08l4.62,2.78-.63,1-4.62-2.78Z"/><path class="cls-5" d="M90.95,38.07,86.5,35l.81-1.17,2.26.19a15.58,15.58,0,0,1,2,.32v0a19.88,19.88,0,0,1-1.91-1.18l-1.3-.89.63-.92,4.45,3-.72,1.05-2.37-.23a20.17,20.17,0,0,1-2.1-.3v0c.6.38,1.24.79,2,1.29l1.34.92Z"/><path class="cls-5" d="M93,32.9a3.1,3.1,0,0,0,1.11-.85c.35-.44.35-.81.08-1s-.57-.13-1.16.23a1.64,1.64,0,1,1-2.16-2.44,3.3,3.3,0,0,1,1.07-.9l.6.83a2.56,2.56,0,0,0-.9.72c-.33.41-.3.76-.08.94s.58.07,1.22-.31c.87-.52,1.54-.56,2.13-.09s.87,1.59-.05,2.74a3.53,3.53,0,0,1-1.21,1Z"/><path class="cls-5" d="M94.09,26.78l-1,1.07-.76-.69,2.79-3.06.76.69-1,1.09,3.22,2.95-.83.9Z"/><path class="cls-5" d="M96.59,22.7l3.79,3.83-.87.86-3.79-3.83Z"/><path class="cls-5" d="M98.9,21.94l-1.08,1-.68-.76,3.09-2.76.68.76-1.1,1,2.91,3.25-.91.82Z"/><path class="cls-5" d="M101.84,18.09l1.89,2.46c.57.74,1.13.9,1.63.51s.51-1-.07-1.71l-1.89-2.46,1-.74,1.84,2.39c1,1.32.83,2.46-.28,3.32s-2.17.72-3.22-.64l-1.83-2.38Z"/><path class="cls-5" d="M106.83,15.72l-1.21.79-.56-.85,3.46-2.27.56.85-1.23.81,2.4,3.65-1,.67Z"/><path class="cls-5" d="M113.56,14.09l-1.72,1,.63,1.11,1.93-1.09.49.87-3,1.7L109.23,13l2.89-1.64.49.87-1.83,1,.55,1,1.72-1Z"/><path class="cls-5" d="M120.22,10.45a2.57,2.57,0,0,1-1.28,3.66,2.51,2.51,0,0,1-3.43-1.49A2.61,2.61,0,0,1,116.78,9,2.51,2.51,0,0,1,120.22,10.45Zm-3.53,1.64c.43,1,1.18,1.45,1.93,1.12s.87-1.24.45-2.2-1.15-1.46-1.92-1.12S116.26,11.13,116.69,12.08Z"/><path class="cls-5" d="M120.12,7.69l3.11-1.1.33.94-2,.69L122,9.39l1.82-.64.33.93-1.82.64.72,2-1.15.41Z"/><path class="cls-5" d="M128.08,9.36l0,1.44-1.23.3.3-5.63,1.55-.38,2.92,4.83-1.27.31L129.57,9Zm1.11-1.21-.6-1c-.17-.29-.36-.65-.51-.94h0c0,.33,0,.74,0,1.07l0,1.19Z"/><path class="cls-5" d="M134.89,7.05l-2,.34.22,1.26,2.18-.37.17,1-3.39.58-.91-5.31L134.48,4l.17,1-2.07.36.19,1.1,2-.34Z"/><path class="cls-5" d="M135.59,3.88a10.92,10.92,0,0,1,1.6-.28,2.75,2.75,0,0,1,1.78.24,1.37,1.37,0,0,1,.61,1.07,1.43,1.43,0,0,1-.81,1.42v0a1.36,1.36,0,0,1,.82.93c.23.59.47,1.27.59,1.47l-1.24.13a6.74,6.74,0,0,1-.5-1.21c-.21-.65-.46-.81-1-.77l-.37,0L137.34,9l-1.2.12ZM137,6.07l.48,0c.6-.06.93-.4.88-.87s-.41-.71-1-.66a3,3,0,0,0-.55.1Z"/><path class="cls-5" d="M145.49,5.86a2.57,2.57,0,0,1-2.58,2.9,2.51,2.51,0,0,1-2.6-2.68,2.61,2.61,0,0,1,2.55-2.88A2.51,2.51,0,0,1,145.49,5.86ZM141.6,6c0,1.06.54,1.79,1.35,1.77s1.28-.81,1.25-1.86-.51-1.79-1.35-1.77S141.58,5,141.6,6Z"/><path class="cls-5" d="M146.13,8.63l.32-5.38,1.42.09,1,2a15.82,15.82,0,0,1,.77,1.9h0a20.15,20.15,0,0,1,0-2.25l.09-1.57,1.12.07-.32,5.38-1.28-.08-1-2.14a20,20,0,0,1-.82-2h0c0,.71,0,1.47-.09,2.35l-.1,1.62Z"/><path class="cls-5" d="M152.86,7.8l-.57,1.32L151,8.93l2.39-5.1,1.58.22.9,5.57-1.3-.18L154.39,8Zm1.48-.71-.17-1.18c0-.33-.09-.74-.12-1.07h0c-.12.31-.26.7-.39,1l-.48,1.09Z"/><path class="cls-5" d="M158.49,4.68l-.67,3c-.2.91,0,1.44.65,1.58s1.06-.22,1.27-1.15l.67-3,1.19.26-.65,3c-.36,1.62-1.35,2.21-2.72,1.91s-1.95-1.2-1.57-2.88l.65-2.94Z"/><path class="cls-5" d="M163.52,7l-1.38-.42.3-1,4,1.2-.3,1-1.41-.43-1.26,4.18-1.17-.35Z"/><path class="cls-5" d="M168.28,7.48l-1.82,5.07-1.15-.41,1.82-5.07Z"/><path class="cls-5" d="M171,14.25a3.47,3.47,0,0,1-1.36-.32,2.56,2.56,0,0,1-1.56-3.58,2.75,2.75,0,0,1,3.82-1.5,3.19,3.19,0,0,1,1.13.74l-.6.8a2.62,2.62,0,0,0-.87-.58,1.62,1.62,0,0,0-2.28,1,1.61,1.61,0,0,0,.91,2.29,3,3,0,0,0,1,.23Z"/><path class="cls-5" d="M172.12,13.56a3.11,3.11,0,0,0,1.06.91c.5.25.87.18,1-.14s0-.59-.46-1.08c-.66-.68-1-1.39-.6-2.09a1.77,1.77,0,0,1,2.55-.53,3.29,3.29,0,0,1,1.1.86l-.68.76a2.56,2.56,0,0,0-.89-.74c-.47-.24-.81-.14-.93.11s0,.58.55,1.13c.69.74.87,1.39.53,2.06s-1.37,1.18-2.69.51a3.52,3.52,0,0,1-1.22-1Z"/><path class="cls-5" d="M178.35,16.81l-1.06,1-1.07-.68,4.27-3.67,1.35.85-1.47,5.45-1.11-.7.39-1.39Zm1.64,0,.33-1.15c.09-.32.22-.71.33-1h0c-.24.23-.52.53-.77.75l-.88.8Z"/><path class="cls-5" d="M180.78,20,184,15.71l1.14.86-.29,2.25a16,16,0,0,1-.41,2h0A19.81,19.81,0,0,1,185.74,19l.95-1.26.89.67-3.24,4.31-1-.77.33-2.35a20.36,20.36,0,0,1,.4-2.08h0c-.4.59-.85,1.2-1.37,1.91l-1,1.3Z"/><path class="cls-5" d="M188.53,19.26a10.84,10.84,0,0,1,1.3,1,3.46,3.46,0,0,1,1.26,1.9,2.39,2.39,0,0,1-.67,2.12,2.73,2.73,0,0,1-2.12,1A3.87,3.87,0,0,1,186,24.19a10.73,10.73,0,0,1-1-1Zm-2,4.1a2.2,2.2,0,0,0,.3.3,1.67,1.67,0,0,0,2.62-.19,1.55,1.55,0,0,0-.12-2.41,2.51,2.51,0,0,0-.44-.33Z"/><path class="cls-5" d="M191.92,27.93l-1.28.64-.85-.94,5.1-2.4L196,26.42l-2.87,4.86-.88-1,.75-1.24Zm1.59.4.62-1c.17-.29.4-.62.59-.9h0c-.29.15-.65.37-.94.51l-1.06.53Z"/><path class="cls-5" d="M194.42,31a3.12,3.12,0,0,0,.57,1.27c.34.44.71.53,1,.31s.26-.53,0-1.18c-.31-.9-.28-1.66.34-2.15a1.77,1.77,0,0,1,2.54.6,3.31,3.31,0,0,1,.63,1.25l-.94.39a2.58,2.58,0,0,0-.49-1c-.33-.42-.67-.47-.89-.3s-.2.54,0,1.26c.31,1,.19,1.62-.4,2.09s-1.74.48-2.66-.68a3.54,3.54,0,0,1-.68-1.4Z"/><path class="cls-5" d="M200.13,33.38l-.82-1.2.85-.58L202.5,35l-.85.58-.83-1.22-3.61,2.46-.69-1Z"/><path class="cls-5" d="M202.88,35.78a10.6,10.6,0,0,1,.92,1.34,2.75,2.75,0,0,1,.52,1.72,1.37,1.37,0,0,1-.72,1,1.43,1.43,0,0,1-1.63-.15h0a1.36,1.36,0,0,1-.51,1.13c-.44.45-1,1-1.09,1.15l-.63-1.08a6.71,6.71,0,0,1,.89-1c.51-.46.55-.76.3-1.19l-.19-.32-1.83,1.07-.61-1ZM201.48,38l.24.41c.31.52.75.68,1.16.44s.47-.67.2-1.15a3,3,0,0,0-.31-.46Z"/><path class="cls-5" d="M205.17,45.6a2.57,2.57,0,0,1-3.71-1.15A2.51,2.51,0,0,1,202.83,41a2.61,2.61,0,0,1,3.68,1.13A2.51,2.51,0,0,1,205.17,45.6Zm-1.76-3.47c-1,.46-1.4,1.23-1,2s1.27.82,2.21.37,1.42-1.2,1.05-2S204.36,41.67,203.41,42.12Z"/><path class="cls-5" d="M202.91,47.33l5-1.92.51,1.33L207,48.49A15.71,15.71,0,0,1,205.59,50v0a19.89,19.89,0,0,1,2.06-.9l1.47-.56.4,1-5,1.92L204,50.3l1.53-1.82A19.85,19.85,0,0,1,207,46.93l0,0c-.65.28-1.36.57-2.18.88l-1.52.58Z"/><path class="cls-5" d="M206.44,53.11l-1.44,0-.35-1.21,5.64.08.45,1.54L206,56.64l-.37-1.26,1.21-.79Zm1.26,1.06,1-.64c.28-.18.64-.39.92-.55v0c-.33,0-.74,0-1.07.05h-1.19Z"/><path class="cls-5" d="M211.59,57l-3,.63c-.91.19-1.3.63-1.17,1.24s.64.88,1.57.69l3-.63.25,1.19-3,.62c-1.63.34-2.57-.32-2.86-1.7s.3-2.27,2-2.62l2.94-.61Z"/><path class="cls-5" d="M211.55,62.48,211.37,61l1-.13.54,4.11-1,.13-.19-1.46-4.33.57L207.23,63Z"/><path class="cls-5" d="M213.06,67l-5.37.43-.1-1.22,5.37-.43Z"/><path class="cls-5" d="M208,72.32a3.47,3.47,0,0,1-.27-1.38,2.56,2.56,0,0,1,2.62-2.9,2.75,2.75,0,0,1,2.94,2.86,3.19,3.19,0,0,1-.2,1.33l-1-.22a2.63,2.63,0,0,0,.17-1,1.77,1.77,0,0,0-3.54.1,3.06,3.06,0,0,0,.2,1Z"/><path class="cls-5" d="M209.12,73a3.13,3.13,0,0,0-.39,1.34c0,.56.2.86.55.88s.54-.23.79-.87c.35-.88.87-1.45,1.65-1.42s1.59.83,1.54,2.1a3.33,3.33,0,0,1-.33,1.36l-1-.31a2.55,2.55,0,0,0,.3-1.12c0-.53-.21-.79-.49-.8s-.51.28-.8,1c-.39.94-.9,1.36-1.66,1.33s-1.64-.76-1.58-2.24a3.51,3.51,0,0,1,.39-1.51Z"/></g></g></svg>