<svg id="Layer_1" data-name="Layer 1" xmlns="http://www.w3.org/2000/svg" xmlns:xlink="http://www.w3.org/1999/xlink" viewBox="0 0 754 180"><defs><style>.cls-1{fill:none;}.cls-2{clip-path:url(#clip-path);}.cls-3{fill:#fff;}.cls-4{clip-path:url(#clip-path-3);}</style><clipPath id="clip-path"><rect class="cls-1" x="574" width="180" height="180"/></clipPath><clipPath id="clip-path-3"><rect class="cls-1" width="483" height="180"/></clipPath></defs><title>AIAA_Logo_RGB_H_BK</title><g id="aiaa_seal_bk"><g class="cls-2"><g class="cls-2"><path d="M631.72,144c5.87-2.68,8.34-1,13.7,4.74,6.59-1.65,9.3-.38,11.57,6.24,3.21-15.91.28-39.77.28-39.77h13.38c-3.76,7.07-.9,39.78-.9,39.78s4.69-10.85,12.32-5.17c2.07-2.7,4.6-2.43,7-.87,0-4.22,4-10.82,14.34-5.56,1.81-5,6.75-5.09,9-4.83a56.12,56.12,0,0,0,6.28-28.34c-.11-2.55-.85-3.47-3.49-3.7A148.87,148.87,0,0,0,659,112.43a140.5,140.5,0,0,0-44,22.26c1.67,2.41,3.19,4.84,4.75,7.2,5.74-2.7,6-1.57,11.92,2.11"/><path d="M678.35,69.26A88.74,88.74,0,0,1,673,57.11a52.75,52.75,0,0,0-19.44.85,97.45,97.45,0,0,1-9.24,18.55,121.42,121.42,0,0,1,34-7.25"/><path d="M673.76,57.23a88.73,88.73,0,0,0,5.32,12,137.19,137.19,0,0,1,20.36.27c-7.95-6.59-16.52-10.72-25.69-12.24"/><path d="M652.77,58.13l-.12,0c-18.47,4.42-30.84,16-37.54,33.75a129.82,129.82,0,0,1,28.15-15,98.09,98.09,0,0,0,9.51-18.77"/><path d="M687.8,84.05a291.9,291.9,0,0,0-35.25,15.51l2.26.64v1.46a245.72,245.72,0,0,1,35.77-13.57V88c-.18-.26-.89-1.3-2.78-4"/><path d="M741.08,72.93a58.6,58.6,0,0,0-6.52-.16c-13.84.5-27,4.31-39.91,8.82q-3.11,1.09-6.19,2.22c2.15,3,2.72,3.9,2.73,3.91l0,.07v.09q3.28-1,6.6-1.85c8.8-2.35,17.75-3.93,26.94-3,8.23.84,11,6.14,6.54,13.09-1.84,2.9-4.33,5.38-7.22,8.9,10.3-6.91,19.9-13,25.25-23.6V77.59c-1.86-3.16-4.82-4.4-8.28-4.66"/><path d="M654.13,100.71l-2.45-.69a203.6,203.6,0,0,0-28.38,18.16c-2.95,2.26-5.59,4.92-8.38,7.39a27.77,27.77,0,0,0,5.84-3.76A211.55,211.55,0,0,1,654.13,102Z"/><path d="M684,77.58l.42.58q6.16-1.8,12.4-3.39a70.84,70.84,0,0,0-8.62,1.28q-2.27.49-4.53,1l.33.52"/><path d="M604.94,136.17c-6.34-2.05-8.65-7.72-5-13.22a42.16,42.16,0,0,1,7.94-8.75C616.8,106.64,626.93,101,637.41,96L635,95.33l.28-3.37a243.09,243.09,0,0,0-39.06,19.93c-7,4.45-9.47,4.22-13.38,11.92L591.37,139c7.84.33,12.77-.07,20.63-.11q0-.56,0-1.12c-2.36-.51-4.78-.82-7.06-1.56"/><path d="M642.37,93.69a307.51,307.51,0,0,1,41.38-15.33l-.29-.4-.47-.74a314.08,314.08,0,0,0-47,14.46l-.26,3.15,2.62.74q2-1,4-1.88"/><path d="M618.15,35.33a.74.74,0,1,1-1-.31.75.75,0,0,1,1,.31"/><path d="M628,42.85a.92.92,0,1,1-1.24-.38.92.92,0,0,1,1.24.38"/><path d="M648.51,52.79a.92.92,0,1,1-1.24-.38.92.92,0,0,1,1.24.38"/><path d="M623.83,52.28a.74.74,0,1,1-1-.31.75.75,0,0,1,1,.31"/><path d="M632.9,52.24a.74.74,0,1,1-1-.3.75.75,0,0,1,1,.3"/><path d="M618.12,46.7a.92.92,0,1,1-1.24-.38.92.92,0,0,1,1.24.38"/><path d="M610.9,58.93a.74.74,0,1,1-1-.31.75.75,0,0,1,1,.31"/><path d="M613.52,59.22a.74.74,0,1,1-1-.3.75.75,0,0,1,1,.3"/><path d="M616.14,59.51a.74.74,0,1,1-1-.31.75.75,0,0,1,1,.31"/><path d="M614.56,63.6a.74.74,0,1,1-1-.31.75.75,0,0,1,1,.31"/><path d="M605,82.45a.74.74,0,1,1-1-.31.75.75,0,0,1,1,.31"/><path d="M609.7,84.37a.74.74,0,1,1-1-.3.75.75,0,0,1,1,.3"/><path d="M636.6,35.84a1.3,1.3,0,0,1,.42-1.28l-.69-1.85,1.27,1.56a1.31,1.31,0,0,1,1.27.43l1.88-.69-1.6,1.25a1.32,1.32,0,0,1-.4,1.26l.65,1.93-1.26-1.63a1.32,1.32,0,0,1-1.24-.41l-1.83.63Z"/><path d="M612.4,80a1.3,1.3,0,0,1,.42-1.28l-.69-1.85,1.27,1.56a1.31,1.31,0,0,1,1.27.43l1.88-.69L615,79.45a1.3,1.3,0,0,1-.41,1.25l.65,1.94L613.95,81a1.31,1.31,0,0,1-1.24-.41l-1.84.63Z"/><path d="M715,52.39a.92.92,0,1,1,.37-1.24.92.92,0,0,1-.37,1.24"/><path d="M705.07,72.92a.92.92,0,1,1,.37-1.24.92.92,0,0,1-.37,1.24"/><path d="M705.5,48.25a.74.74,0,1,1,.3-1,.75.75,0,0,1-.3,1"/><path d="M705.57,57.31a.74.74,0,1,1,.3-1,.75.75,0,0,1-.3,1"/><path d="M711.07,42.52a.92.92,0,1,1,.37-1.24.92.92,0,0,1-.37,1.24"/><path d="M698.81,35.34a.74.74,0,1,1,.3-1,.75.75,0,0,1-.3,1"/><path d="M698.53,38a.74.74,0,1,1,.3-1,.75.75,0,0,1-.3,1"/><path d="M698.25,40.58a.74.74,0,1,1,.3-1,.75.75,0,0,1-.3,1"/><path d="M694.16,39a.74.74,0,1,1,.3-1,.75.75,0,0,1-.3,1"/><path d="M675.28,29.55a.74.74,0,1,1,.3-1,.75.75,0,0,1-.3,1"/><path d="M673.37,34.22a.74.74,0,1,1,.3-1,.75.75,0,0,1-.3,1"/><path d="M722,61a1.3,1.3,0,0,1,1.28.42l1.85-.7L723.55,62a1.31,1.31,0,0,1-.42,1.27l.69,1.88-1.26-1.6a1.32,1.32,0,0,1-1.26-.4l-1.93.66L721,62.52a1.32,1.32,0,0,1,.4-1.25l-.63-1.83Z"/><path d="M677.73,36.91a1.3,1.3,0,0,1,1.28.42l1.85-.7L679.3,37.9a1.31,1.31,0,0,1-.42,1.27l.69,1.88-1.26-1.6a1.31,1.31,0,0,1-1.26-.4l-1.94.66,1.63-1.26a1.31,1.31,0,0,1,.4-1.24l-.64-1.83Z"/><path d="M727.64,26.36A90,90,0,0,0,600.36,153.64,90,90,0,0,0,727.64,26.36M664,165.11A75.11,75.11,0,0,1,610.89,36.89,75.11,75.11,0,1,1,717.11,143.11a74.62,74.62,0,0,1-53.11,22"/><path d="M690.89,87.91s-1.2-1.79-7.17-10.15c-13.14-20.31-14.33-35.24-14.33-43s-5.89-13.66-6-13.73h0l0,0h0l0,0-.12.14a27,27,0,0,0-3.32,4.79,18.89,18.89,0,0,0-2.48,8.88c0,7.76-1.19,22.7-14.33,43-6,8.36-7.17,10.15-7.17,10.15l-.6,7.17,19.11,5.38v6h1.79v2.39h14.33v-2.39h1.79v-6l19.11-5.38Z"/><path class="cls-3" d="M688.8,88.66c-.64-.94-2.46-3.54-6.82-9.65l-.06-.08C672,63.66,667.25,49.21,667.25,34.76a16.06,16.06,0,0,0-1.83-7.12h-4a16.06,16.06,0,0,0-1.83,7.12c0,14.46-4.8,28.91-14.68,44.17l-.06.08c-4.36,6.11-6.18,8.71-6.82,9.65l-.4,4.83,19,5.34V54.5l1.79,39-1.79,5.34v5.45h4.5s-2.71,1-2.71,2.39h10c0-1.35-2.71-2.39-2.71-2.39h4.51V98.83l-1.79-5.34,1.79-39V98.83l19-5.34Zm-28.89-55s1.31-2.55,3.51-2.55,3.51,2.55,3.51,2.55c-3.51-3.5-7,0-7,0"/><polygon points="663.42 83.11 661.38 98.79 663.42 115.22 665.47 98.79 663.42 83.11"/></g><path class="cls-3" d="M592.14,137.2l4.59-5.18.94,1.33-2,2c-.57.58-1.2,1.2-1.69,1.68v0c.66-.33,1.41-.67,2.19-1l2.58-1.12.93,1.32-2,2.08c-.56.58-1.08,1.08-1.64,1.59v0c.67-.35,1.4-.68,2.14-1l2.57-1.14.89,1.27-6.51,2.45-.95-1.35,2-2.13c.48-.5.93-1,1.52-1.46v0c-.69.34-1.28.62-1.92.88l-2.74,1.14Z"/><path class="cls-3" d="M603.47,146.14a3.21,3.21,0,0,1-4.85-.2,3.14,3.14,0,0,1,.54-4.64,3.26,3.26,0,0,1,4.81.19A3.14,3.14,0,0,1,603.47,146.14Zm-3.24-3.64c-1,.86-1.3,1.93-.64,2.71s1.8.59,2.79-.26,1.33-1.9.65-2.7S601.23,141.65,600.24,142.5Z"/><path class="cls-3" d="M606.44,144.57A13.36,13.36,0,0,1,608,145.9a3.44,3.44,0,0,1,1.17,1.91,1.71,1.71,0,0,1-.55,1.44,1.79,1.79,0,0,1-2,.34l0,0a1.7,1.7,0,0,1-.25,1.53c-.39.69-.86,1.46-1,1.73l-1.11-1.1a8.61,8.61,0,0,1,.77-1.44c.46-.72.42-1.09,0-1.53l-.33-.33-1.87,1.88-1.07-1.06Zm-1,3.12.42.42c.54.54,1.13.58,1.54.17s.36-1-.13-1.46a3.88,3.88,0,0,0-.52-.45Z"/><path class="cls-3" d="M610,156.66a4.33,4.33,0,0,1-1.5-.91,3.2,3.2,0,0,1-.47-4.86,3.43,3.43,0,0,1,5.12-.31,4,4,0,0,1,1.06,1.31l-1,.71a3.27,3.27,0,0,0-.8-1,2.21,2.21,0,0,0-2.88,3.36,3.82,3.82,0,0,0,1.1.66Z"/><path class="cls-3" d="M615.78,157.69l-2-1.49-1,1.28,2.21,1.66-.75,1-3.44-2.58,4-5.39,3.33,2.5-.75,1-2.1-1.58-.84,1.12,2,1.49Z"/><path class="cls-3" d="M616.24,159.57a3.88,3.88,0,0,0,1.18,1.27c.59.38,1.05.34,1.29,0s.09-.73-.42-1.41c-.72-.94-1-1.86-.46-2.68s1.91-1.17,3.24-.3a4.13,4.13,0,0,1,1.25,1.23l-1,.84a3.2,3.2,0,0,0-1-1c-.55-.36-1-.28-1.18,0s0,.73.53,1.48c.75,1,.88,1.84.36,2.64-.62.95-1.87,1.27-3.42.26a4.4,4.4,0,0,1-1.37-1.39Z"/><path class="cls-3" d="M623.89,159.78l-1.58-.89.63-1.11,4.51,2.54-.63,1.11-1.6-.9-2.68,4.75-1.33-.75Z"/><path class="cls-3" d="M629.91,165.81l-2.23-1.07-.69,1.44,2.5,1.2-.54,1.13-3.87-1.86,2.91-6.07,3.75,1.8-.54,1.13-2.37-1.14-.61,1.26,2.23,1.07Z"/><path class="cls-3" d="M632.56,162.84a13.39,13.39,0,0,1,1.94.62,3.43,3.43,0,0,1,1.83,1.3,1.71,1.71,0,0,1,.06,1.54,1.79,1.79,0,0,1-1.72,1.1v0a1.7,1.7,0,0,1,.37,1.5c-.09.78-.22,1.68-.19,2l-1.45-.58a8.58,8.58,0,0,1,.14-1.63c.14-.85,0-1.17-.61-1.4l-.43-.17-1,2.46-1.4-.56Zm.33,3.25.56.22c.71.28,1.26.09,1.48-.45s0-1-.69-1.29a3.89,3.89,0,0,0-.66-.21Z"/><path class="cls-3" d="M639.71,165.52a12.59,12.59,0,0,1,2,.44,3.23,3.23,0,0,1,1.83,1.09,2,2,0,0,1,.26,1.7,2.15,2.15,0,0,1-1,1.36,3.12,3.12,0,0,1-2.3.07A4,4,0,0,1,640,170l-.67,2.31-1.45-.42Zm.6,3.36a2.3,2.3,0,0,0,.48.18c.78.23,1.37,0,1.56-.69s-.14-1.07-.87-1.28a2.54,2.54,0,0,0-.62-.12Z"/><path class="cls-3" d="M650.44,171.44a3.21,3.21,0,0,1-4,2.81,3.14,3.14,0,0,1-2.41-4,3.26,3.26,0,0,1,3.92-2.79A3.14,3.14,0,0,1,650.44,171.44Zm-4.78-.89c-.27,1.29.15,2.33,1.15,2.53s1.78-.63,2-1.92-.11-2.32-1.14-2.53S645.92,169.27,645.66,170.55Z"/><path class="cls-3" d="M651.86,168.29l1.52.2-.7,5.41,2.66.34-.16,1.27L651,175Z"/><path class="cls-3" d="M656.92,175.64l.2-2.75-1.84-4.12,1.73.13.57,1.66c.17.5.29.87.43,1.32h0c.18-.41.37-.79.6-1.25l.79-1.57,1.7.12-2.5,3.76-.2,2.8Z"/><path class="cls-3" d="M663,170.46l-1.81,0,0-1.28,5.18.08,0,1.28-1.84,0-.09,5.46-1.53,0Z"/><path class="cls-3" d="M671.13,172.8l-2.47.15.1,1.6,2.76-.17.08,1.25-4.29.26-.41-6.72,4.15-.25.08,1.25-2.62.16.08,1.4,2.47-.15Z"/><path class="cls-3" d="M677.74,174.68a4.36,4.36,0,0,1-1.68.51,3.2,3.2,0,0,1-3.93-2.89,3.43,3.43,0,0,1,3.19-4,4,4,0,0,1,1.68.08l-.15,1.24a3.29,3.29,0,0,0-1.3-.08,2.21,2.21,0,0,0,.58,4.39,3.85,3.85,0,0,0,1.23-.38Z"/><path class="cls-3" d="M679.14,167.75l.53,2.53,2.45-.52-.53-2.53,1.49-.31,1.39,6.59-1.49.31-.58-2.76-2.45.52.58,2.76-1.5.31-1.38-6.59Z"/><path class="cls-3" d="M686,173.13l-1.93-6.45,1.7-.51,2,2a19.88,19.88,0,0,1,1.72,1.9h0a24.94,24.94,0,0,1-.93-2.65l-.57-1.89,1.34-.4,1.93,6.45-1.53.46-2.12-2.08a25.09,25.09,0,0,1-1.8-1.94l0,0c.29.84.58,1.74.9,2.8l.58,1.94Z"/><path class="cls-3" d="M691.92,164.13l2.31,6.33-1.44.53-2.31-6.33Z"/><path class="cls-3" d="M700.12,167.82a4.35,4.35,0,0,1-1.48.95,3.2,3.2,0,0,1-4.57-1.71,3.43,3.43,0,0,1,2-4.74,4,4,0,0,1,1.64-.38l.19,1.23a3.27,3.27,0,0,0-1.27.27,2.21,2.21,0,0,0,1.75,4.07,3.83,3.83,0,0,0,1.08-.7Z"/><path class="cls-3" d="M701.37,159.84l3.13,6-1.35.71-3.13-6Z"/><path class="cls-3" d="M705.85,165.12l-3.47-5.77,1.53-.92,2.47,1.39a19.69,19.69,0,0,1,2.13,1.41h0a24.89,24.89,0,0,1-1.56-2.34l-1-1.69,1.2-.72,3.47,5.77-1.37.83-2.57-1.49a25.07,25.07,0,0,1-2.23-1.43l0,0c.49.74,1,1.54,1.57,2.49l1,1.74Z"/><path class="cls-3" d="M711.05,160.05a3.87,3.87,0,0,0,1.62-.63c.57-.4.71-.85.45-1.21s-.64-.35-1.47-.12c-1.14.33-2.09.24-2.66-.55s-.39-2.21.91-3.13a4.13,4.13,0,0,1,1.6-.71l.43,1.2a3.21,3.21,0,0,0-1.33.55c-.54.38-.63.81-.42,1.1s.67.29,1.57.05c1.22-.33,2-.15,2.59.63s.5,2.21-1,3.28a4.41,4.41,0,0,1-1.79.77Z"/><path class="cls-3" d="M714.05,153l-1.41,1.14-.81-1,4-3.26.81,1-1.43,1.16,3.44,4.24-1.19,1Z"/><path class="cls-3" d="M717.46,148.43l4.5,5-1.14,1-4.5-5Z"/><path class="cls-3" d="M720.14,147.65l-1.28,1.28L718,148l3.67-3.65.9.91-1.31,1.3,3.85,3.87L724,151.52Z"/><path class="cls-3" d="M723,142.81l2.93,2.54c.88.76,1.61.81,2.12.23s.39-1.3-.51-2.08L724.64,141l1-1.15,2.85,2.48c1.57,1.36,1.63,2.8.48,4.13s-2.48,1.42-4.1,0L722,144Z"/><path class="cls-3" d="M728.09,138.67,727,140.12l-1-.76,3.09-4.15,1,.76-1.1,1.47,4.38,3.26-.91,1.23Z"/><path class="cls-3" d="M734.84,133.47l-1.35,2.08,1.34.87,1.51-2.32,1,.68L735,138.38l-5.65-3.67,2.26-3.49,1,.68-1.43,2.21,1.17.76,1.35-2.08Z"/><path class="cls-3" d="M583.24,95.12l1.75.39.08,1.58-6.83-1.72-.1-2,6.63-2.42.08,1.64-1.7.6ZM582,93.47l-1.41.49c-.39.14-.89.28-1.28.4v0c.4.08.92.16,1.31.25l1.45.33Z"/><path class="cls-3" d="M582.39,84.55c-.81,0-1.79,0-2.77-.05v0c.85.24,1.8.56,2.58.85l2.59.92,0,1.19-2.63.61c-.8.19-1.77.38-2.65.5v0c.91.08,1.94.15,2.78.23l2.55.22-.06,1.41L578,89.8l.08-2,2.27-.57c.79-.18,1.63-.35,2.43-.47v0c-.77-.22-1.65-.49-2.39-.74l-2.21-.81.08-2,6.75-.1L585,84.55Z"/><path class="cls-3" d="M582.83,77.84l-.3,2.46,1.59.2.34-2.75,1.24.15-.53,4.26-6.69-.83.51-4.13,1.24.15L579.91,80l1.39.17.3-2.46Z"/><path class="cls-3" d="M579.3,75.84a13.2,13.2,0,0,1,.25-2,3.44,3.44,0,0,1,.93-2,1.71,1.71,0,0,1,1.5-.34,1.79,1.79,0,0,1,1.4,1.48h0a1.7,1.7,0,0,1,1.41-.64c.79-.06,1.69-.1,2-.18l-.3,1.53a8.44,8.44,0,0,1-1.63.16c-.86,0-1.14.26-1.27.86l-.09.45,2.6.5-.29,1.48Zm3.13-.93.11-.59c.14-.75-.14-1.26-.72-1.37s-1,.24-1.14.92a3.73,3.73,0,0,0-.08.69Z"/><path class="cls-3" d="M580.83,68.35,587.36,70,587,71.47l-6.54-1.63Z"/><path class="cls-3" d="M588.9,64.1a4.36,4.36,0,0,1-.23,1.74,3.2,3.2,0,0,1-4.26,2.38,3.43,3.43,0,0,1-2.34-4.57,4,4,0,0,1,.78-1.5l1.07.65A3.28,3.28,0,0,0,583.3,64a2.21,2.21,0,0,0,4.23,1.29,3.82,3.82,0,0,0,.16-1.28Z"/><path class="cls-3" d="M588.33,61.27l1.43,1.08-.58,1.47-5.51-4.39.73-1.86,7,.53-.6,1.52-1.8-.15Zm-.43-2-1.48-.14c-.42,0-.92-.11-1.33-.16v0c.33.24.77.52,1.09.76l1.18.9Z"/><path class="cls-3" d="M591.7,57.53l-6-3,.79-1.6,2.83-.16a19.51,19.51,0,0,1,2.56,0v0a25.23,25.23,0,0,1-2.58-1.13l-1.77-.87.62-1.25,6,3L593.46,54l-3,.14a24.87,24.87,0,0,1-2.65,0v0c.81.36,1.67.76,2.66,1.25l1.82.9Z"/><path class="cls-3" d="M590.73,45.09l5.77,3.47-.79,1.31-5.77-3.47Z"/><path class="cls-3" d="M597.06,47.59l-5.55-3.81,1-1.47,2.83.24a19.49,19.49,0,0,1,2.53.4l0,0a24.91,24.91,0,0,1-2.39-1.48l-1.62-1.11.79-1.15L600.21,43l-.9,1.32-3-.28a25,25,0,0,1-2.62-.38v0c.76.47,1.55,1,2.46,1.61l1.67,1.15Z"/><path class="cls-3" d="M599.68,41.13a3.88,3.88,0,0,0,1.38-1.06c.44-.55.44-1,.1-1.29s-.72-.16-1.45.29c-1,.63-1.94.81-2.71.2s-1-2,0-3.26a4.13,4.13,0,0,1,1.34-1.13l.75,1a3.21,3.21,0,0,0-1.13.9c-.41.52-.38,1-.1,1.17s.72.09,1.52-.38c1.09-.65,1.92-.7,2.66-.11s1.09,2-.07,3.43a4.42,4.42,0,0,1-1.51,1.23Z"/><path class="cls-3" d="M601,33.48l-1.22,1.33-.94-.86,3.49-3.82.94.86L602,32.35,606,36l-1,1.13Z"/><path class="cls-3" d="M604.12,28.38l4.74,4.79-1.09,1.08L603,29.45Z"/><path class="cls-3" d="M607,27.42l-1.35,1.21-.85-1,3.86-3.45.85,1-1.37,1.23,3.64,4.07-1.14,1Z"/><path class="cls-3" d="M610.67,22.61,613,25.68c.71.92,1.42,1.12,2,.64s.64-1.2-.08-2.14l-2.36-3.07,1.2-.93,2.3,3c1.27,1.65,1,3.07-.36,4.14s-2.71.9-4-.8l-2.29-3Z"/><path class="cls-3" d="M616.91,19.65l-1.51,1-.7-1.07L619,16.73l.7,1.07-1.54,1,3,4.56-1.28.84Z"/><path class="cls-3" d="M625.32,17.61l-2.16,1.22.79,1.39,2.41-1.37.62,1.09-3.74,2.12-3.32-5.86,3.62-2.05.62,1.09-2.29,1.3.69,1.22,2.16-1.22Z"/><path class="cls-3" d="M633.65,13.06a3.21,3.21,0,0,1-1.59,4.58,3.14,3.14,0,0,1-4.28-1.86,3.26,3.26,0,0,1,1.58-4.55A3.14,3.14,0,0,1,633.65,13.06Zm-4.42,2c.53,1.21,1.47,1.81,2.41,1.4s1.09-1.55.56-2.75-1.44-1.82-2.4-1.4S628.71,13.91,629.23,15.11Z"/><path class="cls-3" d="M633.52,9.62l3.88-1.37.42,1.18-2.44.86.51,1.45,2.28-.81.41,1.17-2.28.81.9,2.55-1.44.51Z"/><path class="cls-3" d="M643.47,11.7l0,1.79-1.53.38.38-7,1.94-.48,3.65,6-1.59.39-.92-1.55Zm1.39-1.52L644.1,8.9c-.21-.36-.45-.82-.64-1.18h0c0,.41,0,.93,0,1.34l0,1.48Z"/><path class="cls-3" d="M652,8.81l-2.44.42.27,1.58,2.73-.47.21,1.23-4.24.73-1.14-6.64,4.1-.7.21,1.23-2.59.44L649.33,8l2.44-.42Z"/><path class="cls-3" d="M652.87,4.85a13.36,13.36,0,0,1,2-.35,3.43,3.43,0,0,1,2.22.3,1.71,1.71,0,0,1,.76,1.34,1.79,1.79,0,0,1-1,1.77V8a1.7,1.7,0,0,1,1,1.16c.29.73.58,1.59.74,1.83l-1.55.16a8.39,8.39,0,0,1-.63-1.51c-.27-.82-.58-1-1.19-1l-.46,0,.27,2.63-1.5.15Zm1.8,2.73.6-.06c.76-.08,1.16-.5,1.1-1.09s-.51-.88-1.21-.82a3.86,3.86,0,0,0-.68.12Z"/><path class="cls-3" d="M665.24,7.32A3.21,3.21,0,0,1,662,10.95a3.14,3.14,0,0,1-3.25-3.35A3.26,3.26,0,0,1,662,4,3.14,3.14,0,0,1,665.24,7.32Zm-4.86.21c0,1.32.67,2.23,1.69,2.21s1.59-1,1.56-2.33S663,5.18,662,5.2,660.35,6.22,660.38,7.53Z"/><path class="cls-3" d="M666,10.79l.4-6.72,1.78.11,1.25,2.55a19.37,19.37,0,0,1,1,2.37h0a24.88,24.88,0,0,1,0-2.81l.12-2,1.4.08-.4,6.72L670,11l-1.28-2.68a24.76,24.76,0,0,1-1-2.44h0c0,.89,0,1.84-.12,2.94l-.12,2Z"/><path class="cls-3" d="M674.45,9.75l-.72,1.64-1.56-.22,3-6.38,2,.28,1.12,7-1.62-.23L676.36,10Zm1.85-.89-.21-1.47C676,7,676,6.46,675.93,6h0c-.15.38-.33.87-.49,1.24l-.6,1.36Z"/><path class="cls-3" d="M681.48,5.85l-.84,3.79c-.25,1.13,0,1.8.81,2s1.33-.28,1.59-1.44l.84-3.79,1.48.33-.82,3.69c-.45,2-1.69,2.77-3.41,2.39s-2.43-1.5-2-3.6L680,5.52Z"/><path class="cls-3" d="M687.77,8.74,686,8.21,686.41,7l5,1.5L691,9.71l-1.76-.53-1.58,5.22L686.19,14Z"/><path class="cls-3" d="M693.72,9.35l-2.27,6.34L690,15.18l2.27-6.34Z"/><path class="cls-3" d="M697.16,17.81a4.34,4.34,0,0,1-1.71-.4,3.2,3.2,0,0,1-1.95-4.47,3.43,3.43,0,0,1,4.78-1.87,4,4,0,0,1,1.41.92l-.75,1a3.31,3.31,0,0,0-1.08-.73A2,2,0,0,0,695,13.47a2,2,0,0,0,1.14,2.86,3.81,3.81,0,0,0,1.26.29Z"/><path class="cls-3" d="M698.52,16.95a3.9,3.9,0,0,0,1.32,1.14c.63.31,1.09.22,1.28-.17s0-.73-.58-1.36c-.82-.85-1.2-1.73-.76-2.61.52-1,1.77-1.38,3.19-.66a4.13,4.13,0,0,1,1.38,1.08l-.86.94a3.21,3.21,0,0,0-1.11-.92c-.59-.3-1-.17-1.17.14s.06.72.69,1.41c.86.93,1.08,1.73.66,2.58-.51,1-1.72,1.47-3.37.64a4.42,4.42,0,0,1-1.52-1.23Z"/><path class="cls-3" d="M706.31,21,705,22.21l-1.33-.84L709,16.78l1.69,1.07-1.84,6.81-1.38-.88.49-1.74Zm2.05,0,.41-1.43c.11-.4.28-.89.41-1.28h0c-.3.28-.66.66-1,.93l-1.1,1Z"/><path class="cls-3" d="M709.35,25l4.05-5.38,1.42,1.07-.37,2.81a19.62,19.62,0,0,1-.51,2.51l0,0a25,25,0,0,1,1.58-2.32l1.18-1.57,1.12.84-4.05,5.38-1.28-1,.41-2.94a25.09,25.09,0,0,1,.5-2.6h0c-.5.73-1.06,1.5-1.72,2.38l-1.22,1.62Z"/><path class="cls-3" d="M719,24.07a13.62,13.62,0,0,1,1.63,1.27,4.33,4.33,0,0,1,1.58,2.37,3,3,0,0,1-.84,2.65,3.42,3.42,0,0,1-2.65,1.29,4.84,4.84,0,0,1-2.9-1.42A13.33,13.33,0,0,1,714.63,29Zm-2.52,5.12a2.77,2.77,0,0,0,.38.38,2.09,2.09,0,0,0,3.27-.24,1.93,1.93,0,0,0-.16-3,3.22,3.22,0,0,0-.55-.42Z"/><path class="cls-3" d="M723.27,34.91l-1.6.81-1.06-1.17,6.38-3L728.32,33l-3.59,6.07-1.1-1.21.93-1.55Zm2,.5.78-1.27c.22-.36.51-.78.74-1.12v0c-.36.19-.81.46-1.17.64l-1.33.66Z"/><path class="cls-3" d="M726.4,38.7a3.87,3.87,0,0,0,.71,1.59c.43.55.89.66,1.23.39s.32-.66.05-1.48c-.38-1.12-.35-2.08.43-2.68S731,36,732,37.28a4.14,4.14,0,0,1,.79,1.56l-1.18.49A3.19,3.19,0,0,0,731,38c-.41-.52-.84-.59-1.11-.37s-.25.68,0,1.57c.39,1.21.24,2-.5,2.62s-2.18.6-3.32-.85a4.43,4.43,0,0,1-.85-1.76Z"/><path class="cls-3" d="M733.54,41.73l-1-1.49,1.06-.72,2.92,4.28-1.06.72-1-1.52-4.51,3.07L729,44.8Z"/><path class="cls-3" d="M737,44.72a13.49,13.49,0,0,1,1.15,1.68,3.44,3.44,0,0,1,.64,2.15,1.71,1.71,0,0,1-.9,1.25,1.79,1.79,0,0,1-2-.19l0,0a1.7,1.7,0,0,1-.63,1.41c-.55.57-1.2,1.19-1.36,1.43L733,51.12a8.48,8.48,0,0,1,1.12-1.2c.63-.58.69-.95.38-1.48l-.23-.4L732,49.38l-.76-1.3Zm-1.74,2.77.3.52c.38.66.94.85,1.45.55s.59-.83.25-1.44a3.93,3.93,0,0,0-.39-.57Z"/><path class="cls-3" d="M739.84,57a3.21,3.21,0,0,1-4.63-1.44,3.14,3.14,0,0,1,1.71-4.34,3.26,3.26,0,0,1,4.6,1.42A3.14,3.14,0,0,1,739.84,57Zm-2.2-4.34c-1.19.57-1.75,1.54-1.31,2.45s1.59,1,2.77.46,1.77-1.5,1.32-2.45S738.82,52.09,737.64,52.66Z"/><path class="cls-3" d="M737,59.16l6.29-2.4.63,1.66-1.81,2.19a19.5,19.5,0,0,1-1.77,1.85v0A25.21,25.21,0,0,1,743,61.36l1.84-.7.5,1.31L739,64.37l-.57-1.49,1.91-2.27a24.81,24.81,0,0,1,1.81-1.94l0,0c-.82.35-1.7.71-2.72,1.1l-1.9.72Z"/><path class="cls-3" d="M741.42,66.39l-1.79,0-.44-1.52,7,.1.56,1.92L740.9,70.8l-.46-1.57,1.52-1ZM743,67.71l1.26-.8c.35-.23.8-.48,1.15-.69v0c-.41,0-.93.06-1.33.06h-1.48Z"/><path class="cls-3" d="M747.87,71.2l-3.8.79c-1.13.24-1.62.79-1.46,1.55s.8,1.1,2,.86l3.8-.79.31,1.49-3.7.77c-2,.42-3.22-.4-3.58-2.12s.37-2.83,2.47-3.27l3.68-.77Z"/><path class="cls-3" d="M747.82,78.1l-.24-1.79,1.27-.17.67,5.13-1.27.17L748,79.62l-5.41.71-.2-1.52Z"/><path class="cls-3" d="M749.71,83.78l-6.71.54-.12-1.52,6.71-.54Z"/><path class="cls-3" d="M743.42,90.4a4.34,4.34,0,0,1-.34-1.72,3.2,3.2,0,0,1,3.27-3.62A3.43,3.43,0,0,1,750,88.64a4,4,0,0,1-.25,1.67L748.56,90a3.3,3.3,0,0,0,.21-1.29,2.22,2.22,0,0,0-4.43.13,3.84,3.84,0,0,0,.25,1.26Z"/><path class="cls-3" d="M744.77,91.3a3.89,3.89,0,0,0-.49,1.67c0,.7.25,1.08.69,1.1s.67-.29,1-1.09c.43-1.1,1.08-1.81,2.06-1.77,1.15,0,2,1,1.93,2.63a4.13,4.13,0,0,1-.41,1.7l-1.21-.39a3.2,3.2,0,0,0,.38-1.4c0-.66-.26-1-.61-1s-.64.35-1,1.21c-.49,1.17-1.13,1.71-2.08,1.67-1.13,0-2.05-1-2-2.8a4.42,4.42,0,0,1,.49-1.89Z"/></g></g><g id="aiaa_logo_bk"><g class="cls-4"><polygon points="448.53 72.34 446.34 69.48 426.33 69.48 426.74 72.34 448.53 72.34"/><polygon points="454.5 80.2 452.24 77.24 427.48 77.24 427.98 80.2 454.5 80.2"/><polygon points="460.35 88.01 458.15 85.06 428.64 85.06 429.06 88.01 460.35 88.01"/><polygon points="466.28 95.82 464.35 92.9 429.84 92.9 430.22 95.82 466.28 95.82"/><polygon points="472.13 103.55 470.15 100.75 430.77 100.75 431.28 103.55 472.13 103.55"/><g class="cls-4"><path d="M420.36,103.68l1.94,12c1.58,7.94,6,10.27,6.26,10.35v.8H378.74V126c3.57,0,4.56-3.39,4.17-5.38l-2.23-16.93Z"/><path d="M324.58,69.37,358.2,11.16c1.6-2.79,4.58-7.55-2.69-10.46V0h48.13l11.21,69.36H376.22l-4-30.72L355.71,69.37Z"/><polygon points="416.18 77.16 415.31 72.42 322.88 72.42 320.14 77.16 416.18 77.16"/><polygon points="417.3 84.97 416.64 80.23 318.38 80.23 315.55 84.97 417.3 84.97"/><polygon points="418.64 92.78 417.96 88.04 314.03 88.04 311.05 92.78 418.64 92.78"/><polygon points="419.87 100.59 419.21 95.84 309.38 95.84 306.6 100.59 419.87 100.59"/><path d="M144.25,69.37l12.3-58.21c.35-1.71,2.52-8.38-2.68-10.46V0h50.36V.79c-3.17,1.19-6.84,7-7.64,11.56l-11.34,57Z"/><polygon points="183.69 77.16 184.69 72.42 143.63 72.42 142.61 77.16 183.69 77.16"/><polygon points="182.13 84.97 183.13 80.23 142 80.23 140.97 84.97 182.13 84.97"/><polygon points="180.61 92.78 181.58 88.04 140.35 88.04 139.31 92.78 180.61 92.78"/><polygon points="178.95 100.59 180.03 95.84 138.72 95.84 137.57 100.59 178.95 100.59"/><path d="M331,115.64l6.44-11.94-32.54,0-1,1.65-.27-1.65H264l2.23,16.93c.39,2-.59,5.38-4.17,5.38v.8h71.44V126c-4.37-1.59-5.85-4-2.48-10.35"/><path d="M206.61,69.37l34.91-58.21c1.61-2.79,4.58-7.55-2.67-10.46V0H287l11.2,69.36H259.53l-4-30.72L239,69.37Z"/><polygon points="299.5 77.16 298.63 72.42 204.71 72.42 201.98 77.16 299.5 77.16"/><polygon points="300.63 84.97 299.96 80.23 199.85 80.23 197.01 84.97 300.63 84.97"/><polygon points="301.96 92.78 301.27 88.04 195.31 88.04 192.32 92.78 301.96 92.78"/><polygon points="303.18 100.59 302.51 95.84 190.67 95.84 187.88 100.59 303.18 100.59"/><path d="M214.33,115.64l6.43-11.94-34.76,0-11.32,18.64,3.78-18.74-41.41.09-1.3,6.08-1-6.08H95.09l2.23,16.93c.4,2-.59,5.38-4.17,5.38v.8H123.3l48.56.07H216l.77-.88c-4.37-1.59-5.85-4-2.48-10.35"/><path d="M51.85,103.7l-6.43,11.94C42,122,43.53,124.41,47.9,126v.8h-46V126c3.58,0,7.84-5.67,11.61-12.25l5.85-10.06Z"/><path d="M39,69.37,72.61,11.16C74.21,8.37,77.19,3.61,69.93.7V0h48.12l11.21,69.36H90.62l-4-30.72L70.11,69.37Z"/><polygon points="130.58 77.16 129.71 72.42 37.29 72.42 34.55 77.16 130.58 77.16"/><polygon points="131.71 84.97 131.05 80.23 32.79 80.23 29.96 84.97 131.71 84.97"/><polygon points="133.05 92.78 132.36 88.04 28.44 88.04 25.46 92.78 133.05 92.78"/><polygon points="134.27 100.59 133.61 95.84 23.79 95.84 21.01 100.59 134.27 100.59"/><path d="M4.59,157,0,137.55H4.68l1.46,8c.43,2.31.83,4.82,1.15,6.78h.06c.31-2.11.77-4.44,1.26-6.84l1.64-8h4.64l1.55,8.2c.43,2.28.75,4.36,1,6.52h.06c.29-2.17.72-4.45,1.12-6.76l1.58-8h4.44l-5,19.46H14.94l-1.63-8.37c-.37-2-.69-3.78-.92-6h-.06c-.34,2.19-.66,4-1.12,6L9.38,157Z"/><path d="M44.39,147.08c0,6.38-3.84,10.25-9.49,10.25s-9.09-4.36-9.09-9.9c0-5.83,3.7-10.19,9.41-10.19,5.94,0,9.18,4.47,9.18,9.84m-14,.26c0,3.81,1.78,6.49,4.7,6.49s4.65-2.83,4.65-6.61c0-3.49-1.66-6.49-4.67-6.49s-4.68,2.83-4.68,6.61"/><path d="M47.25,137.81a38.14,38.14,0,0,1,5.82-.4c2.87,0,4.87.43,6.25,1.53A5,5,0,0,1,61.1,143a5.16,5.16,0,0,1-3.41,4.79v.09c1.35.55,2.09,1.85,2.58,3.64.6,2.19,1.21,4.73,1.58,5.49H57.37A24.57,24.57,0,0,1,56,152.48c-.52-2.42-1.35-3.09-3.13-3.12H51.58V157H47.25Zm4.33,8.37H53.3c2.18,0,3.47-1.1,3.47-2.8s-1.21-2.69-3.21-2.71a10.93,10.93,0,0,0-2,.14Z"/><path d="M78.33,156.46a12.41,12.41,0,0,1-5,.84c-6.68,0-10.12-4.19-10.12-9.73,0-6.64,4.7-10.33,10.55-10.33a11.33,11.33,0,0,1,4.76.87l-.89,3.49a9.41,9.41,0,0,0-3.67-.72c-3.47,0-6.16,2.11-6.16,6.44,0,3.9,2.29,6.35,6.19,6.35a10.88,10.88,0,0,0,3.64-.64Z"/><polygon points="92.69 148.78 85.58 148.78 85.58 153.4 93.52 153.4 93.52 157.01 81.19 157.01 81.19 137.56 93.12 137.56 93.12 141.16 85.58 141.16 85.58 145.2 92.69 145.2 92.69 148.78"/><path d="M96.65,152.48a11.08,11.08,0,0,0,4.85,1.21c2,0,3.07-.84,3.07-2.11s-.92-1.9-3.24-2.74c-3.21-1.13-5.3-2.92-5.3-5.74,0-3.32,2.75-5.86,7.31-5.86a11.75,11.75,0,0,1,4.93,1l-1,3.55a9.13,9.13,0,0,0-4-.92c-1.89,0-2.81.87-2.81,1.88,0,1.24,1.09,1.79,3.59,2.74,3.41,1.27,5,3.06,5,5.8,0,3.26-2.49,6-7.8,6a12.57,12.57,0,0,1-5.48-1.18Z"/><polygon points="115.71 141.25 110.52 141.25 110.52 137.56 125.38 137.56 125.38 141.25 120.1 141.25 120.1 157.01 115.71 157.01 115.71 141.25"/><polygon points="139.19 148.78 132.08 148.78 132.08 153.4 140.03 153.4 140.03 157.01 127.69 157.01 127.69 137.56 139.62 137.56 139.62 141.16 132.08 141.16 132.08 145.2 139.19 145.2 139.19 148.78"/><path d="M143,137.81a38.14,38.14,0,0,1,5.82-.4c2.87,0,4.87.43,6.25,1.53a5,5,0,0,1,1.78,4.07,5.16,5.16,0,0,1-3.41,4.79v.09c1.35.55,2.09,1.85,2.58,3.64.6,2.19,1.21,4.73,1.58,5.49h-4.47a24.57,24.57,0,0,1-1.35-4.53c-.52-2.42-1.35-3.09-3.13-3.12h-1.32V157H143Zm4.33,8.37h1.72c2.18,0,3.47-1.1,3.47-2.8s-1.21-2.69-3.21-2.71a10.93,10.93,0,0,0-2,.14Z"/><path d="M165.8,137.82a35.51,35.51,0,0,1,5.91-.41c2.7,0,4.62.52,5.91,1.56a5.7,5.7,0,0,1,2.07,4.5,6.23,6.23,0,0,1-1.78,4.62,8.92,8.92,0,0,1-6.28,2,10.94,10.94,0,0,1-1.49-.09v7H165.8Zm4.33,8.83a6.61,6.61,0,0,0,1.46.12c2.32,0,3.76-1.18,3.76-3.18,0-1.79-1.23-2.86-3.41-2.86a7.37,7.37,0,0,0-1.81.17Z"/><path d="M200.15,147.08c0,6.38-3.84,10.25-9.49,10.25s-9.09-4.36-9.09-9.9c0-5.83,3.7-10.19,9.41-10.19,5.94,0,9.18,4.47,9.18,9.84m-14,.26c0,3.81,1.78,6.49,4.7,6.49s4.65-2.83,4.65-6.61c0-3.49-1.66-6.49-4.67-6.49s-4.68,2.83-4.68,6.61"/><polygon points="203.01 137.56 207.4 137.56 207.4 153.31 215.08 153.31 215.08 157.01 203.01 157.01 203.01 137.56"/><path d="M219.55,157v-8l-6.11-11.49h5l2,4.68c.6,1.41,1,2.45,1.49,3.72H222c.43-1.21.89-2.34,1.46-3.72l2-4.68h4.9l-6.37,11.34V157Z"/><polygon points="236.09 141.25 230.9 141.25 230.9 137.56 245.76 137.56 245.76 141.25 240.48 141.25 240.48 157.01 236.09 157.01 236.09 141.25"/><polygon points="259.58 148.78 252.47 148.78 252.47 153.4 260.41 153.4 260.41 157.01 248.08 157.01 248.08 137.56 260.01 137.56 260.01 141.16 252.47 141.16 252.47 145.2 259.58 145.2 259.58 148.78"/><path d="M277.58,156.46a12.4,12.4,0,0,1-5,.84c-6.68,0-10.12-4.19-10.12-9.73,0-6.64,4.7-10.33,10.55-10.33a11.33,11.33,0,0,1,4.76.87l-.89,3.49a9.42,9.42,0,0,0-3.67-.72c-3.47,0-6.17,2.11-6.17,6.44,0,3.9,2.29,6.35,6.19,6.35a10.88,10.88,0,0,0,3.64-.64Z"/><polygon points="284.83 137.56 284.83 145.03 292.03 145.03 292.03 137.56 296.39 137.56 296.39 157.01 292.03 157.01 292.03 148.87 284.83 148.87 284.83 157.01 280.45 157.01 280.45 137.56 284.83 137.56"/><path d="M300.2,157V137.55h5.1l4,7.13a56.4,56.4,0,0,1,3.16,6.67h.09a72.75,72.75,0,0,1-.37-8.11v-5.69h4V157h-4.59l-4.13-7.5a72.34,72.34,0,0,1-3.35-6.87l-.09,0c.12,2.57.17,5.31.17,8.49V157Z"/><rect x="319.98" y="137.55" width="4.39" height="19.46"/><path d="M342.35,156.46a12.4,12.4,0,0,1-5,.84c-6.68,0-10.12-4.19-10.12-9.73,0-6.64,4.7-10.33,10.55-10.33a11.33,11.33,0,0,1,4.76.87l-.89,3.49a9.42,9.42,0,0,0-3.67-.72c-3.47,0-6.17,2.11-6.17,6.44,0,3.9,2.29,6.35,6.19,6.35a10.88,10.88,0,0,0,3.64-.64Z"/><rect x="351" y="137.55" width="4.39" height="19.46"/><path d="M359.17,157V137.55h5.1l4,7.13a56.4,56.4,0,0,1,3.16,6.67h.09a72.75,72.75,0,0,1-.37-8.11v-5.69h4V157h-4.59l-4.13-7.5a72.34,72.34,0,0,1-3.35-6.87l-.09,0c.12,2.57.17,5.31.17,8.49V157Z"/><path d="M379.1,152.48a11.08,11.08,0,0,0,4.85,1.21c2,0,3.07-.84,3.07-2.11s-.92-1.9-3.24-2.74c-3.21-1.13-5.31-2.92-5.31-5.74,0-3.32,2.75-5.86,7.31-5.86a11.75,11.75,0,0,1,4.93,1l-1,3.55a9.14,9.14,0,0,0-4-.92c-1.89,0-2.81.87-2.81,1.88,0,1.24,1.09,1.79,3.58,2.74,3.41,1.27,5,3.06,5,5.8,0,3.26-2.49,6-7.8,6a12.57,12.57,0,0,1-5.48-1.18Z"/><polygon points="398.17 141.25 392.98 141.25 392.98 137.56 407.83 137.56 407.83 141.25 402.55 141.25 402.55 157.01 398.17 157.01 398.17 141.25"/><rect x="410.15" y="137.55" width="4.39" height="19.46"/><polygon points="422.05 141.25 416.86 141.25 416.86 137.56 431.71 137.56 431.71 141.25 426.43 141.25 426.43 157.01 422.05 157.01 422.05 141.25"/><path d="M438.39,137.56v11.2c0,3.35,1.26,5.05,3.5,5.05s3.56-1.62,3.56-5.05v-11.2h4.36v10.91c0,6-3,8.86-8.06,8.86-4.87,0-7.74-2.71-7.74-8.92V137.56Z"/><polygon points="457.31 141.25 452.12 141.25 452.12 137.56 466.97 137.56 466.97 141.25 461.7 141.25 461.7 157.01 457.31 157.01 457.31 141.25"/><polygon points="480.79 148.78 473.68 148.78 473.68 153.4 481.62 153.4 481.62 157.01 469.29 157.01 469.29 137.56 481.22 137.56 481.22 141.16 473.68 141.16 473.68 145.2 480.79 145.2 480.79 148.78"/><path d="M3.08,175.86,1.75,179.8H0l4.34-12.52h2l4.36,12.52H9l-1.37-3.94Zm4.19-1.26L6,171c-.28-.82-.47-1.56-.66-2.28h0c-.19.74-.4,1.5-.65,2.27L3.42,174.6Z"/><path d="M23.32,174.3c-.09-1.75-.21-3.84-.19-5.4h-.06c-.44,1.47-1,3-1.61,4.75l-2.26,6.07H18l-2.07-6c-.61-1.76-1.12-3.38-1.48-4.87h0c0,1.56-.13,3.66-.25,5.53l-.34,5.37H12.2l.89-12.52H15.2l2.18,6.05c.53,1.54,1,2.92,1.29,4.22h.06c.32-1.26.78-2.64,1.35-4.22l2.28-6.05h2.11l.8,12.52H23.64Z"/><polygon points="34.42 173.93 29.45 173.93 29.45 178.44 34.98 178.44 34.98 179.8 27.8 179.8 27.8 167.28 34.7 167.28 34.7 168.63 29.45 168.63 29.45 172.59 34.42 172.59 34.42 173.93"/><path d="M37.13,167.45a17.48,17.48,0,0,1,3.17-.26,5.31,5.31,0,0,1,3.7,1,3.09,3.09,0,0,1,1,2.38,3.3,3.3,0,0,1-2.41,3.19v.06a3.13,3.13,0,0,1,1.88,2.52,19.56,19.56,0,0,0,1,3.44H43.75a15.94,15.94,0,0,1-.85-3c-.38-1.73-1.06-2.38-2.56-2.43H38.78v5.42H37.13Zm1.65,5.7h1.69c1.76,0,2.88-.95,2.88-2.38,0-1.62-1.2-2.32-2.94-2.34a6.89,6.89,0,0,0-1.63.15Z"/><rect x="47.33" y="167.28" width="1.65" height="12.52"/><path d="M60.8,179.39a8.35,8.35,0,0,1-3.38.59c-3.6,0-6.32-2.23-6.32-6.33a6.3,6.3,0,0,1,6.68-6.57,7,7,0,0,1,3,.56l-.4,1.32a6.12,6.12,0,0,0-2.58-.52c-3,0-5,1.88-5,5.16,0,3.06,1.8,5,4.91,5a6.74,6.74,0,0,0,2.69-.52Z"/><path d="M65,175.86l-1.33,3.94H62l4.34-12.52h2l4.36,12.52H70.91l-1.37-3.94Zm4.19-1.26L68,171c-.28-.82-.47-1.56-.66-2.28h0c-.19.74-.4,1.5-.65,2.27l-1.25,3.62Z"/><path d="M74.56,179.8V167.28h1.8l4.1,6.33a35.35,35.35,0,0,1,2.3,4.07l0,0c-.15-1.67-.19-3.19-.19-5.15v-5.24h1.56V179.8H82.48l-4.06-6.35A39.51,39.51,0,0,1,76,169.26l-.06,0c.09,1.58.13,3.08.13,5.16v5.35Z"/><rect x="91.06" y="167.28" width="1.65" height="12.52"/><path d="M95.59,179.8V167.28h1.8l4.1,6.33a35.35,35.35,0,0,1,2.3,4.07l0,0c-.15-1.67-.19-3.19-.19-5.15v-5.24h1.56V179.8h-1.67l-4.06-6.35a39.51,39.51,0,0,1-2.39-4.18l-.06,0c.09,1.58.13,3.08.13,5.16v5.35Z"/><path d="M107.85,177.83a5.94,5.94,0,0,0,3,.82c1.69,0,2.67-.87,2.67-2.14s-.68-1.84-2.41-2.49c-2.09-.72-3.38-1.78-3.38-3.55,0-2,1.65-3.4,4.14-3.4a5.9,5.9,0,0,1,2.83.61L114.2,169a5.17,5.17,0,0,0-2.43-.59c-1.75,0-2.41,1-2.41,1.88,0,1.17.78,1.75,2.54,2.41,2.16.82,3.26,1.84,3.26,3.68s-1.46,3.6-4.48,3.6a6.72,6.72,0,0,1-3.26-.8Z"/><polygon points="119.85 168.65 115.96 168.65 115.96 167.28 125.43 167.28 125.43 168.65 121.52 168.65 121.52 179.8 119.85 179.8 119.85 168.65"/><rect x="126.85" y="167.28" width="1.65" height="12.52"/><polygon points="133.81 168.65 129.93 168.65 129.93 167.28 139.39 167.28 139.39 168.65 135.49 168.65 135.49 179.8 133.81 179.8 133.81 168.65"/><path d="M142.47,167.28v7.41c0,2.8,1.27,4,3,4,1.9,0,3.11-1.23,3.11-4v-7.41h1.67v7.3c0,3.84-2.07,5.42-4.84,5.42-2.62,0-4.59-1.47-4.59-5.35v-7.37Z"/><polygon points="155.52 168.65 151.63 168.65 151.63 167.28 161.09 167.28 161.09 168.65 157.19 168.65 157.19 179.8 155.52 179.8 155.52 168.65"/><polygon points="169.14 173.93 164.17 173.93 164.17 178.44 169.71 178.44 169.71 179.8 162.52 179.8 162.52 167.28 169.42 167.28 169.42 168.63 164.17 168.63 164.17 172.59 169.14 172.59 169.14 173.93"/><path d="M186.8,173.41c0,4.31-2.67,6.59-5.94,6.59s-5.75-2.56-5.75-6.35c0-4,2.52-6.57,5.94-6.57s5.75,2.62,5.75,6.33m-9.92.2c0,2.67,1.48,5.07,4.08,5.07s4.1-2.36,4.1-5.2c0-2.49-1.33-5.09-4.08-5.09s-4.1,2.47-4.1,5.22"/><polygon points="188.94 167.28 195.82 167.28 195.82 168.63 190.59 168.63 190.59 172.79 195.43 172.79 195.43 174.13 190.59 174.13 190.59 179.79 188.94 179.79 188.94 167.28"/><path d="M204.27,175.86l-1.33,3.94h-1.71l4.34-12.52h2l4.36,12.52h-1.76l-1.37-3.94Zm4.19-1.26-1.25-3.6c-.28-.82-.47-1.56-.66-2.28h0c-.19.74-.4,1.5-.65,2.27l-1.25,3.62Z"/><polygon points="220.43 173.93 215.46 173.93 215.46 178.44 221 178.44 221 179.8 213.81 179.8 213.81 167.28 220.71 167.28 220.71 168.63 215.46 168.63 215.46 172.59 220.43 172.59 220.43 173.93"/><path d="M223.14,167.45a17.48,17.48,0,0,1,3.17-.26,5.31,5.31,0,0,1,3.7,1,3.09,3.09,0,0,1,1,2.38,3.3,3.3,0,0,1-2.41,3.19v.06a3.13,3.13,0,0,1,1.88,2.52,19.57,19.57,0,0,0,1,3.44h-1.71a15.94,15.94,0,0,1-.85-3c-.38-1.73-1.06-2.38-2.56-2.43h-1.56v5.42h-1.65Zm1.65,5.7h1.69c1.76,0,2.88-.95,2.88-2.38,0-1.62-1.2-2.32-2.94-2.34a6.89,6.89,0,0,0-1.63.15Z"/><path d="M244.33,173.41c0,4.31-2.67,6.59-5.94,6.59s-5.75-2.56-5.75-6.35c0-4,2.52-6.57,5.94-6.57s5.75,2.62,5.75,6.33m-9.92.2c0,2.67,1.48,5.07,4.08,5.07s4.1-2.36,4.1-5.2c0-2.49-1.33-5.09-4.08-5.09s-4.1,2.47-4.1,5.22"/><path d="M246.47,179.8V167.28h1.8l4.1,6.33a35.19,35.19,0,0,1,2.3,4.07l0,0c-.15-1.67-.19-3.19-.19-5.15v-5.24h1.56V179.8H254.4l-4.06-6.35a39.51,39.51,0,0,1-2.39-4.18l-.06,0c.09,1.58.13,3.08.13,5.16v5.35Z"/><path d="M261,175.86l-1.33,3.94H258l4.34-12.52h2l4.36,12.52h-1.76l-1.37-3.94Zm4.19-1.26L264,171c-.29-.82-.47-1.56-.66-2.28h0c-.19.74-.4,1.5-.64,2.27l-1.25,3.62Z"/><path d="M271.68,167.28v7.41c0,2.8,1.27,4,3,4,1.9,0,3.11-1.23,3.11-4v-7.41h1.67v7.3c0,3.84-2.07,5.42-4.84,5.42-2.62,0-4.59-1.47-4.59-5.35v-7.37Z"/><polygon points="284.74 168.65 280.85 168.65 280.85 167.28 290.31 167.28 290.31 168.65 286.4 168.65 286.4 179.8 284.74 179.8 284.74 168.65"/><rect x="291.74" y="167.28" width="1.65" height="12.52"/><path d="M305.2,179.39a8.35,8.35,0,0,1-3.38.59c-3.61,0-6.32-2.23-6.32-6.33a6.3,6.3,0,0,1,6.68-6.57,7,7,0,0,1,3,.56l-.4,1.32a6.11,6.11,0,0,0-2.58-.52c-3,0-5,1.88-5,5.16,0,3.06,1.8,5,4.91,5a6.74,6.74,0,0,0,2.69-.52Z"/><path d="M307,177.83a6,6,0,0,0,3,.82c1.69,0,2.67-.87,2.67-2.14s-.68-1.84-2.41-2.49c-2.09-.72-3.38-1.78-3.38-3.55,0-2,1.65-3.4,4.14-3.4a5.91,5.91,0,0,1,2.83.61L313.4,169a5.17,5.17,0,0,0-2.43-.59c-1.74,0-2.41,1-2.41,1.88,0,1.17.78,1.75,2.54,2.41,2.16.82,3.26,1.84,3.26,3.68s-1.46,3.6-4.48,3.6a6.72,6.72,0,0,1-3.26-.8Z"/><path d="M322.71,175.86l-1.33,3.94h-1.71L324,167.28h2l4.36,12.52h-1.76l-1.37-3.94Zm4.19-1.26-1.25-3.6c-.29-.82-.47-1.56-.66-2.28h0c-.19.74-.4,1.5-.64,2.27l-1.25,3.62Z"/><path d="M332.25,179.8V167.28h1.8l4.1,6.33a35.34,35.34,0,0,1,2.29,4.07l0,0c-.15-1.67-.19-3.19-.19-5.15v-5.24h1.56V179.8h-1.67l-4.06-6.35a39.7,39.7,0,0,1-2.39-4.18l-.06,0c.09,1.58.13,3.08.13,5.16v5.35Z"/><path d="M344.73,167.45a24,24,0,0,1,3.51-.26c2.37,0,4.06.54,5.18,1.56a5.71,5.71,0,0,1,1.8,4.49,6.54,6.54,0,0,1-1.84,4.87c-1.19,1.17-3.17,1.8-5.65,1.8a27.27,27.27,0,0,1-3-.15Zm1.65,11.07a10.67,10.67,0,0,0,1.67.09c3.53,0,5.44-1.93,5.44-5.31,0-3-1.69-4.83-5.18-4.83a9.5,9.5,0,0,0-1.93.17Z"/><path d="M363.46,175.86l-1.33,3.94h-1.71l4.34-12.52h2l4.36,12.52h-1.76L368,175.86Zm4.19-1.26L366.4,171c-.29-.82-.47-1.56-.66-2.28h0c-.19.74-.4,1.5-.64,2.27l-1.25,3.62Z"/><path d="M372.77,177.83a5.94,5.94,0,0,0,3,.82c1.69,0,2.67-.87,2.67-2.14s-.68-1.84-2.41-2.49c-2.09-.72-3.38-1.78-3.38-3.55,0-2,1.65-3.4,4.14-3.4a5.91,5.91,0,0,1,2.83.61l-.45,1.32a5.17,5.17,0,0,0-2.43-.59c-1.74,0-2.41,1-2.41,1.88,0,1.17.78,1.75,2.54,2.41,2.16.82,3.26,1.84,3.26,3.68s-1.46,3.6-4.48,3.6a6.72,6.72,0,0,1-3.26-.8Z"/><polygon points="384.78 168.65 380.89 168.65 380.89 167.28 390.36 167.28 390.36 168.65 386.45 168.65 386.45 179.8 384.78 179.8 384.78 168.65"/><path d="M391.78,167.45a17.48,17.48,0,0,1,3.17-.26,5.31,5.31,0,0,1,3.7,1,3.09,3.09,0,0,1,1,2.38,3.3,3.3,0,0,1-2.41,3.19v.06a3.13,3.13,0,0,1,1.88,2.52,19.63,19.63,0,0,0,1,3.44H398.4a16,16,0,0,1-.85-3c-.38-1.73-1.06-2.38-2.56-2.43h-1.56v5.42h-1.65Zm1.65,5.7h1.69c1.76,0,2.88-.95,2.88-2.38,0-1.62-1.2-2.32-2.94-2.34a6.89,6.89,0,0,0-1.63.15Z"/><path d="M413,173.41c0,4.31-2.68,6.59-5.94,6.59s-5.75-2.56-5.75-6.35c0-4,2.52-6.57,5.94-6.57s5.75,2.62,5.75,6.33m-9.92.2c0,2.67,1.48,5.07,4.08,5.07s4.1-2.36,4.1-5.2c0-2.49-1.33-5.09-4.08-5.09s-4.1,2.47-4.1,5.22"/><path d="M415.11,179.8V167.28h1.8l4.1,6.33a35.34,35.34,0,0,1,2.29,4.07l0,0c-.15-1.67-.19-3.19-.19-5.15v-5.24h1.56V179.8H423L419,173.44a39.7,39.7,0,0,1-2.39-4.18l-.06,0c.09,1.58.13,3.08.13,5.16v5.35Z"/><path d="M429.66,175.86l-1.33,3.94h-1.71L431,167.28h2l4.36,12.52h-1.76l-1.37-3.94Zm4.19-1.26L432.6,171c-.29-.82-.47-1.56-.66-2.28h0c-.19.74-.4,1.5-.64,2.27L430,174.6Z"/><path d="M440.32,167.28v7.41c0,2.8,1.27,4,3,4,1.9,0,3.11-1.23,3.11-4v-7.41h1.67v7.3c0,3.84-2.07,5.42-4.84,5.42-2.62,0-4.59-1.47-4.59-5.35v-7.37Z"/><polygon points="453.37 168.65 449.48 168.65 449.48 167.28 458.95 167.28 458.95 168.65 455.04 168.65 455.04 179.8 453.37 179.8 453.37 168.65"/><rect x="460.37" y="167.28" width="1.65" height="12.52"/><path d="M473.84,179.39a8.35,8.35,0,0,1-3.38.59c-3.61,0-6.32-2.23-6.32-6.33a6.3,6.3,0,0,1,6.68-6.57,7,7,0,0,1,3,.56l-.4,1.32a6.11,6.11,0,0,0-2.58-.52c-3,0-5,1.88-5,5.16,0,3.06,1.8,5,4.91,5a6.74,6.74,0,0,0,2.69-.52Z"/><path d="M475.68,177.83a6,6,0,0,0,3,.82c1.69,0,2.67-.87,2.67-2.14s-.68-1.84-2.41-2.49c-2.09-.72-3.38-1.78-3.38-3.55,0-2,1.65-3.4,4.14-3.4a5.91,5.91,0,0,1,2.83.61L482,169a5.17,5.17,0,0,0-2.43-.59c-1.74,0-2.41,1-2.41,1.88,0,1.17.78,1.75,2.54,2.41,2.16.82,3.26,1.84,3.26,3.68s-1.46,3.6-4.48,3.6a6.72,6.72,0,0,1-3.26-.8Z"/></g></g></g></svg>