<svg id="Layer_1" data-name="Layer 1" xmlns="http://www.w3.org/2000/svg" xmlns:xlink="http://www.w3.org/1999/xlink" viewBox="0 0 755.69 180"><defs><style>.cls-1{fill:none;}.cls-2{clip-path:url(#clip-path);}.cls-3{fill:#fff;}.cls-4{clip-path:url(#clip-path-3);}</style><clipPath id="clip-path"><rect class="cls-1" width="484.77" height="180"/></clipPath><clipPath id="clip-path-3"><rect class="cls-1" x="576" width="179.69" height="180"/></clipPath></defs><title>AIAA_Logo_RGB_H_W</title><g id="AIAA_Logo" data-name="AIAA Logo"><g class="cls-2"><polygon class="cls-3" points="450.17 72.34 447.97 69.48 427.89 69.48 428.3 72.34 450.17 72.34"/><polygon class="cls-3" points="456.16 80.2 453.89 77.24 429.05 77.24 429.55 80.2 456.16 80.2"/><polygon class="cls-3" points="462.04 88.01 459.83 85.06 430.21 85.06 430.63 88.01 462.04 88.01"/><polygon class="cls-3" points="467.99 95.82 466.05 92.9 431.41 92.9 431.79 95.82 467.99 95.82"/><polygon class="cls-3" points="473.86 103.55 471.87 100.75 432.35 100.75 432.86 103.55 473.86 103.55"/><g class="cls-2"><path class="cls-3" d="M421.9,103.68l1.94,12c1.59,7.94,6,10.27,6.29,10.35v.8h-50V126c3.59,0,4.58-3.39,4.19-5.38l-2.24-16.93Z"/><path class="cls-3" d="M325.77,69.37l33.74-58.21c1.6-2.79,4.6-7.55-2.7-10.46V0h48.31l11.25,69.36H377.6l-4-30.72L357,69.37Z"/><polygon class="cls-3" points="417.7 77.16 416.83 72.42 324.06 72.42 321.31 77.16 417.7 77.16"/><polygon class="cls-3" points="418.83 84.97 418.17 80.23 319.54 80.23 316.7 84.97 418.83 84.97"/><polygon class="cls-3" points="420.18 92.78 419.49 88.04 315.18 88.04 312.19 92.78 420.18 92.78"/><polygon class="cls-3" points="421.41 100.59 420.74 95.84 310.51 95.84 307.72 100.59 421.41 100.59"/><path class="cls-3" d="M144.78,69.37l12.35-58.21c.35-1.71,2.53-8.38-2.69-10.46V0H205V.79c-3.19,1.19-6.87,7-7.67,11.56l-11.38,57Z"/><polygon class="cls-3" points="184.36 77.16 185.37 72.42 144.16 72.42 143.13 77.16 184.36 77.16"/><polygon class="cls-3" points="182.8 84.97 183.81 80.23 142.52 80.23 141.49 84.97 182.8 84.97"/><polygon class="cls-3" points="181.27 92.78 182.24 88.04 140.87 88.04 139.81 92.78 181.27 92.78"/><polygon class="cls-3" points="179.61 100.59 180.69 95.84 139.23 95.84 138.08 100.59 179.61 100.59"/><path class="cls-3" d="M332.22,115.64l6.46-11.94-32.66,0-1,1.65-.27-1.65H265l2.24,16.93c.39,2-.59,5.38-4.19,5.38v.8h71.7V126c-4.38-1.59-5.88-4-2.49-10.35"/><path class="cls-3" d="M207.36,69.37l35-58.21C244,8.37,247,3.61,239.72.7V0H288l11.24,69.36H260.48l-4-30.72L239.9,69.37Z"/><polygon class="cls-3" points="300.6 77.16 299.72 72.42 205.46 72.42 202.72 77.16 300.6 77.16"/><polygon class="cls-3" points="301.73 84.97 301.06 80.23 200.58 80.23 197.74 84.97 301.73 84.97"/><polygon class="cls-3" points="303.07 92.78 302.37 88.04 196.03 88.04 193.03 92.78 303.07 92.78"/><polygon class="cls-3" points="304.29 100.59 303.62 95.84 191.36 95.84 188.57 100.59 304.29 100.59"/><path class="cls-3" d="M215.11,115.64l6.45-11.94-34.89,0-11.36,18.64,3.79-18.74-41.56.09-1.3,6.08-1-6.08H95.44l2.23,16.93c.4,2-.59,5.38-4.19,5.38v.8h30.26l48.73.07h44.35l.77-.88c-4.38-1.59-5.87-4-2.49-10.35"/><path class="cls-3" d="M52,103.7l-6.45,11.94c-3.4,6.37-1.9,8.77,2.48,10.35v.8H1.86V126c3.59,0,7.87-5.67,11.65-12.25l5.87-10.06Z"/><path class="cls-3" d="M39.13,69.37,72.88,11.16C74.49,8.37,77.47,3.61,70.19.7V0h48.3l11.25,69.36H91l-4-30.72L70.37,69.37Z"/><polygon class="cls-3" points="131.06 77.16 130.19 72.42 37.43 72.42 34.68 77.16 131.06 77.16"/><polygon class="cls-3" points="132.19 84.97 131.53 80.23 32.91 80.23 30.07 84.97 132.19 84.97"/><polygon class="cls-3" points="133.54 92.78 132.85 88.04 28.54 88.04 25.55 92.78 133.54 92.78"/><polygon class="cls-3" points="134.76 100.59 134.09 95.84 23.88 95.84 21.09 100.59 134.76 100.59"/><path class="cls-3" d="M4.61,157,0,137.55H4.69l1.47,8c.43,2.31.83,4.82,1.15,6.78h.06c.32-2.11.78-4.44,1.27-6.84l1.64-8h4.66l1.55,8.2c.43,2.28.75,4.36,1,6.52h.06c.29-2.17.72-4.45,1.12-6.76l1.58-8h4.46l-5,19.46H15l-1.64-8.37c-.37-2-.69-3.78-.92-6h-.06c-.35,2.19-.66,4-1.12,6L9.41,157Z"/><path class="cls-3" d="M44.55,147.08c0,6.38-3.86,10.25-9.53,10.25s-9.12-4.36-9.12-9.9c0-5.83,3.71-10.19,9.44-10.19,6,0,9.21,4.47,9.21,9.84m-14,.26c0,3.81,1.78,6.49,4.72,6.49s4.66-2.83,4.66-6.61c0-3.49-1.67-6.49-4.69-6.49s-4.69,2.83-4.69,6.61"/><path class="cls-3" d="M47.42,137.81a38.42,38.42,0,0,1,5.84-.4c2.88,0,4.89.43,6.27,1.53A4.94,4.94,0,0,1,61.32,143a5.16,5.16,0,0,1-3.42,4.79v.09c1.35.55,2.1,1.85,2.59,3.64.6,2.19,1.21,4.73,1.58,5.49H57.58a24.5,24.5,0,0,1-1.35-4.53c-.52-2.42-1.35-3.09-3.14-3.12H51.77V157H47.42Zm4.35,8.37h1.73c2.19,0,3.48-1.1,3.48-2.8s-1.21-2.69-3.22-2.71a11,11,0,0,0-2,.14Z"/><path class="cls-3" d="M78.62,156.46a12.49,12.49,0,0,1-5,.84c-6.71,0-10.16-4.19-10.16-9.73,0-6.64,4.72-10.33,10.59-10.33a11.4,11.4,0,0,1,4.78.87L78,141.6a9.47,9.47,0,0,0-3.68-.72c-3.48,0-6.19,2.11-6.19,6.44,0,3.9,2.3,6.35,6.22,6.35A11,11,0,0,0,78,153Z"/><polygon class="cls-3" points="93.03 148.78 85.89 148.78 85.89 153.4 93.87 153.4 93.87 157.01 81.49 157.01 81.49 137.56 93.46 137.56 93.46 141.16 85.89 141.16 85.89 145.2 93.03 145.2 93.03 148.78"/><path class="cls-3" d="M97,152.48a11.16,11.16,0,0,0,4.86,1.21c2,0,3.08-.84,3.08-2.11s-.92-1.9-3.25-2.74c-3.22-1.13-5.32-2.92-5.32-5.74,0-3.32,2.76-5.86,7.34-5.86a11.83,11.83,0,0,1,5,1l-1,3.55a9.19,9.19,0,0,0-4.06-.92c-1.9,0-2.82.87-2.82,1.88,0,1.24,1.09,1.79,3.6,2.74,3.42,1.27,5,3.06,5,5.8,0,3.26-2.5,6-7.83,6a12.65,12.65,0,0,1-5.5-1.18Z"/><polygon class="cls-3" points="116.14 141.25 110.93 141.25 110.93 137.56 125.83 137.56 125.83 141.25 120.54 141.25 120.54 157.01 116.14 157.01 116.14 141.25"/><polygon class="cls-3" points="139.7 148.78 132.57 148.78 132.57 153.4 140.54 153.4 140.54 157.01 128.16 157.01 128.16 137.56 140.13 137.56 140.13 141.16 132.57 141.16 132.57 145.2 139.7 145.2 139.7 148.78"/><path class="cls-3" d="M143.53,137.81a38.42,38.42,0,0,1,5.84-.4c2.88,0,4.89.43,6.27,1.53a4.94,4.94,0,0,1,1.78,4.07A5.16,5.16,0,0,1,154,147.8v.09c1.35.55,2.1,1.85,2.59,3.64.6,2.19,1.21,4.73,1.58,5.49h-4.49a24.5,24.5,0,0,1-1.35-4.53c-.52-2.42-1.35-3.09-3.14-3.12h-1.32V157h-4.35Zm4.35,8.37h1.73c2.19,0,3.48-1.1,3.48-2.8s-1.21-2.69-3.22-2.71a11,11,0,0,0-2,.14Z"/><path class="cls-3" d="M166.4,137.82a35.77,35.77,0,0,1,5.93-.41c2.71,0,4.63.52,5.93,1.56a5.69,5.69,0,0,1,2.07,4.5,6.22,6.22,0,0,1-1.78,4.62,9,9,0,0,1-6.3,2,11,11,0,0,1-1.5-.09v7H166.4Zm4.35,8.83a6.65,6.65,0,0,0,1.47.12c2.33,0,3.77-1.18,3.77-3.18,0-1.79-1.24-2.86-3.42-2.86a7.42,7.42,0,0,0-1.81.17Z"/><path class="cls-3" d="M200.88,147.08c0,6.38-3.86,10.25-9.53,10.25s-9.12-4.36-9.12-9.9c0-5.83,3.71-10.19,9.44-10.19,6,0,9.21,4.47,9.21,9.84m-14,.26c0,3.81,1.78,6.49,4.72,6.49s4.66-2.83,4.66-6.61c0-3.49-1.67-6.49-4.69-6.49s-4.69,2.83-4.69,6.61"/><polygon class="cls-3" points="203.75 137.56 208.16 137.56 208.16 153.31 215.87 153.31 215.87 157.01 203.75 157.01 203.75 137.56"/><path class="cls-3" d="M220.36,157v-8l-6.13-11.49h5l2,4.68c.6,1.41,1,2.45,1.5,3.72h.06c.43-1.21.89-2.34,1.47-3.72l2-4.68h4.92l-6.39,11.34V157Z"/><polygon class="cls-3" points="236.96 141.25 231.75 141.25 231.75 137.56 246.66 137.56 246.66 141.25 241.36 141.25 241.36 157.01 236.96 157.01 236.96 141.25"/><polygon class="cls-3" points="260.53 148.78 253.39 148.78 253.39 153.4 261.36 153.4 261.36 157.01 248.99 157.01 248.99 137.56 260.96 137.56 260.96 141.16 253.39 141.16 253.39 145.2 260.53 145.2 260.53 148.78"/><path class="cls-3" d="M278.6,156.46a12.48,12.48,0,0,1-5,.84c-6.71,0-10.16-4.19-10.16-9.73,0-6.64,4.72-10.33,10.59-10.33a11.41,11.41,0,0,1,4.78.87l-.89,3.49a9.48,9.48,0,0,0-3.68-.72c-3.48,0-6.19,2.11-6.19,6.44,0,3.9,2.3,6.35,6.22,6.35a11,11,0,0,0,3.66-.64Z"/><polygon class="cls-3" points="285.88 137.56 285.88 145.03 293.1 145.03 293.1 137.56 297.48 137.56 297.48 157.01 293.1 157.01 293.1 148.87 285.88 148.87 285.88 157.01 281.47 157.01 281.47 137.56 285.88 137.56"/><path class="cls-3" d="M301.3,157V137.55h5.12l4,7.13a56.31,56.31,0,0,1,3.17,6.67h.09a72.49,72.49,0,0,1-.37-8.11v-5.69h4V157h-4.6l-4.15-7.5a72.23,72.23,0,0,1-3.37-6.87l-.09,0c.12,2.57.17,5.31.17,8.49V157Z"/><rect class="cls-3" x="321.15" y="137.55" width="4.4" height="19.46"/><path class="cls-3" d="M343.6,156.46a12.48,12.48,0,0,1-5,.84c-6.71,0-10.16-4.19-10.16-9.73,0-6.64,4.72-10.33,10.59-10.33a11.41,11.41,0,0,1,4.78.87l-.89,3.49a9.48,9.48,0,0,0-3.68-.72c-3.48,0-6.19,2.11-6.19,6.44,0,3.9,2.3,6.35,6.22,6.35a11,11,0,0,0,3.66-.64Z"/><rect class="cls-3" x="352.29" y="137.55" width="4.4" height="19.46"/><path class="cls-3" d="M360.49,157V137.55h5.12l4,7.13a56.31,56.31,0,0,1,3.17,6.67h.09a72.49,72.49,0,0,1-.37-8.11v-5.69h4V157h-4.6l-4.15-7.5a72.23,72.23,0,0,1-3.37-6.87l-.09,0c.12,2.57.17,5.31.17,8.49V157Z"/><path class="cls-3" d="M380.49,152.48a11.16,11.16,0,0,0,4.86,1.21c2,0,3.08-.84,3.08-2.11s-.92-1.9-3.25-2.74c-3.22-1.13-5.33-2.92-5.33-5.74,0-3.32,2.76-5.86,7.34-5.86a11.83,11.83,0,0,1,5,1l-1,3.55a9.2,9.2,0,0,0-4.06-.92c-1.9,0-2.82.87-2.82,1.88,0,1.24,1.09,1.79,3.6,2.74,3.43,1.27,5,3.06,5,5.8,0,3.26-2.5,6-7.83,6a12.65,12.65,0,0,1-5.5-1.18Z"/><polygon class="cls-3" points="399.62 141.25 394.41 141.25 394.41 137.56 409.32 137.56 409.32 141.25 404.02 141.25 404.02 157.01 399.62 157.01 399.62 141.25"/><rect class="cls-3" x="411.65" y="137.55" width="4.4" height="19.46"/><polygon class="cls-3" points="423.59 141.25 418.38 141.25 418.38 137.56 433.29 137.56 433.29 141.25 427.99 141.25 427.99 157.01 423.59 157.01 423.59 141.25"/><path class="cls-3" d="M440,137.56v11.2c0,3.35,1.27,5.05,3.51,5.05s3.57-1.62,3.57-5.05v-11.2h4.38v10.91c0,6-3,8.86-8.09,8.86-4.89,0-7.77-2.71-7.77-8.92V137.56Z"/><polygon class="cls-3" points="458.98 141.25 453.77 141.25 453.77 137.56 468.68 137.56 468.68 141.25 463.39 141.25 463.39 157.01 458.98 157.01 458.98 141.25"/><polygon class="cls-3" points="482.55 148.78 475.41 148.78 475.41 153.4 483.39 153.4 483.39 157.01 471.01 157.01 471.01 137.56 482.98 137.56 482.98 141.16 475.41 141.16 475.41 145.2 482.55 145.2 482.55 148.78"/><path class="cls-3" d="M3.09,175.86,1.76,179.8H0L4.4,167.28h2l4.38,12.52H9l-1.37-3.94ZM7.3,174.6,6,171c-.29-.82-.48-1.56-.67-2.28h0c-.19.74-.4,1.5-.65,2.27L3.43,174.6Z"/><path class="cls-3" d="M23.4,174.3c-.09-1.75-.21-3.84-.19-5.4h-.06c-.44,1.47-1,3-1.62,4.75l-2.27,6.07H18l-2.08-6c-.61-1.76-1.12-3.38-1.48-4.87h0c0,1.56-.13,3.66-.25,5.53l-.34,5.37H12.25l.89-12.52h2.11l2.19,6.05c.53,1.54,1,2.92,1.29,4.22h.06c.32-1.26.78-2.64,1.35-4.22l2.28-6.05h2.11l.8,12.52H23.73Z"/><polygon class="cls-3" points="34.54 173.93 29.55 173.93 29.55 178.44 35.11 178.44 35.11 179.8 27.9 179.8 27.9 167.28 34.83 167.28 34.83 168.63 29.55 168.63 29.55 172.59 34.54 172.59 34.54 173.93"/><path class="cls-3" d="M37.26,167.45a17.61,17.61,0,0,1,3.18-.26,5.34,5.34,0,0,1,3.71,1,3.08,3.08,0,0,1,1,2.38,3.3,3.3,0,0,1-2.42,3.19v.06a3.13,3.13,0,0,1,1.89,2.52,19.51,19.51,0,0,0,1,3.44H43.91a15.9,15.9,0,0,1-.86-3c-.38-1.73-1.07-2.38-2.57-2.43H38.92v5.42H37.26Zm1.66,5.7h1.69c1.77,0,2.89-.95,2.89-2.38,0-1.62-1.2-2.32-3-2.34a6.94,6.94,0,0,0-1.64.15Z"/><rect class="cls-3" x="47.51" y="167.28" width="1.66" height="12.52"/><path class="cls-3" d="M61,179.39a8.41,8.41,0,0,1-3.39.59c-3.62,0-6.34-2.23-6.34-6.33a6.31,6.31,0,0,1,6.7-6.57,7,7,0,0,1,3,.56l-.4,1.32a6.16,6.16,0,0,0-2.59-.52c-3,0-5,1.88-5,5.16,0,3.06,1.81,5,4.93,5a6.79,6.79,0,0,0,2.7-.52Z"/><path class="cls-3" d="M65.25,175.86l-1.33,3.94H62.21l4.36-12.52h2l4.38,12.52H71.17l-1.37-3.94Zm4.21-1.26L68.2,171c-.29-.82-.48-1.56-.67-2.28h0c-.19.74-.4,1.5-.65,2.27l-1.26,3.62Z"/><path class="cls-3" d="M74.83,179.8V167.28h1.81l4.11,6.33a35.32,35.32,0,0,1,2.3,4.07l0,0c-.15-1.67-.19-3.19-.19-5.15v-5.24h1.56V179.8H82.79l-4.07-6.35a39.48,39.48,0,0,1-2.4-4.18l-.06,0c.09,1.58.13,3.08.13,5.16v5.35Z"/><rect class="cls-3" x="91.39" y="167.28" width="1.66" height="12.52"/><path class="cls-3" d="M95.94,179.8V167.28h1.81l4.11,6.33a35.32,35.32,0,0,1,2.3,4.07l0,0c-.15-1.67-.19-3.19-.19-5.15v-5.24h1.56V179.8H103.9l-4.07-6.35a39.48,39.48,0,0,1-2.4-4.18l-.06,0c.09,1.58.13,3.08.13,5.16v5.35Z"/><path class="cls-3" d="M108.24,177.83a6,6,0,0,0,3,.82c1.69,0,2.68-.87,2.68-2.14s-.69-1.84-2.42-2.49c-2.09-.72-3.39-1.78-3.39-3.55,0-2,1.66-3.4,4.15-3.4a5.94,5.94,0,0,1,2.84.61l-.46,1.32a5.2,5.2,0,0,0-2.44-.59c-1.75,0-2.42,1-2.42,1.88,0,1.17.78,1.75,2.55,2.41,2.17.82,3.27,1.84,3.27,3.68s-1.47,3.6-4.49,3.6a6.76,6.76,0,0,1-3.27-.8Z"/><polygon class="cls-3" points="120.29 168.65 116.39 168.65 116.39 167.28 125.89 167.28 125.89 168.65 121.97 168.65 121.97 179.8 120.29 179.8 120.29 168.65"/><rect class="cls-3" x="127.32" y="167.28" width="1.66" height="12.52"/><polygon class="cls-3" points="134.31 168.65 130.4 168.65 130.4 167.28 139.9 167.28 139.9 168.65 135.98 168.65 135.98 179.8 134.31 179.8 134.31 168.65"/><path class="cls-3" d="M143,167.28v7.41c0,2.8,1.28,4,3,4,1.9,0,3.12-1.23,3.12-4v-7.41h1.68v7.3c0,3.84-2.07,5.42-4.85,5.42-2.63,0-4.61-1.47-4.61-5.35v-7.37Z"/><polygon class="cls-3" points="156.09 168.65 152.18 168.65 152.18 167.28 161.68 167.28 161.68 168.65 157.76 168.65 157.76 179.8 156.09 179.8 156.09 168.65"/><polygon class="cls-3" points="169.75 173.93 164.77 173.93 164.77 178.44 170.33 178.44 170.33 179.8 163.11 179.8 163.11 167.28 170.04 167.28 170.04 168.63 164.77 168.63 164.77 172.59 169.75 172.59 169.75 173.93"/><path class="cls-3" d="M187.48,173.41c0,4.31-2.68,6.59-6,6.59s-5.77-2.56-5.77-6.35c0-4,2.53-6.57,6-6.57s5.77,2.62,5.77,6.33m-10,.2c0,2.67,1.49,5.07,4.09,5.07s4.11-2.36,4.11-5.2c0-2.49-1.33-5.09-4.09-5.09s-4.11,2.47-4.11,5.22"/><polygon class="cls-3" points="189.63 167.28 196.54 167.28 196.54 168.63 191.29 168.63 191.29 172.79 196.14 172.79 196.14 174.13 191.29 174.13 191.29 179.79 189.63 179.79 189.63 167.28"/><path class="cls-3" d="M205,175.86l-1.33,3.94H202l4.36-12.52h2l4.38,12.52h-1.77l-1.37-3.94Zm4.21-1.26L208,171c-.29-.82-.48-1.56-.67-2.28h0c-.19.74-.4,1.5-.65,2.27l-1.26,3.62Z"/><polygon class="cls-3" points="221.24 173.93 216.25 173.93 216.25 178.44 221.81 178.44 221.81 179.8 214.59 179.8 214.59 167.28 221.52 167.28 221.52 168.63 216.25 168.63 216.25 172.59 221.24 172.59 221.24 173.93"/><path class="cls-3" d="M224,167.45a17.61,17.61,0,0,1,3.18-.26,5.34,5.34,0,0,1,3.71,1,3.08,3.08,0,0,1,1,2.38,3.3,3.3,0,0,1-2.42,3.19v.06a3.13,3.13,0,0,1,1.89,2.52,19.51,19.51,0,0,0,1,3.44H230.6a15.9,15.9,0,0,1-.86-3c-.38-1.73-1.07-2.38-2.57-2.43h-1.56v5.42H224Zm1.66,5.7h1.69c1.77,0,2.89-.95,2.89-2.38,0-1.62-1.2-2.32-3-2.34a6.94,6.94,0,0,0-1.64.15Z"/><path class="cls-3" d="M245.22,173.41c0,4.31-2.68,6.59-6,6.59s-5.77-2.56-5.77-6.35c0-4,2.53-6.57,6-6.57s5.77,2.62,5.77,6.33m-10,.2c0,2.67,1.49,5.07,4.09,5.07s4.11-2.36,4.11-5.2c0-2.49-1.33-5.09-4.09-5.09s-4.11,2.47-4.11,5.22"/><path class="cls-3" d="M247.38,179.8V167.28h1.81l4.11,6.33a35.15,35.15,0,0,1,2.3,4.07l0,0c-.15-1.67-.19-3.19-.19-5.15v-5.24H257V179.8h-1.67l-4.08-6.35a39.48,39.48,0,0,1-2.4-4.18l-.06,0c.09,1.58.13,3.08.13,5.16v5.35Z"/><path class="cls-3" d="M262,175.86l-1.33,3.94h-1.71l4.36-12.52h2l4.38,12.52H267.9l-1.37-3.94Zm4.21-1.26-1.26-3.6c-.29-.82-.48-1.56-.67-2.28h0c-.19.74-.4,1.5-.65,2.27l-1.26,3.62Z"/><path class="cls-3" d="M272.68,167.28v7.41c0,2.8,1.28,4,3,4,1.9,0,3.12-1.23,3.12-4v-7.41h1.68v7.3c0,3.84-2.08,5.42-4.86,5.42-2.63,0-4.61-1.47-4.61-5.35v-7.37Z"/><polygon class="cls-3" points="285.78 168.65 281.87 168.65 281.87 167.28 291.38 167.28 291.38 168.65 287.45 168.65 287.45 179.8 285.78 179.8 285.78 168.65"/><rect class="cls-3" x="292.8" y="167.28" width="1.66" height="12.52"/><path class="cls-3" d="M306.32,179.39a8.41,8.41,0,0,1-3.39.59c-3.62,0-6.34-2.23-6.34-6.33a6.31,6.31,0,0,1,6.7-6.57,7,7,0,0,1,3,.56l-.4,1.32a6.15,6.15,0,0,0-2.59-.52c-3,0-5,1.88-5,5.16,0,3.06,1.81,5,4.93,5a6.79,6.79,0,0,0,2.7-.52Z"/><path class="cls-3" d="M308.17,177.83a6,6,0,0,0,3,.82c1.69,0,2.68-.87,2.68-2.14s-.69-1.84-2.42-2.49c-2.09-.72-3.39-1.78-3.39-3.55,0-2,1.66-3.4,4.15-3.4a6,6,0,0,1,2.84.61l-.46,1.32a5.2,5.2,0,0,0-2.44-.59c-1.75,0-2.42,1-2.42,1.88,0,1.17.78,1.75,2.55,2.41,2.17.82,3.27,1.84,3.27,3.68S314,180,311,180a6.77,6.77,0,0,1-3.28-.8Z"/><path class="cls-3" d="M323.89,175.86l-1.33,3.94h-1.71l4.36-12.52h2l4.38,12.52h-1.77l-1.37-3.94Zm4.21-1.26-1.26-3.6c-.29-.82-.48-1.56-.67-2.28h0c-.19.74-.4,1.5-.65,2.27l-1.26,3.62Z"/><path class="cls-3" d="M333.47,179.8V167.28h1.81l4.11,6.33a35.3,35.3,0,0,1,2.3,4.07l0,0c-.15-1.67-.19-3.19-.19-5.15v-5.24h1.56V179.8h-1.67l-4.08-6.35a39.67,39.67,0,0,1-2.4-4.18l-.06,0c.09,1.58.13,3.08.13,5.16v5.35Z"/><path class="cls-3" d="M346,167.45a24.21,24.21,0,0,1,3.52-.26c2.38,0,4.07.54,5.2,1.56a5.7,5.7,0,0,1,1.81,4.49,6.53,6.53,0,0,1-1.85,4.87c-1.2,1.17-3.18,1.8-5.67,1.8a27.47,27.47,0,0,1-3-.15Zm1.66,11.07a10.75,10.75,0,0,0,1.68.09c3.54,0,5.46-1.93,5.46-5.31,0-3-1.69-4.83-5.2-4.83a9.57,9.57,0,0,0-1.94.17Z"/><path class="cls-3" d="M364.79,175.86l-1.33,3.94h-1.71l4.36-12.52h2l4.38,12.52h-1.77l-1.37-3.94ZM369,174.6l-1.26-3.6c-.29-.82-.48-1.56-.67-2.28h0c-.19.74-.4,1.5-.65,2.27l-1.26,3.62Z"/><path class="cls-3" d="M374.14,177.83a6,6,0,0,0,3,.82c1.69,0,2.68-.87,2.68-2.14s-.69-1.84-2.42-2.49c-2.09-.72-3.39-1.78-3.39-3.55,0-2,1.66-3.4,4.15-3.4a6,6,0,0,1,2.84.61l-.46,1.32a5.2,5.2,0,0,0-2.44-.59c-1.75,0-2.42,1-2.42,1.88,0,1.17.78,1.75,2.55,2.41,2.17.82,3.27,1.84,3.27,3.68S380,180,377,180a6.77,6.77,0,0,1-3.28-.8Z"/><polygon class="cls-3" points="386.19 168.65 382.28 168.65 382.28 167.28 391.79 167.28 391.79 168.65 387.86 168.65 387.86 179.8 386.19 179.8 386.19 168.65"/><path class="cls-3" d="M393.21,167.45a17.61,17.61,0,0,1,3.18-.26,5.34,5.34,0,0,1,3.71,1,3.09,3.09,0,0,1,1,2.38,3.3,3.3,0,0,1-2.42,3.19v.06a3.13,3.13,0,0,1,1.88,2.52,19.58,19.58,0,0,0,1,3.44h-1.71a16,16,0,0,1-.86-3c-.38-1.73-1.07-2.38-2.57-2.43h-1.56v5.42h-1.66Zm1.66,5.7h1.69c1.77,0,2.89-.95,2.89-2.38,0-1.62-1.2-2.32-3-2.34a6.94,6.94,0,0,0-1.64.15Z"/><path class="cls-3" d="M414.48,173.41c0,4.31-2.68,6.59-6,6.59s-5.77-2.56-5.77-6.35c0-4,2.53-6.57,6-6.57s5.77,2.62,5.77,6.33m-10,.2c0,2.67,1.48,5.07,4.09,5.07s4.11-2.36,4.11-5.2c0-2.49-1.33-5.09-4.09-5.09s-4.11,2.47-4.11,5.22"/><path class="cls-3" d="M416.63,179.8V167.28h1.81l4.11,6.33a35.3,35.3,0,0,1,2.3,4.07l0,0c-.15-1.67-.19-3.19-.19-5.15v-5.24h1.56V179.8h-1.67l-4.08-6.35a39.67,39.67,0,0,1-2.4-4.18l-.06,0c.09,1.58.13,3.08.13,5.16v5.35Z"/><path class="cls-3" d="M431.23,175.86l-1.33,3.94h-1.71l4.36-12.52h2l4.38,12.52h-1.77l-1.37-3.94Zm4.21-1.26-1.26-3.6c-.29-.82-.48-1.56-.67-2.28h0c-.19.74-.4,1.5-.65,2.27l-1.26,3.62Z"/><path class="cls-3" d="M441.93,167.28v7.41c0,2.8,1.28,4,3,4,1.9,0,3.12-1.23,3.12-4v-7.41h1.68v7.3c0,3.84-2.08,5.42-4.86,5.42-2.63,0-4.61-1.47-4.61-5.35v-7.37Z"/><polygon class="cls-3" points="455.03 168.65 451.13 168.65 451.13 167.28 460.63 167.28 460.63 168.65 456.7 168.65 456.7 179.8 455.03 179.8 455.03 168.65"/><rect class="cls-3" x="462.05" y="167.28" width="1.66" height="12.52"/><path class="cls-3" d="M475.57,179.39a8.41,8.41,0,0,1-3.39.59c-3.62,0-6.34-2.23-6.34-6.33a6.31,6.31,0,0,1,6.7-6.57,7,7,0,0,1,3,.56l-.4,1.32a6.15,6.15,0,0,0-2.59-.52c-3,0-5,1.88-5,5.16,0,3.06,1.81,5,4.93,5a6.79,6.79,0,0,0,2.7-.52Z"/><path class="cls-3" d="M477.42,177.83a6,6,0,0,0,3,.82c1.69,0,2.68-.87,2.68-2.14s-.69-1.84-2.42-2.49c-2.09-.72-3.39-1.78-3.39-3.55,0-2,1.66-3.4,4.15-3.4a6,6,0,0,1,2.84.61L483.8,169a5.2,5.2,0,0,0-2.44-.59c-1.75,0-2.42,1-2.42,1.88,0,1.17.78,1.75,2.55,2.41,2.17.82,3.27,1.84,3.27,3.68s-1.47,3.6-4.49,3.6a6.77,6.77,0,0,1-3.28-.8Z"/></g></g></g><g id="AIAA_Seal" data-name="AIAA Seal"><g class="cls-4"><g class="cls-4"><path class="cls-3" d="M633.62,144c5.86-2.68,8.33-1,13.68,4.74,6.58-1.65,9.28-.38,11.55,6.24,3.2-15.91.28-39.77.28-39.77H672.5c-3.76,7.07-.9,39.78-.9,39.78s4.68-10.85,12.29-5.17c2.07-2.7,4.59-2.43,7-.87,0-4.22,4-10.82,14.32-5.56,1.81-5,6.74-5.09,9-4.83a56.2,56.2,0,0,0,6.27-28.34c-.11-2.55-.85-3.47-3.48-3.7a148.37,148.37,0,0,0-56.08,5.92A140.17,140.17,0,0,0,617,134.69c1.67,2.41,3.19,4.84,4.74,7.2,5.73-2.7,6-1.57,11.89,2.11"/><path class="cls-3" d="M680.17,69.26a88.82,88.82,0,0,1-5.34-12.15,52.57,52.57,0,0,0-19.41.85,97.51,97.51,0,0,1-9.22,18.55,121,121,0,0,1,34-7.25"/><path class="cls-3" d="M675.59,57.23a88.81,88.81,0,0,0,5.32,12,136.72,136.72,0,0,1,20.33.27c-7.93-6.59-16.49-10.72-25.64-12.24"/><path class="cls-3" d="M654.64,58.13l-.12,0c-18.44,4.42-30.79,16-37.48,33.75a129.52,129.52,0,0,1,28.1-15,98.16,98.16,0,0,0,9.49-18.77"/><path class="cls-3" d="M689.6,84.05a291.14,291.14,0,0,0-35.19,15.51l2.26.64v1.46a245,245,0,0,1,35.71-13.57V88c-.18-.26-.89-1.3-2.77-4"/><path class="cls-3" d="M742.79,72.93a58.4,58.4,0,0,0-6.51-.16c-13.81.5-26.95,4.31-39.84,8.82q-3.1,1.09-6.18,2.22c2.15,3,2.72,3.9,2.73,3.91l0,.07v.09q3.28-1,6.59-1.85c8.78-2.35,17.72-3.93,26.89-3,8.22.84,10.94,6.14,6.53,13.09-1.84,2.9-4.33,5.38-7.21,8.9,10.28-6.91,19.86-13,25.21-23.6V77.59c-1.85-3.16-4.81-4.4-8.27-4.66"/><path class="cls-3" d="M656,100.71l-2.44-.69a203.2,203.2,0,0,0-28.33,18.16c-2.94,2.26-5.58,4.92-8.36,7.39a27.71,27.71,0,0,0,5.83-3.76A211.11,211.11,0,0,1,656,102Z"/><path class="cls-3" d="M685.83,77.58l.42.58q6.15-1.8,12.38-3.39a70.61,70.61,0,0,0-8.6,1.28q-2.27.49-4.52,1l.33.52"/><path class="cls-3" d="M606.88,136.17c-6.33-2.05-8.63-7.72-5-13.22a42.13,42.13,0,0,1,7.92-8.75c8.92-7.55,19-13.18,29.49-18.18l-2.41-.68.28-3.37a242.52,242.52,0,0,0-39,19.93c-7,4.45-9.46,4.22-13.36,11.92L593.34,139c7.83.33,12.75-.07,20.59-.11q0-.56,0-1.12c-2.35-.51-4.77-.82-7-1.56"/><path class="cls-3" d="M644.26,93.69a306.65,306.65,0,0,1,41.31-15.33l-.29-.4-.47-.74a313.14,313.14,0,0,0-46.93,14.46l-.26,3.15,2.61.74q2-1,4-1.88"/><path class="cls-3" d="M620.07,35.33a.74.74,0,1,1-1-.31.75.75,0,0,1,1,.31"/><path class="cls-3" d="M629.91,42.85a.92.92,0,1,1-1.24-.38.92.92,0,0,1,1.24.38"/><path class="cls-3" d="M650.38,52.79a.91.91,0,1,1-1.24-.38.92.92,0,0,1,1.24.38"/><path class="cls-3" d="M625.75,52.28a.74.74,0,1,1-1-.31.75.75,0,0,1,1,.31"/><path class="cls-3" d="M634.8,52.24a.74.74,0,1,1-1-.3.75.75,0,0,1,1,.3"/><path class="cls-3" d="M620,46.7a.91.91,0,1,1-1.24-.38.92.92,0,0,1,1.24.38"/><path class="cls-3" d="M612.84,58.93a.74.74,0,1,1-1-.31.75.75,0,0,1,1,.31"/><path class="cls-3" d="M615.45,59.22a.74.74,0,1,1-1-.3.75.75,0,0,1,1,.3"/><path class="cls-3" d="M618.07,59.51a.74.74,0,1,1-1-.31.75.75,0,0,1,1,.31"/><path class="cls-3" d="M616.49,63.6a.74.74,0,1,1-1-.31.75.75,0,0,1,1,.31"/><path class="cls-3" d="M607,82.45a.74.74,0,1,1-1-.31.75.75,0,0,1,1,.31"/><path class="cls-3" d="M611.64,84.37a.74.74,0,1,1-1-.3.75.75,0,0,1,1,.3"/><path class="cls-3" d="M638.5,35.84a1.31,1.31,0,0,1,.42-1.28l-.69-1.85,1.27,1.56a1.31,1.31,0,0,1,1.27.43l1.88-.69L641,35.27a1.32,1.32,0,0,1-.4,1.26l.65,1.93L640,36.83a1.31,1.31,0,0,1-1.24-.41l-1.83.63Z"/><path class="cls-3" d="M614.34,80a1.31,1.31,0,0,1,.42-1.28l-.69-1.85,1.27,1.56a1.31,1.31,0,0,1,1.27.43l1.88-.69-1.6,1.25a1.31,1.31,0,0,1-.41,1.25l.65,1.94L615.88,81a1.31,1.31,0,0,1-1.24-.41l-1.83.63Z"/><path class="cls-3" d="M716.71,52.39a.92.92,0,1,1,.37-1.24.92.92,0,0,1-.37,1.24"/><path class="cls-3" d="M706.85,72.92a.91.91,0,1,1,.37-1.24.92.92,0,0,1-.37,1.24"/><path class="cls-3" d="M707.28,48.25a.74.74,0,1,1,.3-1,.75.75,0,0,1-.3,1"/><path class="cls-3" d="M707.35,57.31a.74.74,0,1,1,.3-1,.75.75,0,0,1-.3,1"/><path class="cls-3" d="M712.83,42.52a.91.91,0,1,1,.37-1.24.92.92,0,0,1-.37,1.24"/><path class="cls-3" d="M700.6,35.34a.74.74,0,1,1,.3-1,.75.75,0,0,1-.3,1"/><path class="cls-3" d="M700.32,38a.74.74,0,1,1,.3-1,.75.75,0,0,1-.3,1"/><path class="cls-3" d="M700,40.58a.74.74,0,1,1,.3-1,.75.75,0,0,1-.3,1"/><path class="cls-3" d="M696,39a.74.74,0,1,1,.3-1,.75.75,0,0,1-.3,1"/><path class="cls-3" d="M677.11,29.55a.74.74,0,1,1,.3-1,.75.75,0,0,1-.3,1"/><path class="cls-3" d="M675.2,34.22a.74.74,0,1,1,.3-1,.75.75,0,0,1-.3,1"/><path class="cls-3" d="M723.73,61a1.3,1.3,0,0,1,1.28.42l1.85-.7L725.3,62a1.31,1.31,0,0,1-.42,1.27l.69,1.88-1.26-1.6a1.31,1.31,0,0,1-1.26-.4l-1.93.66,1.62-1.26a1.32,1.32,0,0,1,.4-1.25l-.63-1.83Z"/><path class="cls-3" d="M679.55,36.91a1.3,1.3,0,0,1,1.28.42l1.85-.7-1.56,1.28a1.31,1.31,0,0,1-.42,1.27l.69,1.88-1.26-1.6a1.3,1.3,0,0,1-1.25-.4l-1.93.66,1.62-1.26a1.31,1.31,0,0,1,.4-1.24l-.64-1.83Z"/><path class="cls-3" d="M665.85,2a88,88,0,1,0,87.82,88A87.89,87.89,0,0,0,665.85,2m0,165.11a77.14,77.14,0,1,1,77-77.14,77.08,77.08,0,0,1-77,77.14"/><path class="cls-3" d="M665.85,2A88,88,0,1,1,578,90,87.89,87.89,0,0,1,665.85,2m0,165.11a77.14,77.14,0,1,0-77-77.14,77.08,77.08,0,0,0,77,77.14M665.85,0A89.92,89.92,0,0,0,576,90,89.85,89.85,0,1,0,729.38,26.36,89.18,89.18,0,0,0,665.85,0m0,165.11a75.14,75.14,0,0,1-53-128.23A75,75,0,0,1,740.83,90a75,75,0,0,1-75,75.11"/><path d="M692.69,87.91s-1.19-1.79-7.16-10.15c-13.12-20.31-14.31-35.24-14.31-43s-6-13.73-6-13.74l.14-.21,0,0-.11.12-.17.2a27,27,0,0,0-3.31,4.79,18.91,18.91,0,0,0-2.47,8.88c0,7.76-1.19,22.7-14.31,43-6,8.36-7.15,10.15-7.15,10.15l-.6,7.17,19.08,5.38v6h1.79v2.39h14.31v-2.39h1.79v-6l19.08-5.38Z"/><path class="cls-3" d="M693,87.8l0-.07s-1.26-1.89-7.15-10.15c-9.59-14.85-14.26-28.86-14.26-42.82,0-6.56-4.08-11.76-5.55-13.42l-.21-.22-.58-.64h0l-.37.41a27.23,27.23,0,0,0-3.36,4.85,19,19,0,0,0-2.51,9c0,14-4.66,28-14.25,42.81-5.9,8.27-7.15,10.15-7.16,10.16l0,.07-.63,7.53,19.1,5.38v6.06h1.79v2.39h15v-2.39h1.79v-6.06l18.83-5.31.27-.08Zm-19.15,12.4v5.89h-1.79v2.39H658.45v-2.39h-1.79V100.2L637.6,94.83l.57-6.8c.28-.41,1.83-2.68,7.11-10.09,9.67-15,14.36-29.09,14.36-43.19A18.35,18.35,0,0,1,662.07,26a26.66,26.66,0,0,1,3.15-4.58c1,1.1,5.67,6.55,5.67,13.29,0,14.1,4.7,28.22,14.37,43.2,5.27,7.39,6.83,9.67,7.1,10.07l.57,6.8Z"/><path class="cls-3" d="M690.61,88.66c-.64-.94-2.45-3.54-6.81-9.65l-.06-.08c-9.86-15.27-14.65-29.71-14.65-44.17a16.08,16.08,0,0,0-1.82-7.12h-4a16.08,16.08,0,0,0-1.82,7.12c0,14.46-4.79,28.91-14.65,44.17l-.06.08c-4.35,6.11-6.17,8.71-6.81,9.65l-.4,4.83,18.94,5.34V54.5l1.79,39-1.79,5.34v5.45H663s-2.71,1-2.71,2.39h10c0-1.35-2.71-2.39-2.71-2.39h4.5V98.83l-1.79-5.34,1.79-39V98.83L691,93.49Zm-28.84-55s1.31-2.55,3.5-2.55,3.5,2.55,3.5,2.55c-3.5-3.5-7,0-7,0"/><polygon points="665.27 83.11 663.23 98.79 665.27 115.22 667.31 98.79 665.27 83.11"/></g><path d="M594.11,137.2l4.59-5.19.94,1.33-2,2c-.57.58-1.2,1.2-1.69,1.68v0c.66-.33,1.41-.67,2.19-1l2.58-1.12.93,1.33-2,2.08c-.56.58-1.08,1.08-1.64,1.6v0c.67-.35,1.4-.68,2.14-1l2.57-1.14.89,1.27-6.51,2.46-.95-1.35,2-2.14c.48-.5.93-1,1.52-1.46v0c-.69.34-1.28.62-1.92.88l-2.74,1.15Z"/><path d="M605.43,146.14a3.21,3.21,0,0,1-4.84-.2,3.15,3.15,0,0,1,.54-4.64,3.25,3.25,0,0,1,4.81.19A3.15,3.15,0,0,1,605.43,146.14Zm-3.23-3.64c-1,.86-1.3,1.94-.64,2.71s1.8.59,2.79-.26,1.33-1.91.65-2.7S603.19,141.65,602.2,142.5Z"/><path d="M608.39,144.57a13.58,13.58,0,0,1,1.54,1.33,3.44,3.44,0,0,1,1.17,1.91,1.71,1.71,0,0,1-.55,1.44,1.78,1.78,0,0,1-2,.34l0,0a1.7,1.7,0,0,1-.25,1.53c-.39.69-.86,1.46-.95,1.73l-1.1-1.1a8.37,8.37,0,0,1,.77-1.45c.46-.72.42-1.09,0-1.54l-.32-.33-1.87,1.88-1.07-1.07Zm-1,3.12.42.42c.54.54,1.12.58,1.54.17s.36-1-.13-1.46a3.83,3.83,0,0,0-.52-.45Z"/><path d="M612,156.67a4.33,4.33,0,0,1-1.5-.91,3.21,3.21,0,0,1-.47-4.86,3.43,3.43,0,0,1,5.12-.31,4,4,0,0,1,1.06,1.31l-1,.71a3.31,3.31,0,0,0-.81-1,2.21,2.21,0,0,0-2.88,3.36,3.83,3.83,0,0,0,1.1.66Z"/><path d="M617.71,157.69l-2-1.49-1,1.28,2.21,1.66-.75,1-3.44-2.58,4-5.39,3.32,2.5-.75,1-2.1-1.58-.84,1.12,2,1.49Z"/><path d="M618.17,159.57a3.88,3.88,0,0,0,1.18,1.28c.59.38,1.05.34,1.29,0s.09-.73-.42-1.41c-.72-.94-1-1.86-.46-2.68s1.91-1.17,3.24-.3a4.13,4.13,0,0,1,1.25,1.23l-1,.84a3.21,3.21,0,0,0-1-1c-.55-.36-1-.29-1.17,0s0,.73.53,1.48c.75,1,.88,1.85.37,2.64-.62.95-1.87,1.27-3.42.26a4.42,4.42,0,0,1-1.37-1.39Z"/><path d="M625.8,159.78l-1.58-.89.63-1.11,4.51,2.54-.63,1.12-1.6-.9-2.67,4.76-1.33-.75Z"/><path d="M631.81,165.81l-2.23-1.07-.69,1.44,2.49,1.2-.54,1.13L627,166.64l2.91-6.08,3.74,1.8-.54,1.13-2.37-1.14-.6,1.26,2.23,1.07Z"/><path d="M634.46,162.84a13.45,13.45,0,0,1,1.93.62,3.43,3.43,0,0,1,1.82,1.3,1.71,1.71,0,0,1,.05,1.54,1.78,1.78,0,0,1-1.71,1.1v0a1.7,1.7,0,0,1,.37,1.5c-.09.78-.21,1.68-.19,2l-1.45-.58a8.39,8.39,0,0,1,.14-1.63c.14-.85,0-1.17-.61-1.41l-.43-.17-1,2.46L632,169Zm.33,3.25.56.22c.7.28,1.26.09,1.48-.45s0-1-.69-1.29a3.87,3.87,0,0,0-.66-.21Z"/><path d="M641.6,165.52a12.48,12.48,0,0,1,2,.44,3.23,3.23,0,0,1,1.83,1.09,2,2,0,0,1,.25,1.7,2.16,2.16,0,0,1-1,1.36,3.12,3.12,0,0,1-2.3.07,3.94,3.94,0,0,1-.49-.17l-.67,2.31-1.45-.42Zm.6,3.36a2.28,2.28,0,0,0,.48.18c.78.23,1.37,0,1.56-.69s-.14-1.07-.87-1.28a2.58,2.58,0,0,0-.62-.12Z"/><path d="M652.31,171.44a3.21,3.21,0,0,1-3.95,2.81,3.14,3.14,0,0,1-2.41-4,3.26,3.26,0,0,1,3.92-2.79A3.14,3.14,0,0,1,652.31,171.44Zm-4.78-.89c-.27,1.29.15,2.33,1.15,2.53s1.78-.63,2-1.92-.11-2.32-1.14-2.53S647.8,169.27,647.53,170.55Z"/><path d="M653.73,168.29l1.51.2-.7,5.41,2.65.34-.16,1.27-4.17-.54Z"/><path d="M658.78,175.64l.2-2.75-1.83-4.12,1.73.13.57,1.67c.17.5.29.87.43,1.32h0c.18-.41.37-.79.6-1.25l.79-1.57,1.7.12L660.5,173l-.2,2.8Z"/><path d="M664.8,170.46l-1.81,0,0-1.28,5.17.08,0,1.28-1.84,0-.09,5.46-1.53,0Z"/><path d="M673,172.8l-2.47.15.1,1.6,2.76-.17.08,1.25-4.28.26-.41-6.72,4.14-.25.08,1.25-2.62.16.08,1.4,2.47-.15Z"/><path d="M679.57,174.68a4.36,4.36,0,0,1-1.67.51A3.2,3.2,0,0,1,674,172.3a3.43,3.43,0,0,1,3.18-4,4,4,0,0,1,1.68.08l-.15,1.24a3.28,3.28,0,0,0-1.3-.08,2.21,2.21,0,0,0,.58,4.39,3.84,3.84,0,0,0,1.23-.38Z"/><path d="M681,167.75l.53,2.53,2.45-.52-.53-2.53,1.48-.31,1.38,6.59-1.48.31-.58-2.76-2.45.52.58,2.76-1.49.31-1.38-6.59Z"/><path d="M687.83,173.12l-1.93-6.45,1.7-.51,2,2a19.47,19.47,0,0,1,1.71,1.9h0a25,25,0,0,1-.93-2.65l-.56-1.89,1.34-.4,1.93,6.45-1.53.46-2.12-2.08a24.68,24.68,0,0,1-1.8-1.94l0,0c.29.84.58,1.75.9,2.8l.58,1.94Z"/><path d="M693.71,164.13l2.31,6.33-1.43.53-2.31-6.33Z"/><path d="M701.91,167.82a4.32,4.32,0,0,1-1.47.95,3.2,3.2,0,0,1-4.56-1.71,3.44,3.44,0,0,1,2-4.74,4,4,0,0,1,1.64-.38l.19,1.24a3.28,3.28,0,0,0-1.27.27,2.22,2.22,0,0,0,1.75,4.07,3.79,3.79,0,0,0,1.08-.7Z"/><path d="M703.14,159.84l3.12,6-1.35.71-3.12-6Z"/><path d="M707.62,165.12l-3.47-5.77,1.52-.92,2.47,1.39a19.49,19.49,0,0,1,2.13,1.41l0,0a25.23,25.23,0,0,1-1.56-2.34l-1-1.69,1.2-.72,3.47,5.77-1.37.83-2.57-1.48a25.15,25.15,0,0,1-2.23-1.44l0,0c.49.74,1,1.55,1.56,2.49l1,1.74Z"/><path d="M712.82,160.05a3.87,3.87,0,0,0,1.62-.63c.57-.4.71-.85.45-1.21s-.64-.35-1.47-.12c-1.14.33-2.09.24-2.66-.56s-.39-2.21.91-3.13a4.12,4.12,0,0,1,1.6-.72l.43,1.2a3.21,3.21,0,0,0-1.33.55c-.54.38-.63.81-.42,1.1s.67.29,1.57.05c1.22-.33,2-.15,2.59.63s.5,2.21-1,3.28a4.42,4.42,0,0,1-1.79.77Z"/><path d="M715.81,153l-1.4,1.14-.8-1,4-3.26.81,1L717,152l3.43,4.24-1.19,1Z"/><path d="M719.21,148.42l4.5,5-1.14,1-4.5-5Z"/><path d="M721.89,147.65l-1.28,1.28-.9-.91,3.67-3.65.9.91-1.3,1.3,3.84,3.88-1.08,1.08Z"/><path d="M724.77,142.8l2.93,2.54c.88.76,1.61.82,2.12.23s.39-1.3-.51-2.08l-2.93-2.54,1-1.15,2.85,2.48c1.57,1.36,1.63,2.81.48,4.14s-2.48,1.42-4.1,0L723.76,144Z"/><path d="M729.82,138.67l-1.08,1.45-1-.77,3.09-4.15,1,.77-1.1,1.48,4.37,3.27-.91,1.23Z"/><path d="M736.56,133.47l-1.35,2.08,1.34.87,1.5-2.32,1,.68-2.34,3.61-5.65-3.67,2.26-3.49,1,.68L733,134.11l1.17.76,1.35-2.08Z"/><path d="M585.22,95.12l1.75.39.08,1.58-6.82-1.72-.1-2L586.74,91l.08,1.64-1.7.61ZM584,93.47l-1.4.49c-.39.14-.89.28-1.28.4v0c.4.08.92.15,1.31.24l1.44.33Z"/><path d="M584.37,84.55c-.81,0-1.79,0-2.76-.05v0c.85.24,1.8.56,2.57.85l2.59.92,0,1.19-2.63.61c-.8.19-1.76.38-2.65.5v0c.91.08,1.94.15,2.78.23l2.55.22-.06,1.41-6.7-.7.08-2,2.27-.57c.79-.18,1.63-.35,2.42-.47v0c-.77-.22-1.65-.49-2.39-.74l-2.21-.81.08-2,6.74-.1-.06,1.49Z"/><path d="M584.82,77.84l-.3,2.46,1.58.2.34-2.75,1.24.15-.53,4.26-6.67-.83.51-4.13,1.24.15L581.9,80l1.39.17.3-2.46Z"/><path d="M581.29,75.84a13.45,13.45,0,0,1,.25-2,3.45,3.45,0,0,1,.93-2,1.7,1.7,0,0,1,1.5-.34,1.78,1.78,0,0,1,1.4,1.48h0a1.7,1.7,0,0,1,1.4-.64c.79-.06,1.69-.1,2-.18l-.3,1.53a8.42,8.42,0,0,1-1.63.16c-.86,0-1.14.26-1.27.86l-.09.45,2.6.5-.29,1.48Zm3.13-.93.11-.59c.14-.75-.14-1.26-.72-1.37s-1,.24-1.13.92a3.87,3.87,0,0,0-.08.69Z"/><path d="M582.81,68.35,589.34,70,589,71.47l-6.52-1.63Z"/><path d="M590.87,64.1a4.35,4.35,0,0,1-.23,1.74,3.2,3.2,0,0,1-4.25,2.38,3.44,3.44,0,0,1-2.33-4.57,4,4,0,0,1,.77-1.5l1.06.65a3.27,3.27,0,0,0-.61,1.15,2.21,2.21,0,0,0,4.23,1.29,3.85,3.85,0,0,0,.16-1.28Z"/><path d="M590.3,61.27l1.43,1.08-.58,1.47-5.5-4.39.73-1.86,7,.53-.6,1.52-1.8-.15Zm-.43-2-1.48-.13c-.42,0-.92-.11-1.33-.16v0c.33.24.77.52,1.09.77l1.18.9Z"/><path d="M593.67,57.53l-6-3,.79-1.6,2.83-.16a19.44,19.44,0,0,1,2.55,0v0a25.07,25.07,0,0,1-2.57-1.12l-1.76-.87.62-1.25,6,3L595.43,54l-3,.14a25,25,0,0,1-2.65,0v0c.81.36,1.67.76,2.66,1.25l1.82.9Z"/><path d="M592.69,45.09l5.77,3.48-.79,1.31-5.77-3.48Z"/><path d="M599,47.59l-5.55-3.81,1-1.47,2.83.24a19.56,19.56,0,0,1,2.52.4l0,0a25.16,25.16,0,0,1-2.39-1.48l-1.62-1.11.79-1.15L602.17,43l-.9,1.32-3-.28a24.8,24.8,0,0,1-2.62-.38v0c.76.47,1.55,1,2.46,1.61l1.67,1.15Z"/><path d="M601.63,41.13A3.89,3.89,0,0,0,603,40.07c.44-.55.44-1,.1-1.29s-.71-.16-1.45.29c-1,.63-1.94.81-2.71.2s-1-2,0-3.26a4.13,4.13,0,0,1,1.34-1.13l.75,1a3.2,3.2,0,0,0-1.13.9c-.41.52-.38,1-.1,1.17s.72.09,1.52-.38c1.09-.65,1.92-.7,2.66-.11s1.09,2-.07,3.43a4.41,4.41,0,0,1-1.51,1.24Z"/><path d="M602.94,33.47l-1.22,1.34-.94-.86,3.49-3.82.94.86L604,32.34,608,36l-1,1.13Z"/><path d="M606.06,28.37l4.73,4.79-1.09,1.08L605,29.45Z"/><path d="M608.94,27.42l-1.35,1.21-.85-1,3.86-3.46.85,1-1.37,1.23,3.63,4.07-1.14,1Z"/><path d="M612.61,22.61,615,25.68c.71.92,1.41,1.12,2,.64s.64-1.2-.08-2.14l-2.36-3.08,1.2-.93,2.3,3c1.27,1.65,1,3.07-.36,4.15s-2.71.9-4-.8l-2.29-3Z"/><path d="M618.84,19.65l-1.51,1-.7-1.07,4.32-2.85.7,1.07-1.54,1,3,4.56-1.28.84Z"/><path d="M627.24,17.6l-2.16,1.22.79,1.39,2.41-1.37.62,1.09-3.74,2.12-3.32-5.86,3.62-2.05.62,1.09-2.29,1.3.69,1.22,2.15-1.22Z"/><path d="M635.55,13.06A3.22,3.22,0,0,1,634,17.64a3.14,3.14,0,0,1-4.28-1.86,3.26,3.26,0,0,1,1.57-4.55A3.13,3.13,0,0,1,635.55,13.06Zm-4.41,2c.53,1.21,1.47,1.81,2.4,1.4s1.08-1.55.56-2.75-1.44-1.82-2.39-1.4S630.61,13.91,631.14,15.1Z"/><path d="M635.42,9.62l3.88-1.37.42,1.18-2.44.86.51,1.45,2.28-.81.41,1.17-2.28.81.9,2.55-1.44.51Z"/><path d="M645.35,11.7l-.05,1.79-1.53.38.38-7,1.94-.48,3.64,6-1.59.39-.92-1.55Zm1.38-1.52L646,8.9c-.21-.36-.45-.82-.64-1.18h0c0,.41,0,.93,0,1.34l0,1.48Z"/><path d="M653.85,8.81l-2.44.42.27,1.58,2.72-.47.21,1.23-4.23.73-1.14-6.64,4.09-.7.21,1.23L651,6.63,651.2,8l2.44-.42Z"/><path d="M654.73,4.85a13.41,13.41,0,0,1,2-.35,3.43,3.43,0,0,1,2.22.3,1.72,1.72,0,0,1,.76,1.34,1.79,1.79,0,0,1-1,1.77V8a1.7,1.7,0,0,1,1,1.16c.29.73.58,1.59.74,1.83l-1.55.16a8.3,8.3,0,0,1-.63-1.51c-.26-.82-.57-1-1.19-1l-.46,0,.27,2.63-1.5.15Zm1.79,2.73.6-.06c.75-.08,1.16-.5,1.1-1.09s-.51-.88-1.21-.82a3.69,3.69,0,0,0-.68.12Z"/><path d="M667.08,7.32a3.21,3.21,0,0,1-3.22,3.63,3.14,3.14,0,0,1-3.24-3.35A3.26,3.26,0,0,1,663.81,4,3.14,3.14,0,0,1,667.08,7.32Zm-4.86.21c0,1.32.67,2.23,1.69,2.21s1.59-1,1.56-2.33-.63-2.23-1.68-2.21S662.2,6.22,662.23,7.53Z"/><path d="M667.88,10.79l.4-6.72,1.77.11,1.25,2.55a19.59,19.59,0,0,1,1,2.37h0a25.12,25.12,0,0,1,0-2.81l.12-2,1.39.08-.4,6.72-1.59-.1-1.28-2.68a25.68,25.68,0,0,1-1-2.44h0c0,.89-.05,1.84-.12,2.94l-.12,2Z"/><path d="M676.28,9.75l-.72,1.64L674,11.17l3-6.38,2,.28,1.12,7-1.62-.23L678.19,10Zm1.85-.89-.21-1.47c-.06-.41-.11-.92-.15-1.33h0c-.15.38-.32.87-.49,1.24l-.6,1.36Z"/><path d="M683.3,5.85l-.84,3.79c-.25,1.13,0,1.8.81,2s1.33-.28,1.59-1.44l.84-3.79,1.48.33-.82,3.69c-.45,2-1.69,2.77-3.4,2.39s-2.43-1.5-2-3.6l.81-3.67Z"/><path d="M689.57,8.74l-1.73-.52L688.21,7l4.95,1.5-.37,1.23L691,9.18l-1.58,5.22L688,14Z"/><path d="M695.52,9.35l-2.27,6.34-1.44-.52,2.27-6.34Z"/><path d="M698.94,17.81a4.32,4.32,0,0,1-1.7-.4,3.2,3.2,0,0,1-1.94-4.47,3.42,3.42,0,0,1,4.77-1.87,3.94,3.94,0,0,1,1.41.92l-.75,1a3.29,3.29,0,0,0-1.08-.73,2,2,0,0,0-2.84,1.22,2,2,0,0,0,1.14,2.86,3.78,3.78,0,0,0,1.25.29Z"/><path d="M700.31,16.95a3.88,3.88,0,0,0,1.32,1.13c.62.31,1.08.22,1.28-.17s0-.73-.58-1.36c-.82-.85-1.19-1.73-.75-2.61.52-1,1.77-1.38,3.18-.67a4.13,4.13,0,0,1,1.38,1.08l-.86.95a3.19,3.19,0,0,0-1.11-.92c-.59-.3-1-.17-1.17.14s.06.72.69,1.41c.86.93,1.08,1.73.66,2.58-.51,1-1.71,1.47-3.36.64a4.41,4.41,0,0,1-1.52-1.23Z"/><path d="M708.09,21l-1.33,1.21-1.33-.85,5.33-4.59,1.69,1.07-1.83,6.81-1.38-.88.48-1.74Zm2.05,0,.41-1.43c.11-.4.28-.89.41-1.28h0c-.3.28-.66.66-1,.93l-1.1,1Z"/><path d="M711.12,25l4-5.39,1.42,1.07-.37,2.82a19.67,19.67,0,0,1-.51,2.51l0,0a25,25,0,0,1,1.58-2.32l1.18-1.57,1.12.84-4,5.39-1.28-1,.41-2.94a25.14,25.14,0,0,1,.5-2.6h0c-.5.74-1.06,1.51-1.72,2.39l-1.22,1.62Z"/><path d="M720.79,24.07a13.64,13.64,0,0,1,1.63,1.27A4.34,4.34,0,0,1,724,27.71a3,3,0,0,1-.84,2.65,3.41,3.41,0,0,1-2.65,1.29,4.82,4.82,0,0,1-2.89-1.42A13.4,13.4,0,0,1,716.39,29Zm-2.52,5.12a2.77,2.77,0,0,0,.38.38,2.08,2.08,0,0,0,3.27-.24,1.94,1.94,0,0,0-.16-3,3.15,3.15,0,0,0-.55-.42Z"/><path d="M725,34.91l-1.6.81-1.06-1.17,6.37-3L730.07,33l-3.59,6.08-1.1-1.21.93-1.55Zm2,.5.78-1.27c.22-.36.51-.78.73-1.12v0c-.36.19-.81.46-1.17.64L726,34.3Z"/><path d="M728.14,38.7a3.88,3.88,0,0,0,.71,1.59c.43.55.89.66,1.23.39s.32-.66.05-1.48c-.38-1.12-.34-2.08.43-2.69s2.19-.5,3.17.76a4.14,4.14,0,0,1,.79,1.56l-1.18.49a3.21,3.21,0,0,0-.62-1.31c-.41-.52-.84-.59-1.11-.37s-.25.68,0,1.57c.39,1.21.24,2-.5,2.62s-2.18.6-3.32-.85a4.41,4.41,0,0,1-.85-1.76Z"/><path d="M735.27,41.72l-1-1.5,1.06-.72,2.91,4.28-1.06.72-1-1.52-4.51,3.08-.86-1.26Z"/><path d="M738.7,44.72a13.51,13.51,0,0,1,1.14,1.68,3.45,3.45,0,0,1,.64,2.15,1.71,1.71,0,0,1-.9,1.25,1.78,1.78,0,0,1-2-.19l0,0a1.71,1.71,0,0,1-.63,1.41c-.55.57-1.2,1.19-1.36,1.43l-.79-1.35a8.49,8.49,0,0,1,1.12-1.2c.63-.58.69-.95.38-1.49L736,48l-2.29,1.34-.76-1.3ZM737,47.49l.3.52c.38.66.94.85,1.45.55s.59-.83.25-1.44a3.94,3.94,0,0,0-.39-.57Z"/><path d="M741.56,57a3.21,3.21,0,0,1-4.63-1.44,3.14,3.14,0,0,1,1.7-4.35,3.25,3.25,0,0,1,4.6,1.42A3.14,3.14,0,0,1,741.56,57Zm-2.2-4.34c-1.19.57-1.75,1.54-1.31,2.45s1.58,1,2.76.46,1.77-1.5,1.31-2.45S740.54,52.09,739.36,52.66Z"/><path d="M738.73,59.16l6.28-2.4.63,1.66-1.8,2.19a19.75,19.75,0,0,1-1.76,1.85v0a25.2,25.2,0,0,1,2.57-1.12l1.84-.7L747,62l-6.28,2.4-.57-1.49,1.91-2.27a24.6,24.6,0,0,1,1.8-1.94l0,0c-.82.35-1.69.71-2.72,1.1l-1.89.72Z"/><path d="M743.14,66.39l-1.79,0-.44-1.52,7,.1.56,1.92-5.88,3.88-.46-1.57,1.51-1Zm1.57,1.32,1.25-.8c.35-.23.79-.48,1.15-.69v0c-.41,0-.93.06-1.33.06h-1.48Z"/><path d="M749.57,71.2l-3.79.79c-1.13.24-1.62.79-1.46,1.55s.8,1.1,2,.86l3.79-.79.31,1.49-3.69.77c-2,.42-3.21-.4-3.57-2.12s.37-2.83,2.47-3.27l3.67-.77Z"/><path d="M749.52,78.1l-.23-1.79,1.27-.17.67,5.13-1.27.17-.24-1.82-5.4.71-.2-1.52Z"/><path d="M751.4,83.78l-6.7.54-.12-1.52,6.7-.54Z"/><path d="M745.13,90.41a4.35,4.35,0,0,1-.34-1.72,3.2,3.2,0,0,1,3.26-3.62,3.43,3.43,0,0,1,3.67,3.58,4,4,0,0,1-.25,1.67L750.26,90a3.3,3.3,0,0,0,.21-1.29,2.21,2.21,0,0,0-4.42.13,3.82,3.82,0,0,0,.25,1.26Z"/><path d="M746.48,91.3A3.9,3.9,0,0,0,746,93c0,.7.25,1.08.69,1.1s.67-.29,1-1.09c.43-1.1,1.08-1.81,2.06-1.77,1.15,0,2,1,1.92,2.63a4.15,4.15,0,0,1-.41,1.7L750,95.15a3.2,3.2,0,0,0,.38-1.4c0-.66-.26-1-.61-1s-.63.35-1,1.21c-.49,1.17-1.13,1.71-2.07,1.67-1.13,0-2-1-2-2.8a4.39,4.39,0,0,1,.49-1.89Z"/></g></g></svg>