<svg id="Layer_1" data-name="Layer 1" xmlns="http://www.w3.org/2000/svg" viewBox="0 0 360 360"><defs><style>.cls-1{fill:#fff;}</style></defs><title>AIAA_Logo_RGB_S_W</title><g id="Saturn"><path class="cls-1" d="M115.45,288c11.74-5.36,16.69-2.06,27.4,9.48,13.19-3.3,18.59-.76,23.15,12.47,6.42-31.82.56-79.55.56-79.55h26.77c-7.53,14.13-1.79,79.57-1.79,79.57s9.38-21.69,24.63-10.33c4.14-5.39,9.2-4.86,14-1.74,0-8.45,8.08-21.64,28.69-11.13,3.62-10.08,13.5-10.18,18-9.67a112.24,112.24,0,0,0,12.56-56.67c-.22-5.11-1.7-6.95-7-7.41a297.74,297.74,0,0,0-112.34,11.84c-31.15,9.35-59.8,23.69-87.93,44.52,3.34,4.81,6.39,9.68,9.49,14.4C103.1,278.38,103.63,280.65,115.45,288Z"/><path class="cls-1" d="M208.69,138.52A177.57,177.57,0,0,1,198,114.21a105.51,105.51,0,0,0-38.88,1.7A194.85,194.85,0,0,1,140.64,153,242.89,242.89,0,0,1,208.69,138.52Z"/><path class="cls-1" d="M199.52,114.46a177.38,177.38,0,0,0,10.65,24,274.38,274.38,0,0,1,40.72.53C235,125.76,217.85,117.5,199.52,114.46Z"/><path class="cls-1" d="M157.55,116.26l-.24.05c-36.95,8.84-61.69,32.09-75.08,67.5a259.68,259.68,0,0,1,56.3-30A196.16,196.16,0,0,0,157.55,116.26Z"/><path class="cls-1" d="M227.59,168.11a584,584,0,0,0-70.49,31l4.52,1.27v2.91a491.46,491.46,0,0,1,71.54-27.15v-.11C232.79,175.53,231.37,173.46,227.59,168.11Z"/><path class="cls-1" d="M334.15,145.87a117.15,117.15,0,0,0-13-.33c-27.67,1-54,8.62-79.82,17.65q-6.22,2.17-12.39,4.44c4.31,6.1,5.45,7.8,5.46,7.83l.1.15,0,.18q6.57-1.92,13.2-3.7c17.6-4.69,35.51-7.85,53.88-6,16.46,1.68,21.92,12.28,13.08,26.18C311,198.08,306,203,300.2,210.08c20.61-13.82,39.79-26,50.51-47.21v-7.69C347,148.87,341.07,146.39,334.15,145.87Z"/><path class="cls-1" d="M160.26,201.43,155.37,200a407.21,407.21,0,0,0-56.76,36.32c-5.89,4.53-11.18,9.84-16.76,14.79,4.51-1.83,8-4.82,11.68-7.51A423.25,423.25,0,0,1,160.26,204Z"/><path class="cls-1" d="M220,155.15l.83,1.17q12.33-3.6,24.8-6.77a141.57,141.57,0,0,0-17.24,2.56q-4.54,1-9.06,2Z"/><path class="cls-1" d="M61.87,272.33c-12.69-4.1-17.29-15.45-10-26.44a84.31,84.31,0,0,1,15.87-17.51C85.6,213.28,105.86,202,126.81,192L122,190.66l.56-6.74a486.19,486.19,0,0,0-78.13,39.86c-14.07,8.91-18.94,8.44-26.77,23.85l17.08,30.29c15.69.66,25.54-.13,41.26-.21v-2.25C71.28,274.44,66.44,273.81,61.87,272.33Z"/><path class="cls-1" d="M136.75,187.38a615,615,0,0,1,82.75-30.66l-.58-.81-.94-1.48a628.08,628.08,0,0,0-94,28.93l-.52,6.3,5.24,1.47Q132.7,189.23,136.75,187.38Z"/></g><g id="Stars"><path class="cls-1" d="M88.29,70.66a1.49,1.49,0,1,1-2-.61,1.5,1.5,0,0,1,2,.61"/><path class="cls-1" d="M108,85.69a1.83,1.83,0,1,1-2.48-.75,1.84,1.84,0,0,1,2.48.75"/><path class="cls-1" d="M149,105.57a1.83,1.83,0,1,1-2.48-.75,1.84,1.84,0,0,1,2.48.75"/><path class="cls-1" d="M99.66,104.56a1.49,1.49,0,1,1-2-.61,1.5,1.5,0,0,1,2,.61"/><path class="cls-1" d="M117.79,104.48a1.49,1.49,0,1,1-2-.61,1.5,1.5,0,0,1,2,.61"/><path class="cls-1" d="M88.25,93.4a1.83,1.83,0,1,1-2.48-.75,1.84,1.84,0,0,1,2.48.75"/><path class="cls-1" d="M73.8,117.86a1.49,1.49,0,1,1-2-.61,1.5,1.5,0,0,1,2,.61"/><path class="cls-1" d="M79,118.44a1.49,1.49,0,1,1-2-.61,1.5,1.5,0,0,1,2,.61"/><path class="cls-1" d="M84.28,119a1.49,1.49,0,1,1-2-.61,1.5,1.5,0,0,1,2,.61"/><path class="cls-1" d="M81.13,127.19a1.49,1.49,0,1,1-2-.61,1.5,1.5,0,0,1,2,.61"/><path class="cls-1" d="M62.08,164.89a1.49,1.49,0,1,1-2-.61,1.5,1.5,0,0,1,2,.61"/><path class="cls-1" d="M71.4,168.73a1.49,1.49,0,1,1-2-.61,1.5,1.5,0,0,1,2,.61"/><path class="cls-1" d="M125.21,71.69a2.61,2.61,0,0,1,.84-2.57l-1.39-3.7,2.54,3.12a2.62,2.62,0,0,1,2.54.86L133.51,68l-3.2,2.51a2.63,2.63,0,0,1-.81,2.51l1.31,3.87-2.51-3.26a2.63,2.63,0,0,1-2.49-.81l-3.67,1.26Z"/><path class="cls-1" d="M76.81,160a2.61,2.61,0,0,1,.84-2.57l-1.39-3.7,2.54,3.12a2.62,2.62,0,0,1,2.54.86l3.76-1.37-3.2,2.51a2.61,2.61,0,0,1-.81,2.51l1.31,3.88L79.9,162a2.62,2.62,0,0,1-2.48-.82l-3.67,1.26Z"/><path class="cls-1" d="M281.9,104.79a1.83,1.83,0,1,1,.74-2.48,1.84,1.84,0,0,1-.74,2.48"/><path class="cls-1" d="M262.15,145.85a1.83,1.83,0,1,1,.74-2.48,1.84,1.84,0,0,1-.74,2.48"/><path class="cls-1" d="M263,96.5a1.49,1.49,0,1,1,.6-2,1.5,1.5,0,0,1-.6,2"/><path class="cls-1" d="M263.15,114.63a1.49,1.49,0,1,1,.6-2,1.5,1.5,0,0,1-.6,2"/><path class="cls-1" d="M274.13,85a1.83,1.83,0,1,1,.74-2.48,1.84,1.84,0,0,1-.74,2.48"/><path class="cls-1" d="M249.62,70.68a1.49,1.49,0,1,1,.6-2,1.5,1.5,0,0,1-.6,2"/><path class="cls-1" d="M249.07,75.92a1.49,1.49,0,1,1,.6-2,1.5,1.5,0,0,1-.6,2"/><path class="cls-1" d="M248.51,81.16a1.49,1.49,0,1,1,.6-2,1.5,1.5,0,0,1-.6,2"/><path class="cls-1" d="M240.32,78a1.49,1.49,0,1,1,.6-2,1.5,1.5,0,0,1-.6,2"/><path class="cls-1" d="M202.56,59.1a1.49,1.49,0,1,1,.6-2,1.5,1.5,0,0,1-.6,2"/><path class="cls-1" d="M198.75,68.43a1.49,1.49,0,1,1,.6-2,1.5,1.5,0,0,1-.6,2"/><path class="cls-1" d="M296,121.94a2.61,2.61,0,0,1,2.57.83l3.7-1.4-3.12,2.55a2.62,2.62,0,0,1-.85,2.54l1.38,3.76L297.13,127a2.63,2.63,0,0,1-2.52-.8l-3.87,1.32L294,125a2.63,2.63,0,0,1,.81-2.49l-1.27-3.66Z"/><path class="cls-1" d="M207.45,73.82a2.61,2.61,0,0,1,2.57.83l3.7-1.4L210.6,75.8a2.62,2.62,0,0,1-.85,2.54l1.38,3.76-2.52-3.19a2.61,2.61,0,0,1-2.51-.8l-3.87,1.32,3.25-2.52a2.62,2.62,0,0,1,.81-2.49L205,70.76Z"/></g><g id="Outside_Circle" data-name="Outside Circle"><path id="Outside_Circle_RED_" data-name="Outside Circle (RED)" class="cls-1" d="M180,4.06A175.94,175.94,0,1,0,355.94,180,175.94,175.94,0,0,0,180,4.06Zm0,330.23A154.29,154.29,0,1,1,334.29,180,154.29,154.29,0,0,1,180,334.29Z"/><path id="Outside_Circle_GREY_STROKE_" data-name="Outside Circle (GREY STROKE)" class="cls-1" d="M180,4.06A175.94,175.94,0,1,1,4.06,180,175.94,175.94,0,0,1,180,4.06m0,330.23A154.29,154.29,0,1,0,25.71,180,154.29,154.29,0,0,0,180,334.29M180,0A180,180,0,0,0,52.72,307.28,180,180,0,1,0,307.28,52.72,178.82,178.82,0,0,0,180,0Zm0,330.23A150.23,150.23,0,0,1,73.77,73.77,150.23,150.23,0,1,1,286.23,286.23a149.24,149.24,0,0,1-106.23,44Z"/></g><g id="Rocket"><path d="M233.79,175.83s-2.39-3.58-14.34-20.31c-26.28-40.61-28.67-70.48-28.67-86S178.86,42.06,178.84,42l.27-.42-.05-.05-.21.23-.35.39a54,54,0,0,0-6.64,9.57,37.79,37.79,0,0,0-5,17.75c0,15.53-2.39,45.39-28.67,86-11.95,16.72-14.33,20.31-14.33,20.31l-1.19,14.33,38.23,10.75v11.95h3.58v4.78h28.67v-4.78h3.58V200.91L235,190.16Z"/><path class="cls-1" d="M234.45,175.6l-.1-.15s-2.53-3.78-14.33-20.3c-19.22-29.7-28.56-57.71-28.56-85.64,0-13.11-8.18-23.53-11.11-26.84l-.43-.45L178.76,41l0,0-.75.82a54.46,54.46,0,0,0-6.73,9.7,38,38,0,0,0-5,18.07c0,27.92-9.34,55.94-28.54,85.61-11.82,16.54-14.32,20.29-14.35,20.33l-.1.15L122,190.66l38.27,10.76v12.11h3.58v4.78h30v-4.78h3.58V201.43l37.73-10.61.54-.15Zm-38.37,24.8v11.78H192.5V217H165.18v-4.78H161.6V200.4l-38.18-10.74,1.13-13.6c.55-.81,3.67-5.37,14.24-20.17,19.36-29.93,28.78-58.18,28.78-86.37a36.66,36.66,0,0,1,4.87-17.43,53.33,53.33,0,0,1,6.3-9.16c2,2.21,11.36,13.1,11.36,26.59,0,28.2,9.41,56.45,28.8,86.4,10.56,14.78,13.67,19.33,14.23,20.15l1.13,13.6Z"/><path class="cls-1" d="M229.61,177.32c-1.29-1.87-4.92-7.08-13.64-19.3l-.11-.16C196.1,127.33,186.5,98.43,186.5,69.51a32.12,32.12,0,0,0-3.65-14.24h-8a32.13,32.13,0,0,0-3.65,14.24c0,28.91-9.6,57.81-29.36,88.34l-.11.16c-8.72,12.21-12.35,17.42-13.64,19.3l-.81,9.67,37.95,10.67V109l3.58,78-3.58,10.67v10.9h9s-5.43,2.07-5.43,4.78h20.07c0-2.7-5.43-4.78-5.43-4.78h9v-10.9L188.88,187l3.58-78v88.67L230.41,187ZM171.83,67.26s2.62-5.09,7-5.09,7,5.09,7,5.09C178.86,60.25,171.83,67.26,171.83,67.26Z"/><polygon points="178.85 166.21 174.77 197.58 178.85 230.45 182.93 197.58 178.85 166.21"/></g><path d="M36.27,274.4,45.46,264l1.88,2.67-4,4c-1.14,1.17-2.4,2.4-3.38,3.36l0,0c1.32-.66,2.83-1.33,4.38-2l5.17-2.24,1.86,2.65-4,4.15c-1.12,1.15-2.17,2.16-3.28,3.19l0,0c1.34-.7,2.81-1.36,4.28-2.05l5.15-2.28,1.78,2.54-13,4.91-1.9-2.7L44.52,276c1-1,1.87-1.9,3-2.92l0,0c-1.38.68-2.55,1.23-3.85,1.75l-5.48,2.29Z"/><path d="M59,292.28c-3.35,2.88-7.13,2.59-9.7-.41s-1.83-6.78,1.08-9.28c3.07-2.63,7-2.64,9.63.39S61.78,289.86,59,292.28ZM52.48,285c-2,1.72-2.61,3.87-1.28,5.42s3.6,1.18,5.58-.52c1.84-1.57,2.66-3.81,1.29-5.4S54.47,283.3,52.48,285Z"/><path d="M64.9,289.14A26.81,26.81,0,0,1,68,291.8c1.42,1.41,2.2,2.61,2.34,3.83a3.42,3.42,0,0,1-1.11,2.87,3.58,3.58,0,0,1-4,.67l0,0a3.4,3.4,0,0,1-.5,3.06c-.77,1.37-1.72,2.92-1.9,3.47l-2.21-2.2a16.82,16.82,0,0,1,1.55-2.89c.93-1.45.84-2.18,0-3.07l-.65-.65-3.74,3.76-2.14-2.13Zm-2,6.24.85.85c1.08,1.07,2.25,1.17,3.08.33s.72-1.91-.26-2.91a7.61,7.61,0,0,0-1-.9Z"/><path d="M72,313.33a8.71,8.71,0,0,1-3-1.82c-3.53-3-3.45-6.81-.94-9.71,3-3.48,7.16-3.28,10.25-.61a7.94,7.94,0,0,1,2.12,2.62l-2,1.43a6.58,6.58,0,0,0-1.61-2.05c-1.83-1.58-4.21-1.7-6.17.57a4,4,0,0,0,.4,6.15,7.63,7.63,0,0,0,2.21,1.33Z"/><path d="M83.56,315.38l-4-3L77.67,315l4.43,3.33-1.5,2-6.88-5.16,8.09-10.78,6.65,5-1.5,2-4.21-3.16-1.68,2.24,4,3Z"/><path d="M84.48,319.14a7.78,7.78,0,0,0,2.37,2.55c1.17.77,2.11.68,2.59-.05s.19-1.46-.85-2.83c-1.45-1.88-2-3.71-.92-5.36,1.26-1.92,3.83-2.35,6.49-.61a8.26,8.26,0,0,1,2.51,2.45L94.75,317a6.41,6.41,0,0,0-2-2.08c-1.1-.72-2-.57-2.35,0s0,1.45,1.05,3c1.51,2,1.77,3.69.73,5.28-1.24,1.89-3.74,2.55-6.84.52a8.82,8.82,0,0,1-2.75-2.78Z"/><path d="M99.78,319.55l-3.15-1.78,1.26-2.23,9,5.08-1.26,2.23-3.21-1.8-5.36,9.51-2.67-1.5Z"/><path d="M111.83,331.62l-4.47-2.15L106,332.36l5,2.4L109.89,337l-7.76-3.72L108,321.13l7.5,3.6L114.38,327l-4.74-2.28-1.21,2.52,4.47,2.15Z"/><path d="M117.14,325.67a26.77,26.77,0,0,1,3.88,1.24c1.86.74,3,1.54,3.66,2.6a3.42,3.42,0,0,1,.11,3.08,3.58,3.58,0,0,1-3.44,2.21l0,.06a3.4,3.4,0,0,1,.74,3c-.17,1.57-.43,3.36-.38,3.94l-2.9-1.15a16.85,16.85,0,0,1,.29-3.27c.29-1.69-.08-2.34-1.23-2.81l-.85-.34-2,4.92L112.21,338Zm.66,6.51,1.12.44c1.41.56,2.53.19,3-.91s-.09-2-1.39-2.58a7.53,7.53,0,0,0-1.32-.42Z"/><path d="M131.43,331a24.92,24.92,0,0,1,4,.88,6.46,6.46,0,0,1,3.66,2.18,3.94,3.94,0,0,1,.51,3.4,4.31,4.31,0,0,1-2.08,2.73,6.25,6.25,0,0,1-4.6.14,7.69,7.69,0,0,1-1-.35l-1.34,4.63-2.9-.84Zm1.2,6.72a4.65,4.65,0,0,0,1,.36c1.56.45,2.75-.06,3.13-1.38s-.27-2.14-1.73-2.56a5.14,5.14,0,0,0-1.24-.24Z"/><path d="M152.89,342.89c-.89,4.33-4.06,6.41-7.92,5.62s-5.6-4.24-4.82-8c.82-4,4-6.39,7.85-5.59C152.06,335.75,153.65,339.25,152.89,342.89Zm-9.58-1.79c-.53,2.59.3,4.66,2.3,5.07s3.57-1.27,4.1-3.83c.49-2.37-.23-4.64-2.28-5.07S143.85,338.53,143.32,341.1Z"/><path d="M155.72,336.57l3,.39-1.4,10.83,5.32.69-.33,2.54L154,349.94Z"/><path d="M165.85,351.29l.4-5.5-3.67-8.25,3.47.25,1.14,3.33c.35,1,.57,1.75.85,2.65h0c.36-.82.74-1.57,1.2-2.5l1.59-3.13,3.41.25-5,7.52-.41,5.6Z"/><path d="M177.91,340.9l-3.62-.06,0-2.56,10.36.17,0,2.56L181,341l-.17,10.92-3.06,0Z"/><path d="M194.26,345.6l-4.95.3.2,3.19,5.53-.34.15,2.5-8.58.52-.82-13.45,8.3-.51.15,2.49-5.25.32.17,2.79,4.95-.3Z"/><path d="M207.5,349.36a8.71,8.71,0,0,1-3.36,1c-4.62.6-7.38-2-7.87-5.78-.59-4.56,2.33-7.52,6.38-8a7.94,7.94,0,0,1,3.37.17l-.3,2.48a6.58,6.58,0,0,0-2.6-.17c-2.4.31-4.08,2-3.69,5a4,4,0,0,0,4.85,3.81,7.61,7.61,0,0,0,2.46-.76Z"/><path d="M210.28,335.5l1.07,5.07,4.91-1-1.07-5.07,3-.63,2.78,13.2-3,.63-1.16-5.52-4.91,1,1.16,5.52-3,.63-2.78-13.2Z"/><path d="M224,346.25l-3.87-12.92,3.41-1,4.1,3.93a39.06,39.06,0,0,1,3.43,3.8l.06,0a49.94,49.94,0,0,1-1.86-5.31l-1.13-3.78,2.68-.8L234.74,343l-3.07.92-4.25-4.16a50.06,50.06,0,0,1-3.61-3.89l-.05,0c.59,1.68,1.17,3.49,1.8,5.6l1.17,3.89Z"/><path d="M235.84,328.26l4.63,12.66L237.59,342,233,329.31Z"/><path d="M252.25,335.64a8.67,8.67,0,0,1-3,1.9c-4.28,1.83-7.63.11-9.14-3.42-1.81-4.23.2-7.87,3.95-9.48a8,8,0,0,1,3.29-.76l.38,2.47a6.58,6.58,0,0,0-2.55.55c-2.23,1-3.38,3-2.2,5.79a4,4,0,0,0,5.7,2.34,7.62,7.62,0,0,0,2.16-1.4Z"/><path d="M254.73,319.68,261,331.62,258.27,333,252,321.1Z"/><path d="M263.7,330.23l-7-11.55,3-1.84,4.95,2.79a39.11,39.11,0,0,1,4.27,2.82l.05,0a50,50,0,0,1-3.12-4.68l-2-3.38,2.4-1.44,7,11.55-2.74,1.65-5.15-3a49.88,49.88,0,0,1-4.46-2.87l0,0c1,1.48,2,3.09,3.13,5l2.09,3.48Z"/><path d="M274.11,320.1a7.77,7.77,0,0,0,3.24-1.27c1.14-.81,1.41-1.71.9-2.43s-1.29-.71-2.94-.25c-2.28.66-4.19.49-5.32-1.11-1.33-1.88-.78-4.42,1.82-6.26a8.26,8.26,0,0,1,3.2-1.43l.87,2.4a6.41,6.41,0,0,0-2.67,1.11c-1.08.76-1.25,1.62-.85,2.19s1.34.57,3.14.11c2.45-.66,4.08-.29,5.18,1.26,1.3,1.85,1,4.42-2,6.55a8.82,8.82,0,0,1-3.59,1.54Z"/><path d="M280.1,306l-2.81,2.28-1.61-2,8-6.53,1.61,2-2.86,2.32,6.88,8.48L287,314.51Z"/><path d="M286.92,296.85l9,10-2.28,2-9-10Z"/><path d="M292.28,295.3l-2.57,2.55-1.8-1.82,7.35-7.3,1.8,1.82-2.61,2.59,7.7,7.75L300,303Z"/><path d="M298,285.61l5.86,5.09c1.75,1.52,3.22,1.63,4.24.45s.78-2.61-1-4.17l-5.86-5.09,2-2.3,5.71,5c3.14,2.73,3.26,5.61,1,8.27s-5,2.85-8.21,0L296,287.92Z"/><path d="M308.17,277.34l-2.16,2.9L304,278.72l6.19-8.31,2.05,1.53-2.2,3,8.76,6.52-1.83,2.45Z"/><path d="M321.67,266.93,319,271.1l2.69,1.74,3-4.65,2.1,1.36-4.68,7.22-11.31-7.33,4.53-7,2.1,1.36-2.86,4.42,2.35,1.52,2.7-4.16Z"/><path d="M18.47,190.24,22,191l.16,3.16L8.46,190.73l-.2-4,13.25-4.84.16,3.28-3.4,1.21ZM16,186.93l-2.81,1c-.79.28-1.77.57-2.56.81v0c.81.16,1.84.31,2.63.49l2.9.66Z"/><path d="M16.77,169.09c-1.62,0-3.58,0-5.54-.1v.06c1.7.49,3.6,1.12,5.16,1.71l5.19,1.85L21.48,175l-5.27,1.23c-1.6.38-3.53.76-5.31,1v0c1.82.15,3.89.29,5.57.46l5.11.44L21.46,181,8,179.6l.16-4.06,4.55-1.14c1.58-.36,3.27-.71,4.86-.95v-.06c-1.54-.44-3.3-1-4.79-1.47L8.39,170.3l.16-4,13.5-.2-.12,3Z"/><path d="M17.67,155.68l-.61,4.92,3.18.39.68-5.5,2.48.31-1.06,8.54L9,162.68l1-8.26,2.48.31L11.82,160l2.78.34.61-4.92Z"/><path d="M10.59,151.68a26.77,26.77,0,0,1,.5-4c.38-2,.94-3.28,1.87-4.08a3.42,3.42,0,0,1,3-.68,3.58,3.58,0,0,1,2.81,3h.06a3.4,3.4,0,0,1,2.82-1.29c1.57-.12,3.38-.2,3.94-.36L25,147.27a16.86,16.86,0,0,1-3.26.33c-1.72,0-2.28.52-2.54,1.73l-.17.9,5.2,1-.57,3Zm6.27-1.86.23-1.18c.29-1.49-.29-2.52-1.44-2.74s-2,.47-2.27,1.84a7.6,7.6,0,0,0-.16,1.37Z"/><path d="M13.64,136.7,26.72,140l-.74,3L12.9,139.67Z"/><path d="M29.8,128.19a8.69,8.69,0,0,1-.46,3.48c-1.37,4.45-4.85,5.9-8.52,4.76-4.4-1.35-5.88-5.24-4.68-9.14a8,8,0,0,1,1.55-3l2.13,1.31a6.59,6.59,0,0,0-1.23,2.3c-.71,2.31.13,4.54,3,5.42a4,4,0,0,0,5.48-2.83,7.63,7.63,0,0,0,.33-2.56Z"/><path d="M28.66,122.53l2.86,2.17-1.16,2.94-11-8.79,1.47-3.72,14.07,1.07-1.21,3.05-3.6-.31Zm-.86-4-3-.27c-.83-.07-1.85-.22-2.67-.32v0c.67.48,1.55,1,2.19,1.53l2.37,1.8Z"/><path d="M35.4,115.05l-12.09-6,1.58-3.19,5.67-.33a39,39,0,0,1,5.12.07l0-.05a50,50,0,0,1-5.16-2.25L27,101.59l1.24-2.51,12.09,6-1.42,2.87-5.94.28a49.85,49.85,0,0,1-5.31,0v.06c1.63.72,3.35,1.52,5.33,2.49l3.64,1.8Z"/><path d="M33.45,90.18l11.55,7-1.58,2.62-11.55-7Z"/><path d="M46.12,95.17,35,87.55l2-2.94,5.66.48a39.13,39.13,0,0,1,5.05.8l0,0a49.94,49.94,0,0,1-4.78-3l-3.25-2.23,1.58-2.31L52.43,86l-1.81,2.64L44.7,88a50.13,50.13,0,0,1-5.25-.76l0,.06c1.51.94,3.1,2,4.92,3.23l3.35,2.3Z"/><path d="M51.35,82.25a7.77,7.77,0,0,0,2.77-2.11c.88-1.09.88-2,.2-2.58s-1.43-.33-2.9.58c-2,1.26-3.89,1.63-5.42.4-1.79-1.44-2-4,0-6.52a8.26,8.26,0,0,1,2.68-2.26l1.5,2.07a6.41,6.41,0,0,0-2.26,1.8c-.82,1-.76,1.9-.21,2.34s1.44.18,3-.76c2.17-1.31,3.84-1.41,5.32-.22,1.76,1.41,2.18,4-.14,6.86a8.82,8.82,0,0,1-3,2.47Z"/><path d="M54,67l-2.44,2.67L49.65,67.9l7-7.64L58.52,62,56,64.69l8.06,7.37L62,74.32Z"/><path d="M60.23,56.74l9.48,9.58-2.18,2.15L58.06,58.9Z"/><path d="M66,54.83l-2.7,2.41-1.71-1.91,7.72-6.91L71,50.34l-2.74,2.45,7.28,8.14-2.28,2Z"/><path d="M73.35,45.21l4.73,6.15c1.41,1.84,2.83,2.24,4.07,1.29s1.28-2.4-.17-4.29l-4.73-6.15,2.41-1.85,4.61,6c2.54,3.3,2.08,6.15-.71,8.29s-5.43,1.8-8-1.61l-4.58-6Z"/><path d="M85.82,39.3l-3,2-1.41-2.14L90,33.46l1.41,2.14-3.07,2,6,9.12-2.56,1.68Z"/><path d="M102.64,35.21l-4.31,2.45,1.58,2.78,4.82-2.73L106,39.88l-7.48,4.25L91.83,32.4l7.24-4.11,1.23,2.17-4.57,2.6L97.1,35.5l4.31-2.45Z"/><path d="M119.3,26.11c1.78,4,.41,7.58-3.19,9.17s-7-.2-8.57-3.72c-1.63-3.7-.49-7.5,3.15-9.11S117.8,22.71,119.3,26.11Zm-8.84,4.1c1.07,2.42,3,3.62,4.82,2.79s2.17-3.1,1.12-5.5c-1-2.21-2.88-3.65-4.8-2.8S109.41,27.81,110.47,30.21Z"/><path d="M119,19.22l7.77-2.74.83,2.36-4.88,1.72,1,2.9,4.56-1.61.83,2.34-4.56,1.61,1.8,5.11-2.89,1Z"/><path d="M138.94,23.41l-.1,3.59-3.07.76.76-14.07,3.88-1,7.3,12.08-3.18.79-1.84-3.11Zm2.77-3-1.5-2.57c-.43-.72-.9-1.63-1.28-2.36h0c0,.82,0,1.86,0,2.67l-.09,3Z"/><path d="M156,17.62l-4.89.84.54,3.15,5.46-.94.42,2.46L149,24.6l-2.28-13.29L155,9.9l.42,2.46-5.19.89.47,2.76,4.89-.84Z"/><path d="M157.74,9.7a26.72,26.72,0,0,1,4-.69c2-.2,3.41,0,4.44.61a3.42,3.42,0,0,1,1.52,2.68,3.58,3.58,0,0,1-2,3.54v.06a3.4,3.4,0,0,1,2,2.32c.57,1.47,1.17,3.18,1.48,3.67l-3.1.32a16.89,16.89,0,0,1-1.25-3c-.53-1.63-1.15-2-2.39-1.93l-.92.09.54,5.27-3,.31Zm3.59,5.46,1.19-.12c1.51-.15,2.33-1,2.21-2.18s-1-1.77-2.42-1.64a7.64,7.64,0,0,0-1.36.24Z"/><path d="M182.49,14.64c.1,4.42-2.51,7.16-6.45,7.25s-6.41-2.87-6.5-6.71c-.1-4,2.41-7.12,6.39-7.21C180.07,7.88,182.4,10.93,182.49,14.64Zm-9.73.41c.06,2.64,1.35,4.47,3.38,4.42s3.19-2,3.13-4.65c-.06-2.42-1.27-4.47-3.36-4.42S172.69,12.44,172.76,15.05Z"/><path d="M184.07,21.58l.81-13.45,3.55.21,2.5,5.1a39,39,0,0,1,1.92,4.74h.06a50.06,50.06,0,0,1,.08-5.62l.24-3.93L196,8.8l-.81,13.45L192,22.06l-2.56-5.36a49.69,49.69,0,0,1-2-4.89l-.06,0c0,1.78-.1,3.68-.23,5.88l-.25,4.05Z"/><path d="M200.9,19.49l-1.44,3.29-3.13-.44,6-12.77,4,.56,2.25,13.94-3.25-.46L204.73,20Zm3.71-1.78-.43-3c-.12-.83-.22-1.85-.31-2.67h0c-.31.76-.65,1.75-1,2.49l-1.19,2.72Z"/><path d="M215,11.69l-1.68,7.58c-.5,2.27.1,3.61,1.63,3.95s2.66-.56,3.18-2.88l1.68-7.58,3,.66-1.64,7.38c-.9,4.06-3.38,5.54-6.82,4.78s-4.87-3-3.93-7.21L212,11Z"/><path d="M227.54,17.46l-3.47-1,.74-2.45,9.92,3L234,19.41l-3.52-1.06L227.31,28.8l-2.93-.88Z"/><path d="M239.44,18.7,234.9,31.39l-2.88-1,4.54-12.69Z"/><path d="M246.31,35.62a8.69,8.69,0,0,1-3.41-.81c-4.29-1.81-5.38-5.41-3.89-8.95,1.78-4.24,5.8-5.33,9.56-3.75A8,8,0,0,1,251.39,24l-1.51,2a6.59,6.59,0,0,0-2.17-1.45c-2.23-.94-4.53-.32-5.69,2.44a4,4,0,0,0,2.28,5.73,7.62,7.62,0,0,0,2.51.58Z"/><path d="M249,33.89a7.77,7.77,0,0,0,2.64,2.27c1.25.63,2.17.45,2.57-.34s0-1.47-1.16-2.71c-1.65-1.7-2.39-3.47-1.51-5.22,1-2.05,3.54-2.76,6.38-1.33a8.24,8.24,0,0,1,2.76,2.16L259,30.61a6.41,6.41,0,0,0-2.23-1.84c-1.18-.59-2-.35-2.33.28s.12,1.45,1.38,2.82c1.73,1.86,2.17,3.47,1.31,5.16-1,2-3.43,2.95-6.74,1.28a8.82,8.82,0,0,1-3-2.45Z"/><path d="M264.63,42,262,44.43l-2.67-1.69L270,33.54l3.38,2.14-3.68,13.63-2.77-1.75,1-3.48Zm4.11-.1.82-2.87c.22-.8.56-1.78.82-2.56l0,0c-.6.57-1.31,1.32-1.92,1.87l-2.21,2Z"/><path d="M270.7,50l8.1-10.77,2.84,2.14L280.91,47a38.93,38.93,0,0,1-1,5l0,0a49.86,49.86,0,0,1,3.17-4.65l2.37-3.15L287.72,46l-8.1,10.77-2.56-1.92.83-5.89a50,50,0,0,1,1-5.21l-.06,0c-1,1.47-2.12,3-3.44,4.77l-2.44,3.24Z"/><path d="M290.08,48.13a27.15,27.15,0,0,1,3.26,2.54c1.91,1.71,2.84,3.15,3.16,4.75a6,6,0,0,1-1.68,5.31,6.84,6.84,0,0,1-5.31,2.58c-1.85-.07-3.83-1.09-5.8-2.84A26.54,26.54,0,0,1,281.26,58Zm-5,10.25a5.65,5.65,0,0,0,.75.75c2,1.85,4.4,1.92,6.55-.48,1.88-2.08,1.64-4.27-.31-6a6.37,6.37,0,0,0-1.11-.83Z"/><path d="M298.54,69.81l-3.21,1.61-2.12-2.34,12.75-6,2.69,3-7.18,12.15-2.2-2.43,1.87-3.09Zm4,1,1.55-2.54c.43-.71,1-1.56,1.47-2.25l0,0c-.73.39-1.62.93-2.34,1.29l-2.66,1.33Z"/><path d="M304.8,77.39a7.78,7.78,0,0,0,1.42,3.18c.86,1.1,1.78,1.33,2.47.79s.65-1.32.1-3c-.77-2.24-.69-4.16.85-5.37,1.81-1.42,4.38-1,6.34,1.51a8.27,8.27,0,0,1,1.58,3.13l-2.36,1A6.41,6.41,0,0,0,314,76c-.81-1-1.68-1.17-2.23-.74s-.51,1.36,0,3.14c.77,2.42.49,4.06-1,5.23-1.78,1.39-4.36,1.21-6.64-1.71a8.82,8.82,0,0,1-1.71-3.51Z"/><path d="M319.09,83.45l-2-3L319.16,79,325,87.58,322.88,89l-2.07-3-9,6.15-1.72-2.53Z"/><path d="M325.94,89.44a26.69,26.69,0,0,1,2.29,3.36c1,1.73,1.46,3.08,1.29,4.3a3.42,3.42,0,0,1-1.81,2.49,3.58,3.58,0,0,1-4.07-.38l-.05,0a3.4,3.4,0,0,1-1.27,2.83c-1.1,1.13-2.41,2.38-2.72,2.87L318,102.25a16.85,16.85,0,0,1,2.23-2.4c1.27-1.16,1.37-1.89.76-3l-.46-.79L316,98.77l-1.53-2.61ZM322.46,95l.61,1c.77,1.31,1.88,1.7,2.9,1.11s1.18-1.66.49-2.88a7.62,7.62,0,0,0-.78-1.14Z"/><path d="M331.69,114c-4,1.93-7.56.68-9.28-2.87s0-7,3.41-8.7c3.64-1.76,7.48-.75,9.21,2.83S335,112.38,331.69,114Zm-4.41-8.69c-2.38,1.15-3.51,3.08-2.62,4.91s3.18,2.06,5.54.92c2.18-1.05,3.55-3,2.63-4.9S329.64,104.17,327.29,105.31Z"/><path d="M326,118.32l12.6-4.8,1.27,3.33-3.62,4.38a39,39,0,0,1-3.53,3.7l0,.06a50.18,50.18,0,0,1,5.16-2.25l3.68-1.4,1,2.62-12.6,4.8-1.14-3,3.83-4.54a50.16,50.16,0,0,1,3.61-3.88l0,0c-1.63.71-3.4,1.42-5.45,2.21L327,120.94Z"/><path d="M334.85,132.78l-3.59,0-.88-3,14.1.2,1.11,3.84L333.8,141.6l-.91-3.15,3-2Zm3.14,2.65,2.51-1.6c.7-.45,1.6-1,2.31-1.38v0c-.82,0-1.86.12-2.67.13l-3,0Z"/><path d="M347.74,142.41l-7.6,1.58c-2.27.47-3.25,1.57-2.93,3.1s1.6,2.2,3.93,1.71l7.6-1.58.62,3-7.4,1.54c-4.07.85-6.44-.8-7.16-4.25s.74-5.67,4.95-6.54l7.36-1.53Z"/><path d="M347.64,156.2l-.47-3.59,2.54-.33,1.35,10.27-2.54.33-.48-3.65-10.83,1.42-.4-3Z"/><path d="M351.41,167.56,338,168.64l-.25-3,13.43-1.08Z"/><path d="M338.83,180.81a8.7,8.7,0,0,1-.67-3.44c-.13-4.66,2.7-7.14,6.54-7.24,4.6-.13,7.25,3.08,7.36,7.16a8,8,0,0,1-.51,3.33l-2.44-.55a6.58,6.58,0,0,0,.43-2.57c-.07-2.42-1.58-4.26-4.58-4.18a4,4,0,0,0-4.28,4.44,7.61,7.61,0,0,0,.51,2.53Z"/><path d="M341.54,182.59a7.78,7.78,0,0,0-1,3.34c-.06,1.4.5,2.16,1.37,2.2s1.34-.59,2-2.18c.87-2.21,2.17-3.62,4.12-3.54,2.3.09,4,2.08,3.86,5.26a8.26,8.26,0,0,1-.82,3.41l-2.43-.78a6.41,6.41,0,0,0,.75-2.79c.05-1.32-.52-2-1.22-2-.86,0-1.27.71-2,2.42-1,2.34-2.26,3.41-4.16,3.34-2.26-.09-4.11-1.9-4-5.6a8.81,8.81,0,0,1,1-3.79Z"/></svg>