<svg id="Layer_1" data-name="Layer 1" xmlns="http://www.w3.org/2000/svg" viewBox="0 0 352 352"><defs><style>.cls-1,.cls-6{fill:#262626;}.cls-2{fill:#a9b0b7;}.cls-3{fill:#ac2b37;}.cls-4{fill:none;}.cls-5{fill:#fff;}.cls-6{stroke:#a9b0b7;stroke-miterlimit:10;}</style></defs><title>AIAA_Logo_RGB_S_Color</title><g id="Background_Circle" data-name="Background Circle"><circle class="cls-1" cx="176" cy="176" r="150.86"/></g><g id="Saturn"><path class="cls-2" d="M21.27,246.13c7.65-15.07,12.42-14.61,26.17-23.32,55.39-35.06,116.17-56.43,179.92-70.08a138.42,138.42,0,0,1,16.85-2.51c-36.59,9.3-72.21,21.28-106.51,37-23.92,10.95-47.26,23-67.49,40.1A82.44,82.44,0,0,0,54.7,244.43c-7.11,10.75-2.6,21.84,9.8,25.85,4.46,1.44,9.19,2.06,13.8,3.06v2.2c-15.37.08-25,.85-40.34.21" transform="translate(-4 -4)"/><path class="cls-2" d="M346.92,163.25c-10.48,20.78-29.24,32.64-49.39,46.16,5.65-6.88,10.52-11.73,14.13-17.4,8.64-13.59,3.3-24-12.79-25.6-18-1.84-35.48,1.25-52.68,5.84-54.32,14.48-105.09,36.73-150.72,70-3.61,2.63-7,5.55-11.42,7.35,5.45-4.84,10.62-10,16.38-14.46,42.12-32.37,89.74-54.17,139.52-71.56,25.26-8.82,51-16.27,78-17.25a114.54,114.54,0,0,1,12.75.32c6.76.51,12.56,2.94,16.19,9.11Z" transform="translate(-4 -4)"/><path class="cls-2" d="M84.3,261.53c27.51-20.37,55.52-34.39,86-43.53a291.12,291.12,0,0,1,109.85-11.58c5.15.45,6.61,2.25,6.82,7.24,1.91,45.09-23.8,86.69-64,103.07-42.15,17.19-88.6,7-118.69-26.73C96.76,281.56,91.15,271.42,84.3,261.53Z" transform="translate(-4 -4)"/><path class="cls-2" d="M84.4,183.73c13.09-34.62,37.29-57.35,73.41-66,34-8.12,64.56-.22,91.5,22.13C189,134.68,134.19,149,84.4,183.73Z" transform="translate(-4 -4)"/></g><g id="Stars"><path class="cls-2" d="M90.33,73.09a1.45,1.45,0,1,1-2-.6,1.46,1.46,0,0,1,2,.6" transform="translate(-4 -4)"/><path class="cls-2" d="M109.61,87.79a1.79,1.79,0,1,1-2.42-.73,1.8,1.8,0,0,1,2.42.73" transform="translate(-4 -4)"/><path class="cls-2" d="M149.7,107.23a1.79,1.79,0,1,1-2.42-.73,1.8,1.8,0,0,1,2.42.73" transform="translate(-4 -4)"/><path class="cls-2" d="M101.45,106.24a1.45,1.45,0,1,1-2-.6,1.46,1.46,0,0,1,2,.6" transform="translate(-4 -4)"/><path class="cls-2" d="M119.17,106.16a1.45,1.45,0,1,1-2-.6,1.46,1.46,0,0,1,2,.6" transform="translate(-4 -4)"/><path class="cls-2" d="M90.29,95.32a1.79,1.79,0,1,1-2.42-.73,1.8,1.8,0,0,1,2.42.73" transform="translate(-4 -4)"/><path class="cls-2" d="M76.16,119.24a1.45,1.45,0,1,1-2-.6,1.46,1.46,0,0,1,2,.6" transform="translate(-4 -4)"/><path class="cls-2" d="M81.29,119.81a1.45,1.45,0,1,1-2-.6,1.46,1.46,0,0,1,2,.6" transform="translate(-4 -4)"/><path class="cls-2" d="M86.41,120.37a1.45,1.45,0,1,1-2-.6,1.46,1.46,0,0,1,2,.6" transform="translate(-4 -4)"/><path class="cls-2" d="M83.32,128.36a1.45,1.45,0,1,1-2-.6,1.46,1.46,0,0,1,2,.6" transform="translate(-4 -4)"/><path class="cls-2" d="M64.7,165.23a1.45,1.45,0,1,1-2-.6,1.46,1.46,0,0,1,2,.6" transform="translate(-4 -4)"/><path class="cls-2" d="M73.81,169a1.45,1.45,0,1,1-2-.6,1.46,1.46,0,0,1,2,.6" transform="translate(-4 -4)"/><path class="cls-2" d="M126.43,74.1a2.55,2.55,0,0,1,.82-2.51L125.89,68,128.38,71a2.56,2.56,0,0,1,2.48.84l3.68-1.34L131.42,73a2.57,2.57,0,0,1-.79,2.46l1.28,3.78L129.44,76a2.57,2.57,0,0,1-2.43-.8l-3.58,1.23Z" transform="translate(-4 -4)"/><path class="cls-2" d="M79.1,160.49a2.55,2.55,0,0,1,.82-2.51l-1.36-3.62,2.49,3.05a2.56,2.56,0,0,1,2.48.84l3.68-1.34-3.13,2.45a2.55,2.55,0,0,1-.79,2.45l1.28,3.79-2.46-3.19a2.57,2.57,0,0,1-2.43-.8l-3.59,1.23Z" transform="translate(-4 -4)"/><path class="cls-2" d="M279.64,106.46a1.79,1.79,0,1,1,.73-2.42,1.8,1.8,0,0,1-.73,2.42" transform="translate(-4 -4)"/><path class="cls-2" d="M260.32,146.61a1.79,1.79,0,1,1,.73-2.42,1.8,1.8,0,0,1-.73,2.42" transform="translate(-4 -4)"/><path class="cls-2" d="M261.16,98.35a1.45,1.45,0,1,1,.59-2,1.46,1.46,0,0,1-.59,2" transform="translate(-4 -4)"/><path class="cls-2" d="M261.3,116.08a1.45,1.45,0,1,1,.59-2,1.46,1.46,0,0,1-.59,2" transform="translate(-4 -4)"/><path class="cls-2" d="M272,87.16a1.79,1.79,0,1,1,.73-2.42,1.8,1.8,0,0,1-.73,2.42" transform="translate(-4 -4)"/><path class="cls-2" d="M248.08,73.11a1.45,1.45,0,1,1,.59-2,1.46,1.46,0,0,1-.59,2" transform="translate(-4 -4)"/><path class="cls-2" d="M247.53,78.23a1.45,1.45,0,1,1,.59-2,1.46,1.46,0,0,1-.59,2" transform="translate(-4 -4)"/><path class="cls-2" d="M247,83.36a1.45,1.45,0,1,1,.59-2,1.46,1.46,0,0,1-.59,2" transform="translate(-4 -4)"/><path class="cls-2" d="M239,80.3a1.45,1.45,0,1,1,.59-2,1.46,1.46,0,0,1-.59,2" transform="translate(-4 -4)"/><path class="cls-2" d="M202.06,61.79a1.45,1.45,0,1,1,.59-2,1.46,1.46,0,0,1-.59,2" transform="translate(-4 -4)"/><path class="cls-2" d="M198.33,70.91a1.45,1.45,0,1,1,.59-2,1.46,1.46,0,0,1-.59,2" transform="translate(-4 -4)"/><path class="cls-2" d="M293.38,123.23a2.55,2.55,0,0,1,2.51.82l3.61-1.37-3,2.5a2.56,2.56,0,0,1-.83,2.49l1.35,3.68-2.46-3.12a2.57,2.57,0,0,1-2.46-.78l-3.78,1.29,3.18-2.47a2.57,2.57,0,0,1,.79-2.44L291,120.24Z" transform="translate(-4 -4)"/><path class="cls-2" d="M206.84,76.18a2.55,2.55,0,0,1,2.51.82L213,75.62l-3,2.5a2.56,2.56,0,0,1-.83,2.49l1.35,3.68L208,81.16a2.55,2.55,0,0,1-2.46-.79l-3.79,1.29,3.18-2.47a2.57,2.57,0,0,1,.79-2.43l-1.24-3.59Z" transform="translate(-4 -4)"/></g><path id="Smoke" class="cls-1" d="M166.86,223.42s5.73,46.67-.55,77.78c-4.46-12.94-9.74-15.42-22.63-12.19-10.48-11.28-15.31-14.51-26.8-9.27-12.29-7.66-12.09-9.67-25.59-3-4.84-5.44-8.06-5.64-10.68-5.44s0,11.48,0,11.48,56,52.74,77.13,53.75,66.13-6.5,75-11.54,49.14-45,50.35-49.46-6.25-6.06-6.25-6.06-15.11-3.81-19.74,9.09c-20.15-10.27-28.05,2.62-28.05,10.88-4.7-3.05-9.64-3.57-13.69,1.71-14.91-11.11-24.08,10.1-24.08,10.1s-5.6-64,1.75-77.8" transform="translate(-4 -4)"/><g id="Outside_Circle" data-name="Outside Circle"><path id="Outside_Circle_RED_" data-name="Outside Circle (RED)" class="cls-3" d="M180,8A172,172,0,1,0,352,180,172,172,0,0,0,180,8Zm0,322.89A150.86,150.86,0,1,1,330.86,180,150.86,150.86,0,0,1,180,330.86Z" transform="translate(-4 -4)"/><path id="Outside_Circle_GREY_STROKE_" data-name="Outside Circle (GREY STROKE)" class="cls-2" d="M180,8A172,172,0,1,1,8,180,172,172,0,0,1,180,8m0,322.89A150.86,150.86,0,1,0,29.14,180,150.86,150.86,0,0,0,180,330.86M180,4A176,176,0,0,0,55.55,304.45a176,176,0,1,0,248.9-248.9A174.85,174.85,0,0,0,180,4Zm0,322.89A146.89,146.89,0,0,1,76.14,76.14,146.89,146.89,0,1,1,283.86,283.86a145.93,145.93,0,0,1-103.86,43Z" transform="translate(-4 -4)"/></g><g id="Rocket"><path class="cls-1" d="M232.59,175.92s-2.34-3.5-14-19.86c-25.7-39.71-28-68.91-28-84.1s-11.66-26.84-11.68-26.86l.26-.41-.05,0-.21.23-.34.38A52.75,52.75,0,0,0,172,54.61,37,37,0,0,0,167.18,72c0,15.18-2.34,44.38-28,84.1-11.68,16.35-14,19.86-14,19.86l-1.17,14,37.38,10.51v11.68h3.5v4.67h28v-4.67h3.5V200.45l37.38-10.51Z" transform="translate(-4 -4)"/><path class="cls-2" d="M233.24,175.7l-.09-.14s-2.47-3.7-14-19.85c-18.79-29-27.93-56.43-27.93-83.74,0-12.82-8-23-10.87-26.24l-.42-.44L178.79,44l0,0-.73.8a53.25,53.25,0,0,0-6.58,9.48A37.14,37.14,0,0,0,166.52,72c0,27.3-9.13,54.7-27.91,83.71-11.55,16.17-14,19.84-14,19.87l-.09.14-1.23,14.73L160.68,201v11.84h3.5v4.67h29.35v-4.67H197V201l36.89-10.38.52-.15Zm-37.52,24.25v11.52h-3.5v4.67H165.51v-4.67H162V199.95l-37.33-10.5,1.11-13.3c.54-.8,3.59-5.25,13.93-19.72,18.93-29.26,28.14-56.89,28.14-84.45a35.84,35.84,0,0,1,4.77-17,52.14,52.14,0,0,1,6.16-9c2,2.16,11.11,12.81,11.11,26,0,27.57,9.2,55.19,28.16,84.48,10.33,14.45,13.37,18.9,13.91,19.7l1.11,13.3Z" transform="translate(-4 -4)"/><path class="cls-4" d="M165.55,197.26" transform="translate(-4 -4)"/><path class="cls-5" d="M228.51,177.38c-1.26-1.83-4.81-6.92-13.34-18.87l-.11-.16C195.74,128.5,186.35,100.24,186.35,72A31.41,31.41,0,0,0,182.78,58H175A31.41,31.41,0,0,0,171.4,72c0,28.27-9.39,56.53-28.71,86.38l-.11.16c-8.53,11.94-12.08,17-13.34,18.87l-.79,9.45,37.1,10.43v-86.7l3.5,76.26-3.5,10.43v10.66h8.81s-5.31,2-5.31,4.67h19.62c0-2.64-5.31-4.67-5.31-4.67h8.81V197.26l-3.5-10.43,3.5-76.27v86.7l37.1-10.43ZM172,69.77s2.56-5,6.86-5,6.86,5,6.86,5C178.88,62.91,172,69.77,172,69.77Z" transform="translate(-4 -4)"/><polygon class="cls-1" points="174.88 162.52 170.88 193.19 174.88 225.33 178.87 193.19 174.88 162.52"/></g><path class="cls-5" d="M44.8,279.33l8-10,1.86,2.38-3.47,3.92c-1,1.13-2.1,2.33-3,3.27l0,0c1.19-.67,2.55-1.36,4-2.06l4.68-2.32,1.85,2.36-3.53,4c-1,1.12-1.91,2.1-2.89,3.1l0,0c1.21-.71,2.53-1.39,3.86-2.1l4.65-2.35,1.77,2.26L50.8,287l-1.88-2.41,3.58-4.14c.84-1,1.64-1.85,2.67-2.84l0,0c-1.25.69-2.3,1.26-3.48,1.8l-5,2.38Z" transform="translate(-4 -4)"/><path class="cls-5" d="M66.58,294.87c-3,2.81-6.5,2.7-9,0s-2-6.2.61-8.64,6.4-2.74,8.93-.05S69.1,292.51,66.58,294.87Zm-6.3-6.46c-1.78,1.68-2.25,3.69-1,5.07s3.38.94,5.15-.72,2.3-3.64,1-5.06S62,286.74,60.28,288.41Z" transform="translate(-4 -4)"/><path class="cls-5" d="M72,291.73a24.83,24.83,0,0,1,2.95,2.35,6.37,6.37,0,0,1,2.31,3.45,3.17,3.17,0,0,1-.92,2.7,3.31,3.31,0,0,1-3.7.78l0,0a3.15,3.15,0,0,1-.35,2.85c-.66,1.3-1.48,2.77-1.63,3.28l-2.13-2a15.65,15.65,0,0,1,1.32-2.73c.81-1.37.7-2-.14-2.84l-.63-.58-3.32,3.62-2.06-1.89Zm-1.57,5.85.82.75c1,1,2.13,1,2.87.19s.59-1.8-.35-2.69a7.05,7.05,0,0,0-1-.79Z" transform="translate(-4 -4)"/><path class="cls-5" d="M79.45,313.85a8.05,8.05,0,0,1-2.84-1.58c-3.37-2.7-3.43-6.18-1.21-9,2.66-3.33,6.52-3.29,9.47-.93a7.35,7.35,0,0,1,2.06,2.35l-1.85,1.39a6.1,6.1,0,0,0-1.56-1.84,4.11,4.11,0,0,0-5.11,6.43,7.07,7.07,0,0,0,2.09,1.15Z" transform="translate(-4 -4)"/><path class="cls-5" d="M90.14,315.36l-3.77-2.63-1.7,2.43,4.21,2.94L87.56,320,81,315.43l7.15-10.23,6.32,4.41-1.33,1.9-4-2.79-1.48,2.13,3.77,2.63Z" transform="translate(-4 -4)"/><path class="cls-5" d="M91.12,318.82a7.21,7.21,0,0,0,2.27,2.3c1.11.68,2,.58,2.4-.12s.13-1.35-.87-2.59c-1.39-1.7-1.95-3.38-1-4.93,1.11-1.82,3.48-2.28,6-.75a7.65,7.65,0,0,1,2.39,2.2l-1.73,1.62a5.93,5.93,0,0,0-1.92-1.87c-1-.64-1.84-.47-2.18.08s0,1.35,1.06,2.71c1.46,1.84,1.74,3.37.82,4.87-1.09,1.79-3.39,2.46-6.32.68a8.18,8.18,0,0,1-2.62-2.49Z" transform="translate(-4 -4)"/><path class="cls-5" d="M105.3,318.78l-3-1.57,1.11-2.1,8.49,4.48-1.11,2.1-3-1.59-4.72,8.95-2.51-1.32Z" transform="translate(-4 -4)"/><path class="cls-5" d="M116.74,329.67l-4.19-1.89-1.22,2.7L116,332.6l-1,2.11-7.26-3.27L112.93,320l7,3.17-1,2.11-4.44-2-1.07,2.36,4.19,1.89Z" transform="translate(-4 -4)"/><path class="cls-5" d="M121.55,324.06a24.85,24.85,0,0,1,3.61,1.08,6.37,6.37,0,0,1,3.44,2.34,3.17,3.17,0,0,1,.16,2.85,3.31,3.31,0,0,1-3.14,2.11l0,.05a3.15,3.15,0,0,1,.74,2.77c-.13,1.46-.34,3.12-.28,3.65l-2.71-1a15.59,15.59,0,0,1,.21-3c.23-1.57-.12-2.16-1.19-2.58l-.8-.3-1.72,4.6-2.62-1Zm.73,6,1,.39c1.32.49,2.35.13,2.73-.9s-.12-1.89-1.33-2.36a7.1,7.1,0,0,0-1.23-.36Z" transform="translate(-4 -4)"/><path class="cls-5" d="M134.89,328.78a23,23,0,0,1,3.75.75,6,6,0,0,1,3.42,2,3.65,3.65,0,0,1,.52,3.14,4,4,0,0,1-1.89,2.56,5.79,5.79,0,0,1-4.26.2,7,7,0,0,1-.91-.31l-1.18,4.31-2.7-.74Zm1.2,6.2a4.31,4.31,0,0,0,.89.32c1.45.4,2.54-.09,2.88-1.33s-.29-2-1.64-2.35a4.82,4.82,0,0,0-1.15-.2Z" transform="translate(-4 -4)"/><path class="cls-5" d="M155,339.5c-.78,4-3.69,6-7.28,5.29s-5.23-3.87-4.55-7.36c.71-3.67,3.6-6,7.22-5.26S155.63,336.12,155,339.5Zm-8.89-1.56c-.47,2.4.33,4.31,2.19,4.67s3.29-1.21,3.76-3.59c.43-2.2-.26-4.3-2.17-4.67S146.54,335.56,146.08,337.94Z" transform="translate(-4 -4)"/><path class="cls-5" d="M157.53,333.63l2.81.34-1.22,10,4.93.6-.29,2.35L156,346Z" transform="translate(-4 -4)"/><path class="cls-5" d="M167,347.19l.35-5.1-3.43-7.62,3.22.22,1.07,3.08c.33.93.54,1.62.8,2.45h0c.33-.76.68-1.46,1.11-2.32l1.46-2.91,3.16.22-4.6,7-.36,5.19Z" transform="translate(-4 -4)"/><path class="cls-5" d="M178.13,337.55l-3.35-.05,0-2.37,9.6.16,0,2.37L181,337.6l-.17,10.11-2.83,0Z" transform="translate(-4 -4)"/><path class="cls-5" d="M193.29,341.91l-4.59.27.17,3,5.12-.3.14,2.31-8,.47-.73-12.46,7.69-.45.14,2.31-4.86.28.15,2.59,4.59-.27Z" transform="translate(-4 -4)"/><path class="cls-5" d="M205.53,345.47a8,8,0,0,1-3.11.93c-4.28.53-6.82-1.86-7.26-5.39-.52-4.23,2.2-7,6-7.42a7.36,7.36,0,0,1,3.12.17l-.29,2.29a6.1,6.1,0,0,0-2.41-.17,4.1,4.1,0,0,0,1,8.14,7,7,0,0,0,2.29-.69Z" transform="translate(-4 -4)"/><path class="cls-5" d="M208.19,332.66l.94,4.71,4.56-.91-.94-4.71,2.76-.55L218,343.46l-2.76.55-1-5.12-4.56.91,1,5.13-2.78.55-2.44-12.25Z" transform="translate(-4 -4)"/><path class="cls-5" d="M220.84,342.76l-3.4-12,3.17-.9,3.74,3.69a36.28,36.28,0,0,1,3.13,3.56h.05a46.26,46.26,0,0,1-1.65-4.94l-1-3.51,2.5-.71,3.4,12-2.85.81L224,336.84a46.47,46.47,0,0,1-3.29-3.65l0,0c.52,1.57,1,3.25,1.59,5.21l1,3.62Z" transform="translate(-4 -4)"/><path class="cls-5" d="M232,326.27l4.07,11.81-2.68.92-4.07-11.81Z" transform="translate(-4 -4)"/><path class="cls-5" d="M247.07,333.43a8,8,0,0,1-2.77,1.7c-4,1.61-7.07,0-8.4-3.34-1.59-4,.34-7.29,3.84-8.7a7.35,7.35,0,0,1,3.06-.63l.31,2.29a6.12,6.12,0,0,0-2.37.46,4.1,4.1,0,0,0,3.09,7.6,7.06,7.06,0,0,0,2-1.26Z" transform="translate(-4 -4)"/><path class="cls-5" d="M249.72,318.71l5.51,11.2-2.54,1.25L247.17,320Z" transform="translate(-4 -4)"/><path class="cls-5" d="M257.76,328.69l-6.13-10.88,2.87-1.62,4.51,2.71a36.11,36.11,0,0,1,3.88,2.73l0,0a46.53,46.53,0,0,1-2.77-4.42L258.38,314l2.26-1.27,6.13,10.88-2.58,1.46-4.69-2.89a46.31,46.31,0,0,1-4.05-2.78l0,0c.87,1.4,1.77,2.92,2.77,4.69l1.85,3.28Z" transform="translate(-4 -4)"/><path class="cls-5" d="M267.69,319.58a7.2,7.2,0,0,0,3-1.08c1.08-.72,1.36-1.54.91-2.22s-1.17-.69-2.72-.31c-2.13.54-3.89.33-4.89-1.18-1.18-1.78-.59-4.12,1.87-5.75a7.66,7.66,0,0,1,3-1.23l.73,2.25a5.92,5.92,0,0,0-2.51.95c-1,.67-1.21,1.47-.85,2s1.22.57,2.9.19c2.29-.54,3.79-.15,4.76,1.32,1.16,1.75.79,4.12-2.07,6a8.19,8.19,0,0,1-3.37,1.32Z" transform="translate(-4 -4)"/><path class="cls-5" d="M273.67,306.73l-2.68,2-1.43-1.89,7.66-5.78,1.43,1.89L275.93,305,282,313.1l-2.26,1.71Z" transform="translate(-4 -4)"/><path class="cls-5" d="M280.28,298.47l8,9.6-2.18,1.81-8-9.6Z" transform="translate(-4 -4)"/><path class="cls-5" d="M285.32,297.22l-2.47,2.26-1.6-1.75,7.07-6.48,1.6,1.75-2.51,2.3,6.83,7.46-2.09,1.92Z" transform="translate(-4 -4)"/><path class="cls-5" d="M291,288.45l5.22,4.95c1.56,1.48,2.91,1.64,3.91.59s.83-2.38-.77-3.9l-5.22-4.95,1.94-2,5.08,4.82c2.8,2.65,2.79,5.33.54,7.69s-4.71,2.43-7.6-.31l-5.05-4.8Z" transform="translate(-4 -4)"/><path class="cls-5" d="M300.77,281.23l-2.13,2.59-1.83-1.51,6.1-7.41,1.83,1.51L302.57,279l7.81,6.43-1.8,2.19Z" transform="translate(-4 -4)"/><path class="cls-5" d="M313.77,272.2l-2.7,3.72,2.4,1.74,3-4.16,1.88,1.36-4.68,6.45L303.57,274l4.53-6.24,1.87,1.36-2.86,3.94,2.1,1.52,2.7-3.72Z" transform="translate(-4 -4)"/><path class="cls-5" d="M21.62,176.46l3.17,1-.1,2.92-12.35-4.23.13-3.7L25.08,169l-.1,3-3.23.85Zm-2-3.24-2.67.69c-.75.2-1.68.39-2.43.55v0c.73.21,1.67.43,2.39.66l2.62.83Z" transform="translate(-4 -4)"/><path class="cls-5" d="M21.64,156.8c-1.5-.12-3.3-.29-5.11-.5v.06c1.53.58,3.24,1.3,4.63,2l4.65,2.09-.26,2.19-5,.75c-1.5.23-3.32.44-5,.54v0c1.66.27,3.57.56,5.1.84l4.68.79-.31,2.59-12.3-2.28.45-3.73,4.28-.72c1.48-.21,3.07-.41,4.56-.51v-.06c-1.39-.52-3-1.14-4.31-1.71l-4-1.82.44-3.66,12.47.81-.33,2.74Z" transform="translate(-4 -4)"/><path class="cls-5" d="M23.42,144.48l-.91,4.5,2.91.59,1-5,2.27.46-1.57,7.81-12.24-2.47,1.52-7.55,2.27.46-1,4.78,2.54.51.91-4.5Z" transform="translate(-4 -4)"/><path class="cls-5" d="M17.16,140.29a24.86,24.86,0,0,1,.73-3.7,6.37,6.37,0,0,1,2-3.64,3.17,3.17,0,0,1,2.82-.43,3.31,3.31,0,0,1,2.39,2.93h.05a3.15,3.15,0,0,1,2.69-1c1.46,0,3.14,0,3.66-.06l-.75,2.79a15.6,15.6,0,0,1-3,.08c-1.59-.08-2.14.32-2.46,1.43l-.22.82,4.74,1.28-.73,2.7Zm5.92-1.3.29-1.07c.37-1.36-.09-2.35-1.15-2.63s-1.87.3-2.22,1.55a7.08,7.08,0,0,0-.24,1.26Z" transform="translate(-4 -4)"/><path class="cls-5" d="M21,126.67l11.87,3.87L32,133.24l-11.87-3.87Z" transform="translate(-4 -4)"/><path class="cls-5" d="M36.42,119.84a8,8,0,0,1-.64,3.19c-1.54,4-4.85,5.15-8.17,3.88-4-1.52-5.11-5.21-3.76-8.74a7.36,7.36,0,0,1,1.62-2.67l1.89,1.34a6.1,6.1,0,0,0-1.28,2,3.76,3.76,0,0,0,2.44,5.2,3.73,3.73,0,0,0,5.24-2.28,7,7,0,0,0,.46-2.34Z" transform="translate(-4 -4)"/><path class="cls-5" d="M35.72,114.5l2.52,2.17L37,119.31l-9.68-8.76,1.57-3.35L41.84,109l-1.29,2.75-3.31-.49Zm-.56-3.77-2.73-.42c-.77-.11-1.7-.31-2.45-.45l0,0c.59.48,1.37,1.05,1.94,1.54l2.08,1.8Z" transform="translate(-4 -4)"/><path class="cls-5" d="M42.4,108l-10.86-6.17,1.63-2.87h5.26a36.2,36.2,0,0,1,4.73.34l0,0a46.33,46.33,0,0,1-4.65-2.36l-3.17-1.8,1.28-2.26L47.51,99,46,101.55l-5.51-.06a46.43,46.43,0,0,1-4.91-.29v.06c1.47.75,3,1.59,4.79,2.6l3.27,1.86Z" transform="translate(-4 -4)"/><path class="cls-5" d="M41.89,84.86l10.34,7-1.59,2.35-10.34-7Z" transform="translate(-4 -4)"/><path class="cls-5" d="M53.37,90.09l-9.92-7.57,2-2.62,5.21.71a36.22,36.22,0,0,1,4.64,1l0,0a46.29,46.29,0,0,1-4.28-3l-2.9-2.21,1.57-2.06,9.92,7.57-1.8,2.36-5.45-.8a46.4,46.4,0,0,1-4.82-1l0,.06c1.36.94,2.78,2,4.4,3.21l3,2.28Z" transform="translate(-4 -4)"/><path class="cls-5" d="M58.83,78.36a7.2,7.2,0,0,0,2.65-1.84c.86-1,.91-1.84.29-2.38s-1.31-.36-2.7.41c-1.91,1.08-3.67,1.34-5,.14-1.6-1.41-1.65-3.82.3-6a7.65,7.65,0,0,1,2.58-2l1.29,2A5.93,5.93,0,0,0,56,70.23c-.81.92-.78,1.73-.3,2.16s1.33.23,2.85-.58c2.07-1.12,3.62-1.14,4.94,0,1.57,1.38,1.84,3.77-.42,6.34a8.17,8.17,0,0,1-2.91,2.15Z" transform="translate(-4 -4)"/><path class="cls-5" d="M61.89,64.33,59.52,66.7,57.84,65l6.77-6.8,1.68,1.67-2.41,2.41,7.17,7.14-2,2Z" transform="translate(-4 -4)"/><path class="cls-5" d="M68.07,55.13l8.41,9.23-2.09,1.91L66,57Z" transform="translate(-4 -4)"/><path class="cls-5" d="M73.44,53.59l-2.58,2.14-1.51-1.83,7.39-6.13,1.51,1.83-2.62,2.18,6.46,7.79L79.9,61.38Z" transform="translate(-4 -4)"/><path class="cls-5" d="M80.56,44.95l4.19,5.84C86,52.54,87.3,53,88.47,52.11s1.26-2.18,0-4l-4.19-5.84,2.29-1.64,4.08,5.69c2.24,3.13,1.73,5.76-.92,7.66s-5.08,1.5-7.4-1.74L78.26,46.6Z" transform="translate(-4 -4)"/><path class="cls-5" d="M92.27,39.85l-2.86,1.76-1.24-2,8.17-5,1.24,2-2.9,1.79L100,47l-2.41,1.48Z" transform="translate(-4 -4)"/><path class="cls-5" d="M108,36.51l-4.06,2.16,1.39,2.62,4.53-2.41,1.09,2-7,3.75L98,33.64l6.8-3.62,1.09,2-4.3,2.29,1.22,2.29,4.06-2.16Z" transform="translate(-4 -4)"/><path class="cls-5" d="M123.59,28.42c1.57,3.78.23,7-3.14,8.43s-6.5-.33-7.86-3.61c-1.44-3.46-.3-7,3.1-8.37S122.27,25.24,123.59,28.42ZM115.33,32c.94,2.26,2.66,3.41,4.4,2.68s2.07-2.83,1.14-5.07c-.86-2.07-2.59-3.44-4.39-2.69S114.4,29.8,115.33,32Z" transform="translate(-4 -4)"/><path class="cls-5" d="M123.45,22l7.24-2.41.73,2.2-4.55,1.52.9,2.71L132,24.63l.73,2.18-4.25,1.42L130.09,33l-2.69.9Z" transform="translate(-4 -4)"/><path class="cls-5" d="M141.82,26.21l-.13,3.32-2.85.67.87-13,3.61-.85,6.62,11.27-3,.69-1.67-2.9Zm2.6-2.78L143.06,21c-.39-.67-.81-1.52-1.16-2.2h0c0,.76,0,1.73,0,2.48l-.12,2.75Z" transform="translate(-4 -4)"/><path class="cls-5" d="M157.63,21l-4.53.74.48,2.92,5.06-.82.37,2.29-7.86,1.28-2-12.32,7.6-1.24.37,2.29-4.81.78.42,2.56,4.53-.74Z" transform="translate(-4 -4)"/><path class="cls-5" d="M159.36,13.69a24.8,24.8,0,0,1,3.72-.62,6.37,6.37,0,0,1,4.11.59,3.17,3.17,0,0,1,1.39,2.49,3.31,3.31,0,0,1-1.9,3.27v.06a3.15,3.15,0,0,1,1.88,2.16c.52,1.36,1.07,2.95,1.35,3.4l-2.88.28a15.63,15.63,0,0,1-1.15-2.81c-.48-1.52-1.06-1.89-2.2-1.8l-.85.08.47,4.88-2.78.27Zm3.3,5.08,1.11-.11c1.4-.14,2.16-.92,2.06-2s-.94-1.64-2.23-1.53a7,7,0,0,0-1.26.22Z" transform="translate(-4 -4)"/><path class="cls-5" d="M182.23,18.33c.09,4.09-2.33,6.63-6,6.72s-5.94-2.66-6-6.22c-.09-3.74,2.24-6.59,5.93-6.68S182.15,14.88,182.23,18.33Zm-9,.37c.06,2.45,1.24,4.14,3.13,4.1s3-1.88,2.9-4.31c-.05-2.24-1.17-4.14-3.12-4.1S173.16,16.28,173.21,18.7Z" transform="translate(-4 -4)"/><path class="cls-5" d="M183.73,24.76l.7-12.46,3.29.19,2.33,4.71a36.18,36.18,0,0,1,1.79,4.39h.06a46.14,46.14,0,0,1,.05-5.21l.2-3.64,2.59.15L194,25.34l-3-.17-2.39-5a46.38,46.38,0,0,1-1.92-4.52l-.06,0c0,1.65-.08,3.41-.19,5.44l-.21,3.75Z" transform="translate(-4 -4)"/><path class="cls-5" d="M199.33,22.75,198,25.81l-2.9-.39,5.44-11.87,3.67.49,2.18,12.89-3-.4-.53-3.3Zm3.42-1.67-.42-2.73c-.12-.76-.22-1.71-.3-2.47h0c-.28.71-.59,1.62-.89,2.31L200,20.71Z" transform="translate(-4 -4)"/><path class="cls-5" d="M212.29,15.41l-1.47,7c-.44,2.1.13,3.34,1.55,3.64s2.46-.54,2.91-2.7l1.47-7,2.76.58-1.44,6.85c-.79,3.77-3.07,5.17-6.26,4.5s-4.54-2.73-3.72-6.63l1.43-6.82Z" transform="translate(-4 -4)"/><path class="cls-5" d="M224,20.58l-3.23-.92.65-2.28L230.61,20,230,22.29l-3.28-.93-2.77,9.73-2.73-.77Z" transform="translate(-4 -4)"/><path class="cls-5" d="M235,21.54l-4,11.83-2.68-.91,4-11.83Z" transform="translate(-4 -4)"/><path class="cls-5" d="M241.69,37.07a8.06,8.06,0,0,1-3.18-.68c-4-1.59-5.09-4.9-3.79-8.21,1.57-4,5.26-5.05,8.78-3.66a7.37,7.37,0,0,1,2.66,1.65L244.79,28a6.09,6.09,0,0,0-2-1.3,3.76,3.76,0,0,0-5.22,2.38,3.73,3.73,0,0,0,2.22,5.26,7.06,7.06,0,0,0,2.34.49Z" transform="translate(-4 -4)"/><path class="cls-5" d="M244.18,35.41a7.21,7.21,0,0,0,2.5,2c1.17.55,2,.36,2.37-.38s0-1.36-1.14-2.49c-1.57-1.54-2.3-3.16-1.52-4.8.91-1.93,3.22-2.64,5.88-1.38a7.66,7.66,0,0,1,2.61,1.93l-1.54,1.79a5.93,5.93,0,0,0-2.11-1.65c-1.11-.52-1.88-.27-2.16.31s.15,1.34,1.34,2.58c1.65,1.68,2.09,3.16,1.34,4.75-.89,1.89-3.11,2.81-6.21,1.35a8.17,8.17,0,0,1-2.87-2.2Z" transform="translate(-4 -4)"/><path class="cls-5" d="M258.82,42.55l-2.4,2.31-2.52-1.49,9.64-8.8,3.19,1.89-3,12.72-2.61-1.55.8-3.25Zm3.8-.21.68-2.68c.19-.75.47-1.66.68-2.39l0,0c-.54.54-1.18,1.26-1.72,1.78l-2,1.9Z" transform="translate(-4 -4)"/><path class="cls-5" d="M264.7,49.83l7.17-10.22,2.7,1.89-.5,5.24a36.16,36.16,0,0,1-.79,4.67l0,0a46.39,46.39,0,0,1,2.79-4.4l2.09-3,2.12,1.49-7.17,10.22-2.43-1.7.58-5.47a46.37,46.37,0,0,1,.76-4.85l-.06,0c-.89,1.39-1.87,2.85-3,4.52l-2.16,3.08Z" transform="translate(-4 -4)"/><path class="cls-5" d="M282.58,47.45a25.2,25.2,0,0,1,3.11,2.23A8,8,0,0,1,288.78,54a5.52,5.52,0,0,1-1.37,5,6.33,6.33,0,0,1-4.82,2.58,9,9,0,0,1-5.47-2.43,24.47,24.47,0,0,1-2.35-2.18Zm-4.3,9.66a5.19,5.19,0,0,0,.72.67c2,1.64,4.14,1.62,6-.68a3.58,3.58,0,0,0-.5-5.56,5.82,5.82,0,0,0-1.06-.73Z" transform="translate(-4 -4)"/><path class="cls-5" d="M291.21,67.18l-2.9,1.62-2.06-2.08,11.56-6.07,2.61,2.63-6.15,11.54-2.14-2.16,1.6-2.94Zm3.73.77,1.34-2.42c.37-.68.87-1.49,1.27-2.14l0,0c-.66.39-1.46.92-2.12,1.29L293,66Z" transform="translate(-4 -4)"/><path class="cls-5" d="M297.32,73.94a7.22,7.22,0,0,0,1.46,2.88c.85,1,1.7,1.15,2.32.62s.54-1.25,0-2.73c-.81-2-.82-3.82.55-5,1.61-1.39,4-1.11,5.93,1.12a7.64,7.64,0,0,1,1.6,2.82l-2.14,1a5.92,5.92,0,0,0-1.26-2.36c-.8-.93-1.61-1-2.1-.59s-.41,1.28.18,2.9c.82,2.2.63,3.74-.7,4.89-1.58,1.37-4,1.31-6.22-1.29A8.17,8.17,0,0,1,295.18,75Z" transform="translate(-4 -4)"/><path class="cls-5" d="M310.82,78.9l-2-2.67,1.89-1.44,5.81,7.64-1.89,1.44-2.06-2.72-8.06,6.12L302.76,85Z" transform="translate(-4 -4)"/><path class="cls-5" d="M317.42,84.08a24.73,24.73,0,0,1,2.29,3A6.37,6.37,0,0,1,321.12,91a3.17,3.17,0,0,1-1.54,2.4,3.31,3.31,0,0,1-3.78-.14l0,0a3.14,3.14,0,0,1-1,2.68c-1,1.1-2.1,2.33-2.37,2.79l-1.6-2.41A15.69,15.69,0,0,1,312.71,94c1.11-1.14,1.17-1.82.55-2.79l-.47-.71-4.09,2.71-1.54-2.33Zm-2.93,5.3.61.93c.78,1.17,1.82,1.48,2.73.88s1-1.6.31-2.69a7.08,7.08,0,0,0-.78-1Z" transform="translate(-4 -4)"/><path class="cls-5" d="M324,106.47c-3.57,2-7,1-8.74-2.14s-.43-6.49,2.68-8.23c3.27-1.83,6.88-1.11,8.68,2.11S327,104.79,324,106.47Zm-4.55-7.8c-2.14,1.19-3.08,3-2.16,4.69s3.05,1.73,5.17.55c2-1.09,3.12-3,2.17-4.67S321.6,97.49,319.49,98.68Z" transform="translate(-4 -4)"/><path class="cls-5" d="M319.06,110.81l11.35-5.19,1.37,3-3.08,4.26a36.18,36.18,0,0,1-3,3.63l0,.05a46.37,46.37,0,0,1,4.63-2.38l3.32-1.52,1.08,2.36-11.35,5.19-1.23-2.7,3.27-4.43a46.46,46.46,0,0,1,3.11-3.81l0,0c-1.47.75-3.05,1.52-4.91,2.37l-3.42,1.56Z" transform="translate(-4 -4)"/><path class="cls-5" d="M328.1,123.65l-3.32.27-1-2.75,13-.72,1.28,3.48-10.39,7.93-1-2.85,2.68-2Zm3.07,2.25,2.22-1.64c.62-.46,1.41-1,2-1.42v0c-.76.08-1.71.23-2.46.29l-2.74.22Z" transform="translate(-4 -4)"/><path class="cls-5" d="M340.65,131.72l-6.92,2c-2.07.59-2.9,1.67-2.5,3.06s1.63,1.93,3.75,1.32l6.92-2,.77,2.71-6.74,1.92c-3.71,1.06-6-.31-6.9-3.45s.3-5.29,4.14-6.38l6.7-1.91Z" transform="translate(-4 -4)"/><path class="cls-5" d="M341.49,144.46l-.69-3.28,2.32-.49,2,9.39-2.32.49-.7-3.34-9.9,2.07-.58-2.77Z" transform="translate(-4 -4)"/><path class="cls-5" d="M345.79,154.67l-12.33,2-.45-2.8,12.33-2Z" transform="translate(-4 -4)"/><path class="cls-5" d="M335.15,167.81a8,8,0,0,1-.88-3.13c-.47-4.29,2-6.79,5.5-7.18,4.24-.46,6.92,2.31,7.33,6.06a7.39,7.39,0,0,1-.22,3.12l-2.29-.33a6.1,6.1,0,0,0,.21-2.41,4.11,4.11,0,0,0-8.16.9,7,7,0,0,0,.66,2.29Z" transform="translate(-4 -4)"/><path class="cls-5" d="M337.79,169.28a7.22,7.22,0,0,0-.64,3.16c.06,1.3.62,2,1.44,1.92s1.2-.65,1.67-2.17c.63-2.1,1.72-3.51,3.53-3.58,2.13-.09,3.83,1.61,4,4.56a7.65,7.65,0,0,1-.49,3.21l-2.3-.53a5.93,5.93,0,0,0,.48-2.64c-.05-1.22-.63-1.79-1.28-1.76s-1.12.75-1.66,2.39c-.72,2.24-1.82,3.32-3.58,3.4-2.09.09-3.94-1.44-4.09-4.87a8.16,8.16,0,0,1,.6-3.57Z" transform="translate(-4 -4)"/><path class="cls-6" d="M150,56.85" transform="translate(-4 -4)"/><path class="cls-6" d="M165.67,56.85" transform="translate(-4 -4)"/><path class="cls-6" d="M150,56.57" transform="translate(-4 -4)"/></svg>