<svg id="Layer_1" data-name="Layer 1" xmlns="http://www.w3.org/2000/svg" xmlns:xlink="http://www.w3.org/1999/xlink" viewBox="0 0 288 276.05"><defs><style>.cls-1{fill:none;}.cls-2{clip-path:url(#clip-path);}.cls-3{fill:#ac2b37;}.cls-4{clip-path:url(#clip-path-3);}.cls-5{clip-path:url(#clip-path-4);}.cls-6{fill:#a9b0b7;}.cls-7{fill:#fff;}</style><clipPath id="clip-path"><rect class="cls-1" y="169.12" width="288" height="106.94"/></clipPath><clipPath id="clip-path-3"><rect class="cls-1" x="72.43" y="0.07" width="144.13" height="143.87"/></clipPath><clipPath id="clip-path-4"><rect class="cls-1" x="71.41" y="-0.65" width="145.72" height="145.72"/></clipPath></defs><title>AIAA_Logo_RGB_V_Color</title><g id="aiaa_logo_r"><g class="cls-2"><polygon class="cls-3" points="267.45 212.09 266.14 210.4 254.21 210.4 254.46 212.09 267.45 212.09"/><polygon class="cls-3" points="271 216.76 269.66 215 254.9 215 255.19 216.76 271 216.76"/><polygon class="cls-3" points="274.5 221.41 273.18 219.65 255.59 219.65 255.84 221.41 274.5 221.41"/><polygon class="cls-3" points="278.03 226.04 276.88 224.31 256.3 224.31 256.53 226.04 278.03 226.04"/><polygon class="cls-3" points="281.52 230.64 280.34 228.97 256.86 228.97 257.16 230.64 281.52 230.64"/><g class="cls-2"><path class="cls-3" d="M250.65,230.71l1.15,7.1c.94,4.72,3.59,6.1,3.73,6.15v.48H225.83V244a2.58,2.58,0,0,0,2.49-3.2L227,230.71Z"/><path class="cls-3" d="M193.54,210.33l20-34.58c1-1.66,2.73-4.49-1.6-6.22v-.41h28.7l6.69,41.21h-23l-2.4-18.25-9.83,18.25Z"/><polygon class="cls-3" points="248.16 214.96 247.64 212.14 192.53 212.14 190.89 214.96 248.16 214.96"/><polygon class="cls-3" points="248.83 219.6 248.43 216.78 189.84 216.78 188.15 219.6 248.83 219.6"/><polygon class="cls-3" points="249.63 224.24 249.22 221.42 187.25 221.42 185.47 224.24 249.63 224.24"/><polygon class="cls-3" points="250.36 228.88 249.96 226.06 184.47 226.06 182.82 228.88 250.36 228.88"/><path class="cls-3" d="M86,210.33l7.33-34.58c.21-1,1.5-5-1.6-6.22v-.41h30v.47c-1.89.71-4.08,4.14-4.56,6.86l-6.76,33.87Z"/><polygon class="cls-3" points="109.53 214.96 110.13 212.14 85.64 212.14 85.03 214.96 109.53 214.96"/><polygon class="cls-3" points="108.6 219.6 109.2 216.78 84.67 216.78 84.06 219.6 108.6 219.6"/><polygon class="cls-3" points="107.69 224.24 108.27 221.42 83.69 221.42 83.06 224.24 107.69 224.24"/><polygon class="cls-3" points="106.7 228.88 107.35 226.06 82.72 226.06 82.03 228.88 106.7 228.88"/><path class="cls-3" d="M197.37,237.82l3.84-7.09h-19.4l-.57,1-.16-1H157.41l1.33,10.06a2.58,2.58,0,0,1-2.49,3.2v.48h42.6V244c-2.6-.94-3.49-2.37-1.48-6.15"/><path class="cls-3" d="M123.19,210.33,144,175.75c1-1.66,2.73-4.49-1.59-6.22v-.41h28.69l6.68,41.21h-23l-2.4-18.25-9.83,18.25Z"/><polygon class="cls-3" points="178.58 214.96 178.06 212.14 122.06 212.14 120.44 214.96 178.58 214.96"/><polygon class="cls-3" points="179.26 219.6 178.86 216.78 119.17 216.78 117.47 219.6 179.26 219.6"/><polygon class="cls-3" points="180.05 224.24 179.64 221.42 116.46 221.42 114.68 224.24 180.05 224.24"/><polygon class="cls-3" points="180.78 228.88 180.38 226.06 113.69 226.06 112.03 228.88 180.78 228.88"/><path class="cls-3" d="M127.8,237.82l3.83-7.09H110.91l-6.75,11.08,2.25-11.13-24.69.06L81,234.33l-.59-3.61H56.7L58,240.77a2.58,2.58,0,0,1-2.49,3.2v.48h18l29,0h26.35l.46-.53c-2.6-.94-3.49-2.37-1.48-6.15"/><path class="cls-3" d="M30.92,230.73l-3.83,7.09c-2,3.79-1.13,5.21,1.47,6.15v.48H1.1V244c2.13,0,4.68-3.37,6.92-7.28l3.49-6Z"/><path class="cls-3" d="M23.25,210.33l20-34.58c1-1.66,2.73-4.49-1.6-6.22v-.41H70.39l6.68,41.21H54l-2.4-18.25-9.83,18.25Z"/><polygon class="cls-3" points="77.86 214.96 77.34 212.14 22.23 212.14 20.6 214.96 77.86 214.96"/><polygon class="cls-3" points="78.54 219.6 78.14 216.78 19.55 216.78 17.86 219.6 78.54 219.6"/><polygon class="cls-3" points="79.33 224.24 78.92 221.42 16.96 221.42 15.18 224.24 79.33 224.24"/><polygon class="cls-3" points="80.06 228.88 79.67 226.06 14.18 226.06 12.53 228.88 80.06 228.88"/><path class="cls-3" d="M2.74,262.4,0,250.84H2.79l.87,4.77c.26,1.37.5,2.86.68,4h0c.19-1.25.46-2.64.75-4.06l1-4.73H8.87l.92,4.87c.26,1.35.44,2.59.62,3.88h0c.17-1.29.43-2.64.67-4l.94-4.73h2.65l-3,11.56H8.91l-1-5c-.22-1.17-.41-2.25-.55-3.57h0c-.21,1.3-.39,2.4-.67,3.57l-1.09,5Z"/><path class="cls-3" d="M26.47,256.5c0,3.79-2.29,6.09-5.66,6.09s-5.42-2.59-5.42-5.88c0-3.46,2.21-6.05,5.61-6.05s5.47,2.66,5.47,5.85m-8.33.15c0,2.26,1.06,3.86,2.8,3.86s2.77-1.68,2.77-3.93c0-2.08-1-3.86-2.79-3.86s-2.79,1.68-2.79,3.93"/><path class="cls-3" d="M28.17,251a22.82,22.82,0,0,1,3.47-.24,5.87,5.87,0,0,1,3.73.91,2.94,2.94,0,0,1,1.06,2.42,3.07,3.07,0,0,1-2,2.85V257a2.92,2.92,0,0,1,1.54,2.16c.36,1.3.72,2.81.94,3.26H34.21a14.56,14.56,0,0,1-.8-2.69c-.31-1.44-.8-1.83-1.86-1.85h-.79v4.54H28.17Zm2.58,5h1c1.3,0,2.07-.65,2.07-1.66s-.72-1.6-1.91-1.61a6.54,6.54,0,0,0-1.18.09Z"/><path class="cls-3" d="M46.71,262.07a7.42,7.42,0,0,1-3,.5c-4,0-6-2.49-6-5.78,0-3.94,2.8-6.14,6.29-6.14a6.78,6.78,0,0,1,2.84.51l-.53,2.07a5.63,5.63,0,0,0-2.19-.43,3.8,3.8,0,0,0,0,7.6,6.51,6.51,0,0,0,2.17-.38Z"/><polygon class="cls-3" points="55.27 257.51 51.03 257.51 51.03 260.25 55.77 260.25 55.77 262.4 48.41 262.4 48.41 250.84 55.53 250.84 55.53 252.98 51.03 252.98 51.03 255.38 55.27 255.38 55.27 257.51"/><path class="cls-3" d="M57.63,259.7a6.63,6.63,0,0,0,2.89.72c1.2,0,1.83-.5,1.83-1.25s-.55-1.13-1.93-1.63c-1.91-.67-3.16-1.73-3.16-3.41,0-2,1.64-3.48,4.36-3.48a7,7,0,0,1,2.94.58L64,253.34a5.46,5.46,0,0,0-2.41-.55c-1.13,0-1.68.51-1.68,1.11s.65,1.06,2.14,1.63c2,.75,3,1.82,3,3.45,0,1.94-1.49,3.58-4.65,3.58a7.52,7.52,0,0,1-3.27-.7Z"/><polygon class="cls-3" points="69 253.03 65.9 253.03 65.9 250.84 74.76 250.84 74.76 253.03 71.61 253.03 71.61 262.4 69 262.4 69 253.03"/><polygon class="cls-3" points="83 257.51 78.76 257.51 78.76 260.25 83.49 260.25 83.49 262.4 76.14 262.4 76.14 250.84 83.25 250.84 83.25 252.98 78.76 252.98 78.76 255.38 83 255.38 83 257.51"/><path class="cls-3" d="M85.27,251a22.82,22.82,0,0,1,3.47-.24,5.87,5.87,0,0,1,3.73.91,2.94,2.94,0,0,1,1.06,2.42,3.07,3.07,0,0,1-2,2.85V257A2.92,2.92,0,0,1,93,259.14c.36,1.3.72,2.81.94,3.26H91.31a14.56,14.56,0,0,1-.8-2.69c-.31-1.44-.8-1.83-1.86-1.85h-.79v4.54H85.27Zm2.58,5h1c1.3,0,2.07-.65,2.07-1.66s-.72-1.6-1.91-1.61a6.54,6.54,0,0,0-1.18.09Z"/><path class="cls-3" d="M98.86,251a21.25,21.25,0,0,1,3.52-.24,5.51,5.51,0,0,1,3.52.93,3.38,3.38,0,0,1,1.23,2.67,3.7,3.7,0,0,1-1.06,2.74,5.33,5.33,0,0,1-3.74,1.22,6.55,6.55,0,0,1-.89-.05v4.13H98.86Zm2.58,5.25a4,4,0,0,0,.87.07c1.39,0,2.24-.7,2.24-1.89s-.74-1.7-2-1.7a4.41,4.41,0,0,0-1.08.1Z"/><path class="cls-3" d="M119.34,256.5c0,3.79-2.29,6.09-5.66,6.09s-5.42-2.59-5.42-5.88c0-3.46,2.21-6.05,5.61-6.05s5.47,2.66,5.47,5.85m-8.33.15c0,2.26,1.06,3.86,2.8,3.86s2.77-1.68,2.77-3.93c0-2.08-1-3.86-2.79-3.86S111,254.4,111,256.65"/><polygon class="cls-3" points="121.05 250.84 123.67 250.84 123.67 260.2 128.25 260.2 128.25 262.4 121.05 262.4 121.05 250.84"/><path class="cls-3" d="M130.91,262.4v-4.73l-3.64-6.83h3l1.18,2.78c.36.84.6,1.46.89,2.21h0c.26-.72.53-1.39.87-2.21l1.16-2.78h2.92l-3.8,6.74v4.82Z"/><polygon class="cls-3" points="140.78 253.03 137.68 253.03 137.68 250.84 146.54 250.84 146.54 253.03 143.39 253.03 143.39 262.4 140.78 262.4 140.78 253.03"/><polygon class="cls-3" points="154.78 257.51 150.54 257.51 150.54 260.25 155.28 260.25 155.28 262.4 147.92 262.4 147.92 250.84 155.03 250.84 155.03 252.98 150.54 252.98 150.54 255.38 154.78 255.38 154.78 257.51"/><path class="cls-3" d="M165.52,262.07a7.42,7.42,0,0,1-3,.5c-4,0-6-2.49-6-5.78,0-3.94,2.8-6.14,6.29-6.14a6.78,6.78,0,0,1,2.84.51l-.53,2.07a5.63,5.63,0,0,0-2.19-.43,3.8,3.8,0,0,0,0,7.6,6.51,6.51,0,0,0,2.17-.38Z"/><polygon class="cls-3" points="169.84 250.84 169.84 255.28 174.13 255.28 174.13 250.84 176.73 250.84 176.73 262.4 174.13 262.4 174.13 257.56 169.84 257.56 169.84 262.4 167.22 262.4 167.22 250.84 169.84 250.84"/><path class="cls-3" d="M179,262.4V250.84h3l2.39,4.24a33.45,33.45,0,0,1,1.88,4h.05a43.07,43.07,0,0,1-.22-4.82v-3.38h2.39V262.4h-2.74l-2.46-4.46a42.91,42.91,0,0,1-2-4.08l-.05,0c.07,1.53.1,3.16.1,5v3.48Z"/><rect class="cls-3" x="190.8" y="250.84" width="2.62" height="11.56"/><path class="cls-3" d="M204.13,262.07a7.42,7.42,0,0,1-3,.5c-4,0-6-2.49-6-5.78,0-3.94,2.8-6.14,6.29-6.14a6.78,6.78,0,0,1,2.84.51l-.53,2.07a5.63,5.63,0,0,0-2.19-.43,3.8,3.8,0,0,0,0,7.6,6.51,6.51,0,0,0,2.17-.38Z"/><rect class="cls-3" x="209.29" y="250.84" width="2.62" height="11.56"/><path class="cls-3" d="M214.17,262.4V250.84h3l2.39,4.24a33.45,33.45,0,0,1,1.88,4h.05a43.07,43.07,0,0,1-.22-4.82v-3.38h2.39V262.4H221l-2.46-4.46a42.91,42.91,0,0,1-2-4.08l-.05,0c.07,1.53.1,3.16.1,5v3.48Z"/><path class="cls-3" d="M226,259.7a6.63,6.63,0,0,0,2.89.72c1.2,0,1.83-.5,1.83-1.25s-.55-1.13-1.93-1.63c-1.91-.67-3.16-1.73-3.16-3.41,0-2,1.64-3.48,4.36-3.48a7,7,0,0,1,2.94.58l-.58,2.11a5.46,5.46,0,0,0-2.41-.55c-1.13,0-1.68.51-1.68,1.11s.65,1.06,2.14,1.63c2,.75,3,1.82,3,3.45,0,1.94-1.49,3.58-4.65,3.58a7.52,7.52,0,0,1-3.27-.7Z"/><polygon class="cls-3" points="237.41 253.03 234.32 253.03 234.32 250.84 243.18 250.84 243.18 253.03 240.03 253.03 240.03 262.4 237.41 262.4 237.41 253.03"/><rect class="cls-3" x="244.56" y="250.84" width="2.62" height="11.56"/><polygon class="cls-3" points="251.66 253.03 248.56 253.03 248.56 250.84 257.42 250.84 257.42 253.03 254.27 253.03 254.27 262.4 251.66 262.4 251.66 253.03"/><path class="cls-3" d="M261.4,250.84v6.65c0,2,.75,3,2.09,3s2.12-1,2.12-3v-6.65h2.6v6.48c0,3.57-1.8,5.26-4.8,5.26s-4.62-1.61-4.62-5.3v-6.45Z"/><polygon class="cls-3" points="272.68 253.03 269.59 253.03 269.59 250.84 278.44 250.84 278.44 253.03 275.3 253.03 275.3 262.4 272.68 262.4 272.68 253.03"/><polygon class="cls-3" points="286.68 257.51 282.44 257.51 282.44 260.25 287.18 260.25 287.18 262.4 279.83 262.4 279.83 250.84 286.94 250.84 286.94 252.98 282.44 252.98 282.44 255.38 286.68 255.38 286.68 257.51"/><path class="cls-3" d="M1.84,273.59,1,275.93H0l2.59-7.44H3.8l2.6,7.44H5.35l-.82-2.34Zm2.5-.75-.75-2.14c-.17-.49-.28-.93-.4-1.36h0c-.11.44-.24.89-.39,1.35L2,272.84Z"/><path class="cls-3" d="M13.9,272.67c-.06-1-.12-2.28-.11-3.21h0c-.26.87-.58,1.8-1,2.82l-1.35,3.61H10.7l-1.23-3.54c-.36-1-.67-2-.88-2.89h0c0,.93-.08,2.17-.15,3.29l-.2,3.19H7.28l.53-7.44H9.06l1.3,3.6c.32.92.58,1.73.77,2.5h0c.19-.75.46-1.57.8-2.5l1.36-3.6h1.26l.48,7.44h-1Z"/><polygon class="cls-3" points="20.52 272.45 17.56 272.45 17.56 275.13 20.86 275.13 20.86 275.93 16.57 275.93 16.57 268.5 20.69 268.5 20.69 269.3 17.56 269.3 17.56 271.65 20.52 271.65 20.52 272.45"/><path class="cls-3" d="M22.14,268.6a10.46,10.46,0,0,1,1.89-.16,3.17,3.17,0,0,1,2.21.61,1.83,1.83,0,0,1,.6,1.41,2,2,0,0,1-1.44,1.9v0a1.86,1.86,0,0,1,1.12,1.5,11.59,11.59,0,0,0,.59,2h-1a9.44,9.44,0,0,1-.51-1.78c-.23-1-.63-1.41-1.53-1.44h-.93v3.22h-1Zm1,3.39h1c1.05,0,1.72-.56,1.72-1.41s-.71-1.38-1.75-1.39a4.12,4.12,0,0,0-1,.09Z"/><rect class="cls-3" x="28.22" y="268.5" width="0.98" height="7.44"/><path class="cls-3" d="M36.25,275.69a5,5,0,0,1-2,.35,3.52,3.52,0,0,1-3.77-3.76,3.75,3.75,0,0,1,4-3.91,4.18,4.18,0,0,1,1.81.33l-.24.78a3.66,3.66,0,0,0-1.54-.31,2.8,2.8,0,0,0-3,3.07,2.73,2.73,0,0,0,2.93,3,4,4,0,0,0,1.61-.31Z"/><path class="cls-3" d="M38.77,273.59,38,275.93H37l2.59-7.44h1.19l2.6,7.44H42.28l-.81-2.34Zm2.5-.75-.75-2.14c-.17-.49-.28-.93-.4-1.36h0c-.11.44-.24.89-.39,1.35L39,272.84Z"/><path class="cls-3" d="M44.46,275.93V268.5h1.07L48,272.26a21,21,0,0,1,1.37,2.42h0c-.09-1-.11-1.9-.11-3.06V268.5h.93v7.44h-1l-2.42-3.77a23.45,23.45,0,0,1-1.42-2.48h0c.06.94.08,1.83.08,3.07v3.18Z"/><rect class="cls-3" x="54.3" y="268.5" width="0.98" height="7.44"/><path class="cls-3" d="M57,275.93V268.5h1.07l2.44,3.76a21,21,0,0,1,1.37,2.42h0c-.09-1-.11-1.9-.11-3.06V268.5h.93v7.44h-1l-2.42-3.77a23.45,23.45,0,0,1-1.42-2.48h0c.06.94.08,1.83.08,3.07v3.18Z"/><path class="cls-3" d="M64.31,274.76a3.55,3.55,0,0,0,1.76.49c1,0,1.59-.52,1.59-1.27s-.41-1.09-1.44-1.48c-1.24-.43-2-1.06-2-2.11s1-2,2.47-2a3.53,3.53,0,0,1,1.69.36l-.27.78a3.09,3.09,0,0,0-1.45-.35c-1,0-1.44.61-1.44,1.11,0,.7.46,1,1.52,1.43,1.29.49,1.95,1.09,1.95,2.18S67.8,276,66,276a4,4,0,0,1-1.95-.48Z"/><polygon class="cls-3" points="71.47 269.31 69.15 269.31 69.15 268.5 74.79 268.5 74.79 269.31 72.46 269.31 72.46 275.93 71.47 275.93 71.47 269.31"/><rect class="cls-3" x="75.64" y="268.5" width="0.98" height="7.44"/><polygon class="cls-3" points="79.79 269.31 77.47 269.31 77.47 268.5 83.12 268.5 83.12 269.31 80.79 269.31 80.79 275.93 79.79 275.93 79.79 269.31"/><path class="cls-3" d="M84.95,268.5v4.4c0,1.67.76,2.37,1.78,2.37s1.85-.73,1.85-2.37v-4.4h1v4.34c0,2.28-1.23,3.22-2.88,3.22S84,275.18,84,272.88V268.5Z"/><polygon class="cls-3" points="92.73 269.31 90.41 269.31 90.41 268.5 96.06 268.5 96.06 269.31 93.73 269.31 93.73 275.93 92.73 275.93 92.73 269.31"/><polygon class="cls-3" points="100.85 272.45 97.89 272.45 97.89 275.13 101.19 275.13 101.19 275.93 96.9 275.93 96.9 268.5 101.02 268.5 101.02 269.3 97.89 269.3 97.89 271.65 100.85 271.65 100.85 272.45"/><path class="cls-3" d="M111.38,272.14c0,2.56-1.59,3.92-3.54,3.92s-3.43-1.52-3.43-3.77,1.5-3.91,3.54-3.91,3.43,1.56,3.43,3.76m-5.92.12c0,1.59.88,3,2.43,3s2.44-1.4,2.44-3.09c0-1.48-.79-3-2.43-3s-2.44,1.47-2.44,3.1"/><polygon class="cls-3" points="112.66 268.5 116.77 268.5 116.77 269.3 113.64 269.3 113.64 271.77 116.53 271.77 116.53 272.57 113.64 272.57 113.64 275.93 112.66 275.93 112.66 268.5"/><path class="cls-3" d="M121.8,273.59l-.79,2.34h-1l2.59-7.44h1.19l2.6,7.44h-1.05l-.81-2.34Zm2.5-.75-.75-2.14c-.17-.49-.28-.93-.4-1.36h0c-.11.44-.24.89-.39,1.35l-.75,2.15Z"/><polygon class="cls-3" points="131.44 272.45 128.47 272.45 128.47 275.13 131.78 275.13 131.78 275.93 127.49 275.93 127.49 268.5 131.6 268.5 131.6 269.3 128.47 269.3 128.47 271.65 131.44 271.65 131.44 272.45"/><path class="cls-3" d="M133.05,268.6a10.46,10.46,0,0,1,1.89-.16,3.17,3.17,0,0,1,2.21.61,1.83,1.83,0,0,1,.6,1.41,2,2,0,0,1-1.44,1.9v0a1.86,1.86,0,0,1,1.12,1.5,11.59,11.59,0,0,0,.59,2h-1a9.45,9.45,0,0,1-.51-1.78c-.23-1-.63-1.41-1.53-1.44H134v3.22h-1Zm1,3.39h1c1.05,0,1.72-.56,1.72-1.41s-.71-1.38-1.75-1.39a4.12,4.12,0,0,0-1,.09Z"/><path class="cls-3" d="M145.69,272.14c0,2.56-1.59,3.92-3.54,3.92s-3.43-1.52-3.43-3.77,1.5-3.91,3.54-3.91,3.43,1.56,3.43,3.76m-5.92.12c0,1.59.88,3,2.43,3s2.44-1.4,2.44-3.09c0-1.48-.79-3-2.43-3s-2.44,1.47-2.44,3.1"/><path class="cls-3" d="M147,275.93V268.5H148l2.44,3.76a20.88,20.88,0,0,1,1.37,2.42h0c-.09-1-.11-1.9-.11-3.06V268.5h.93v7.44h-1l-2.42-3.77a23.45,23.45,0,0,1-1.42-2.48h0c.06.94.08,1.83.08,3.07v3.18Z"/><path class="cls-3" d="M155.64,273.59l-.79,2.34h-1l2.59-7.44h1.19l2.6,7.44h-1.05l-.81-2.34Zm2.5-.75-.75-2.14c-.17-.49-.28-.93-.4-1.36h0c-.11.44-.24.89-.38,1.35l-.75,2.15Z"/><path class="cls-3" d="M162,268.5v4.4c0,1.67.76,2.37,1.78,2.37s1.85-.73,1.85-2.37v-4.4h1v4.34c0,2.28-1.23,3.22-2.88,3.22s-2.74-.87-2.74-3.18V268.5Z"/><polygon class="cls-3" points="169.78 269.31 167.46 269.31 167.46 268.5 173.11 268.5 173.11 269.31 170.78 269.31 170.78 275.93 169.78 275.93 169.78 269.31"/><rect class="cls-3" x="173.95" y="268.5" width="0.98" height="7.44"/><path class="cls-3" d="M182,275.69a5,5,0,0,1-2,.35,3.52,3.52,0,0,1-3.77-3.76,3.75,3.75,0,0,1,4-3.91,4.18,4.18,0,0,1,1.81.33l-.24.78a3.65,3.65,0,0,0-1.54-.31,2.8,2.8,0,0,0-3,3.07,2.73,2.73,0,0,0,2.93,3,4,4,0,0,0,1.61-.31Z"/><path class="cls-3" d="M183.08,274.76a3.56,3.56,0,0,0,1.76.49c1,0,1.59-.52,1.59-1.27s-.41-1.09-1.44-1.48c-1.24-.43-2-1.06-2-2.11s1-2,2.47-2a3.53,3.53,0,0,1,1.69.36l-.27.78a3.09,3.09,0,0,0-1.45-.35c-1,0-1.44.61-1.44,1.11,0,.7.46,1,1.52,1.43,1.29.49,1.95,1.09,1.95,2.18s-.87,2.14-2.67,2.14a4,4,0,0,1-1.95-.48Z"/><path class="cls-3" d="M192.42,273.59l-.79,2.34h-1l2.59-7.44h1.19l2.6,7.44h-1.05l-.81-2.34Zm2.5-.75-.75-2.14c-.17-.49-.28-.93-.4-1.36h0c-.11.44-.24.89-.38,1.35l-.75,2.15Z"/><path class="cls-3" d="M198.11,275.93V268.5h1.07l2.44,3.76a21,21,0,0,1,1.37,2.42h0c-.09-1-.11-1.9-.11-3.06V268.5h.93v7.44h-1l-2.42-3.77a23.57,23.57,0,0,1-1.42-2.48h0c.06.94.08,1.83.08,3.07v3.18Z"/><path class="cls-3" d="M205.56,268.6a14.38,14.38,0,0,1,2.09-.15,4.44,4.44,0,0,1,3.09.93,3.39,3.39,0,0,1,1.07,2.67,3.88,3.88,0,0,1-1.1,2.89,4.77,4.77,0,0,1-3.37,1.07,16.32,16.32,0,0,1-1.79-.09Zm1,6.58a6.39,6.39,0,0,0,1,.06,2.9,2.9,0,0,0,3.25-3.16c0-1.75-1-2.87-3.09-2.87a5.69,5.69,0,0,0-1.15.1Z"/><path class="cls-3" d="M216.72,273.59l-.79,2.34h-1l2.59-7.44h1.19l2.6,7.44h-1.05l-.81-2.34Zm2.5-.75-.75-2.14c-.17-.49-.28-.93-.4-1.36h0c-.11.44-.24.89-.38,1.35l-.75,2.15Z"/><path class="cls-3" d="M222.27,274.76a3.55,3.55,0,0,0,1.76.49c1,0,1.59-.52,1.59-1.27s-.41-1.09-1.44-1.48c-1.24-.43-2-1.06-2-2.11s1-2,2.47-2a3.53,3.53,0,0,1,1.69.36l-.27.78a3.09,3.09,0,0,0-1.45-.35c-1,0-1.44.61-1.44,1.11,0,.7.46,1,1.52,1.43,1.29.49,1.95,1.09,1.95,2.18S225.77,276,224,276a4,4,0,0,1-1.95-.48Z"/><polygon class="cls-3" points="229.43 269.31 227.11 269.31 227.11 268.5 232.76 268.5 232.76 269.31 230.43 269.31 230.43 275.93 229.43 275.93 229.43 269.31"/><path class="cls-3" d="M233.61,268.6a10.46,10.46,0,0,1,1.89-.16,3.17,3.17,0,0,1,2.21.61,1.83,1.83,0,0,1,.6,1.41,2,2,0,0,1-1.44,1.9v0a1.86,1.86,0,0,1,1.12,1.5,11.63,11.63,0,0,0,.59,2h-1a9.48,9.48,0,0,1-.51-1.78c-.23-1-.63-1.41-1.53-1.44h-.93v3.22h-1Zm1,3.39h1c1.05,0,1.72-.56,1.72-1.41s-.71-1.38-1.75-1.39a4.12,4.12,0,0,0-1,.09Z"/><path class="cls-3" d="M246.24,272.14c0,2.56-1.6,3.92-3.54,3.92s-3.43-1.52-3.43-3.77,1.5-3.91,3.54-3.91,3.43,1.56,3.43,3.76m-5.92.12c0,1.59.88,3,2.43,3s2.44-1.4,2.44-3.09c0-1.48-.79-3-2.43-3s-2.44,1.47-2.44,3.1"/><path class="cls-3" d="M247.52,275.93V268.5h1.07l2.44,3.76a21,21,0,0,1,1.37,2.42h0c-.09-1-.11-1.9-.11-3.06V268.5h.93v7.44h-1l-2.42-3.77a23.57,23.57,0,0,1-1.42-2.48h0c.06.94.08,1.83.08,3.07v3.18Z"/><path class="cls-3" d="M256.19,273.59l-.79,2.34h-1L257,268.5h1.19l2.6,7.44h-1.05l-.81-2.34Zm2.5-.75-.75-2.14c-.17-.49-.28-.93-.4-1.36h0c-.11.44-.24.89-.38,1.35l-.75,2.15Z"/><path class="cls-3" d="M262.55,268.5v4.4c0,1.67.76,2.37,1.78,2.37s1.85-.73,1.85-2.37v-4.4h1v4.34c0,2.28-1.23,3.22-2.88,3.22s-2.74-.87-2.74-3.18V268.5Z"/><polygon class="cls-3" points="270.33 269.31 268.01 269.31 268.01 268.5 273.66 268.5 273.66 269.31 271.33 269.31 271.33 275.93 270.33 275.93 270.33 269.31"/><rect class="cls-3" x="274.51" y="268.5" width="0.98" height="7.44"/><path class="cls-3" d="M282.54,275.69a5,5,0,0,1-2,.35,3.52,3.52,0,0,1-3.77-3.76,3.75,3.75,0,0,1,4-3.91,4.18,4.18,0,0,1,1.81.33l-.24.78a3.65,3.65,0,0,0-1.54-.31,2.8,2.8,0,0,0-3,3.07,2.73,2.73,0,0,0,2.93,3,4,4,0,0,0,1.61-.31Z"/><path class="cls-3" d="M283.63,274.76a3.56,3.56,0,0,0,1.76.49c1,0,1.59-.52,1.59-1.27s-.41-1.09-1.44-1.48c-1.24-.43-2-1.06-2-2.11s1-2,2.47-2a3.53,3.53,0,0,1,1.69.36l-.27.78a3.09,3.09,0,0,0-1.45-.35c-1,0-1.44.61-1.44,1.11,0,.7.46,1,1.52,1.43,1.29.49,1.95,1.09,1.95,2.18s-.87,2.14-2.67,2.14a4,4,0,0,1-1.95-.48Z"/></g></g></g><g id="aiaa_seal_r"><g class="cls-4"><g class="cls-5"><path d="M205.33,72.21a61.06,61.06,0,1,1-61.06-61.06,61.06,61.06,0,0,1,61.06,61.06"/><path class="cls-6" d="M80,99c3.1-6.1,5-5.91,10.59-9.44,22.42-14.19,47-22.84,72.83-28.37a56,56,0,0,1,6.82-1,252.65,252.65,0,0,0-43.11,15c-9.68,4.43-19.13,9.31-27.32,16.23a33.36,33.36,0,0,0-6.28,6.93c-2.88,4.35-1.05,8.84,4,10.46,1.81.58,3.72.84,5.59,1.24q0,.44,0,.89c-6.22,0-10.12.34-16.33.08"/><path class="cls-6" d="M211.83,65.43c-4.24,8.41-11.84,13.21-20,18.68,2.29-2.78,4.26-4.75,5.72-7,3.5-5.5,1.34-9.69-5.18-10.36-7.27-.74-14.36.51-21.33,2.36-22,5.86-42.54,14.87-61,28.33a22,22,0,0,1-4.62,3c2.2-2,4.3-4.06,6.63-5.85,17-13.1,36.33-21.93,56.47-29,10.23-3.57,20.64-6.58,31.59-7a46.33,46.33,0,0,1,5.16.13c2.74.21,5.08,1.19,6.55,3.69Z"/><path class="cls-6" d="M105.53,105.22a111.19,111.19,0,0,1,34.8-17.62,117.84,117.84,0,0,1,44.47-4.69c2.09.18,2.67.91,2.76,2.93.77,18.25-9.63,35.09-25.9,41.72-17.06,7-35.87,2.85-48-10.82-3-3.42-5.31-7.52-8.09-11.53"/><path class="cls-6" d="M105.57,73.72c5.3-14,15.09-23.22,29.72-26.71,13.74-3.29,26.13-.09,37,9-24.41-2.1-46.6,3.7-66.75,17.76"/><path class="cls-6" d="M108,28.94a.59.59,0,1,1-.8-.24.59.59,0,0,1,.8.24"/><path class="cls-6" d="M115.77,34.89a.73.73,0,1,1-1-.3.73.73,0,0,1,1,.3"/><path class="cls-6" d="M132,42.76a.72.72,0,1,1-1-.3.73.73,0,0,1,1,.3"/><path class="cls-6" d="M112.47,42.36a.59.59,0,1,1-.8-.24.59.59,0,0,1,.8.24"/><path class="cls-6" d="M119.65,42.32a.59.59,0,1,1-.8-.24.59.59,0,0,1,.8.24"/><path class="cls-6" d="M108,37.94a.72.72,0,1,1-1-.3.73.73,0,0,1,1,.3"/><path class="cls-6" d="M102.24,47.62a.59.59,0,1,1-.8-.24.59.59,0,0,1,.8.24"/><path class="cls-6" d="M104.31,47.85a.59.59,0,1,1-.8-.24.59.59,0,0,1,.8.24"/><path class="cls-6" d="M106.38,48.07a.59.59,0,1,1-.8-.24.59.59,0,0,1,.8.24"/><path class="cls-6" d="M105.13,51.31a.59.59,0,1,1-.8-.24.59.59,0,0,1,.8.24"/><path class="cls-6" d="M97.59,66.23a.59.59,0,1,1-.8-.24.59.59,0,0,1,.8.24"/><path class="cls-6" d="M101.28,67.75a.59.59,0,1,1-.8-.24.59.59,0,0,1,.8.24"/><path class="cls-6" d="M122.58,29.34a1,1,0,0,1,.33-1l-.55-1.46,1,1.24a1,1,0,0,1,1,.34l1.49-.54-1.27,1a1,1,0,0,1-.32,1l.52,1.53-1-1.29a1,1,0,0,1-1-.32l-1.45.5Z"/><path class="cls-6" d="M103.42,64.31a1,1,0,0,1,.33-1l-.55-1.46,1,1.24a1,1,0,0,1,1,.34l1.49-.54-1.27,1a1,1,0,0,1-.32,1l.52,1.53-1-1.29a1,1,0,0,1-1-.32l-1.45.5Z"/><path class="cls-6" d="M184.6,42.44a.73.73,0,1,1,.29-1,.73.73,0,0,1-.29,1"/><path class="cls-6" d="M176.78,58.7a.72.72,0,1,1,.29-1,.73.73,0,0,1-.29,1"/><path class="cls-6" d="M177.12,39.16a.59.59,0,1,1,.24-.8.59.59,0,0,1-.24.8"/><path class="cls-6" d="M177.17,46.34a.59.59,0,1,1,.24-.8.59.59,0,0,1-.24.8"/><path class="cls-6" d="M181.52,34.63a.72.72,0,1,1,.29-1,.73.73,0,0,1-.29,1"/><path class="cls-6" d="M171.82,28.95a.59.59,0,1,1,.24-.8.59.59,0,0,1-.24.8"/><path class="cls-6" d="M171.6,31a.59.59,0,1,1,.24-.8.59.59,0,0,1-.24.8"/><path class="cls-6" d="M171.38,33.09a.59.59,0,1,1,.24-.8.59.59,0,0,1-.24.8"/><path class="cls-6" d="M168.14,31.85a.59.59,0,1,1,.24-.8.59.59,0,0,1-.24.8"/><path class="cls-6" d="M153.2,24.36a.59.59,0,1,1,.24-.8.59.59,0,0,1-.24.8"/><path class="cls-6" d="M151.69,28.06a.59.59,0,1,1,.24-.8.59.59,0,0,1-.24.8"/><path class="cls-6" d="M190.16,49.23a1,1,0,0,1,1,.33l1.46-.55-1.23,1a1,1,0,0,1-.34,1l.55,1.49-1-1.26a1,1,0,0,1-1-.32l-1.53.52,1.29-1a1,1,0,0,1,.32-1L189.2,48Z"/><path class="cls-6" d="M155.13,30.19a1,1,0,0,1,1,.33l1.46-.55-1.23,1a1,1,0,0,1-.34,1l.55,1.49-1-1.26a1,1,0,0,1-1-.32l-1.53.52,1.29-1a1,1,0,0,1,.32-1l-.5-1.45Z"/><path d="M138.95,89.79s2.32,18.89-.22,31.48c-1.8-5.24-3.94-6.24-9.16-4.94-4.24-4.57-6.2-5.87-10.85-3.75-5-3.1-4.89-3.91-10.36-1.22-2-2.2-3.26-2.28-4.32-2.2s0,4.65,0,4.65,22.66,21.35,31.22,21.76,26.77-2.63,30.36-4.67,19.89-18.23,20.38-20-2.53-2.46-2.53-2.46-6.12-1.54-8,3.68c-8.15-4.16-11.35,1.06-11.35,4.4-1.9-1.23-3.9-1.44-5.54.69-6-4.5-9.75,4.09-9.75,4.09s-2.27-25.9.71-31.49"/><path class="cls-3" d="M144.27,2.58A69.64,69.64,0,1,0,213.9,72.21,69.64,69.64,0,0,0,144.27,2.58m0,130.7a61.06,61.06,0,1,1,61.06-61.06,61.06,61.06,0,0,1-61.06,61.06"/><path class="cls-6" d="M144.27,2.58A69.64,69.64,0,1,1,74.63,72.21,69.63,69.63,0,0,1,144.27,2.58m0,130.7A61.06,61.06,0,1,0,83.2,72.21a61.06,61.06,0,0,0,61.06,61.06M144.27,1A71.24,71.24,0,0,0,93.89,122.59,71.24,71.24,0,1,0,194.64,21.84,70.77,70.77,0,0,0,144.27,1m0,130.7a59.46,59.46,0,0,1-42-101.5,59.46,59.46,0,1,1,84.09,84.09,59.07,59.07,0,0,1-42,17.41"/><path d="M165.55,70.56s-.95-1.42-5.67-8c-10.4-16.07-11.35-27.89-11.35-34s-4.72-10.87-4.73-10.87l.11-.17,0,0-.09.09-.14.16A21.36,21.36,0,0,0,141,21.46a15,15,0,0,0-2,7c0,6.15-.95,18-11.35,34-4.73,6.62-5.67,8-5.67,8l-.47,5.67,15.13,4.26v4.73h1.42v1.89h11.35V85.22h1.42V80.49L166,76.24Z"/><path class="cls-6" d="M165.82,70.47l0-.06s-1-1.5-5.67-8c-7.61-11.75-11.3-22.84-11.3-33.89,0-5.19-3.24-9.31-4.4-10.62l-.17-.18-.46-.51h0l-.3.33a21.54,21.54,0,0,0-2.66,3.84,15,15,0,0,0-2,7.15c0,11.05-3.7,22.14-11.3,33.88-4.68,6.55-5.67,8-5.68,8l0,.06-.5,6,15.15,4.26v4.79h1.42v1.89h11.88V85.49h1.42V80.69l14.93-4.2.21-.06Zm-15.19,9.82V85h-1.42v1.89H138.4V85H137V80.29L121.87,76l.45-5.38c.22-.32,1.45-2.12,5.64-8,7.66-11.85,11.39-23,11.39-34.19a14.51,14.51,0,0,1,1.93-6.9A21.09,21.09,0,0,1,143.77,18c.8.87,4.5,5.18,4.5,10.52,0,11.16,3.73,22.34,11.4,34.2,4.18,5.85,5.41,7.65,5.63,8l.45,5.38Z"/><path class="cls-7" d="M163.9,71.15c-.51-.74-1.95-2.8-5.4-7.64l0-.06c-7.82-12.08-11.62-23.52-11.62-35a12.71,12.71,0,0,0-1.44-5.64h-3.16a12.71,12.71,0,0,0-1.44,5.64c0,11.44-3.8,22.88-11.62,35l0,.06c-3.45,4.83-4.89,6.9-5.4,7.64L123.4,75l15,4.22V44.11L139.84,75l-1.42,4.22v4.32H142s-2.15.82-2.15,1.89h7.94c0-1.07-2.15-1.89-2.15-1.89h3.57V79.2L147.78,75,149.2,44.1V79.2l15-4.22ZM141,27.59s1-2,2.78-2,2.78,2,2.78,2c-2.77-2.77-5.56,0-5.56,0"/><polygon points="143.81 66.75 142.2 79.17 143.81 92.18 145.43 79.17 143.81 66.75"/></g><path class="cls-7" d="M89.54,112.42l3.24-4.06.75,1-1.41,1.58c-.4.46-.85.94-1.2,1.32h0c.48-.27,1-.55,1.6-.83l1.89-.94.75,1-1.43,1.63c-.4.45-.77.85-1.17,1.26h0c.49-.29,1-.56,1.56-.85l1.88-1,.72.92L92,115.52l-.76-1,1.45-1.68c.34-.39.66-.75,1.08-1.15h0c-.5.28-.93.51-1.41.73l-2,1Z"/><path class="cls-7" d="M98.35,118.71a2.41,2.41,0,0,1-3.64,0,2.35,2.35,0,0,1,.25-3.49,2.44,2.44,0,0,1,3.61,0A2.35,2.35,0,0,1,98.35,118.71ZM95.8,116.1c-.72.68-.91,1.49-.39,2s1.37.38,2.08-.29.93-1.47.39-2S96.52,115.42,95.8,116.1Z"/><path class="cls-7" d="M100.53,117.44a10.13,10.13,0,0,1,1.19,1,2.58,2.58,0,0,1,.94,1.4,1.28,1.28,0,0,1-.37,1.09,1.34,1.34,0,0,1-1.5.31l0,0a1.27,1.27,0,0,1-.14,1.15c-.27.53-.6,1.12-.66,1.33l-.86-.79a6.31,6.31,0,0,1,.53-1.1c.33-.56.28-.83-.06-1.15l-.25-.23L98,121.88l-.83-.76Zm-.63,2.37.33.3c.42.38.86.4,1.16.08s.24-.73-.14-1.09a2.78,2.78,0,0,0-.41-.32Z"/><path class="cls-7" d="M103.56,126.39a3.25,3.25,0,0,1-1.15-.64,2.4,2.4,0,0,1-.49-3.62,2.57,2.57,0,0,1,3.83-.37,3,3,0,0,1,.83,1l-.75.56a2.47,2.47,0,0,0-.63-.75,1.66,1.66,0,0,0-2.07,2.6,2.84,2.84,0,0,0,.85.46Z"/><path class="cls-7" d="M107.89,127l-1.52-1.06-.69,1,1.7,1.19-.54.77L104.2,127l2.89-4.14,2.56,1.79-.54.77-1.62-1.13-.6.86,1.52,1.06Z"/><path class="cls-7" d="M108.29,128.41a2.91,2.91,0,0,0,.92.93c.45.27.8.23,1,0s.05-.55-.35-1c-.56-.69-.79-1.37-.41-2a1.66,1.66,0,0,1,2.42-.3,3.1,3.1,0,0,1,1,.89l-.7.65a2.4,2.4,0,0,0-.78-.75c-.42-.26-.74-.19-.88,0s0,.54.43,1.1c.59.75.71,1.36.33,2s-1.37,1-2.56.27a3.3,3.3,0,0,1-1.06-1Z"/><path class="cls-7" d="M114,128.39l-1.2-.63.45-.85,3.43,1.81-.45.85-1.22-.64-1.91,3.62-1-.54Z"/><path class="cls-7" d="M118.66,132.8,117,132l-.49,1.09,1.89.85-.38.85L115,133.51l2.07-4.6,2.84,1.28-.38.85-1.8-.81-.43,1,1.7.76Z"/><path class="cls-7" d="M120.6,130.53a10.14,10.14,0,0,1,1.46.44,2.57,2.57,0,0,1,1.39.94,1.28,1.28,0,0,1,.07,1.15,1.34,1.34,0,0,1-1.27.85v0a1.27,1.27,0,0,1,.3,1.12c-.05.59-.13,1.26-.11,1.48l-1.09-.41a6.33,6.33,0,0,1,.08-1.22c.09-.64,0-.87-.48-1l-.32-.12-.7,1.86-1.06-.4Zm.3,2.43.42.16c.53.2.95.05,1.1-.36s-.05-.76-.54-1a2.85,2.85,0,0,0-.5-.15Z"/><path class="cls-7" d="M126,132.44a9.46,9.46,0,0,1,1.52.31,2.43,2.43,0,0,1,1.38.8,1.48,1.48,0,0,1,.21,1.27,1.61,1.61,0,0,1-.76,1,2.34,2.34,0,0,1-1.72.08l-.37-.12-.48,1.74-1.09-.3Zm.49,2.51a1.71,1.71,0,0,0,.36.13c.58.16,1,0,1.16-.54s-.11-.8-.66-1a1.91,1.91,0,0,0-.47-.08Z"/><path class="cls-7" d="M134.13,136.78a2.41,2.41,0,0,1-2.94,2.14,2.36,2.36,0,0,1-1.84-3,2.44,2.44,0,0,1,2.92-2.13A2.35,2.35,0,0,1,134.13,136.78Zm-3.59-.63c-.19,1,.13,1.74.88,1.89s1.33-.49,1.52-1.45-.11-1.74-.88-1.89S130.72,135.18,130.53,136.15Z"/><path class="cls-7" d="M135.17,134.4l1.14.14-.5,4.06,2,.24-.12,1-3.13-.38Z"/><path class="cls-7" d="M139,139.89l.14-2.06-1.39-3.08,1.3.09.43,1.25c.13.38.22.65.32,1h0c.13-.31.27-.59.45-.94l.59-1.18,1.28.09-1.86,2.82-.14,2.1Z"/><path class="cls-7" d="M143.51,136l-1.36,0,0-1,3.88.06,0,1-1.38,0-.07,4.09-1.14,0Z"/><path class="cls-7" d="M149.64,137.76l-1.86.11.07,1.19,2.07-.12.05.94-3.22.19-.29-5,3.11-.18.05.93-2,.11.06,1,1.86-.11Z"/><path class="cls-7" d="M154.6,139.19a3.23,3.23,0,0,1-1.26.38,2.4,2.4,0,0,1-2.93-2.18,2.57,2.57,0,0,1,2.41-3,3,3,0,0,1,1.26.07l-.12.93a2.47,2.47,0,0,0-1-.07,1.66,1.66,0,0,0,.41,3.29,2.86,2.86,0,0,0,.92-.28Z"/><path class="cls-7" d="M155.68,134l.38,1.9,1.85-.37-.38-1.9,1.12-.22,1,5-1.12.22-.41-2.07-1.84.37.41,2.07-1.12.22-1-5Z"/><path class="cls-7" d="M160.79,138.1l-1.38-4.86,1.28-.36,1.51,1.5a14.65,14.65,0,0,1,1.27,1.44h0a18.61,18.61,0,0,1-.67-2l-.4-1.42,1-.29,1.38,4.86-1.15.33-1.57-1.58a18.73,18.73,0,0,1-1.33-1.48h0c.21.63.42,1.31.64,2.11l.41,1.46Z"/><path class="cls-7" d="M165.32,131.43,167,136.2l-1.08.37-1.65-4.77Z"/><path class="cls-7" d="M171.41,134.32a3.25,3.25,0,0,1-1.12.69,2.4,2.4,0,0,1-3.4-1.35,2.57,2.57,0,0,1,1.55-3.52,3,3,0,0,1,1.24-.26l.12.93a2.45,2.45,0,0,0-1,.18,1.66,1.66,0,0,0,1.25,3.08,2.86,2.86,0,0,0,.82-.51Z"/><path class="cls-7" d="M172.49,128.36l2.23,4.53-1,.51-2.23-4.53Z"/><path class="cls-7" d="M175.74,132.4l-2.48-4.4,1.16-.66,1.82,1.1a14.69,14.69,0,0,1,1.57,1.1h0a18.89,18.89,0,0,1-1.12-1.79l-.73-1.29.91-.52,2.48,4.4-1,.59-1.9-1.17a18.7,18.7,0,0,1-1.64-1.12l0,0c.35.57.72,1.18,1.12,1.9l.75,1.32Z"/><path class="cls-7" d="M179.76,128.72a2.92,2.92,0,0,0,1.23-.44c.44-.29.55-.62.37-.9s-.47-.28-1.1-.13c-.86.22-1.57.13-2-.48a1.66,1.66,0,0,1,.76-2.32,3.09,3.09,0,0,1,1.21-.5l.3.91a2.41,2.41,0,0,0-1,.38c-.41.27-.49.59-.34.81s.49.23,1.17.08c.93-.22,1.53-.06,1.92.53s.32,1.67-.84,2.43a3.29,3.29,0,0,1-1.36.53Z"/><path class="cls-7" d="M182.18,123.52l-1.08.82-.58-.77,3.1-2.34.58.77-1.1.83,2.46,3.27-.92.69Z"/><path class="cls-7" d="M184.86,120.17l3.23,3.88-.88.73L184,120.9Z"/><path class="cls-7" d="M186.9,119.66l-1,.92-.65-.71,2.86-2.62.65.71-1,.93,2.76,3-.85.77Z"/><path class="cls-7" d="M189.21,116.12l2.11,2c.63.6,1.18.66,1.58.24s.34-1-.31-1.58l-2.11-2,.78-.83,2.05,1.95c1.13,1.07,1.13,2.15.22,3.11s-1.9,1-3.07-.13l-2-1.94Z"/><path class="cls-7" d="M193.15,113.19l-.86,1-.74-.61,2.47-3,.74.61-.88,1.06,3.16,2.6-.73.88Z"/><path class="cls-7" d="M198.41,109.54l-1.09,1.5,1,.7,1.22-1.68.76.55-1.89,2.61-4.09-3,1.83-2.52.76.55-1.16,1.6.85.62,1.09-1.5Z"/><path class="cls-7" d="M80.16,70.78l1.28.4,0,1.18-5-1.71.05-1.5,5.1-1.39,0,1.23-1.31.35Zm-.81-1.31-1.08.28c-.3.08-.68.16-1,.22h0c.3.08.68.17,1,.27l1.06.34Z"/><path class="cls-7" d="M80.17,62.83c-.61,0-1.34-.12-2.07-.2v0c.62.23,1.31.53,1.87.79l1.88.84-.11.89-2,.3c-.61.09-1.34.18-2,.22h0c.67.11,1.44.23,2.06.34l1.89.32-.13,1-5-.92L76.77,65l1.73-.29c.6-.09,1.24-.17,1.84-.21v0c-.56-.21-1.2-.46-1.74-.69L77,63l.18-1.48,5,.33L82.09,63Z"/><path class="cls-7" d="M80.89,57.84l-.37,1.82,1.17.24.41-2,.92.19-.64,3.16-5-1,.62-3.06.92.19-.39,1.93,1,.21L80,57.66Z"/><path class="cls-7" d="M78.36,56.14a10.07,10.07,0,0,1,.3-1.5,2.58,2.58,0,0,1,.81-1.47A1.28,1.28,0,0,1,80.6,53a1.34,1.34,0,0,1,1,1.19h0a1.27,1.27,0,0,1,1.09-.4c.59,0,1.27,0,1.48,0l-.31,1.13a6.39,6.39,0,0,1-1.23,0c-.64,0-.87.13-1,.58l-.09.33,1.92.52-.3,1.09Zm2.39-.52.12-.43c.15-.55,0-.95-.46-1.06s-.76.12-.9.63a3,3,0,0,0-.1.51Z"/><path class="cls-7" d="M79.89,50.63l4.8,1.56-.35,1.09-4.8-1.56Z"/><path class="cls-7" d="M86.15,47.87a3.24,3.24,0,0,1-.26,1.29,2.4,2.4,0,0,1-3.31,1.57,2.57,2.57,0,0,1-1.52-3.53,3,3,0,0,1,.65-1.08l.76.54a2.48,2.48,0,0,0-.52.83,1.66,1.66,0,0,0,3.1,1.18,2.85,2.85,0,0,0,.19-.95Z"/><path class="cls-7" d="M85.86,45.7l1,.88-.5,1.07L82.46,44.1l.64-1.36,5.24.73-.52,1.11-1.34-.2Zm-.23-1.52L84.53,44c-.31,0-.69-.12-1-.18h0c.24.2.55.43.78.62l.84.73Z"/><path class="cls-7" d="M88.57,43.05l-4.39-2.49.66-1.16H87a14.64,14.64,0,0,1,1.91.14v0a18.89,18.89,0,0,1-1.88-1l-1.28-.73.52-.91,4.39,2.49-.59,1-2.23,0a18.56,18.56,0,0,1-2-.12v0c.59.3,1.22.64,1.94,1l1.32.75Z"/><path class="cls-7" d="M88.37,33.7l4.18,2.83-.64.95-4.18-2.83Z"/><path class="cls-7" d="M93,35.82l-4-3.06.81-1.06,2.11.29a14.63,14.63,0,0,1,1.88.39v0a18.86,18.86,0,0,1-1.73-1.2l-1.17-.9.64-.83,4,3.06-.73,1-2.2-.32a18.72,18.72,0,0,1-1.95-.38v0c.55.38,1.12.8,1.78,1.3l1.21.92Z"/><path class="cls-7" d="M95.22,31.07a2.91,2.91,0,0,0,1.07-.74c.35-.39.37-.75.12-1s-.53-.15-1.09.17a1.53,1.53,0,1,1-1.91-2.38,3.09,3.09,0,0,1,1-.8l.52.8a2.41,2.41,0,0,0-.88.63c-.33.37-.32.7-.12.87s.54.09,1.15-.23c.84-.45,1.46-.46,2,0S97.86,30,96.95,31a3.31,3.31,0,0,1-1.18.87Z"/><path class="cls-7" d="M96.46,25.39l-1,1-.68-.68,2.74-2.75.68.68-1,1,2.9,2.89-.81.81Z"/><path class="cls-7" d="M99,21.67l3.4,3.73-.85.77-3.4-3.73Z"/><path class="cls-7" d="M101.14,21.05l-1,.87-.61-.74,3-2.48.61.74-1.06.88,2.61,3.15-.88.73Z"/><path class="cls-7" d="M104,17.55l1.69,2.36c.51.71,1,.87,1.51.53s.51-.88,0-1.61l-1.69-2.36.93-.66,1.65,2.3c.91,1.27.7,2.33-.37,3.1s-2.05.61-3-.7l-1.64-2.29Z"/><path class="cls-7" d="M108.76,15.49l-1.16.71-.5-.82,3.31-2,.5.82-1.17.72,2.14,3.48-1,.6Z"/><path class="cls-7" d="M115.1,14.14l-1.64.87.56,1.06,1.83-1,.44.83-2.84,1.51L111.08,13l2.75-1.46.44.83-1.74.93.49.93,1.64-.87Z"/><path class="cls-7" d="M121.43,10.86a2.41,2.41,0,0,1-1.27,3.41A2.35,2.35,0,0,1,117,12.81a2.44,2.44,0,0,1,1.25-3.39A2.35,2.35,0,0,1,121.43,10.86Zm-3.34,1.46c.38.91,1.08,1.38,1.78,1.08s.84-1.14.46-2.05-1-1.39-1.78-1.09S117.71,11.42,118.09,12.33Z"/><path class="cls-7" d="M121.38,8.28l2.93-1,.3.89-1.84.61.37,1.1,1.72-.57.29.88-1.72.57.64,1.93-1.09.36Z"/><path class="cls-7" d="M128.81,10l-.05,1.34-1.15.27L128,6.31,129.41,6l2.68,4.56-1.2.28-.67-1.17Zm1.05-1.12-.55-1c-.16-.27-.33-.62-.47-.89h0c0,.31,0,.7,0,1l0,1.11Z"/><path class="cls-7" d="M135.21,7.87l-1.83.3.19,1.18,2-.33.15.92-3.18.52-.81-5,3.08-.5.15.92-1.94.32.17,1,1.83-.3Z"/><path class="cls-7" d="M135.91,4.9a10.23,10.23,0,0,1,1.5-.25,2.58,2.58,0,0,1,1.66.24,1.28,1.28,0,0,1,.56,1,1.34,1.34,0,0,1-.77,1.32v0a1.27,1.27,0,0,1,.76.87c.21.55.43,1.19.55,1.38L139,9.6a6.35,6.35,0,0,1-.46-1.14c-.19-.61-.43-.76-.89-.73l-.34,0,.19,2-1.13.11ZM137.25,7l.45,0c.57-.06.88-.37.83-.81s-.38-.66-.9-.62a2.84,2.84,0,0,0-.51.09Z"/><path class="cls-7" d="M145.16,6.78a2.41,2.41,0,0,1-2.42,2.72A2.35,2.35,0,0,1,140.31,7a2.44,2.44,0,0,1,2.4-2.7A2.35,2.35,0,0,1,145.16,6.78Zm-3.65.15c0,1,.5,1.67,1.27,1.66S144,7.82,144,6.84s-.47-1.68-1.26-1.66S141.49,5.95,141.52,6.93Z"/><path class="cls-7" d="M145.77,9.37l.28-5,1.33.08.94,1.91a14.64,14.64,0,0,1,.72,1.77h0a18.69,18.69,0,0,1,0-2.11l.08-1.47,1,.06-.28,5-1.2-.07-1-2A19.22,19.22,0,0,1,147,5.71h0c0,.67,0,1.38-.08,2.2l-.09,1.52Z"/><path class="cls-7" d="M152.09,8.56l-.53,1.24-1.17-.16,2.2-4.8,1.48.2.88,5.21-1.22-.16-.21-1.34Zm1.38-.68-.17-1.1c0-.31-.09-.69-.12-1h0c-.11.29-.24.66-.36.93l-.44,1Z"/><path class="cls-7" d="M157.33,5.59l-.6,2.85c-.18.85.05,1.35.63,1.47s1-.22,1.18-1.09l.6-2.85,1.12.23L159.67,9c-.32,1.53-1.24,2.09-2.53,1.82s-1.83-1.1-1.5-2.68l.58-2.76Z"/><path class="cls-7" d="M162.06,7.69l-1.3-.37.26-.92,3.73,1.06-.26.92L163.16,8,162,11.94l-1.1-.31Z"/><path class="cls-7" d="M166.53,8.07l-1.62,4.78-1.09-.37,1.61-4.78Z"/><path class="cls-7" d="M169.23,14.36a3.26,3.26,0,0,1-1.29-.27,2.4,2.4,0,0,1-1.53-3.32A2.57,2.57,0,0,1,170,9.28a3,3,0,0,1,1.07.67l-.55.76a2.44,2.44,0,0,0-.82-.53,1.52,1.52,0,0,0-2.11,1,1.51,1.51,0,0,0,.9,2.13,2.86,2.86,0,0,0,.94.2Z"/><path class="cls-7" d="M170.25,13.69a2.91,2.91,0,0,0,1,.83c.47.22.82.15,1-.15s0-.55-.46-1c-.63-.62-.93-1.28-.61-1.94a1.65,1.65,0,0,1,2.38-.56,3.11,3.11,0,0,1,1.06.78l-.62.72a2.4,2.4,0,0,0-.85-.67c-.45-.21-.76-.11-.87.13s.06.54.54,1c.67.68.85,1.28.54,1.92s-1.26,1.14-2.51.54a3.3,3.3,0,0,1-1.16-.89Z"/><path class="cls-7" d="M176.17,16.58l-1,.93-1-.6,3.9-3.56,1.29.76-1.22,5.14-1.06-.62.33-1.31Zm1.54-.08.27-1.08c.08-.3.19-.67.28-1h0c-.22.22-.48.51-.7.72l-.8.77Z"/><path class="cls-7" d="M178.55,19.52l2.9-4.14,1.09.76-.2,2.12a14.77,14.77,0,0,1-.32,1.89h0a18.69,18.69,0,0,1,1.13-1.78l.85-1.21.86.6L182,21.92l-1-.69.23-2.21a19,19,0,0,1,.31-2h0c-.36.56-.75,1.15-1.23,1.83l-.87,1.25Z"/><path class="cls-7" d="M185.79,18.56a10.09,10.09,0,0,1,1.26.9,3.25,3.25,0,0,1,1.25,1.73,2.23,2.23,0,0,1-.55,2,2.56,2.56,0,0,1-1.95,1,3.63,3.63,0,0,1-2.21-1,9.92,9.92,0,0,1-1-.88ZM184,22.47a2.18,2.18,0,0,0,.29.27,1.57,1.57,0,0,0,2.44-.28,1.45,1.45,0,0,0-.2-2.25,2.42,2.42,0,0,0-.43-.29Z"/><path class="cls-7" d="M189.28,26.54l-1.17.66-.83-.84,4.67-2.46L193,25l-2.49,4.67-.87-.87.65-1.19Zm1.51.31.54-1c.15-.28.35-.6.51-.87h0c-.26.16-.59.37-.86.52l-1,.54Z"/><path class="cls-7" d="M191.75,29.28a2.92,2.92,0,0,0,.59,1.16c.34.4.69.47.94.25s.22-.5,0-1.11c-.33-.83-.33-1.54.22-2a1.65,1.65,0,0,1,2.4.45,3.09,3.09,0,0,1,.65,1.14l-.86.41a2.41,2.41,0,0,0-.51-1c-.32-.37-.65-.41-.85-.24s-.17.52.07,1.17c.33.89.26,1.51-.28,2s-1.61.53-2.52-.52a3.3,3.3,0,0,1-.7-1.28Z"/><path class="cls-7" d="M197.21,31.29l-.82-1.08.76-.58,2.35,3.09-.76.58-.83-1.1-3.26,2.48-.69-.91Z"/><path class="cls-7" d="M199.89,33.39a10,10,0,0,1,.93,1.21,2.58,2.58,0,0,1,.57,1.58,1.28,1.28,0,0,1-.62,1,1.34,1.34,0,0,1-1.53-.06h0a1.28,1.28,0,0,1-.42,1.08c-.39.45-.85.94-1,1.13l-.64-1a6.2,6.2,0,0,1,.79-.94c.45-.46.47-.74.22-1.13L198,36l-1.66,1.1-.62-.94Zm-1.19,2.14.25.37c.31.48.74.6,1.11.35s.41-.65.12-1.09a2.86,2.86,0,0,0-.32-.41Z"/><path class="cls-7" d="M202.56,42.45a2.41,2.41,0,0,1-3.53-.87,2.35,2.35,0,0,1,1.08-3.33,2.44,2.44,0,0,1,3.51.85A2.35,2.35,0,0,1,202.56,42.45Zm-1.84-3.15c-.86.48-1.25,1.23-.87,1.9s1.23.7,2.09.22,1.26-1.2.88-1.89S201.58,38.81,200.72,39.29Z"/><path class="cls-7" d="M200.56,44.21l4.59-2.1.55,1.21L204.46,45a14.38,14.38,0,0,1-1.23,1.47v0a18.8,18.8,0,0,1,1.87-1l1.34-.61.44,1L202.29,48l-.5-1.09,1.32-1.79a18.88,18.88,0,0,1,1.26-1.54l0,0c-.59.3-1.24.61-2,1l-1.38.63Z"/><path class="cls-7" d="M204.21,49.4l-1.34.11-.41-1.11,5.27-.29.52,1.41-4.2,3.21-.42-1.15,1.08-.81Zm1.24.91.9-.66c.25-.19.57-.4.83-.57h0c-.31,0-.69.09-1,.12l-1.11.09Z"/><path class="cls-7" d="M209.29,52.67l-2.8.8c-.84.24-1.17.68-1,1.24s.66.78,1.52.53l2.79-.8.31,1.09-2.72.78c-1.5.43-2.43-.13-2.79-1.39s.12-2.14,1.67-2.58l2.71-.77Z"/><path class="cls-7" d="M209.63,57.82l-.28-1.33.94-.2.8,3.8-.94.2-.28-1.35-4,.84-.24-1.12Z"/><path class="cls-7" d="M211.37,62l-5,.8-.18-1.13,5-.8Z"/><path class="cls-7" d="M207.07,67.27a3.22,3.22,0,0,1-.36-1.26,2.4,2.4,0,0,1,2.22-2.9,2.57,2.57,0,0,1,3,2.45,3,3,0,0,1-.09,1.26l-.93-.13a2.46,2.46,0,0,0,.08-1,1.66,1.66,0,0,0-3.3.37,2.87,2.87,0,0,0,.27.93Z"/><path class="cls-7" d="M208.14,67.88a2.91,2.91,0,0,0-.26,1.28c0,.52.25.79.58.78s.48-.26.67-.88c.25-.85.7-1.42,1.43-1.45s1.55.65,1.6,1.84a3.09,3.09,0,0,1-.2,1.3l-.93-.21a2.4,2.4,0,0,0,.19-1.07c0-.49-.26-.72-.52-.71s-.45.3-.67,1c-.29.9-.74,1.34-1.45,1.38s-1.59-.58-1.65-2a3.3,3.3,0,0,1,.24-1.44Z"/></g></g></svg>