<svg id="Layer_1" data-name="Layer 1" xmlns="http://www.w3.org/2000/svg" xmlns:xlink="http://www.w3.org/1999/xlink" viewBox="0 0 755 180"><defs><style>.cls-1{fill:none;}.cls-2{clip-path:url(#clip-path);}.cls-3{fill:#fff;}.cls-4{clip-path:url(#clip-path-3);}.cls-5{clip-path:url(#clip-path-4);}.cls-6{fill:#262626;}.cls-7{fill:#a9b0b7;}.cls-8{fill:#ac2b37;}</style><clipPath id="clip-path"><rect class="cls-1" width="484.77" height="180"/></clipPath><clipPath id="clip-path-3"><rect class="cls-1" x="574.92" y="0.08" width="180.17" height="179.83"/></clipPath><clipPath id="clip-path-4"><rect class="cls-1" x="573.63" y="-0.81" width="182.15" height="182.15"/></clipPath></defs><title>AIAA_Logo_RGB_H_Color_W-Logo</title><g id="AIAA_Logo_CLR"><g class="cls-2"><polygon class="cls-3" points="450.17 72.34 447.97 69.48 427.89 69.48 428.3 72.34 450.17 72.34"/><polygon class="cls-3" points="456.16 80.2 453.89 77.24 429.05 77.24 429.55 80.2 456.16 80.2"/><polygon class="cls-3" points="462.04 88.01 459.83 85.06 430.21 85.06 430.63 88.01 462.04 88.01"/><polygon class="cls-3" points="467.99 95.82 466.05 92.9 431.41 92.9 431.79 95.82 467.99 95.82"/><polygon class="cls-3" points="473.86 103.55 471.87 100.75 432.35 100.75 432.86 103.55 473.86 103.55"/><g class="cls-2"><path class="cls-3" d="M421.9,103.68l1.94,12c1.59,7.94,6,10.27,6.29,10.35v.8h-50V126c3.59,0,4.58-3.39,4.19-5.38l-2.24-16.93Z"/><path class="cls-3" d="M325.77,69.37l33.74-58.21c1.6-2.79,4.6-7.55-2.7-10.46V0h48.31l11.25,69.36H377.6l-4-30.72L357,69.37Z"/><polygon class="cls-3" points="417.7 77.16 416.83 72.42 324.06 72.42 321.31 77.16 417.7 77.16"/><polygon class="cls-3" points="418.83 84.97 418.17 80.23 319.54 80.23 316.7 84.97 418.83 84.97"/><polygon class="cls-3" points="420.18 92.78 419.49 88.04 315.18 88.04 312.19 92.78 420.18 92.78"/><polygon class="cls-3" points="421.41 100.59 420.74 95.84 310.51 95.84 307.72 100.59 421.41 100.59"/><path class="cls-3" d="M144.78,69.37l12.35-58.21c.35-1.71,2.53-8.38-2.69-10.46V0H205V.79c-3.19,1.19-6.87,7-7.67,11.56l-11.38,57Z"/><polygon class="cls-3" points="184.36 77.16 185.37 72.42 144.16 72.42 143.13 77.16 184.36 77.16"/><polygon class="cls-3" points="182.8 84.97 183.81 80.23 142.52 80.23 141.49 84.97 182.8 84.97"/><polygon class="cls-3" points="181.27 92.78 182.24 88.04 140.87 88.04 139.81 92.78 181.27 92.78"/><polygon class="cls-3" points="179.61 100.59 180.69 95.84 139.23 95.84 138.08 100.59 179.61 100.59"/><path class="cls-3" d="M332.22,115.64l6.46-11.94-32.66,0-1,1.65-.27-1.65H265l2.24,16.93c.39,2-.59,5.38-4.19,5.38v.8h71.7V126c-4.38-1.59-5.88-4-2.49-10.35"/><path class="cls-3" d="M207.36,69.37l35-58.21C244,8.37,247,3.61,239.72.7V0H288l11.24,69.36H260.48l-4-30.72L239.9,69.37Z"/><polygon class="cls-3" points="300.6 77.16 299.72 72.42 205.46 72.42 202.72 77.16 300.6 77.16"/><polygon class="cls-3" points="301.73 84.97 301.06 80.23 200.58 80.23 197.74 84.97 301.73 84.97"/><polygon class="cls-3" points="303.07 92.78 302.37 88.04 196.03 88.04 193.03 92.78 303.07 92.78"/><polygon class="cls-3" points="304.29 100.59 303.62 95.84 191.36 95.84 188.57 100.59 304.29 100.59"/><path class="cls-3" d="M215.11,115.64l6.45-11.94-34.89,0-11.36,18.64,3.79-18.74-41.56.09-1.3,6.08-1-6.08H95.44l2.23,16.93c.4,2-.59,5.38-4.19,5.38v.8h30.26l48.73.07h44.35l.77-.88c-4.38-1.59-5.87-4-2.49-10.35"/><path class="cls-3" d="M52,103.7l-6.45,11.94c-3.4,6.37-1.9,8.77,2.48,10.35v.8H1.86V126c3.59,0,7.87-5.67,11.65-12.25l5.87-10.06Z"/><path class="cls-3" d="M39.13,69.37,72.88,11.16C74.49,8.37,77.47,3.61,70.19.7V0h48.3l11.25,69.36H91l-4-30.72L70.37,69.37Z"/><polygon class="cls-3" points="131.06 77.16 130.19 72.42 37.43 72.42 34.68 77.16 131.06 77.16"/><polygon class="cls-3" points="132.19 84.97 131.53 80.23 32.91 80.23 30.07 84.97 132.19 84.97"/><polygon class="cls-3" points="133.54 92.78 132.85 88.04 28.54 88.04 25.55 92.78 133.54 92.78"/><polygon class="cls-3" points="134.76 100.59 134.09 95.84 23.88 95.84 21.09 100.59 134.76 100.59"/><path class="cls-3" d="M4.61,157,0,137.55H4.69l1.47,8c.43,2.31.83,4.82,1.15,6.78h.06c.32-2.11.78-4.44,1.27-6.84l1.64-8h4.66l1.55,8.2c.43,2.28.75,4.36,1,6.52h.06c.29-2.17.72-4.45,1.12-6.76l1.58-8h4.46l-5,19.46H15l-1.64-8.37c-.37-2-.69-3.78-.92-6h-.06c-.35,2.19-.66,4-1.12,6L9.41,157Z"/><path class="cls-3" d="M44.55,147.08c0,6.38-3.86,10.25-9.53,10.25s-9.12-4.36-9.12-9.9c0-5.83,3.71-10.19,9.44-10.19,6,0,9.21,4.47,9.21,9.84m-14,.26c0,3.81,1.78,6.49,4.72,6.49s4.66-2.83,4.66-6.61c0-3.49-1.67-6.49-4.69-6.49s-4.69,2.83-4.69,6.61"/><path class="cls-3" d="M47.42,137.81a38.42,38.42,0,0,1,5.84-.4c2.88,0,4.89.43,6.27,1.53A4.94,4.94,0,0,1,61.32,143a5.16,5.16,0,0,1-3.42,4.79v.09c1.35.55,2.1,1.85,2.59,3.64.6,2.19,1.21,4.73,1.58,5.49H57.58a24.5,24.5,0,0,1-1.35-4.53c-.52-2.42-1.35-3.09-3.14-3.12H51.77V157H47.42Zm4.35,8.37h1.73c2.19,0,3.48-1.1,3.48-2.8s-1.21-2.69-3.22-2.71a11,11,0,0,0-2,.14Z"/><path class="cls-3" d="M78.62,156.46a12.49,12.49,0,0,1-5,.84c-6.71,0-10.16-4.19-10.16-9.73,0-6.64,4.72-10.33,10.59-10.33a11.4,11.4,0,0,1,4.78.87L78,141.6a9.47,9.47,0,0,0-3.68-.72c-3.48,0-6.19,2.11-6.19,6.44,0,3.9,2.3,6.35,6.22,6.35A11,11,0,0,0,78,153Z"/><polygon class="cls-3" points="93.03 148.78 85.89 148.78 85.89 153.4 93.87 153.4 93.87 157.01 81.49 157.01 81.49 137.56 93.46 137.56 93.46 141.16 85.89 141.16 85.89 145.2 93.03 145.2 93.03 148.78"/><path class="cls-3" d="M97,152.48a11.16,11.16,0,0,0,4.86,1.21c2,0,3.08-.84,3.08-2.11s-.92-1.9-3.25-2.74c-3.22-1.13-5.32-2.92-5.32-5.74,0-3.32,2.76-5.86,7.34-5.86a11.83,11.83,0,0,1,5,1l-1,3.55a9.19,9.19,0,0,0-4.06-.92c-1.9,0-2.82.87-2.82,1.88,0,1.24,1.09,1.79,3.6,2.74,3.42,1.27,5,3.06,5,5.8,0,3.26-2.5,6-7.83,6a12.65,12.65,0,0,1-5.5-1.18Z"/><polygon class="cls-3" points="116.14 141.25 110.93 141.25 110.93 137.56 125.83 137.56 125.83 141.25 120.54 141.25 120.54 157.01 116.14 157.01 116.14 141.25"/><polygon class="cls-3" points="139.7 148.78 132.57 148.78 132.57 153.4 140.54 153.4 140.54 157.01 128.16 157.01 128.16 137.56 140.13 137.56 140.13 141.16 132.57 141.16 132.57 145.2 139.7 145.2 139.7 148.78"/><path class="cls-3" d="M143.53,137.81a38.42,38.42,0,0,1,5.84-.4c2.88,0,4.89.43,6.27,1.53a4.94,4.94,0,0,1,1.78,4.07A5.16,5.16,0,0,1,154,147.8v.09c1.35.55,2.1,1.85,2.59,3.64.6,2.19,1.21,4.73,1.58,5.49h-4.49a24.5,24.5,0,0,1-1.35-4.53c-.52-2.42-1.35-3.09-3.14-3.12h-1.32V157h-4.35Zm4.35,8.37h1.73c2.19,0,3.48-1.1,3.48-2.8s-1.21-2.69-3.22-2.71a11,11,0,0,0-2,.14Z"/><path class="cls-3" d="M166.4,137.82a35.77,35.77,0,0,1,5.93-.41c2.71,0,4.63.52,5.93,1.56a5.69,5.69,0,0,1,2.07,4.5,6.22,6.22,0,0,1-1.78,4.62,9,9,0,0,1-6.3,2,11,11,0,0,1-1.5-.09v7H166.4Zm4.35,8.83a6.65,6.65,0,0,0,1.47.12c2.33,0,3.77-1.18,3.77-3.18,0-1.79-1.24-2.86-3.42-2.86a7.42,7.42,0,0,0-1.81.17Z"/><path class="cls-3" d="M200.88,147.08c0,6.38-3.86,10.25-9.53,10.25s-9.12-4.36-9.12-9.9c0-5.83,3.71-10.19,9.44-10.19,6,0,9.21,4.47,9.21,9.84m-14,.26c0,3.81,1.78,6.49,4.72,6.49s4.66-2.83,4.66-6.61c0-3.49-1.67-6.49-4.69-6.49s-4.69,2.83-4.69,6.61"/><polygon class="cls-3" points="203.75 137.56 208.16 137.56 208.16 153.31 215.87 153.31 215.87 157.01 203.75 157.01 203.75 137.56"/><path class="cls-3" d="M220.36,157v-8l-6.13-11.49h5l2,4.68c.6,1.41,1,2.45,1.5,3.72h.06c.43-1.21.89-2.34,1.47-3.72l2-4.68h4.92l-6.39,11.34V157Z"/><polygon class="cls-3" points="236.96 141.25 231.75 141.25 231.75 137.56 246.66 137.56 246.66 141.25 241.36 141.25 241.36 157.01 236.96 157.01 236.96 141.25"/><polygon class="cls-3" points="260.53 148.78 253.39 148.78 253.39 153.4 261.36 153.4 261.36 157.01 248.99 157.01 248.99 137.56 260.96 137.56 260.96 141.16 253.39 141.16 253.39 145.2 260.53 145.2 260.53 148.78"/><path class="cls-3" d="M278.6,156.46a12.48,12.48,0,0,1-5,.84c-6.71,0-10.16-4.19-10.16-9.73,0-6.64,4.72-10.33,10.59-10.33a11.41,11.41,0,0,1,4.78.87l-.89,3.49a9.48,9.48,0,0,0-3.68-.72c-3.48,0-6.19,2.11-6.19,6.44,0,3.9,2.3,6.35,6.22,6.35a11,11,0,0,0,3.66-.64Z"/><polygon class="cls-3" points="285.88 137.56 285.88 145.03 293.1 145.03 293.1 137.56 297.48 137.56 297.48 157.01 293.1 157.01 293.1 148.87 285.88 148.87 285.88 157.01 281.47 157.01 281.47 137.56 285.88 137.56"/><path class="cls-3" d="M301.3,157V137.55h5.12l4,7.13a56.31,56.31,0,0,1,3.17,6.67h.09a72.49,72.49,0,0,1-.37-8.11v-5.69h4V157h-4.6l-4.15-7.5a72.23,72.23,0,0,1-3.37-6.87l-.09,0c.12,2.57.17,5.31.17,8.49V157Z"/><rect class="cls-3" x="321.15" y="137.55" width="4.4" height="19.46"/><path class="cls-3" d="M343.6,156.46a12.48,12.48,0,0,1-5,.84c-6.71,0-10.16-4.19-10.16-9.73,0-6.64,4.72-10.33,10.59-10.33a11.41,11.41,0,0,1,4.78.87l-.89,3.49a9.48,9.48,0,0,0-3.68-.72c-3.48,0-6.19,2.11-6.19,6.44,0,3.9,2.3,6.35,6.22,6.35a11,11,0,0,0,3.66-.64Z"/><rect class="cls-3" x="352.29" y="137.55" width="4.4" height="19.46"/><path class="cls-3" d="M360.49,157V137.55h5.12l4,7.13a56.31,56.31,0,0,1,3.17,6.67h.09a72.49,72.49,0,0,1-.37-8.11v-5.69h4V157h-4.6l-4.15-7.5a72.23,72.23,0,0,1-3.37-6.87l-.09,0c.12,2.57.17,5.31.17,8.49V157Z"/><path class="cls-3" d="M380.49,152.48a11.16,11.16,0,0,0,4.86,1.21c2,0,3.08-.84,3.08-2.11s-.92-1.9-3.25-2.74c-3.22-1.13-5.33-2.92-5.33-5.74,0-3.32,2.76-5.86,7.34-5.86a11.83,11.83,0,0,1,5,1l-1,3.55a9.2,9.2,0,0,0-4.06-.92c-1.9,0-2.82.87-2.82,1.88,0,1.24,1.09,1.79,3.6,2.74,3.43,1.27,5,3.06,5,5.8,0,3.26-2.5,6-7.83,6a12.65,12.65,0,0,1-5.5-1.18Z"/><polygon class="cls-3" points="399.62 141.25 394.41 141.25 394.41 137.56 409.32 137.56 409.32 141.25 404.02 141.25 404.02 157.01 399.62 157.01 399.62 141.25"/><rect class="cls-3" x="411.65" y="137.55" width="4.4" height="19.46"/><polygon class="cls-3" points="423.59 141.25 418.38 141.25 418.38 137.56 433.29 137.56 433.29 141.25 427.99 141.25 427.99 157.01 423.59 157.01 423.59 141.25"/><path class="cls-3" d="M440,137.56v11.2c0,3.35,1.27,5.05,3.51,5.05s3.57-1.62,3.57-5.05v-11.2h4.38v10.91c0,6-3,8.86-8.09,8.86-4.89,0-7.77-2.71-7.77-8.92V137.56Z"/><polygon class="cls-3" points="458.98 141.25 453.77 141.25 453.77 137.56 468.68 137.56 468.68 141.25 463.39 141.25 463.39 157.01 458.98 157.01 458.98 141.25"/><polygon class="cls-3" points="482.55 148.78 475.41 148.78 475.41 153.4 483.39 153.4 483.39 157.01 471.01 157.01 471.01 137.56 482.98 137.56 482.98 141.16 475.41 141.16 475.41 145.2 482.55 145.2 482.55 148.78"/><path class="cls-3" d="M3.09,175.86,1.76,179.8H0L4.4,167.28h2l4.38,12.52H9l-1.37-3.94ZM7.3,174.6,6,171c-.29-.82-.48-1.56-.67-2.28h0c-.19.74-.4,1.5-.65,2.27L3.43,174.6Z"/><path class="cls-3" d="M23.4,174.3c-.09-1.75-.21-3.84-.19-5.4h-.06c-.44,1.47-1,3-1.62,4.75l-2.27,6.07H18l-2.08-6c-.61-1.76-1.12-3.38-1.48-4.87h0c0,1.56-.13,3.66-.25,5.53l-.34,5.37H12.25l.89-12.52h2.11l2.19,6.05c.53,1.54,1,2.92,1.29,4.22h.06c.32-1.26.78-2.64,1.35-4.22l2.28-6.05h2.11l.8,12.52H23.73Z"/><polygon class="cls-3" points="34.54 173.93 29.55 173.93 29.55 178.44 35.11 178.44 35.11 179.8 27.9 179.8 27.9 167.28 34.83 167.28 34.83 168.63 29.55 168.63 29.55 172.59 34.54 172.59 34.54 173.93"/><path class="cls-3" d="M37.26,167.45a17.61,17.61,0,0,1,3.18-.26,5.34,5.34,0,0,1,3.71,1,3.08,3.08,0,0,1,1,2.38,3.3,3.3,0,0,1-2.42,3.19v.06a3.13,3.13,0,0,1,1.89,2.52,19.51,19.51,0,0,0,1,3.44H43.91a15.9,15.9,0,0,1-.86-3c-.38-1.73-1.07-2.38-2.57-2.43H38.92v5.42H37.26Zm1.66,5.7h1.69c1.77,0,2.89-.95,2.89-2.38,0-1.62-1.2-2.32-3-2.34a6.94,6.94,0,0,0-1.64.15Z"/><rect class="cls-3" x="47.51" y="167.28" width="1.66" height="12.52"/><path class="cls-3" d="M61,179.39a8.41,8.41,0,0,1-3.39.59c-3.62,0-6.34-2.23-6.34-6.33a6.31,6.31,0,0,1,6.7-6.57,7,7,0,0,1,3,.56l-.4,1.32a6.16,6.16,0,0,0-2.59-.52c-3,0-5,1.88-5,5.16,0,3.06,1.81,5,4.93,5a6.79,6.79,0,0,0,2.7-.52Z"/><path class="cls-3" d="M65.25,175.86l-1.33,3.94H62.21l4.36-12.52h2l4.38,12.52H71.17l-1.37-3.94Zm4.21-1.26L68.2,171c-.29-.82-.48-1.56-.67-2.28h0c-.19.74-.4,1.5-.65,2.27l-1.26,3.62Z"/><path class="cls-3" d="M74.83,179.8V167.28h1.81l4.11,6.33a35.32,35.32,0,0,1,2.3,4.07l0,0c-.15-1.67-.19-3.19-.19-5.15v-5.24h1.56V179.8H82.79l-4.07-6.35a39.48,39.48,0,0,1-2.4-4.18l-.06,0c.09,1.58.13,3.08.13,5.16v5.35Z"/><rect class="cls-3" x="91.39" y="167.28" width="1.66" height="12.52"/><path class="cls-3" d="M95.94,179.8V167.28h1.81l4.11,6.33a35.32,35.32,0,0,1,2.3,4.07l0,0c-.15-1.67-.19-3.19-.19-5.15v-5.24h1.56V179.8H103.9l-4.07-6.35a39.48,39.48,0,0,1-2.4-4.18l-.06,0c.09,1.58.13,3.08.13,5.16v5.35Z"/><path class="cls-3" d="M108.24,177.83a6,6,0,0,0,3,.82c1.69,0,2.68-.87,2.68-2.14s-.69-1.84-2.42-2.49c-2.09-.72-3.39-1.78-3.39-3.55,0-2,1.66-3.4,4.15-3.4a5.94,5.94,0,0,1,2.84.61l-.46,1.32a5.2,5.2,0,0,0-2.44-.59c-1.75,0-2.42,1-2.42,1.88,0,1.17.78,1.75,2.55,2.41,2.17.82,3.27,1.84,3.27,3.68s-1.47,3.6-4.49,3.6a6.76,6.76,0,0,1-3.27-.8Z"/><polygon class="cls-3" points="120.29 168.65 116.39 168.65 116.39 167.28 125.89 167.28 125.89 168.65 121.97 168.65 121.97 179.8 120.29 179.8 120.29 168.65"/><rect class="cls-3" x="127.32" y="167.28" width="1.66" height="12.52"/><polygon class="cls-3" points="134.31 168.65 130.4 168.65 130.4 167.28 139.9 167.28 139.9 168.65 135.98 168.65 135.98 179.8 134.31 179.8 134.31 168.65"/><path class="cls-3" d="M143,167.28v7.41c0,2.8,1.28,4,3,4,1.9,0,3.12-1.23,3.12-4v-7.41h1.68v7.3c0,3.84-2.07,5.42-4.85,5.42-2.63,0-4.61-1.47-4.61-5.35v-7.37Z"/><polygon class="cls-3" points="156.09 168.65 152.18 168.65 152.18 167.28 161.68 167.28 161.68 168.65 157.76 168.65 157.76 179.8 156.09 179.8 156.09 168.65"/><polygon class="cls-3" points="169.75 173.93 164.77 173.93 164.77 178.44 170.33 178.44 170.33 179.8 163.11 179.8 163.11 167.28 170.04 167.28 170.04 168.63 164.77 168.63 164.77 172.59 169.75 172.59 169.75 173.93"/><path class="cls-3" d="M187.48,173.41c0,4.31-2.68,6.59-6,6.59s-5.77-2.56-5.77-6.35c0-4,2.53-6.57,6-6.57s5.77,2.62,5.77,6.33m-10,.2c0,2.67,1.49,5.07,4.09,5.07s4.11-2.36,4.11-5.2c0-2.49-1.33-5.09-4.09-5.09s-4.11,2.47-4.11,5.22"/><polygon class="cls-3" points="189.63 167.28 196.54 167.28 196.54 168.63 191.29 168.63 191.29 172.79 196.14 172.79 196.14 174.13 191.29 174.13 191.29 179.79 189.63 179.79 189.63 167.28"/><path class="cls-3" d="M205,175.86l-1.33,3.94H202l4.36-12.52h2l4.38,12.52h-1.77l-1.37-3.94Zm4.21-1.26L208,171c-.29-.82-.48-1.56-.67-2.28h0c-.19.74-.4,1.5-.65,2.27l-1.26,3.62Z"/><polygon class="cls-3" points="221.24 173.93 216.25 173.93 216.25 178.44 221.81 178.44 221.81 179.8 214.59 179.8 214.59 167.28 221.52 167.28 221.52 168.63 216.25 168.63 216.25 172.59 221.24 172.59 221.24 173.93"/><path class="cls-3" d="M224,167.45a17.61,17.61,0,0,1,3.18-.26,5.34,5.34,0,0,1,3.71,1,3.08,3.08,0,0,1,1,2.38,3.3,3.3,0,0,1-2.42,3.19v.06a3.13,3.13,0,0,1,1.89,2.52,19.51,19.51,0,0,0,1,3.44H230.6a15.9,15.9,0,0,1-.86-3c-.38-1.73-1.07-2.38-2.57-2.43h-1.56v5.42H224Zm1.66,5.7h1.69c1.77,0,2.89-.95,2.89-2.38,0-1.62-1.2-2.32-3-2.34a6.94,6.94,0,0,0-1.64.15Z"/><path class="cls-3" d="M245.22,173.41c0,4.31-2.68,6.59-6,6.59s-5.77-2.56-5.77-6.35c0-4,2.53-6.57,6-6.57s5.77,2.62,5.77,6.33m-10,.2c0,2.67,1.49,5.07,4.09,5.07s4.11-2.36,4.11-5.2c0-2.49-1.33-5.09-4.09-5.09s-4.11,2.47-4.11,5.22"/><path class="cls-3" d="M247.38,179.8V167.28h1.81l4.11,6.33a35.15,35.15,0,0,1,2.3,4.07l0,0c-.15-1.67-.19-3.19-.19-5.15v-5.24H257V179.8h-1.67l-4.08-6.35a39.48,39.48,0,0,1-2.4-4.18l-.06,0c.09,1.58.13,3.08.13,5.16v5.35Z"/><path class="cls-3" d="M262,175.86l-1.33,3.94h-1.71l4.36-12.52h2l4.38,12.52H267.9l-1.37-3.94Zm4.21-1.26-1.26-3.6c-.29-.82-.48-1.56-.67-2.28h0c-.19.74-.4,1.5-.65,2.27l-1.26,3.62Z"/><path class="cls-3" d="M272.68,167.28v7.41c0,2.8,1.28,4,3,4,1.9,0,3.12-1.23,3.12-4v-7.41h1.68v7.3c0,3.84-2.08,5.42-4.86,5.42-2.63,0-4.61-1.47-4.61-5.35v-7.37Z"/><polygon class="cls-3" points="285.78 168.65 281.87 168.65 281.87 167.28 291.38 167.28 291.38 168.65 287.45 168.65 287.45 179.8 285.78 179.8 285.78 168.65"/><rect class="cls-3" x="292.8" y="167.28" width="1.66" height="12.52"/><path class="cls-3" d="M306.32,179.39a8.41,8.41,0,0,1-3.39.59c-3.62,0-6.34-2.23-6.34-6.33a6.31,6.31,0,0,1,6.7-6.57,7,7,0,0,1,3,.56l-.4,1.32a6.15,6.15,0,0,0-2.59-.52c-3,0-5,1.88-5,5.16,0,3.06,1.81,5,4.93,5a6.79,6.79,0,0,0,2.7-.52Z"/><path class="cls-3" d="M308.17,177.83a6,6,0,0,0,3,.82c1.69,0,2.68-.87,2.68-2.14s-.69-1.84-2.42-2.49c-2.09-.72-3.39-1.78-3.39-3.55,0-2,1.66-3.4,4.15-3.4a6,6,0,0,1,2.84.61l-.46,1.32a5.2,5.2,0,0,0-2.44-.59c-1.75,0-2.42,1-2.42,1.88,0,1.17.78,1.75,2.55,2.41,2.17.82,3.27,1.84,3.27,3.68S314,180,311,180a6.77,6.77,0,0,1-3.28-.8Z"/><path class="cls-3" d="M323.89,175.86l-1.33,3.94h-1.71l4.36-12.52h2l4.38,12.52h-1.77l-1.37-3.94Zm4.21-1.26-1.26-3.6c-.29-.82-.48-1.56-.67-2.28h0c-.19.74-.4,1.5-.65,2.27l-1.26,3.62Z"/><path class="cls-3" d="M333.47,179.8V167.28h1.81l4.11,6.33a35.3,35.3,0,0,1,2.3,4.07l0,0c-.15-1.67-.19-3.19-.19-5.15v-5.24h1.56V179.8h-1.67l-4.08-6.35a39.67,39.67,0,0,1-2.4-4.18l-.06,0c.09,1.58.13,3.08.13,5.16v5.35Z"/><path class="cls-3" d="M346,167.45a24.21,24.21,0,0,1,3.52-.26c2.38,0,4.07.54,5.2,1.56a5.7,5.7,0,0,1,1.81,4.49,6.53,6.53,0,0,1-1.85,4.87c-1.2,1.17-3.18,1.8-5.67,1.8a27.47,27.47,0,0,1-3-.15Zm1.66,11.07a10.75,10.75,0,0,0,1.68.09c3.54,0,5.46-1.93,5.46-5.31,0-3-1.69-4.83-5.2-4.83a9.57,9.57,0,0,0-1.94.17Z"/><path class="cls-3" d="M364.79,175.86l-1.33,3.94h-1.71l4.36-12.52h2l4.38,12.52h-1.77l-1.37-3.94ZM369,174.6l-1.26-3.6c-.29-.82-.48-1.56-.67-2.28h0c-.19.74-.4,1.5-.65,2.27l-1.26,3.62Z"/><path class="cls-3" d="M374.14,177.83a6,6,0,0,0,3,.82c1.69,0,2.68-.87,2.68-2.14s-.69-1.84-2.42-2.49c-2.09-.72-3.39-1.78-3.39-3.55,0-2,1.66-3.4,4.15-3.4a6,6,0,0,1,2.84.61l-.46,1.32a5.2,5.2,0,0,0-2.44-.59c-1.75,0-2.42,1-2.42,1.88,0,1.17.78,1.75,2.55,2.41,2.17.82,3.27,1.84,3.27,3.68S380,180,377,180a6.77,6.77,0,0,1-3.28-.8Z"/><polygon class="cls-3" points="386.19 168.65 382.28 168.65 382.28 167.28 391.79 167.28 391.79 168.65 387.86 168.65 387.86 179.8 386.19 179.8 386.19 168.65"/><path class="cls-3" d="M393.21,167.45a17.61,17.61,0,0,1,3.18-.26,5.34,5.34,0,0,1,3.71,1,3.09,3.09,0,0,1,1,2.38,3.3,3.3,0,0,1-2.42,3.19v.06a3.13,3.13,0,0,1,1.88,2.52,19.58,19.58,0,0,0,1,3.44h-1.71a16,16,0,0,1-.86-3c-.38-1.73-1.07-2.38-2.57-2.43h-1.56v5.42h-1.66Zm1.66,5.7h1.69c1.77,0,2.89-.95,2.89-2.38,0-1.62-1.2-2.32-3-2.34a6.94,6.94,0,0,0-1.64.15Z"/><path class="cls-3" d="M414.48,173.41c0,4.31-2.68,6.59-6,6.59s-5.77-2.56-5.77-6.35c0-4,2.53-6.57,6-6.57s5.77,2.62,5.77,6.33m-10,.2c0,2.67,1.48,5.07,4.09,5.07s4.11-2.36,4.11-5.2c0-2.49-1.33-5.09-4.09-5.09s-4.11,2.47-4.11,5.22"/><path class="cls-3" d="M416.63,179.8V167.28h1.81l4.11,6.33a35.3,35.3,0,0,1,2.3,4.07l0,0c-.15-1.67-.19-3.19-.19-5.15v-5.24h1.56V179.8h-1.67l-4.08-6.35a39.67,39.67,0,0,1-2.4-4.18l-.06,0c.09,1.58.13,3.08.13,5.16v5.35Z"/><path class="cls-3" d="M431.23,175.86l-1.33,3.94h-1.71l4.36-12.52h2l4.38,12.52h-1.77l-1.37-3.94Zm4.21-1.26-1.26-3.6c-.29-.82-.48-1.56-.67-2.28h0c-.19.74-.4,1.5-.65,2.27l-1.26,3.62Z"/><path class="cls-3" d="M441.93,167.28v7.41c0,2.8,1.28,4,3,4,1.9,0,3.12-1.23,3.12-4v-7.41h1.68v7.3c0,3.84-2.08,5.42-4.86,5.42-2.63,0-4.61-1.47-4.61-5.35v-7.37Z"/><polygon class="cls-3" points="455.03 168.65 451.13 168.65 451.13 167.28 460.63 167.28 460.63 168.65 456.7 168.65 456.7 179.8 455.03 179.8 455.03 168.65"/><rect class="cls-3" x="462.05" y="167.28" width="1.66" height="12.52"/><path class="cls-3" d="M475.57,179.39a8.41,8.41,0,0,1-3.39.59c-3.62,0-6.34-2.23-6.34-6.33a6.31,6.31,0,0,1,6.7-6.57,7,7,0,0,1,3,.56l-.4,1.32a6.15,6.15,0,0,0-2.59-.52c-3,0-5,1.88-5,5.16,0,3.06,1.81,5,4.93,5a6.79,6.79,0,0,0,2.7-.52Z"/><path class="cls-3" d="M477.42,177.83a6,6,0,0,0,3,.82c1.69,0,2.68-.87,2.68-2.14s-.69-1.84-2.42-2.49c-2.09-.72-3.39-1.78-3.39-3.55,0-2,1.66-3.4,4.15-3.4a6,6,0,0,1,2.84.61L483.8,169a5.2,5.2,0,0,0-2.44-.59c-1.75,0-2.42,1-2.42,1.88,0,1.17.78,1.75,2.55,2.41,2.17.82,3.27,1.84,3.27,3.68s-1.47,3.6-4.49,3.6a6.77,6.77,0,0,1-3.28-.8Z"/></g></g></g><g id="AIAA_Seal" data-name="AIAA Seal"><g class="cls-4"><g class="cls-5"><path class="cls-6" d="M741,90.27a76.33,76.33,0,1,1-76.33-76.33A76.33,76.33,0,0,1,741,90.27"/><path class="cls-7" d="M584.39,123.73c3.87-7.62,6.28-7.39,13.24-11.8,28-17.74,58.78-28.55,91-35.46a70,70,0,0,1,8.53-1.27,315.82,315.82,0,0,0-53.89,18.71c-12.1,5.54-23.91,11.64-34.15,20.29a41.71,41.71,0,0,0-7.85,8.66c-3.6,5.44-1.32,11.05,5,13.08,2.26.73,4.65,1,7,1.55q0,.56,0,1.11c-7.78,0-12.65.43-20.41.11"/><path class="cls-7" d="M749.17,81.79c-5.3,10.51-14.79,16.52-25,23.35,2.86-3.48,5.33-5.94,7.15-8.81,4.37-6.88,1.67-12.12-6.47-13-9.09-.93-18,.63-26.66,3-27.48,7.33-53.17,18.59-76.26,35.41a27.45,27.45,0,0,1-5.78,3.72c2.76-2.45,5.37-5.08,8.29-7.32,21.31-16.38,45.41-27.41,70.59-36.21,12.78-4.47,25.8-8.23,39.49-8.73a57.91,57.91,0,0,1,6.45.16c3.42.26,6.35,1.49,8.19,4.61Z"/><path class="cls-7" d="M616.29,131.52a139,139,0,0,1,43.5-22,147.3,147.3,0,0,1,55.58-5.86c2.61.23,3.34,1.14,3.45,3.66,1,22.81-12,43.86-32.37,52.15-21.33,8.7-44.83,3.56-60.05-13.53-3.8-4.27-6.64-9.4-10.11-14.41"/><path class="cls-7" d="M616.34,92.15c6.62-17.52,18.87-29,37.14-33.39,17.18-4.11,32.67-.11,46.3,11.2-30.51-2.62-58.25,4.63-83.44,22.2"/><path class="cls-7" d="M619.34,36.17a.74.74,0,1,1-1-.3.74.74,0,0,1,1,.3"/><path class="cls-7" d="M629.09,43.61a.91.91,0,1,1-1.23-.37.91.91,0,0,1,1.23.37"/><path class="cls-7" d="M649.38,53.45a.91.91,0,1,1-1.23-.37.91.91,0,0,1,1.23.37"/><path class="cls-7" d="M625,52.94a.74.74,0,1,1-1-.3.74.74,0,0,1,1,.3"/><path class="cls-7" d="M633.93,52.9a.74.74,0,1,1-1-.3.74.74,0,0,1,1,.3"/><path class="cls-7" d="M619.31,47.42a.91.91,0,1,1-1.23-.37.91.91,0,0,1,1.23.37"/><path class="cls-7" d="M612.17,59.53a.74.74,0,1,1-1-.3.74.74,0,0,1,1,.3"/><path class="cls-7" d="M614.76,59.81a.74.74,0,1,1-1-.3.74.74,0,0,1,1,.3"/><path class="cls-7" d="M617.35,60.09a.74.74,0,1,1-1-.3.74.74,0,0,1,1,.3"/><path class="cls-7" d="M615.79,64.14a.74.74,0,1,1-1-.3.74.74,0,0,1,1,.3"/><path class="cls-7" d="M606.37,82.79a.74.74,0,1,1-1-.3.74.74,0,0,1,1,.3"/><path class="cls-7" d="M611,84.69a.74.74,0,1,1-1-.3.74.74,0,0,1,1,.3"/><path class="cls-7" d="M637.6,36.68a1.29,1.29,0,0,1,.42-1.27l-.69-1.83,1.26,1.55a1.3,1.3,0,0,1,1.26.42l1.86-.68-1.58,1.24a1.3,1.3,0,0,1-.4,1.24l.65,1.91-1.24-1.61a1.3,1.3,0,0,1-1.23-.4l-1.81.62Z"/><path class="cls-7" d="M613.65,80.39a1.29,1.29,0,0,1,.42-1.27l-.69-1.83,1.26,1.55a1.3,1.3,0,0,1,1.26.42l1.86-.68-1.58,1.24a1.29,1.29,0,0,1-.4,1.24l.65,1.92-1.24-1.61A1.3,1.3,0,0,1,614,81l-1.82.62Z"/><path class="cls-7" d="M715.12,53.06a.91.91,0,1,1,.37-1.23.91.91,0,0,1-.37,1.23"/><path class="cls-7" d="M705.35,73.37a.91.91,0,1,1,.37-1.23.91.91,0,0,1-.37,1.23"/><path class="cls-7" d="M705.77,49a.74.74,0,1,1,.3-1,.74.74,0,0,1-.3,1"/><path class="cls-7" d="M705.84,57.92a.74.74,0,1,1,.3-1,.74.74,0,0,1-.3,1"/><path class="cls-7" d="M711.28,43.29a.91.91,0,1,1,.37-1.23.91.91,0,0,1-.37,1.23"/><path class="cls-7" d="M699.15,36.18a.74.74,0,1,1,.3-1,.74.74,0,0,1-.3,1"/><path class="cls-7" d="M698.88,38.77a.74.74,0,1,1,.3-1,.74.74,0,0,1-.3,1"/><path class="cls-7" d="M698.6,41.37a.74.74,0,1,1,.3-1,.74.74,0,0,1-.3,1"/><path class="cls-7" d="M694.55,39.82a.74.74,0,1,1,.3-1,.74.74,0,0,1-.3,1"/><path class="cls-7" d="M675.87,30.45a.74.74,0,1,1,.3-1,.74.74,0,0,1-.3,1"/><path class="cls-7" d="M674,35.07a.74.74,0,1,1,.3-1,.74.74,0,0,1-.3,1"/><path class="cls-7" d="M722.08,61.54a1.29,1.29,0,0,1,1.27.41l1.83-.69-1.54,1.26a1.3,1.3,0,0,1-.42,1.26l.69,1.86-1.25-1.58a1.3,1.3,0,0,1-1.24-.4l-1.91.65,1.61-1.25a1.3,1.3,0,0,1,.4-1.23L720.88,60Z"/><path class="cls-7" d="M678.29,37.73a1.29,1.29,0,0,1,1.27.41l1.83-.69-1.54,1.26a1.3,1.3,0,0,1-.42,1.26l.69,1.86-1.25-1.58a1.29,1.29,0,0,1-1.24-.4l-1.92.65,1.61-1.25a1.3,1.3,0,0,1,.4-1.23l-.63-1.81Z"/><path class="cls-6" d="M658.06,112.23s2.9,23.61-.28,39.36c-2.25-6.55-4.93-7.8-11.45-6.17-5.3-5.71-7.75-7.34-13.56-4.69-6.22-3.87-6.12-4.89-12.95-1.53-2.45-2.75-4.08-2.85-5.4-2.75s0,5.81,0,5.81,28.32,26.68,39,27.19,33.46-3.29,37.94-5.84,24.87-22.78,25.48-25-3.16-3.07-3.16-3.07-7.65-1.93-10,4.6c-10.19-5.2-14.19,1.33-14.19,5.51-2.38-1.54-4.88-1.8-6.93.86-7.54-5.62-12.19,5.11-12.19,5.11s-2.84-32.37.89-39.37"/><path class="cls-8" d="M664.71,3.22a87,87,0,1,0,87,87,87,87,0,0,0-87-87m0,163.37A76.33,76.33,0,1,1,741,90.27a76.33,76.33,0,0,1-76.33,76.33"/><path class="cls-7" d="M664.71,3.22a87,87,0,1,1-87,87,87,87,0,0,1,87-87m0,163.37a76.33,76.33,0,1,0-76.33-76.33,76.33,76.33,0,0,0,76.33,76.33m0-165.38a89.05,89.05,0,0,0-63,152A89.05,89.05,0,1,0,727.68,27.3a88.47,88.47,0,0,0-63-26.08m0,163.37A74.32,74.32,0,0,1,612.15,37.71,74.32,74.32,0,1,1,717.26,142.82a73.84,73.84,0,0,1-52.55,21.77"/><path class="cls-6" d="M691.32,88.2s-1.18-1.77-7.09-10C671.22,58.06,670,43.29,670,35.61S664.14,22,664.13,22l.13-.21,0,0-.11.12-.17.19a26.7,26.7,0,0,0-3.29,4.74,18.69,18.69,0,0,0-2.45,8.78c0,7.68-1.18,22.46-14.18,42.55-5.91,8.27-7.09,10-7.09,10l-.59,7.09,18.91,5.32v5.91H657v2.36h14.18v-2.36H673v-5.91l18.91-5.32Z"/><path class="cls-7" d="M691.64,88.09l0-.07s-1.25-1.87-7.09-10C675,63.28,670.38,49.42,670.38,35.61c0-6.49-4-11.64-5.5-13.28l-.21-.22-.57-.63h0l-.37.41a26.92,26.92,0,0,0-3.33,4.8,18.79,18.79,0,0,0-2.49,8.94c0,13.82-4.62,27.67-14.12,42.36-5.85,8.18-7.09,10-7.1,10.06l0,.07L636,95.54l18.93,5.32v6h1.77v2.36h14.85v-2.36h1.77v-6L692,95.62l.27-.08Zm-19,12.27v5.83h-1.77v2.36H657.38v-2.36H655.6v-5.83L636.71,95l.56-6.73c.27-.4,1.81-2.65,7-10,9.58-14.81,14.24-28.78,14.24-42.73A18.14,18.14,0,0,1,661,27a26.36,26.36,0,0,1,3.12-4.53c1,1.09,5.62,6.48,5.62,13.15,0,13.95,4.66,27.93,14.25,42.74,5.22,7.31,6.77,9.56,7,10l.56,6.73Z"/><path class="cls-3" d="M689.25,88.94c-.64-.93-2.43-3.5-6.75-9.55l-.05-.08c-9.77-15.11-14.52-29.4-14.52-43.71a15.89,15.89,0,0,0-1.81-7h-4a15.89,15.89,0,0,0-1.81,7c0,14.31-4.75,28.6-14.52,43.71l-.05.08c-4.32,6-6.11,8.62-6.75,9.55l-.4,4.78L657.4,99V55.13l1.77,38.59L657.4,99v5.39h4.46s-2.68,1-2.68,2.36h9.93c0-1.34-2.69-2.36-2.69-2.36h4.46V99l-1.77-5.28,1.77-38.59V99l18.77-5.28ZM660.67,34.49S662,32,664.14,32s3.47,2.52,3.47,2.52c-3.47-3.47-6.94,0-6.94,0"/><polygon class="cls-6" points="664.14 83.44 662.12 98.96 664.14 115.22 666.16 98.96 664.14 83.44"/></g><path class="cls-3" d="M596.3,140.53l4-5.07.94,1.2-1.76,2c-.5.57-1.06,1.18-1.5,1.65h0c.6-.34,1.29-.69,2-1l2.37-1.17.93,1.2-1.78,2c-.5.57-1,1.06-1.46,1.57v0c.61-.36,1.28-.7,2-1.06l2.35-1.19.89,1.14-6,2.61-1-1.22,1.81-2.1c.43-.49.83-.93,1.35-1.44h0c-.63.35-1.17.64-1.76.91l-2.51,1.2Z"/><path class="cls-3" d="M607.32,148.38a3,3,0,0,1-4.55,0,2.94,2.94,0,0,1,.31-4.37,3.06,3.06,0,0,1,4.52,0A3,3,0,0,1,607.32,148.38Zm-3.19-3.27c-.9.85-1.14,1.87-.48,2.56s1.71.48,2.6-.36,1.16-1.84.49-2.56S605,144.28,604.13,145.12Z"/><path class="cls-3" d="M610,146.8a12.49,12.49,0,0,1,1.49,1.19,3.22,3.22,0,0,1,1.17,1.75,1.6,1.6,0,0,1-.46,1.37,1.67,1.67,0,0,1-1.87.39l0,0a1.59,1.59,0,0,1-.17,1.44c-.34.66-.75,1.4-.82,1.66l-1.08-1a7.8,7.8,0,0,1,.67-1.38c.41-.69.35-1-.07-1.44l-.32-.29-1.68,1.83-1-1Zm-.79,3,.41.38c.53.48,1.08.5,1.45.1s.3-.91-.18-1.36a3.43,3.43,0,0,0-.51-.4Z"/><path class="cls-3" d="M613.82,158a4.08,4.08,0,0,1-1.44-.8,3,3,0,0,1-.61-4.53,3.22,3.22,0,0,1,4.79-.47,3.71,3.71,0,0,1,1,1.19l-.94.7a3.08,3.08,0,0,0-.79-.93,2.08,2.08,0,0,0-2.58,3.25,3.57,3.57,0,0,0,1.06.58Z"/><path class="cls-3" d="M619.24,158.75l-1.91-1.33-.86,1.23,2.13,1.49-.67,1-3.3-2.31,3.62-5.18,3.2,2.23-.67,1-2-1.41-.75,1.08,1.91,1.33Z"/><path class="cls-3" d="M619.73,160.51a3.64,3.64,0,0,0,1.15,1.16c.56.34,1,.29,1.21-.06s.07-.68-.44-1.31c-.71-.86-1-1.71-.51-2.5s1.76-1.15,3-.38a3.86,3.86,0,0,1,1.21,1.11l-.87.82a3,3,0,0,0-1-.94c-.53-.32-.93-.24-1.1,0s0,.68.54,1.37c.74.93.88,1.7.42,2.46s-1.72,1.25-3.2.34a4.12,4.12,0,0,1-1.33-1.26Z"/><path class="cls-3" d="M626.91,160.49l-1.5-.79.56-1.06,4.29,2.26L629.7,162l-1.52-.8-2.39,4.52-1.27-.67Z"/><path class="cls-3" d="M632.7,166l-2.12-1-.62,1.37,2.37,1.07-.48,1.07-3.67-1.65,2.59-5.76,3.55,1.6-.48,1.07-2.25-1-.54,1.2,2.12,1Z"/><path class="cls-3" d="M635.13,163.16a12.49,12.49,0,0,1,1.83.54,3.22,3.22,0,0,1,1.74,1.18,1.61,1.61,0,0,1,.08,1.44,1.67,1.67,0,0,1-1.59,1.07v0a1.59,1.59,0,0,1,.38,1.4c-.07.74-.17,1.58-.14,1.85l-1.37-.51a7.94,7.94,0,0,1,.1-1.53c.12-.8-.06-1.09-.6-1.31l-.4-.15-.87,2.33-1.33-.5Zm.37,3,.53.2c.67.25,1.19.06,1.38-.45s-.06-1-.67-1.19a3.51,3.51,0,0,0-.62-.18Z"/><path class="cls-3" d="M641.88,165.55a11.92,11.92,0,0,1,1.9.38,3,3,0,0,1,1.73,1,1.85,1.85,0,0,1,.26,1.59,2,2,0,0,1-1,1.29,2.93,2.93,0,0,1-2.15.1,3.69,3.69,0,0,1-.46-.16l-.6,2.18-1.36-.37Zm.61,3.14a2.19,2.19,0,0,0,.45.16c.73.2,1.29,0,1.46-.67s-.15-1-.83-1.19a2.45,2.45,0,0,0-.58-.1Z"/><path class="cls-3" d="M652,171a3,3,0,0,1-3.68,2.67,2.94,2.94,0,0,1-2.3-3.72,3.06,3.06,0,0,1,3.65-2.66A2.94,2.94,0,0,1,652,171Zm-4.5-.79c-.24,1.21.17,2.18,1.11,2.36s1.67-.61,1.9-1.82-.13-2.17-1.1-2.36S647.77,169,647.54,170.18Z"/><path class="cls-3" d="M653.34,168l1.42.17-.62,5.08,2.49.3-.15,1.19-3.92-.48Z"/><path class="cls-3" d="M658.11,174.86l.18-2.58-1.74-3.86,1.63.11.54,1.56c.17.47.27.82.4,1.24h0c.17-.38.34-.74.56-1.17l.74-1.47,1.6.11-2.33,3.53-.18,2.63Z"/><path class="cls-3" d="M663.76,170l-1.7,0,0-1.2,4.85.08,0,1.2-1.72,0-.08,5.12-1.43,0Z"/><path class="cls-3" d="M671.43,172.19l-2.32.13.09,1.5,2.59-.15.07,1.17-4,.23-.37-6.3,3.89-.23.07,1.17-2.46.14.08,1.31,2.32-.13Z"/><path class="cls-3" d="M677.62,174a4.09,4.09,0,0,1-1.58.47,3,3,0,0,1-3.67-2.73,3.22,3.22,0,0,1,3-3.75,3.73,3.73,0,0,1,1.58.09l-.15,1.16a3.08,3.08,0,0,0-1.22-.08,2.08,2.08,0,0,0,.52,4.12,3.52,3.52,0,0,0,1.16-.35Z"/><path class="cls-3" d="M679,167.52l.47,2.38,2.31-.46-.47-2.38,1.4-.28,1.23,6.19-1.4.28-.52-2.59-2.31.46.52,2.59-1.41.28-1.23-6.19Z"/><path class="cls-3" d="M685.37,172.62l-1.72-6.08,1.6-.46,1.89,1.87a18.38,18.38,0,0,1,1.58,1.8h0a23.13,23.13,0,0,1-.83-2.5l-.5-1.78,1.26-.36,1.72,6.08-1.44.41-2-2a23.5,23.5,0,0,1-1.66-1.85l0,0c.26.79.52,1.64.81,2.63l.52,1.83Z"/><path class="cls-3" d="M691,164.28l2.06,6-1.36.47-2.06-6Z"/><path class="cls-3" d="M698.64,167.9a4.1,4.1,0,0,1-1.4.86,3,3,0,0,1-4.25-1.69,3.22,3.22,0,0,1,1.94-4.4,3.76,3.76,0,0,1,1.55-.32l.15,1.16a3.09,3.09,0,0,0-1.2.23,2.08,2.08,0,0,0,1.56,3.85,3.6,3.6,0,0,0,1-.64Z"/><path class="cls-3" d="M700,160.45l2.79,5.67-1.29.63-2.79-5.67Z"/><path class="cls-3" d="M704.05,165.5,701,160l1.45-.82,2.28,1.37a18.49,18.49,0,0,1,2,1.38h0a23.37,23.37,0,0,1-1.4-2.23l-.91-1.61,1.14-.64,3.1,5.5-1.31.74-2.37-1.46a23.45,23.45,0,0,1-2.05-1.41l0,0c.44.71.89,1.47,1.4,2.37l.93,1.66Z"/><path class="cls-3" d="M709.08,160.89a3.65,3.65,0,0,0,1.54-.55c.55-.36.69-.78.46-1.12s-.59-.35-1.37-.16c-1.08.27-2,.17-2.47-.6s-.3-2.08.94-2.9a3.88,3.88,0,0,1,1.52-.62l.37,1.14a3,3,0,0,0-1.27.48c-.52.34-.61.74-.43,1s.62.29,1.47.1c1.16-.27,1.91-.08,2.41.67s.4,2.08-1,3a4.16,4.16,0,0,1-1.71.67Z"/><path class="cls-3" d="M712.1,154.39l-1.35,1-.72-1,3.87-2.92.72,1-1.37,1,3.08,4.08-1.14.86Z"/><path class="cls-3" d="M715.45,150.21l4,4.85-1.1.92-4-4.85Z"/><path class="cls-3" d="M718,149.58l-1.25,1.14-.81-.88,3.58-3.28.81.88-1.27,1.16,3.46,3.77-1.06,1Z"/><path class="cls-3" d="M720.89,145.15l2.64,2.5c.79.75,1.47.83,2,.3s.42-1.2-.39-2l-2.64-2.5,1-1,2.57,2.44c1.41,1.34,1.41,2.69.27,3.89s-2.38,1.23-3.84-.16l-2.55-2.42Z"/><path class="cls-3" d="M725.82,141.49l-1.08,1.31-.93-.76,3.08-3.75.93.76-1.1,1.33,3.95,3.25-.91,1.11Z"/><path class="cls-3" d="M732.39,136.92,731,138.81l1.21.88,1.52-2.1.95.69-2.36,3.26-5.11-3.71,2.29-3.16.95.69-1.45,2,1.06.77,1.36-1.88Z"/><path class="cls-3" d="M584.57,88.47l1.61.5-.05,1.48-6.25-2.14.06-1.87,6.38-1.74-.05,1.54-1.64.43Zm-1-1.64-1.35.35c-.38.1-.85.2-1.23.28v0c.37.11.84.22,1.21.33l1.33.42Z"/><path class="cls-3" d="M584.58,78.53c-.76-.06-1.67-.14-2.58-.25v0c.78.29,1.64.66,2.34,1l2.35,1.06-.13,1.11-2.51.38c-.76.12-1.68.22-2.51.27v0c.84.14,1.81.28,2.58.42l2.37.4-.16,1.31-6.22-1.15.23-1.89,2.17-.36c.75-.11,1.55-.21,2.31-.26v0c-.7-.26-1.51-.58-2.18-.87l-2-.92.22-1.85,6.31.41L587,78.73Z"/><path class="cls-3" d="M585.48,72.3,585,74.58l1.47.3.51-2.54,1.15.23-.8,3.95-6.19-1.25.77-3.82,1.15.23-.49,2.42,1.29.26.46-2.28Z"/><path class="cls-3" d="M582.32,70.17a12.6,12.6,0,0,1,.37-1.87,3.23,3.23,0,0,1,1-1.84,1.6,1.6,0,0,1,1.43-.22,1.68,1.68,0,0,1,1.21,1.48h0a1.59,1.59,0,0,1,1.36-.51c.74,0,1.59,0,1.85,0l-.38,1.41a7.83,7.83,0,0,1-1.53,0c-.8,0-1.08.16-1.24.72l-.11.42,2.4.65-.37,1.37Zm3-.66.15-.54c.19-.69,0-1.19-.58-1.33s-.94.15-1.12.78a3.48,3.48,0,0,0-.12.64Z"/><path class="cls-3" d="M584.24,63.29l6,2-.44,1.36-6-2Z"/><path class="cls-3" d="M592.06,59.83a4.05,4.05,0,0,1-.33,1.61,3,3,0,0,1-4.13,2A3.22,3.22,0,0,1,585.7,59a3.75,3.75,0,0,1,.82-1.35l1,.68a3.06,3.06,0,0,0-.65,1,2.08,2.08,0,0,0,3.88,1.48,3.58,3.58,0,0,0,.23-1.19Z"/><path class="cls-3" d="M591.7,57.13l1.28,1.1-.63,1.34-4.9-4.43.8-1.7,6.55.91-.65,1.39-1.67-.25Zm-.28-1.9L590,55c-.39-.06-.86-.16-1.24-.23v0c.3.24.69.53,1,.78l1.05.91Z"/><path class="cls-3" d="M595.08,53.82l-5.49-3.12.82-1.45h2.66a18.42,18.42,0,0,1,2.39.17v0a23.51,23.51,0,0,1-2.35-1.19l-1.61-.91.65-1.14,5.49,3.12-.74,1.3-2.78,0a23.49,23.49,0,0,1-2.48-.15v0c.74.38,1.53.8,2.42,1.31l1.65.94Z"/><path class="cls-3" d="M594.83,42.13l5.23,3.54-.8,1.19L594,43.32Z"/><path class="cls-3" d="M600.64,44.78l-5-3.83,1-1.33,2.63.36a18.39,18.39,0,0,1,2.35.49l0,0a23.54,23.54,0,0,1-2.17-1.5L598,37.83l.79-1,5,3.83-.91,1.19-2.75-.4a23.23,23.23,0,0,1-2.44-.48v0c.69.48,1.41,1,2.22,1.63l1.51,1.15Z"/><path class="cls-3" d="M603.4,38.84a3.66,3.66,0,0,0,1.34-.93c.43-.49.46-.93.15-1.21s-.66-.18-1.37.21c-1,.55-1.86.68-2.54.07s-.83-1.93.15-3.05a3.88,3.88,0,0,1,1.3-1l.66,1a3,3,0,0,0-1.1.79c-.41.46-.4.88-.15,1.09s.67.12,1.44-.29c1-.56,1.83-.57,2.5,0s.93,1.91-.21,3.21a4.13,4.13,0,0,1-1.47,1.09Z"/><path class="cls-3" d="M604.95,31.74l-1.2,1.2-.85-.85,3.43-3.44.85.85L606,30.72l3.62,3.61-1,1Z"/><path class="cls-3" d="M608.07,27.09l4.26,4.67-1.06,1L607,28.06Z"/><path class="cls-3" d="M610.79,26.31l-1.31,1.08-.77-.92,3.74-3.1.77.92-1.33,1.1,3.26,3.94-1.1.91Z"/><path class="cls-3" d="M614.39,21.94l2.12,3c.63.88,1.29,1.09,1.88.67s.64-1.1,0-2l-2.12-3,1.16-.83,2.06,2.88c1.14,1.58.88,2.91-.46,3.87s-2.57.76-3.74-.88l-2.05-2.86Z"/><path class="cls-3" d="M620.32,19.36l-1.44.89-.63-1,4.13-2.54.63,1-1.47.9L624.22,23l-1.22.75Z"/><path class="cls-3" d="M628.25,17.67l-2.05,1.09.7,1.32,2.29-1.22.55,1-3.56,1.89-3-5.57,3.44-1.83.55,1L625,16.58l.62,1.16,2.05-1.09Z"/><path class="cls-3" d="M636.17,13.58a3,3,0,0,1-1.59,4.26,2.94,2.94,0,0,1-4-1.83,3.06,3.06,0,0,1,1.57-4.23A2.94,2.94,0,0,1,636.17,13.58ZM632,15.4c.47,1.14,1.35,1.72,2.23,1.36s1-1.43.58-2.56-1.31-1.74-2.22-1.36S631.51,14.27,632,15.4Z"/><path class="cls-3" d="M636.1,10.35l3.66-1.22.37,1.11-2.3.77.46,1.37,2.15-.72.37,1.1-2.15.72.8,2.41-1.36.45Z"/><path class="cls-3" d="M645.39,12.45l-.07,1.68-1.44.34.44-6.59,1.82-.43,3.35,5.7-1.5.35L647.15,12Zm1.32-1.4L646,9.83c-.2-.34-.41-.77-.59-1.11h0c0,.39,0,.87,0,1.25l-.06,1.39Z"/><path class="cls-3" d="M653.39,9.83l-2.29.37.24,1.48,2.56-.42.19,1.16-4,.65-1-6.23,3.85-.63.19,1.16-2.43.4.21,1.29,2.29-.37Z"/><path class="cls-3" d="M654.26,6.12a12.47,12.47,0,0,1,1.88-.31,3.23,3.23,0,0,1,2.08.3,1.6,1.6,0,0,1,.71,1.26A1.68,1.68,0,0,1,658,9V9a1.6,1.6,0,0,1,1,1.09c.26.69.54,1.49.68,1.72l-1.45.14a7.78,7.78,0,0,1-.58-1.42c-.24-.77-.54-1-1.11-.91l-.43,0,.24,2.47-1.41.14Zm1.67,2.57.56-.05c.71-.07,1.09-.46,1-1s-.48-.83-1.13-.78a3.6,3.6,0,0,0-.64.11Z"/><path class="cls-3" d="M665.83,8.47a3,3,0,0,1-3,3.4,2.94,2.94,0,0,1-3-3.14,3.06,3.06,0,0,1,3-3.38A2.94,2.94,0,0,1,665.83,8.47Zm-4.56.19c0,1.24.63,2.09,1.59,2.07s1.5-1,1.47-2.18-.59-2.1-1.58-2.07S661.25,7.43,661.27,8.66Z"/><path class="cls-3" d="M666.59,11.72l.36-6.3,1.67.09,1.18,2.38a17.92,17.92,0,0,1,.91,2.22h0a23.72,23.72,0,0,1,0-2.63l.1-1.84,1.31.07-.36,6.3-1.5-.08-1.21-2.51a23.44,23.44,0,0,1-1-2.29h0c0,.83,0,1.72-.1,2.75l-.11,1.9Z"/><path class="cls-3" d="M674.49,10.7l-.66,1.55-1.47-.2,2.75-6L677,6.3l1.1,6.52-1.52-.2-.27-1.67Zm1.73-.85L676,8.48c-.06-.39-.11-.87-.15-1.25h0c-.14.36-.3.82-.45,1.17l-.55,1.28Z"/><path class="cls-3" d="M681,7l-.74,3.56c-.22,1.06.07,1.69.78,1.84s1.24-.28,1.47-1.37l.74-3.56,1.4.29L684,11.22c-.4,1.91-1.55,2.61-3.17,2.28s-2.29-1.38-1.88-3.35l.72-3.45Z"/><path class="cls-3" d="M686.95,9.61l-1.63-.46L685.64,8l4.67,1.33L690,10.47,688.33,10l-1.4,4.92-1.38-.39Z"/><path class="cls-3" d="M692.54,10.09l-2,6-1.36-.46,2-6Z"/><path class="cls-3" d="M695.92,17.95a4.08,4.08,0,0,1-1.61-.34,3,3,0,0,1-1.92-4.15,3.22,3.22,0,0,1,4.44-1.85,3.72,3.72,0,0,1,1.34.83l-.69.95a3.08,3.08,0,0,0-1-.66,1.9,1.9,0,0,0-2.64,1.2,1.89,1.89,0,0,0,1.12,2.66,3.54,3.54,0,0,0,1.18.25Z"/><path class="cls-3" d="M697.18,17.11a3.64,3.64,0,0,0,1.26,1c.59.28,1,.18,1.2-.19s0-.69-.58-1.26c-.79-.78-1.16-1.6-.77-2.43s1.63-1.33,3-.7a3.87,3.87,0,0,1,1.32,1l-.78.91a3,3,0,0,0-1.06-.84c-.56-.26-1-.14-1.09.16s.07.68.68,1.31c.83.85,1.06,1.6.68,2.4-.45,1-1.57,1.42-3.14.68a4.13,4.13,0,0,1-1.45-1.11Z"/><path class="cls-3" d="M704.59,20.72l-1.21,1.17-1.27-.75L707,16.68l1.61,1-1.53,6.43-1.32-.78.41-1.64Zm1.92-.1.34-1.35c.09-.38.24-.84.35-1.21h0c-.27.27-.6.64-.87.9l-1,1Z"/><path class="cls-3" d="M707.56,24.4l3.62-5.17,1.37,1-.25,2.65a18.13,18.13,0,0,1-.4,2.36l0,0A23.6,23.6,0,0,1,713.33,23l1.06-1.51,1.07.75-3.62,5.17-1.23-.86.29-2.77a23.07,23.07,0,0,1,.38-2.46h0c-.45.7-.94,1.44-1.53,2.29l-1.09,1.56Z"/><path class="cls-3" d="M716.61,23.2a12.79,12.79,0,0,1,1.57,1.13,4.06,4.06,0,0,1,1.56,2.17,2.79,2.79,0,0,1-.69,2.52,3.21,3.21,0,0,1-2.44,1.3,4.54,4.54,0,0,1-2.77-1.23,12.18,12.18,0,0,1-1.19-1.1Zm-2.18,4.89a2.65,2.65,0,0,0,.37.34,2,2,0,0,0,3.05-.34,1.81,1.81,0,0,0-.25-2.81,2.93,2.93,0,0,0-.53-.37Z"/><path class="cls-3" d="M721,33.18l-1.47.82-1-1.05,5.84-3.07,1.32,1.33L722.52,37,721.44,36l.81-1.49Zm1.89.39.67-1.22c.19-.34.44-.75.64-1.08h0c-.33.2-.74.47-1.07.65l-1.22.68Z"/><path class="cls-3" d="M724.07,36.6a3.65,3.65,0,0,0,.74,1.46c.43.5.86.58,1.17.31s.27-.63,0-1.38c-.41-1-.42-1.93.28-2.53s2-.56,3,.56a3.87,3.87,0,0,1,.81,1.43L729,37a3,3,0,0,0-.64-1.19c-.4-.47-.81-.51-1.06-.3s-.21.65.09,1.47c.42,1.11.32,1.89-.35,2.47s-2,.66-3.15-.65a4.14,4.14,0,0,1-.88-1.61Z"/><path class="cls-3" d="M730.89,39.11l-1-1.35,1-.73,2.94,3.86-1,.73-1-1.37-4.07,3.1-.87-1.14Z"/><path class="cls-3" d="M734.24,41.74a12.55,12.55,0,0,1,1.16,1.51,3.22,3.22,0,0,1,.71,2,1.6,1.6,0,0,1-.78,1.21,1.67,1.67,0,0,1-1.91-.07l0,0a1.6,1.6,0,0,1-.52,1.35c-.49.56-1.06,1.18-1.2,1.41l-.81-1.22a7.86,7.86,0,0,1,1-1.18c.56-.57.59-.92.28-1.41l-.24-.36-2.07,1.37L729,45.17Zm-1.48,2.68.31.47c.39.59.92.75,1.38.44s.51-.81.16-1.36a3.53,3.53,0,0,0-.4-.51Z"/><path class="cls-3" d="M737.58,53.06A3,3,0,0,1,733.17,52a2.94,2.94,0,0,1,1.35-4.16,3.06,3.06,0,0,1,4.39,1.07A2.94,2.94,0,0,1,737.58,53.06Zm-2.3-3.94c-1.08.6-1.56,1.54-1.09,2.37s1.54.88,2.61.28,1.57-1.5,1.09-2.36S736.35,48.52,735.28,49.12Z"/><path class="cls-3" d="M735.07,55.26l5.74-2.63.69,1.52-1.56,2.15a17.85,17.85,0,0,1-1.54,1.84v0A23.37,23.37,0,0,1,740.76,57l1.68-.77.55,1.19L737.25,60l-.62-1.36,1.65-2.24a23.4,23.4,0,0,1,1.57-1.92l0,0c-.74.38-1.54.77-2.48,1.2l-1.73.79Z"/><path class="cls-3" d="M739.64,61.75l-1.68.14-.51-1.39,6.59-.36.65,1.76-5.25,4-.53-1.44,1.35-1Zm1.55,1.14,1.12-.83c.31-.23.71-.5,1-.72v0c-.38,0-.87.12-1.24.15l-1.39.11Z"/><path class="cls-3" d="M746,65.84l-3.5,1c-1,.3-1.46.85-1.26,1.55s.82,1,1.9.67l3.5-1,.39,1.37-3.41,1c-1.87.53-3-.16-3.49-1.74s.15-2.67,2.09-3.23l3.39-1Z"/><path class="cls-3" d="M746.42,72.28l-.35-1.66,1.17-.25,1,4.75-1.17.25-.35-1.69-5,1.05-.29-1.4Z"/><path class="cls-3" d="M748.59,77.45l-6.24,1L742.13,77l6.24-1Z"/><path class="cls-3" d="M743.21,84.1a4.08,4.08,0,0,1-.45-1.58,3,3,0,0,1,2.78-3.63,3.22,3.22,0,0,1,3.71,3.06,3.74,3.74,0,0,1-.11,1.58L748,83.36a3.06,3.06,0,0,0,.1-1.22,2.08,2.08,0,0,0-4.12.46,3.56,3.56,0,0,0,.33,1.16Z"/><path class="cls-3" d="M744.55,84.84a3.67,3.67,0,0,0-.32,1.6c0,.66.32,1,.73,1s.6-.33.84-1.1c.32-1.06.87-1.77,1.79-1.81,1.08,0,1.94.82,2,2.3a3.88,3.88,0,0,1-.25,1.62l-1.17-.27a3,3,0,0,0,.24-1.33c0-.62-.32-.9-.65-.89s-.57.38-.84,1.21c-.36,1.13-.92,1.68-1.81,1.72-1.06,0-2-.73-2.07-2.46a4.14,4.14,0,0,1,.31-1.8Z"/></g></g></svg>